G04 Layer_Color=16711935*
%FSLAX25Y25*%
%MOIN*%
G70*
G01*
G75*
%ADD12C,0.01000*%
%ADD42C,0.00500*%
%ADD75C,0.00394*%
%ADD78C,0.00079*%
G36*
X75825Y-11800D02*
X75297D01*
X73288Y-8786D01*
Y-11800D01*
X72800D01*
Y-7959D01*
X73322D01*
X75336Y-10979D01*
Y-7959D01*
X75825D01*
Y-11800D01*
D02*
G37*
G36*
X83012Y-8415D02*
X81747D01*
Y-11800D01*
X81236D01*
Y-8415D01*
X79971D01*
Y-7959D01*
X83012D01*
Y-8415D01*
D02*
G37*
G36*
X86564Y-11800D02*
X86053D01*
Y-9991D01*
X84066D01*
Y-11800D01*
X83556D01*
Y-7959D01*
X84066D01*
Y-9536D01*
X86053D01*
Y-7959D01*
X86564D01*
Y-11800D01*
D02*
G37*
G36*
X-74688Y-8015D02*
X-75953D01*
Y-11400D01*
X-76464D01*
Y-8015D01*
X-77729D01*
Y-7559D01*
X-74688D01*
Y-8015D01*
D02*
G37*
G36*
X-79361Y-7565D02*
X-79267Y-7570D01*
X-79167Y-7576D01*
X-79072Y-7587D01*
X-78989Y-7598D01*
X-78978D01*
X-78939Y-7609D01*
X-78889Y-7620D01*
X-78823Y-7637D01*
X-78751Y-7665D01*
X-78673Y-7698D01*
X-78590Y-7737D01*
X-78518Y-7781D01*
X-78506Y-7787D01*
X-78484Y-7804D01*
X-78451Y-7837D01*
X-78407Y-7876D01*
X-78357Y-7926D01*
X-78307Y-7992D01*
X-78251Y-8064D01*
X-78207Y-8148D01*
X-78201Y-8159D01*
X-78190Y-8186D01*
X-78168Y-8236D01*
X-78146Y-8303D01*
X-78129Y-8381D01*
X-78107Y-8470D01*
X-78096Y-8569D01*
X-78090Y-8675D01*
Y-8681D01*
Y-8697D01*
Y-8719D01*
X-78096Y-8758D01*
X-78101Y-8797D01*
X-78107Y-8847D01*
X-78118Y-8902D01*
X-78129Y-8963D01*
X-78168Y-9091D01*
X-78190Y-9158D01*
X-78223Y-9230D01*
X-78262Y-9302D01*
X-78301Y-9369D01*
X-78351Y-9435D01*
X-78407Y-9502D01*
X-78412Y-9507D01*
X-78423Y-9519D01*
X-78440Y-9535D01*
X-78468Y-9552D01*
X-78501Y-9580D01*
X-78545Y-9607D01*
X-78601Y-9641D01*
X-78662Y-9668D01*
X-78734Y-9702D01*
X-78817Y-9735D01*
X-78906Y-9763D01*
X-79011Y-9785D01*
X-79123Y-9807D01*
X-79245Y-9824D01*
X-79383Y-9835D01*
X-79528Y-9840D01*
X-80510D01*
Y-11400D01*
X-81021D01*
Y-7559D01*
X-79444D01*
X-79361Y-7565D01*
D02*
G37*
G36*
X239612Y-7514D02*
X238347D01*
Y-10900D01*
X237836D01*
Y-7514D01*
X236571D01*
Y-7059D01*
X239612D01*
Y-7514D01*
D02*
G37*
G36*
X234939Y-7065D02*
X235033Y-7070D01*
X235133Y-7076D01*
X235227Y-7087D01*
X235311Y-7098D01*
X235322D01*
X235361Y-7109D01*
X235411Y-7120D01*
X235477Y-7137D01*
X235549Y-7165D01*
X235627Y-7198D01*
X235710Y-7237D01*
X235783Y-7281D01*
X235794Y-7287D01*
X235816Y-7304D01*
X235849Y-7337D01*
X235894Y-7376D01*
X235943Y-7426D01*
X235993Y-7492D01*
X236049Y-7564D01*
X236093Y-7648D01*
X236099Y-7659D01*
X236110Y-7687D01*
X236132Y-7737D01*
X236154Y-7803D01*
X236171Y-7881D01*
X236193Y-7970D01*
X236204Y-8070D01*
X236210Y-8175D01*
Y-8180D01*
Y-8197D01*
Y-8219D01*
X236204Y-8258D01*
X236199Y-8297D01*
X236193Y-8347D01*
X236182Y-8403D01*
X236171Y-8463D01*
X236132Y-8591D01*
X236110Y-8658D01*
X236077Y-8730D01*
X236038Y-8802D01*
X235999Y-8869D01*
X235949Y-8935D01*
X235894Y-9002D01*
X235888Y-9008D01*
X235877Y-9019D01*
X235860Y-9035D01*
X235833Y-9052D01*
X235799Y-9080D01*
X235755Y-9107D01*
X235699Y-9141D01*
X235638Y-9168D01*
X235566Y-9202D01*
X235483Y-9235D01*
X235394Y-9263D01*
X235289Y-9285D01*
X235178Y-9307D01*
X235055Y-9324D01*
X234917Y-9335D01*
X234772Y-9340D01*
X233790D01*
Y-10900D01*
X233279D01*
Y-7059D01*
X234856D01*
X234939Y-7065D01*
D02*
G37*
G36*
X232425Y-10900D02*
X231897D01*
X229888Y-7886D01*
Y-10900D01*
X229400D01*
Y-7059D01*
X229922D01*
X231936Y-10079D01*
Y-7059D01*
X232425D01*
Y-10900D01*
D02*
G37*
G36*
X78339Y-7965D02*
X78433Y-7970D01*
X78533Y-7976D01*
X78628Y-7987D01*
X78711Y-7998D01*
X78722D01*
X78761Y-8009D01*
X78811Y-8020D01*
X78877Y-8037D01*
X78949Y-8065D01*
X79027Y-8098D01*
X79110Y-8137D01*
X79182Y-8181D01*
X79194Y-8187D01*
X79216Y-8204D01*
X79249Y-8237D01*
X79294Y-8276D01*
X79343Y-8326D01*
X79393Y-8392D01*
X79449Y-8464D01*
X79493Y-8548D01*
X79499Y-8559D01*
X79510Y-8586D01*
X79532Y-8636D01*
X79554Y-8703D01*
X79571Y-8781D01*
X79593Y-8870D01*
X79604Y-8969D01*
X79610Y-9075D01*
Y-9081D01*
Y-9097D01*
Y-9119D01*
X79604Y-9158D01*
X79599Y-9197D01*
X79593Y-9247D01*
X79582Y-9302D01*
X79571Y-9364D01*
X79532Y-9491D01*
X79510Y-9558D01*
X79477Y-9630D01*
X79438Y-9702D01*
X79399Y-9769D01*
X79349Y-9835D01*
X79294Y-9902D01*
X79288Y-9907D01*
X79277Y-9919D01*
X79260Y-9935D01*
X79232Y-9952D01*
X79199Y-9980D01*
X79155Y-10007D01*
X79099Y-10041D01*
X79038Y-10068D01*
X78966Y-10102D01*
X78883Y-10135D01*
X78794Y-10163D01*
X78689Y-10185D01*
X78578Y-10207D01*
X78455Y-10224D01*
X78317Y-10235D01*
X78172Y-10240D01*
X77190D01*
Y-11800D01*
X76679D01*
Y-7959D01*
X78256D01*
X78339Y-7965D01*
D02*
G37*
G36*
X243164Y-10900D02*
X242653D01*
Y-9091D01*
X240667D01*
Y-10900D01*
X240156D01*
Y-7059D01*
X240667D01*
Y-8636D01*
X242653D01*
Y-7059D01*
X243164D01*
Y-10900D01*
D02*
G37*
G36*
X-240775Y-10100D02*
X-241302D01*
X-243312Y-7086D01*
Y-10100D01*
X-243800D01*
Y-6259D01*
X-243278D01*
X-241264Y-9279D01*
Y-6259D01*
X-240775D01*
Y-10100D01*
D02*
G37*
G36*
X-233588Y-6714D02*
X-234853D01*
Y-10100D01*
X-235364D01*
Y-6714D01*
X-236629D01*
Y-6259D01*
X-233588D01*
Y-6714D01*
D02*
G37*
G36*
X-230036Y-10100D02*
X-230547D01*
Y-8291D01*
X-232534D01*
Y-10100D01*
X-233044D01*
Y-6259D01*
X-232534D01*
Y-7836D01*
X-230547D01*
Y-6259D01*
X-230036D01*
Y-10100D01*
D02*
G37*
G36*
X295276Y78740D02*
X285433Y77101D01*
Y80379D01*
X295276Y78740D01*
D02*
G37*
G36*
X-285433Y77101D02*
X-295276Y78740D01*
X-285433Y80379D01*
Y77101D01*
D02*
G37*
G36*
X-71136Y-11400D02*
X-71647D01*
Y-9591D01*
X-73633D01*
Y-11400D01*
X-74144D01*
Y-7559D01*
X-73633D01*
Y-9136D01*
X-71647D01*
Y-7559D01*
X-71136D01*
Y-11400D01*
D02*
G37*
G36*
X-81875D02*
X-82402D01*
X-84412Y-8386D01*
Y-11400D01*
X-84900D01*
Y-7559D01*
X-84378D01*
X-82364Y-10579D01*
Y-7559D01*
X-81875D01*
Y-11400D01*
D02*
G37*
G36*
X-238261Y-6265D02*
X-238167Y-6271D01*
X-238067Y-6276D01*
X-237972Y-6287D01*
X-237889Y-6298D01*
X-237878D01*
X-237839Y-6309D01*
X-237789Y-6320D01*
X-237723Y-6337D01*
X-237651Y-6365D01*
X-237573Y-6398D01*
X-237490Y-6437D01*
X-237418Y-6481D01*
X-237406Y-6487D01*
X-237384Y-6504D01*
X-237351Y-6537D01*
X-237306Y-6576D01*
X-237257Y-6626D01*
X-237207Y-6692D01*
X-237151Y-6764D01*
X-237107Y-6848D01*
X-237101Y-6859D01*
X-237090Y-6887D01*
X-237068Y-6937D01*
X-237046Y-7003D01*
X-237029Y-7081D01*
X-237007Y-7170D01*
X-236996Y-7270D01*
X-236990Y-7375D01*
Y-7380D01*
Y-7397D01*
Y-7419D01*
X-236996Y-7458D01*
X-237001Y-7497D01*
X-237007Y-7547D01*
X-237018Y-7603D01*
X-237029Y-7664D01*
X-237068Y-7791D01*
X-237090Y-7858D01*
X-237123Y-7930D01*
X-237162Y-8002D01*
X-237201Y-8069D01*
X-237251Y-8135D01*
X-237306Y-8202D01*
X-237312Y-8207D01*
X-237323Y-8219D01*
X-237340Y-8235D01*
X-237368Y-8252D01*
X-237401Y-8280D01*
X-237445Y-8307D01*
X-237501Y-8341D01*
X-237562Y-8368D01*
X-237634Y-8402D01*
X-237717Y-8435D01*
X-237806Y-8463D01*
X-237912Y-8485D01*
X-238022Y-8507D01*
X-238144Y-8524D01*
X-238283Y-8535D01*
X-238428Y-8540D01*
X-239410D01*
Y-10100D01*
X-239921D01*
Y-6259D01*
X-238344D01*
X-238261Y-6265D01*
D02*
G37*
%LPC*%
G36*
X-79411Y-8015D02*
X-80510D01*
Y-9385D01*
X-79478D01*
X-79439Y-9380D01*
X-79400D01*
X-79356Y-9374D01*
X-79250Y-9363D01*
X-79134Y-9341D01*
X-79017Y-9308D01*
X-78912Y-9263D01*
X-78862Y-9235D01*
X-78823Y-9202D01*
X-78812Y-9191D01*
X-78789Y-9169D01*
X-78756Y-9125D01*
X-78717Y-9069D01*
X-78678Y-8997D01*
X-78645Y-8908D01*
X-78623Y-8808D01*
X-78612Y-8692D01*
Y-8686D01*
Y-8681D01*
Y-8653D01*
X-78617Y-8603D01*
X-78628Y-8547D01*
X-78640Y-8486D01*
X-78662Y-8414D01*
X-78695Y-8348D01*
X-78734Y-8281D01*
X-78740Y-8275D01*
X-78756Y-8253D01*
X-78784Y-8225D01*
X-78817Y-8186D01*
X-78867Y-8148D01*
X-78923Y-8114D01*
X-78984Y-8081D01*
X-79056Y-8053D01*
X-79061D01*
X-79084Y-8048D01*
X-79117Y-8042D01*
X-79161Y-8031D01*
X-79228Y-8026D01*
X-79311Y-8020D01*
X-79411Y-8015D01*
D02*
G37*
G36*
X234889Y-7514D02*
X233790D01*
Y-8885D01*
X234822D01*
X234861Y-8880D01*
X234900D01*
X234945Y-8874D01*
X235050Y-8863D01*
X235166Y-8841D01*
X235283Y-8808D01*
X235388Y-8763D01*
X235438Y-8736D01*
X235477Y-8702D01*
X235488Y-8691D01*
X235511Y-8669D01*
X235544Y-8625D01*
X235583Y-8569D01*
X235622Y-8497D01*
X235655Y-8408D01*
X235677Y-8308D01*
X235688Y-8192D01*
Y-8186D01*
Y-8180D01*
Y-8153D01*
X235683Y-8103D01*
X235671Y-8047D01*
X235660Y-7986D01*
X235638Y-7914D01*
X235605Y-7847D01*
X235566Y-7781D01*
X235560Y-7775D01*
X235544Y-7753D01*
X235516Y-7725D01*
X235483Y-7687D01*
X235433Y-7648D01*
X235377Y-7614D01*
X235316Y-7581D01*
X235244Y-7553D01*
X235239D01*
X235216Y-7548D01*
X235183Y-7542D01*
X235139Y-7531D01*
X235072Y-7526D01*
X234989Y-7520D01*
X234889Y-7514D01*
D02*
G37*
G36*
X78289Y-8415D02*
X77190D01*
Y-9785D01*
X78222D01*
X78261Y-9780D01*
X78300D01*
X78344Y-9774D01*
X78450Y-9763D01*
X78566Y-9741D01*
X78683Y-9708D01*
X78789Y-9663D01*
X78838Y-9635D01*
X78877Y-9602D01*
X78888Y-9591D01*
X78911Y-9569D01*
X78944Y-9525D01*
X78983Y-9469D01*
X79022Y-9397D01*
X79055Y-9308D01*
X79077Y-9208D01*
X79088Y-9092D01*
Y-9086D01*
Y-9081D01*
Y-9053D01*
X79083Y-9003D01*
X79071Y-8947D01*
X79060Y-8886D01*
X79038Y-8814D01*
X79005Y-8748D01*
X78966Y-8681D01*
X78961Y-8675D01*
X78944Y-8653D01*
X78916Y-8625D01*
X78883Y-8586D01*
X78833Y-8548D01*
X78777Y-8514D01*
X78716Y-8481D01*
X78644Y-8453D01*
X78639D01*
X78616Y-8448D01*
X78583Y-8442D01*
X78539Y-8431D01*
X78472Y-8426D01*
X78389Y-8420D01*
X78289Y-8415D01*
D02*
G37*
G36*
X-238311Y-6714D02*
X-239410D01*
Y-8085D01*
X-238378D01*
X-238339Y-8080D01*
X-238300D01*
X-238256Y-8074D01*
X-238150Y-8063D01*
X-238034Y-8041D01*
X-237917Y-8008D01*
X-237811Y-7963D01*
X-237762Y-7936D01*
X-237723Y-7902D01*
X-237712Y-7891D01*
X-237689Y-7869D01*
X-237656Y-7824D01*
X-237617Y-7769D01*
X-237579Y-7697D01*
X-237545Y-7608D01*
X-237523Y-7508D01*
X-237512Y-7392D01*
Y-7386D01*
Y-7380D01*
Y-7353D01*
X-237517Y-7303D01*
X-237528Y-7247D01*
X-237540Y-7186D01*
X-237562Y-7114D01*
X-237595Y-7047D01*
X-237634Y-6981D01*
X-237639Y-6975D01*
X-237656Y-6953D01*
X-237684Y-6925D01*
X-237717Y-6887D01*
X-237767Y-6848D01*
X-237823Y-6814D01*
X-237884Y-6781D01*
X-237956Y-6753D01*
X-237961D01*
X-237984Y-6748D01*
X-238017Y-6742D01*
X-238061Y-6731D01*
X-238128Y-6726D01*
X-238211Y-6720D01*
X-238311Y-6714D01*
D02*
G37*
%LPD*%
D12*
X15748Y0D02*
X15716Y999D01*
X15621Y1994D01*
X15463Y2980D01*
X15243Y3955D01*
X14962Y4914D01*
X14620Y5853D01*
X14219Y6768D01*
X13761Y7657D01*
X13248Y8514D01*
X12681Y9337D01*
X12064Y10123D01*
X11397Y10867D01*
X10685Y11568D01*
X9930Y12223D01*
X9135Y12828D01*
X8303Y13382D01*
X7437Y13881D01*
X6542Y14325D01*
X5620Y14711D01*
X4676Y15038D01*
X3713Y15304D01*
X2735Y15509D01*
X1746Y15651D01*
X749Y15730D01*
X-250Y15746D01*
X-1248Y15698D01*
X-2241Y15588D01*
X-3225Y15414D01*
X-4196Y15179D01*
X-5151Y14882D01*
X-6084Y14525D01*
X-6993Y14110D01*
X-7874Y13638D01*
X-8723Y13111D01*
X-9537Y12532D01*
X-10313Y11902D01*
X-11047Y11224D01*
X-11736Y10500D01*
X-12379Y9735D01*
X-12971Y8930D01*
X-13511Y8089D01*
X-13997Y7216D01*
X-14427Y6314D01*
X-14798Y5386D01*
X-15110Y4437D01*
X-15361Y3469D01*
X-15550Y2488D01*
X-15677Y1497D01*
X-15740Y500D01*
Y-500D01*
X-15677Y-1497D01*
X-15550Y-2488D01*
X-15361Y-3469D01*
X-15110Y-4437D01*
X-14798Y-5386D01*
X-14427Y-6314D01*
X-13997Y-7216D01*
X-13511Y-8089D01*
X-12971Y-8930D01*
X-12379Y-9735D01*
X-11736Y-10500D01*
X-11047Y-11224D01*
X-10313Y-11902D01*
X-9537Y-12532D01*
X-8723Y-13111D01*
X-7874Y-13638D01*
X-6993Y-14110D01*
X-6084Y-14525D01*
X-5151Y-14882D01*
X-4196Y-15179D01*
X-3225Y-15414D01*
X-2241Y-15588D01*
X-1248Y-15698D01*
X-250Y-15746D01*
X749Y-15730D01*
X1746Y-15651D01*
X2735Y-15509D01*
X3713Y-15304D01*
X4676Y-15038D01*
X5620Y-14711D01*
X6542Y-14325D01*
X7437Y-13881D01*
X8303Y-13382D01*
X9135Y-12828D01*
X9930Y-12223D01*
X10685Y-11568D01*
X11397Y-10867D01*
X12064Y-10123D01*
X12681Y-9337D01*
X13248Y-8514D01*
X13761Y-7657D01*
X14219Y-6769D01*
X14620Y-5853D01*
X14962Y-4914D01*
X15243Y-3955D01*
X15463Y-2980D01*
X15621Y-1994D01*
X15716Y-999D01*
X15748Y-0D01*
X111400Y-83402D02*
X115399D01*
X113399D01*
Y-89400D01*
X120397Y-83402D02*
X118398D01*
X117398Y-84402D01*
Y-88400D01*
X118398Y-89400D01*
X120397D01*
X121397Y-88400D01*
Y-84402D01*
X120397Y-83402D01*
X123396Y-89400D02*
Y-83402D01*
X126395D01*
X127395Y-84402D01*
Y-86401D01*
X126395Y-87401D01*
X123396D01*
X135392Y-83402D02*
Y-87401D01*
X137392Y-89400D01*
X139391Y-87401D01*
Y-83402D01*
X141390D02*
X143390D01*
X142390D01*
Y-89400D01*
X141390D01*
X143390D01*
X150387Y-83402D02*
X146389D01*
Y-89400D01*
X150387D01*
X146389Y-86401D02*
X148388D01*
X152387Y-83402D02*
Y-89400D01*
X154386Y-87401D01*
X156385Y-89400D01*
Y-83402D01*
X-8501Y-52002D02*
X-12500D01*
Y-55001D01*
X-10501D01*
X-12500D01*
Y-58000D01*
X-6502Y-54001D02*
Y-58000D01*
Y-56001D01*
X-5502Y-55001D01*
X-4503Y-54001D01*
X-3503D01*
X496Y-58000D02*
X2495D01*
X3495Y-57000D01*
Y-55001D01*
X2495Y-54001D01*
X496D01*
X-504Y-55001D01*
Y-57000D01*
X496Y-58000D01*
X5494D02*
Y-54001D01*
X8493D01*
X9493Y-55001D01*
Y-58000D01*
X12492Y-53002D02*
Y-54001D01*
X11492D01*
X13492D01*
X12492D01*
Y-57000D01*
X13492Y-58000D01*
D42*
X281496Y0D02*
X281411Y998D01*
X281159Y1967D01*
X280746Y2880D01*
X280185Y3710D01*
X279492Y4433D01*
X278687Y5029D01*
X277793Y5480D01*
X276835Y5773D01*
X275841Y5900D01*
X274841Y5858D01*
X273861Y5647D01*
X272932Y5273D01*
X272079Y4748D01*
X271327Y4086D01*
X270698Y3307D01*
X270209Y2433D01*
X269876Y1488D01*
X269706Y501D01*
Y-501D01*
X269876Y-1488D01*
X270209Y-2432D01*
X270698Y-3307D01*
X271327Y-4086D01*
X272079Y-4748D01*
X272932Y-5273D01*
X273861Y-5647D01*
X274841Y-5858D01*
X275841Y-5900D01*
X276835Y-5773D01*
X277793Y-5480D01*
X278687Y-5029D01*
X279492Y-4433D01*
X280185Y-3710D01*
X280746Y-2880D01*
X281159Y-1967D01*
X281411Y-998D01*
X281496Y0D01*
X-269685D02*
X-269770Y998D01*
X-270023Y1967D01*
X-270435Y2880D01*
X-270996Y3710D01*
X-271689Y4433D01*
X-272494Y5029D01*
X-273389Y5480D01*
X-274346Y5773D01*
X-275340Y5900D01*
X-276341Y5858D01*
X-277320Y5647D01*
X-278249Y5273D01*
X-279102Y4748D01*
X-279854Y4086D01*
X-280484Y3307D01*
X-280972Y2433D01*
X-281306Y1488D01*
X-281475Y501D01*
Y-501D01*
X-281306Y-1488D01*
X-280972Y-2432D01*
X-280484Y-3307D01*
X-279854Y-4086D01*
X-279102Y-4748D01*
X-278249Y-5273D01*
X-277320Y-5647D01*
X-276341Y-5858D01*
X-275340Y-5900D01*
X-274346Y-5773D01*
X-273389Y-5480D01*
X-272494Y-5029D01*
X-271689Y-4433D01*
X-270996Y-3710D01*
X-270435Y-2880D01*
X-270023Y-1967D01*
X-269770Y-998D01*
X-269685Y0D01*
X5906D02*
X5821Y998D01*
X5568Y1967D01*
X5156Y2880D01*
X4595Y3710D01*
X3902Y4433D01*
X3096Y5029D01*
X2202Y5480D01*
X1244Y5773D01*
X251Y5900D01*
X-750Y5858D01*
X-1729Y5647D01*
X-2659Y5273D01*
X-3512Y4748D01*
X-4264Y4086D01*
X-4893Y3307D01*
X-5381Y2433D01*
X-5715Y1488D01*
X-5884Y501D01*
Y-501D01*
X-5715Y-1488D01*
X-5381Y-2432D01*
X-4893Y-3307D01*
X-4264Y-4086D01*
X-3512Y-4748D01*
X-2659Y-5273D01*
X-1729Y-5647D01*
X-750Y-5858D01*
X251Y-5900D01*
X1244Y-5773D01*
X2202Y-5480D01*
X3096Y-5029D01*
X3902Y-4433D01*
X4595Y-3710D01*
X5156Y-2880D01*
X5568Y-1967D01*
X5821Y-998D01*
X5906Y0D01*
X240158D02*
X240034Y979D01*
X239671Y1897D01*
X239090Y2695D01*
X238330Y3324D01*
X237437Y3744D01*
X236468Y3929D01*
X235483Y3867D01*
X234544Y3562D01*
X233711Y3034D01*
X233035Y2314D01*
X232560Y1449D01*
X232315Y494D01*
Y-493D01*
X232560Y-1449D01*
X233035Y-2314D01*
X233711Y-3033D01*
X234544Y-3562D01*
X235483Y-3867D01*
X236468Y-3929D01*
X237437Y-3744D01*
X238330Y-3324D01*
X239090Y-2695D01*
X239671Y-1897D01*
X240034Y-979D01*
X240158Y0D01*
X82677Y0D02*
X82553Y979D01*
X82190Y1897D01*
X81610Y2695D01*
X80850Y3324D01*
X79957Y3744D01*
X78987Y3929D01*
X78003Y3867D01*
X77064Y3562D01*
X76231Y3034D01*
X75555Y2314D01*
X75080Y1449D01*
X74834Y494D01*
Y-493D01*
X75080Y-1449D01*
X75555Y-2314D01*
X76231Y-3033D01*
X77064Y-3562D01*
X78003Y-3867D01*
X78987Y-3929D01*
X79957Y-3744D01*
X80850Y-3324D01*
X81610Y-2695D01*
X82190Y-1897D01*
X82553Y-979D01*
X82677Y0D01*
X-74803Y0D02*
X-74927Y979D01*
X-75290Y1897D01*
X-75870Y2695D01*
X-76631Y3324D01*
X-77524Y3744D01*
X-78493Y3929D01*
X-79478Y3867D01*
X-80417Y3562D01*
X-81250Y3034D01*
X-81925Y2314D01*
X-82401Y1449D01*
X-82646Y494D01*
Y-493D01*
X-82401Y-1449D01*
X-81925Y-2314D01*
X-81250Y-3033D01*
X-80417Y-3562D01*
X-79478Y-3867D01*
X-78493Y-3929D01*
X-77524Y-3744D01*
X-76631Y-3324D01*
X-75870Y-2695D01*
X-75290Y-1897D01*
X-74927Y-979D01*
X-74803Y0D01*
X-232284Y0D02*
X-232407Y979D01*
X-232771Y1897D01*
X-233351Y2695D01*
X-234111Y3324D01*
X-235004Y3744D01*
X-235973Y3929D01*
X-236958Y3867D01*
X-237897Y3562D01*
X-238730Y3034D01*
X-239406Y2314D01*
X-239881Y1449D01*
X-240127Y494D01*
Y-493D01*
X-239881Y-1449D01*
X-239406Y-2314D01*
X-238730Y-3033D01*
X-237897Y-3562D01*
X-236958Y-3867D01*
X-235973Y-3929D01*
X-235004Y-3744D01*
X-234111Y-3324D01*
X-233351Y-2695D01*
X-232771Y-1897D01*
X-232407Y-979D01*
X-232284Y0D01*
X68110Y78740D02*
X67096Y78683D01*
X66095Y78513D01*
X65119Y78232D01*
X64181Y77843D01*
X63292Y77352D01*
X62464Y76765D01*
X61707Y76088D01*
X61031Y75331D01*
X60443Y74503D01*
X59952Y73614D01*
X59563Y72676D01*
X59282Y71700D01*
X59112Y70699D01*
X59055Y69685D01*
X216535D02*
X216478Y70699D01*
X216308Y71700D01*
X216027Y72676D01*
X215639Y73614D01*
X215147Y74503D01*
X214560Y75331D01*
X213883Y76088D01*
X213126Y76765D01*
X212298Y77352D01*
X211409Y77843D01*
X210471Y78232D01*
X209495Y78513D01*
X208494Y78683D01*
X207480Y78740D01*
Y-78740D02*
X208494Y-78683D01*
X209495Y-78513D01*
X210471Y-78232D01*
X211409Y-77843D01*
X212298Y-77352D01*
X213126Y-76765D01*
X213883Y-76088D01*
X214560Y-75331D01*
X215147Y-74503D01*
X215639Y-73614D01*
X216027Y-72676D01*
X216308Y-71700D01*
X216478Y-70699D01*
X216535Y-69685D01*
X59055Y-69685D02*
X59112Y-70699D01*
X59282Y-71700D01*
X59563Y-72676D01*
X59952Y-73614D01*
X60443Y-74503D01*
X61031Y-75331D01*
X61707Y-76088D01*
X62464Y-76765D01*
X63292Y-77352D01*
X64181Y-77843D01*
X65119Y-78232D01*
X66095Y-78513D01*
X67096Y-78683D01*
X68110Y-78740D01*
X77905Y69760D02*
X77855Y70756D01*
X77703Y71743D01*
X77453Y72709D01*
X77107Y73644D01*
X76667Y74540D01*
X76140Y75387D01*
X75529Y76176D01*
X74841Y76899D01*
X74084Y77549D01*
X73265Y78119D01*
X72393Y78603D01*
X71476Y78997D01*
X70524Y79295D01*
X69547Y79496D01*
X68554Y79597D01*
X67556D01*
X66563Y79496D01*
X65586Y79295D01*
X64634Y78997D01*
X63717Y78603D01*
X62845Y78119D01*
X62026Y77549D01*
X61269Y76899D01*
X60581Y76176D01*
X59970Y75387D01*
X59443Y74540D01*
X59003Y73644D01*
X58657Y72709D01*
X58407Y71743D01*
X58256Y70756D01*
X58205Y69760D01*
X58256Y68763D01*
X58407Y67777D01*
X58657Y66811D01*
X59003Y65876D01*
X59443Y64980D01*
X59970Y64133D01*
X60581Y63344D01*
X61269Y62621D01*
X62026Y61971D01*
X62845Y61401D01*
X63717Y60917D01*
X64634Y60523D01*
X65586Y60224D01*
X66563Y60023D01*
X67556Y59922D01*
X68554D01*
X69547Y60023D01*
X70524Y60224D01*
X71476Y60523D01*
X72393Y60917D01*
X73265Y61401D01*
X74084Y61971D01*
X74841Y62621D01*
X75529Y63344D01*
X76140Y64133D01*
X76667Y64980D01*
X77107Y65876D01*
X77453Y66811D01*
X77703Y67777D01*
X77855Y68763D01*
X77905Y69760D01*
X217405Y69660D02*
X217355Y70656D01*
X217203Y71643D01*
X216953Y72609D01*
X216607Y73544D01*
X216167Y74440D01*
X215640Y75287D01*
X215029Y76076D01*
X214341Y76799D01*
X213584Y77449D01*
X212765Y78019D01*
X211893Y78503D01*
X210976Y78897D01*
X210024Y79195D01*
X209047Y79396D01*
X208054Y79497D01*
X207056D01*
X206064Y79396D01*
X205086Y79195D01*
X204134Y78897D01*
X203217Y78503D01*
X202345Y78019D01*
X201526Y77449D01*
X200769Y76799D01*
X200081Y76076D01*
X199471Y75287D01*
X198943Y74440D01*
X198503Y73544D01*
X198157Y72609D01*
X197907Y71643D01*
X197756Y70656D01*
X197705Y69660D01*
X197756Y68663D01*
X197907Y67677D01*
X198157Y66711D01*
X198503Y65776D01*
X198943Y64880D01*
X199471Y64033D01*
X200081Y63244D01*
X200769Y62521D01*
X201526Y61871D01*
X202345Y61301D01*
X203217Y60817D01*
X204134Y60423D01*
X205086Y60124D01*
X206064Y59923D01*
X207056Y59822D01*
X208054D01*
X209047Y59923D01*
X210024Y60124D01*
X210976Y60423D01*
X211893Y60817D01*
X212765Y61301D01*
X213584Y61871D01*
X214341Y62521D01*
X215029Y63244D01*
X215640Y64033D01*
X216167Y64880D01*
X216607Y65776D01*
X216953Y66711D01*
X217203Y67677D01*
X217355Y68663D01*
X217405Y69660D01*
X77905Y-69640D02*
X77855Y-68644D01*
X77703Y-67657D01*
X77453Y-66691D01*
X77107Y-65756D01*
X76667Y-64860D01*
X76140Y-64013D01*
X75529Y-63224D01*
X74841Y-62501D01*
X74084Y-61851D01*
X73265Y-61281D01*
X72393Y-60797D01*
X71476Y-60403D01*
X70524Y-60105D01*
X69547Y-59904D01*
X68554Y-59803D01*
X67556D01*
X66563Y-59904D01*
X65586Y-60105D01*
X64634Y-60403D01*
X63717Y-60797D01*
X62845Y-61281D01*
X62026Y-61851D01*
X61269Y-62501D01*
X60581Y-63224D01*
X59970Y-64013D01*
X59443Y-64860D01*
X59003Y-65756D01*
X58657Y-66691D01*
X58407Y-67657D01*
X58256Y-68644D01*
X58205Y-69640D01*
X58256Y-70637D01*
X58407Y-71623D01*
X58657Y-72589D01*
X59003Y-73525D01*
X59443Y-74420D01*
X59970Y-75267D01*
X60581Y-76056D01*
X61269Y-76779D01*
X62026Y-77429D01*
X62845Y-77999D01*
X63717Y-78484D01*
X64634Y-78877D01*
X65586Y-79176D01*
X66563Y-79377D01*
X67556Y-79478D01*
X68554D01*
X69547Y-79377D01*
X70524Y-79176D01*
X71476Y-78877D01*
X72393Y-78484D01*
X73265Y-77999D01*
X74084Y-77429D01*
X74841Y-76779D01*
X75529Y-76056D01*
X76140Y-75267D01*
X76667Y-74420D01*
X77107Y-73525D01*
X77453Y-72589D01*
X77703Y-71623D01*
X77855Y-70637D01*
X77905Y-69640D01*
X217405Y-69740D02*
X217355Y-68744D01*
X217203Y-67757D01*
X216953Y-66791D01*
X216607Y-65856D01*
X216167Y-64960D01*
X215640Y-64113D01*
X215029Y-63324D01*
X214341Y-62601D01*
X213584Y-61951D01*
X212765Y-61381D01*
X211893Y-60897D01*
X210976Y-60503D01*
X210024Y-60205D01*
X209047Y-60004D01*
X208054Y-59903D01*
X207056D01*
X206064Y-60004D01*
X205086Y-60205D01*
X204134Y-60503D01*
X203217Y-60897D01*
X202345Y-61381D01*
X201526Y-61951D01*
X200769Y-62601D01*
X200081Y-63324D01*
X199471Y-64113D01*
X198943Y-64960D01*
X198503Y-65856D01*
X198157Y-66791D01*
X197907Y-67757D01*
X197756Y-68744D01*
X197705Y-69740D01*
X197756Y-70737D01*
X197907Y-71723D01*
X198157Y-72689D01*
X198503Y-73625D01*
X198943Y-74520D01*
X199471Y-75367D01*
X200081Y-76156D01*
X200769Y-76879D01*
X201526Y-77529D01*
X202345Y-78099D01*
X203217Y-78584D01*
X204134Y-78977D01*
X205086Y-79276D01*
X206064Y-79477D01*
X207056Y-79578D01*
X208054D01*
X209047Y-79477D01*
X210024Y-79276D01*
X210976Y-78977D01*
X211893Y-78584D01*
X212765Y-78099D01*
X213584Y-77529D01*
X214341Y-76879D01*
X215029Y-76156D01*
X215640Y-75367D01*
X216167Y-74520D01*
X216607Y-73625D01*
X216953Y-72689D01*
X217203Y-71723D01*
X217355Y-70737D01*
X217405Y-69740D01*
X217535Y78740D02*
X217035Y79606D01*
X216035D01*
X215535Y78740D01*
X216035Y77874D01*
X217035D01*
X217535Y78740D01*
X-295276Y78740D02*
X295276D01*
Y61516D02*
Y83662D01*
X-295276Y61516D02*
Y83662D01*
X295276Y-39370D02*
Y39370D01*
X-295276Y-39370D02*
Y39370D01*
X59055Y-69685D02*
Y69685D01*
X68110Y78740D02*
X207480D01*
X216535Y-69685D02*
Y69685D01*
X68110Y-78740D02*
X207480D01*
X-0Y81201D02*
X3280D01*
X1640D01*
Y91040D01*
X-0Y89400D01*
X14759Y91040D02*
X8200D01*
Y86121D01*
X11479Y87761D01*
X13119D01*
X14759Y86121D01*
Y82841D01*
X13119Y81201D01*
X9839D01*
X8200Y82841D01*
X18039Y89400D02*
X19679Y91040D01*
X22959D01*
X24598Y89400D01*
Y82841D01*
X22959Y81201D01*
X19679D01*
X18039Y82841D01*
Y89400D01*
X322660Y-4500D02*
X316100D01*
X322660Y2060D01*
Y3700D01*
X321020Y5339D01*
X317740D01*
X316100Y3700D01*
X325939D02*
X327579Y5339D01*
X330859D01*
X332499Y3700D01*
Y-2860D01*
X330859Y-4500D01*
X327579D01*
X325939Y-2860D01*
Y3700D01*
D75*
X123012Y9557D02*
X122748Y10541D01*
X122028Y11261D01*
X121043Y11525D01*
X120059Y11261D01*
X119339Y10541D01*
X119075Y9557D01*
X119339Y8572D01*
X120059Y7852D01*
X121043Y7588D01*
X122028Y7852D01*
X122748Y8572D01*
X123012Y9557D01*
X118189Y-11211D02*
X141811D01*
Y12411D01*
X118189D02*
X141811D01*
X118189Y-11211D02*
Y12411D01*
D78*
X-58268Y3937D02*
X-51968D01*
X-58268Y-3937D02*
X-51968D01*
X-58268Y-6299D02*
X-51968D01*
X-58268Y6299D02*
X-51968D01*
X-58268Y-6299D02*
Y6299D01*
X-51968Y-6299D02*
Y6299D01*
X24409Y3937D02*
X30709D01*
X24409Y-3937D02*
X30709D01*
X24409Y-6299D02*
X30709D01*
X24409Y6299D02*
X30709D01*
X24409Y-6299D02*
Y6299D01*
X30709Y-6299D02*
Y6299D01*
X51968Y3937D02*
X58268D01*
X51968Y-3937D02*
X58268D01*
X51968Y-6299D02*
X58268D01*
X51968Y6299D02*
X58268D01*
X51968Y-6299D02*
Y6299D01*
X58268Y-6299D02*
Y6299D01*
X-24409Y-6299D02*
Y6299D01*
X-30709Y-6299D02*
Y6299D01*
X-24409D01*
X-30709Y-6299D02*
X-24409D01*
X-30709Y-3937D02*
X-24409D01*
X-30709Y3937D02*
X-24409D01*
M02*
