G04 Layer_Color=255*
%FSLAX25Y25*%
%MOIN*%
G70*
G01*
G75*
%ADD11C,0.03937*%
%ADD19R,0.01772X0.02165*%
%ADD20O,0.00866X0.03937*%
%ADD21O,0.03937X0.00866*%
%ADD22R,0.16535X0.16535*%
%ADD23R,0.05512X0.04724*%
%ADD24R,0.02165X0.05709*%
%ADD25R,0.02165X0.05709*%
%ADD26R,0.02165X0.01772*%
%ADD27C,0.00197*%
%ADD28C,0.02402*%
%ADD29C,0.02835*%
%ADD30C,0.02205*%
%ADD31R,0.02441X0.01575*%
%ADD32R,0.01968X0.01575*%
%ADD33R,0.01575X0.01968*%
%ADD34R,0.01575X0.02441*%
%ADD35R,0.03200X0.04000*%
%ADD36R,0.07087X0.05315*%
%ADD37R,0.04000X0.03200*%
%ADD38R,0.13583X0.03937*%
%ADD39R,0.06299X0.05905*%
%ADD40R,0.06299X0.05512*%
D11*
X305118Y31496D02*
D03*
X-305118Y220472D02*
D03*
X89800Y-11500D02*
D03*
X49500Y18000D02*
D03*
X135000Y33000D02*
D03*
X122500Y31500D02*
D03*
X112500D02*
D03*
X92500D02*
D03*
X102500D02*
D03*
D19*
X-25827Y-14500D02*
D03*
X-29173Y-14500D02*
D03*
X105427Y11000D02*
D03*
X108773Y11000D02*
D03*
X53327Y-15000D02*
D03*
X56673D02*
D03*
X29173D02*
D03*
X25827D02*
D03*
X73827Y-19500D02*
D03*
X77173Y-19500D02*
D03*
X73827Y-23500D02*
D03*
X77173Y-23500D02*
D03*
X108673Y20600D02*
D03*
X105327D02*
D03*
X155327Y4000D02*
D03*
X158673D02*
D03*
X155327Y0D02*
D03*
X158673D02*
D03*
X155327Y8000D02*
D03*
X158673D02*
D03*
X-58173Y-19400D02*
D03*
X-54827Y-19400D02*
D03*
X-58173Y-24400D02*
D03*
X-54827Y-24400D02*
D03*
X155327Y-4000D02*
D03*
X158673D02*
D03*
X108673Y7100D02*
D03*
X105327D02*
D03*
X-208173Y1000D02*
D03*
X-204827Y1000D02*
D03*
X105327Y-13500D02*
D03*
X108673Y-13500D02*
D03*
X-208173Y-3500D02*
D03*
X-204827Y-3500D02*
D03*
X17827Y30900D02*
D03*
X21173D02*
D03*
X17827Y26500D02*
D03*
X21173D02*
D03*
X250673Y10000D02*
D03*
X247327D02*
D03*
X227827Y-11000D02*
D03*
X231173Y-11000D02*
D03*
X250673Y-2500D02*
D03*
X247327D02*
D03*
X72173Y-10000D02*
D03*
X68827D02*
D03*
X86827Y-19500D02*
D03*
X90173Y-19500D02*
D03*
X76827Y-10000D02*
D03*
X80173Y-10000D02*
D03*
X86827Y-23500D02*
D03*
X90173Y-23500D02*
D03*
X-45173Y-19400D02*
D03*
X-41827Y-19400D02*
D03*
X-70327Y10000D02*
D03*
X-73673Y10000D02*
D03*
X-45173Y-24400D02*
D03*
X-41827Y-24400D02*
D03*
X155327Y12500D02*
D03*
X158673Y12500D02*
D03*
X105327Y-8900D02*
D03*
X108673D02*
D03*
X158673Y-8500D02*
D03*
X155327D02*
D03*
X105327Y2600D02*
D03*
X108673D02*
D03*
X-194173Y1000D02*
D03*
X-190827Y1000D02*
D03*
X105327Y15100D02*
D03*
X108673D02*
D03*
X-227827Y10500D02*
D03*
X-231173Y10500D02*
D03*
X-194173Y-3500D02*
D03*
X-190827Y-3500D02*
D03*
D20*
X121339Y12017D02*
D03*
X122913D02*
D03*
X124488D02*
D03*
X126063D02*
D03*
X127638D02*
D03*
X129213D02*
D03*
X130787D02*
D03*
X132362D02*
D03*
X133937D02*
D03*
X135512D02*
D03*
X137087D02*
D03*
X138661D02*
D03*
Y-10817D02*
D03*
X137087D02*
D03*
X135512D02*
D03*
X133937D02*
D03*
X132362D02*
D03*
X130787D02*
D03*
X129213D02*
D03*
X127638D02*
D03*
X126063D02*
D03*
X124488D02*
D03*
X122913D02*
D03*
X121339D02*
D03*
D21*
X118583Y9261D02*
D03*
Y7687D02*
D03*
Y6112D02*
D03*
Y4537D02*
D03*
Y2962D02*
D03*
Y1387D02*
D03*
Y-187D02*
D03*
Y-1762D02*
D03*
Y-3337D02*
D03*
Y-4912D02*
D03*
Y-6487D02*
D03*
Y-8061D02*
D03*
X141417D02*
D03*
Y-6487D02*
D03*
Y-4912D02*
D03*
Y-3337D02*
D03*
Y-1762D02*
D03*
Y-187D02*
D03*
Y1387D02*
D03*
Y2962D02*
D03*
Y4537D02*
D03*
Y6112D02*
D03*
Y7687D02*
D03*
Y9261D02*
D03*
D22*
X130000Y600D02*
D03*
D23*
X153500Y24169D02*
D03*
X143500D02*
D03*
Y32831D02*
D03*
X153500D02*
D03*
D24*
X35240Y18268D02*
D03*
D25*
X31500D02*
D03*
X27760D02*
D03*
Y26732D02*
D03*
X31500D02*
D03*
X35240D02*
D03*
D26*
X-45000Y-10173D02*
D03*
Y-6827D02*
D03*
X42000Y26327D02*
D03*
Y29673D02*
D03*
X42000Y17827D02*
D03*
X42000Y21173D02*
D03*
X251500Y5173D02*
D03*
X251500Y1827D02*
D03*
X247000Y5173D02*
D03*
X247000Y1827D02*
D03*
X123000Y22427D02*
D03*
X123000Y25773D02*
D03*
X119000Y22427D02*
D03*
X119000Y25773D02*
D03*
X115000Y22427D02*
D03*
X115000Y25773D02*
D03*
X135000Y22427D02*
D03*
X135000Y25773D02*
D03*
X251500Y-7327D02*
D03*
X251500Y-10673D02*
D03*
X162000Y28827D02*
D03*
X162000Y32173D02*
D03*
X247000Y-7327D02*
D03*
X247000Y-10673D02*
D03*
X82000Y-19827D02*
D03*
Y-23173D02*
D03*
X-63000Y-20227D02*
D03*
Y-23573D02*
D03*
X-50000Y-20227D02*
D03*
Y-23573D02*
D03*
X124000Y-24573D02*
D03*
X124000Y-21227D02*
D03*
X128000Y22427D02*
D03*
X128000Y25773D02*
D03*
X132500Y-24573D02*
D03*
X132500Y-21227D02*
D03*
X141000Y-24573D02*
D03*
X141000Y-21227D02*
D03*
X137000Y-24573D02*
D03*
X137000Y-21227D02*
D03*
X128500Y-24573D02*
D03*
X128500Y-21227D02*
D03*
X-213500Y-327D02*
D03*
Y-3673D02*
D03*
X-200000Y673D02*
D03*
Y-2673D02*
D03*
D27*
X233921Y0D02*
D03*
X76440D02*
D03*
X-76440D02*
D03*
X-233921D02*
D03*
D28*
X227953D02*
D03*
X70472D02*
D03*
X-70473D02*
D03*
X-227953D02*
D03*
D29*
X227953Y-3819D02*
D03*
Y3819D02*
D03*
X70472Y-3819D02*
D03*
Y3819D02*
D03*
X-70473D02*
D03*
Y-3819D02*
D03*
X-227953Y3819D02*
D03*
Y-3819D02*
D03*
D30*
X238701Y-4016D02*
D03*
Y4016D02*
D03*
X81221Y-4016D02*
D03*
Y4016D02*
D03*
X-81221D02*
D03*
Y-4016D02*
D03*
X-238701Y4016D02*
D03*
Y-4016D02*
D03*
D31*
X227661Y10000D02*
D03*
X71838Y-15000D02*
D03*
D32*
X230575Y10000D02*
D03*
X68925Y-15000D02*
D03*
D33*
X-67000Y-23475D02*
D03*
X-218000Y-3575D02*
D03*
D34*
X-67000Y-20561D02*
D03*
X-218000Y-661D02*
D03*
D35*
X104781Y-3500D02*
D03*
X99219D02*
D03*
D36*
X229842Y-26000D02*
D03*
X240158D02*
D03*
D37*
X77500Y25719D02*
D03*
Y31281D02*
D03*
X85000Y25719D02*
D03*
Y31281D02*
D03*
D38*
X191043Y-30000D02*
D03*
X210531D02*
D03*
X191043Y-20000D02*
D03*
X210531D02*
D03*
X191043Y-10000D02*
D03*
X210531D02*
D03*
Y20000D02*
D03*
X191043D02*
D03*
X210531Y10000D02*
D03*
X191043D02*
D03*
X210531Y0D02*
D03*
X191043D02*
D03*
X210531Y30000D02*
D03*
X191043D02*
D03*
D39*
X-55118Y-7087D02*
D03*
X27559D02*
D03*
X55118D02*
D03*
X-27559D02*
D03*
D40*
X-55118Y6693D02*
D03*
X27559D02*
D03*
X55118D02*
D03*
X-27559D02*
D03*
M02*
