M48
;Layer_Color=9474304
;FILE_FORMAT=2:5
INCH,LZ
;TYPE=PLATED
T1F00S00C0.01200
T2F00S00C0.01968
T3F00S00C0.02756
%
T01
X-029Y-0035
Y-0025
Y-0015
Y-0005
Y0005
Y0015
Y0025
Y0035
X-028
X-027
X-026
X-025
X-024
X-023
X-022
X-021
X-02
X-019
Y0005
X-01822Y00027
X-01825Y-0005
X-0185Y-0015
X-0195
X-0205
X-0215
X-0225
X-0235
X-0245
Y-001
X-02385Y-00075
X-0245Y0
Y001
X-0235Y00075
X-02315Y0014
X-02225Y0005
X-0221Y00005
X-02125Y0005
X-0203
X-0205Y-0035
X-0195
X-0185
X-0215
X-0225
X-0235
X-0245
X-0255
X-0265
X-0275
Y-0015
X-0265
X-0255
X-017Y-002
X-016
X-01607Y-00279
X-01507
X-015Y-002
X-01407Y-00279
X-0145Y-0035
X-0135
X-0125Y-0029
X-01275Y-00225
X-01175
X-0115Y-0029
X-0105
X-00971Y-00291
X-00975Y-00225
X-00875
X-00871Y-00291
X-00771
X-00715Y-00285
X-00615
X-0062Y-0037
X-007
X-008
X-009
X-01
X-011
X-012
Y-00113
X-013
X-014
X-0135Y0
X-0125
X-0115
X-0105
X-0095
X-008Y-00075
X-00775Y-00225
X-0068Y-00169
X-0065Y-0017
X-0059Y-00165
X-0048Y-00169
X-00515Y-00285
X-0052Y-0037
X-0042
X-0034
X-00349Y-00306
X-0032Y-00185
X-00375Y00175
X-00475
X-00575
X-006Y0035
X-007
X-008
X-009
X-01
X-011
X-012
X-013
X-014
X-015
X-016
X-017
X-018
X-01725Y00029
Y-0005
X-01625
Y00033
X-0155Y0
X-0145
X-014Y001
X-015
X-0155Y-0035
X-01075Y-00225
X-00775Y00075
X-0076Y00125
X-00495Y00313
X-00257Y00308
X-00175Y0027
Y00175
X-00075
Y0027
X00025
Y00175
X001
X0018268Y0018268
X0024Y0023
X00145Y00275
Y00315
X0008Y0008
X00315Y00135
X00414Y00116
X00478Y00097
X0052Y00139
X0055379Y0018832
X0058Y00221
X0063Y0022
X00675Y002
Y001
X00725
X00775Y00099
X00825Y001
X0085Y0005
X00849Y-00005
X0085Y-0005
Y-001
X00833Y-00163
X00775Y-0015
X00745Y-0016
Y-00125
X00699Y-00252
X0069Y-00306
Y-0037
X0059
Y-00306
X00604Y-00245
X00601Y-00206
X00504Y-00245
X00456Y-00211
X00455Y-0014
X00404Y-00245
X00363Y-0021
X00258Y-00211
X00226Y-00244
X00126
X0014Y-00208
X00161Y-00306
X0017Y-0037
X0007
X00061Y-00306
X00026Y-00244
X-00011Y-0021
X-00039Y-00306
X-0003Y-0037
X-0014
X-00149Y-00306
X-00249
X-0024Y-0037
X-00214Y-00238
X-00109Y-0024
X00277Y-00305
X0028Y-0037
X0038
X00377Y-00305
X00477
X0048Y-0037
X0079
Y-00306
X00898Y-00307
X009Y-0037
X01
X00998Y-00307
X00958Y-00249
X0094Y-00185
X0104
X01019Y-00135
X01013Y-00072
X0095Y-0005
X00954Y-00003
X0097Y00015
X00955Y00075
X0102Y00045
Y0011
Y0015
X01009Y00182
X01Y00235
X0096Y0027
X0089Y0016
X00775Y002
X00725Y0029
X00695
X0062Y0034
X0053
X0051
X00542Y00311
X0056Y0029
X00523Y00232
X0048Y00247
X0045Y0027
X0039Y0026
Y0023
X0061Y0016
X0112327Y0007227
X01122Y-00041
X01111Y-00109
X01176Y-00166
X01212Y-00208
X01134Y-00209
X01175Y-00254
X01225Y-00286
X01294
X013Y-0037
X012
X011
X01098Y-00307
X01058Y-00249
X0125Y-00044
Y00006
Y00055
X013
Y00006
Y-00044
X01265Y0016
X01272Y00184
X0128Y00295
X01385Y0025
X01425Y00285
X01475Y0025
X01619Y00254
X01613Y00136
X01637Y00118
X01702Y00191
X01725Y00208
X01771Y0017
X01772Y00104
X01754Y00078
X01727Y00067
X01702Y00042
X01683Y00014
X01662Y-00008
X01615Y-0004
X0163Y-00125
X01575
X01574Y-00219
X01652Y-00218
X01641Y-00289
X01722
X01726Y-00376
X01826
X01626
X0151Y-0037
X014
X01425Y-00287
X01457Y-00295
X01468Y-00228
X01444Y-0021
X0146Y-00135
X01483Y-00134
X01408Y-00103
X0136904Y-0017504
X01332Y-0015
X0135Y-00044
Y00006
Y00055
X0145Y00125
X01466Y-00028
X01522Y-00262
X01361Y-00286
X01338
X0169Y-00115
X01821Y-00042
X01791Y00034
X01812Y00055
X02022Y00044
X02001Y-00017
X02002Y-00115
X02005Y-00185
X02011Y-00257
X0214Y-00245
X02204Y-00247
X022Y-0015
Y-0005
Y0005
X02274Y00128
X023Y00175
X024
X025
X026
Y001
X02545
Y00073
X026Y0
Y-001
Y-002
X02535
X0255Y-0015
Y-0005
X02425
Y-0015
Y-002
X02458Y-00188
X02464Y-00261
X02425Y-0032
X02325
X02525Y-003
X026
Y-00367
X027
X0275Y-00325
Y-00225
Y-00125
X027Y00175
X028
Y00369
X027
X026
X025
X024
X023
X0214Y00365
X02075
X02023
X02075Y0027
X0214
X022
X0205Y00157
X01938Y00153
X0205Y-0015
X02425Y0005
X025Y-00367
X029Y-00325
Y-00225
Y-00125
Y-00025
Y00075
Y00175
Y00275
Y00369
T02
X-0058268Y-00026
Y-00023
X-0057818
Y-00026
X-0057418
Y-00023
X-0057018
Y-00026
X-0056618
Y-00023
X-0056218
Y-00026
X-0055818
Y-00023
X-0055418
Y-00026
X-0055018
Y-00023
X-0054618
Y-00026
X-0054218
Y-00023
X-0053818
Y-00026
X-0053418
Y-00023
X-0053018
Y-00026
X-0052618
Y-00023
X-0052218
Y-00026
X-0051818
Y-00023
Y-00017
X-0052218
X-0052618
X-0053018
X-0053418
X-0053818
X-0054218
X-0054618
X-0055018
X-0055418
X-0055818
X-0056218
X-0056618
X-0057018
X-0057418
X-0057818
X-0058268
Y-00011
X-0057818
X-0057418
X-0057018
X-0056618
X-0056218
X-0055818
X-0055418
X-0055018
X-0054618
X-0054218
X-0053818
X-0053418
X-0053018
X-0052618
X-0052218
X-0051818
Y-00005
X-0052218
X-0052618
X-0053018
X-0053418
X-0053818
X-0054218
X-0054618
X-0055018
X-0055418
X-0055818
X-0056218
X-0056618
X-0057018
X-0057418
X-0057818
X-0058268
Y00001
X-0057818
X-0057418
X-0057018
X-0056618
X-0056218
X-0055818
X-0055418
X-0055018
X-0054618
X-0054218
X-0053818
X-0053418
X-0053018
X-0052618
X-0052218
X-0051818
Y00007
X-0052218
X-0052618
X-0053018
X-0053418
X-0053818
X-0054218
X-0054618
X-0055018
X-0055418
X-0055818
X-0056218
X-0056618
X-0057018
X-0057418
X-0057818
X-0058268
Y00013
X-0057818
X-0057418
X-0057018
X-0056618
X-0056218
X-0055818
X-0055418
X-0055018
X-0054618
X-0054218
X-0053818
X-0053418
X-0053018
X-0052618
X-0052218
X-0051818
Y00019
X-0052218
X-0052618
X-0053018
X-0053418
X-0053818
X-0054218
X-0054618
X-0055018
X-0055418
X-0055818
X-0056218
X-0056618
X-0057018
X-0057418
X-0057818
X-0058268
Y00026
X-0057818
X-0057418
X-0057018
X-0056618
X-0056218
X-0055818
X-0055418
X-0055018
X-0054618
X-0054218
X-0053818
X-0053418
X-0053018
X-0052618
X-0052218
X-0051818
X-0030709
X-0030259
X-0029859
X-0029459
X-0029059
X-0028659
X-0028259
X-0027859
X-0027459
X-0027059
X-0026659
X-0026259
X-0025859
Y00019
X-0026259
X-0026659
X-0027059
X-0027459
X-0027859
X-0028259
X-0028659
X-0029059
X-0029459
X-0029859
X-0030259
X-0030709
Y00013
X-0030259
X-0029859
X-0029459
X-0029059
X-0028659
X-0028259
X-0027859
X-0027459
X-0027059
X-0026659
X-0026259
X-0025859
Y00007
X-0026259
X-0026659
X-0027059
X-0027459
X-0027859
X-0028259
X-0028659
X-0029059
X-0029459
X-0029859
X-0030259
X-0030709
Y00001
X-0030259
X-0029859
X-0029459
X-0029059
X-0028659
X-0028259
X-0027859
X-0027459
X-0027059
X-0026659
X-0026259
X-0025859
Y-00005
X-0026259
X-0026659
X-0027059
X-0027459
X-0027859
X-0028259
X-0028659
X-0029059
X-0029459
X-0029859
X-0030259
X-0030709
Y-00011
X-0030259
X-0029859
X-0029459
X-0029059
X-0028659
X-0028259
X-0027859
X-0027459
X-0027059
X-0026659
X-0026259
X-0025859
Y-00017
X-0026259
X-0026659
X-0027059
X-0027459
X-0027859
X-0028259
X-0028659
X-0029059
X-0029459
X-0029859
X-0030259
X-0030709
Y-00023
Y-00026
X-0030259
Y-00023
X-0029859
Y-00026
X-0029459
Y-00023
X-0029059
Y-00026
X-0028659
Y-00023
X-0028259
Y-00026
X-0027859
Y-00023
X-0027459
Y-00026
X-0027059
Y-00023
X-0026659
Y-00026
X-0026259
Y-00023
X-0025859
Y-00026
X-0025459
Y-00023
X-0025059
Y-00026
X-0024659
Y-00023
X-0024259
Y-00026
Y-00017
X-0024659
X-0025059
X-0025459
Y-00011
X-0025059
X-0024659
X-0024259
Y-00005
X-0024659
X-0025059
X-0025459
Y00001
X-0025059
X-0024659
X-0024259
Y00007
X-0024659
X-0025059
X-0025459
Y00013
X-0025059
X-0024659
X-0024259
Y00019
X-0024659
X-0025059
X-0025459
Y00026
X-0025059
X-0024659
X-0024259
X0024409
X0024859
X0025259
X0025659
X0026059
X0026459
X0026859
X0027259
X0027659
X0028059
X0028459
X0028859
X0029259
X0029659
X0030059
X0030459
X0030859
Y00019
X0030459
X0030059
X0029659
X0029259
X0028859
X0028459
X0028059
X0027659
X0027259
X0026859
X0026459
X0026059
X0025659
X0025259
X0024859
X0024409
Y00013
X0024859
X0025259
X0025659
X0026059
X0026459
X0026859
X0027259
X0027659
X0028059
X0028459
X0028859
X0029259
X0029659
X0030059
X0030459
X0030859
Y00007
X0030459
X0030059
X0029659
X0029259
X0028859
X0028459
X0028059
X0027659
X0027259
X0026859
X0026459
X0026059
X0025659
X0025259
X0024859
X0024409
Y00001
X0024859
X0025259
X0025659
X0026059
X0026459
X0026859
X0027259
X0027659
X0028059
X0028459
X0028859
X0029259
X0029659
X0030059
X0030459
X0030859
Y-00005
X0030459
X0030059
X0029659
X0029259
X0028859
X0028459
X0028059
X0027659
X0027259
X0026859
X0026459
X0026059
X0025659
X0025259
X0024859
X0024409
Y-00011
X0024859
X0025259
X0025659
X0026059
X0026459
X0026859
X0027259
X0027659
X0028059
X0028459
X0028859
X0029259
X0029659
X0030059
X0030459
X0030859
Y-00017
X0030459
X0030059
X0029659
X0029259
X0028859
X0028459
X0028059
X0027659
X0027259
X0026859
X0026459
X0026059
X0025659
X0025259
X0024859
X0024409
Y-00023
Y-00026
X0024859
Y-00023
X0025259
Y-00026
X0025659
Y-00023
X0026059
Y-00026
X0026459
Y-00023
X0026859
Y-00026
X0027259
Y-00023
X0027659
Y-00026
X0028059
Y-00023
X0028459
Y-00026
X0028859
Y-00023
X0029259
Y-00026
X0029659
Y-00023
X0030059
Y-00026
X0030459
Y-00023
X0030859
Y-00026
X0051968
Y-00023
X0052418
Y-00026
X0052818
Y-00023
X0053218
Y-00026
X0053618
Y-00023
X0054018
Y-00026
X0054418
Y-00023
X0054818
Y-00026
X0055218
Y-00023
X0055618
Y-00026
X0056018
Y-00023
X0056418
Y-00026
X0056818
Y-00023
X0057218
Y-00026
X0057618
Y-00023
X0058018
Y-00026
X0058418
Y-00023
Y-00017
X0058018
X0057618
X0057218
X0056818
X0056418
X0056018
X0055618
X0055218
X0054818
X0054418
X0054018
X0053618
X0053218
X0052818
X0052418
X0051968
Y-00011
X0052418
X0052818
X0053218
X0053618
X0054018
X0054418
X0054818
X0055218
X0055618
X0056018
X0056418
X0056818
X0057218
X0057618
X0058018
X0058418
Y-00005
X0058018
X0057618
X0057218
X0056818
X0056418
X0056018
X0055618
X0055218
X0054818
X0054418
X0054018
X0053618
X0053218
X0052818
X0052418
X0051968
Y00001
X0052418
X0052818
X0053218
X0053618
X0054018
X0054418
X0054818
X0055218
X0055618
X0056018
X0056418
X0056818
X0057218
X0057618
X0058018
X0058418
Y00007
X0058018
X0057618
X0057218
X0056818
X0056418
X0056018
X0055618
X0055218
X0054818
X0054418
X0054018
X0053618
X0053218
X0052818
X0052418
X0051968
Y00013
X0052418
X0052818
X0053218
X0053618
X0054018
X0054418
X0054818
X0055218
X0055618
X0056018
X0056418
X0056818
X0057218
X0057618
X0058018
X0058418
Y00019
X0058018
X0057618
X0057218
X0056818
X0056418
X0056018
X0055618
X0055218
X0054818
X0054418
X0054018
X0053618
X0053218
X0052818
X0052418
X0051968
Y00026
X0052418
X0052818
X0053218
X0053618
X0054018
X0054418
X0054818
X0055218
X0055618
X0056018
X0056418
X0056818
X0057218
X0057618
X0058018
X0058418
T03
X-0236221Y0
X-007874
X007874
X0236221
M30
