G04 Layer_Physical_Order=1*
G04 Layer_Color=255*
%FSLAX25Y25*%
%MOIN*%
G70*
G01*
G75*
%ADD10C,0.06693*%
%ADD11C,0.03937*%
%ADD12C,0.01000*%
%ADD13C,0.01500*%
%ADD14C,0.03000*%
%ADD15C,0.00600*%
%ADD16C,0.02000*%
%ADD17C,0.01800*%
G36*
X288769Y38369D02*
X290083Y37970D01*
X291295Y37323D01*
X292357Y36451D01*
X293228Y35389D01*
X293876Y34178D01*
X294275Y32863D01*
X294409Y31500D01*
Y-31500D01*
X294275Y-32863D01*
X293876Y-34178D01*
X293228Y-35389D01*
X292357Y-36451D01*
X291295Y-37323D01*
X290083Y-37970D01*
X288769Y-38369D01*
X287403Y-38504D01*
X287402Y-38503D01*
X-287402D01*
X-287403Y-38504D01*
X-288769Y-38369D01*
X-290083Y-37970D01*
X-291295Y-37323D01*
X-292357Y-36451D01*
X-293228Y-35389D01*
X-293876Y-34178D01*
X-294275Y-32863D01*
X-294409Y-31500D01*
Y-31496D01*
X-294409Y-31496D01*
Y31496D01*
X-294409Y31496D01*
Y31500D01*
X-294275Y32863D01*
X-293876Y34178D01*
X-293228Y35389D01*
X-292357Y36451D01*
X-291295Y37323D01*
X-290083Y37970D01*
X-288769Y38369D01*
X-287403Y38504D01*
X-287402Y38503D01*
X-44248D01*
X-44056Y38041D01*
X-49307Y32791D01*
X-49500Y32829D01*
X-50085Y32713D01*
X-50581Y32381D01*
X-50913Y31885D01*
X-51029Y31300D01*
X-50913Y30715D01*
X-50581Y30219D01*
X-50085Y29887D01*
X-49500Y29771D01*
X-48915Y29887D01*
X-48419Y30219D01*
X-48087Y30715D01*
X-47971Y31300D01*
X-48009Y31493D01*
X-42820Y36682D01*
X-21769D01*
X-21577Y36220D01*
X-25507Y32291D01*
X-25700Y32329D01*
X-26285Y32213D01*
X-26781Y31881D01*
X-27113Y31385D01*
X-27229Y30800D01*
X-27113Y30215D01*
X-26781Y29719D01*
X-26285Y29387D01*
X-25700Y29271D01*
X-25115Y29387D01*
X-24619Y29719D01*
X-24287Y30215D01*
X-24171Y30800D01*
X-24209Y30993D01*
X-19720Y35482D01*
X64531D01*
X64723Y35020D01*
X53901Y24199D01*
X53404Y24248D01*
X53381Y24281D01*
X52885Y24613D01*
X52300Y24729D01*
X51715Y24613D01*
X51219Y24281D01*
X50887Y23785D01*
X50771Y23200D01*
X50887Y22615D01*
X51219Y22119D01*
X51715Y21787D01*
X52300Y21671D01*
X52885Y21787D01*
X53345Y22094D01*
X53824Y21949D01*
X53877Y21820D01*
X51351Y19294D01*
X51152Y18997D01*
X51082Y18646D01*
Y15091D01*
X50919Y14981D01*
X50587Y14485D01*
X50471Y13900D01*
X50587Y13315D01*
X50919Y12819D01*
X51415Y12487D01*
X52000Y12371D01*
X52585Y12487D01*
X53081Y12819D01*
X53413Y13315D01*
X53529Y13900D01*
X53413Y14485D01*
X53081Y14981D01*
X52918Y15091D01*
Y18266D01*
X56140Y21488D01*
X56638Y21439D01*
X56919Y21019D01*
X57415Y20687D01*
X58000Y20571D01*
X58585Y20687D01*
X59081Y21019D01*
X59413Y21515D01*
X59529Y22100D01*
X59474Y22377D01*
X67480Y30382D01*
X163420D01*
X165282Y28520D01*
Y22500D01*
Y21700D01*
Y13240D01*
X164963Y13026D01*
X164841Y12962D01*
X164324Y13307D01*
X163700Y13431D01*
X163076Y13307D01*
X162547Y12954D01*
X162193Y12424D01*
X162069Y11800D01*
Y-1124D01*
X160346Y-2847D01*
X159993Y-3376D01*
X159869Y-4000D01*
X159993Y-4624D01*
X160346Y-5153D01*
X160876Y-5507D01*
X161500Y-5631D01*
X162124Y-5507D01*
X162654Y-5153D01*
X164854Y-2953D01*
X165207Y-2424D01*
X165216Y-2378D01*
X165615Y-2213D01*
X166200Y-2329D01*
X166785Y-2213D01*
X167281Y-1881D01*
X167613Y-1385D01*
X167729Y-800D01*
X167655Y-425D01*
X168008Y-71D01*
X168300Y-129D01*
X168885Y-13D01*
X169381Y319D01*
X169713Y815D01*
X169829Y1400D01*
X169713Y1985D01*
X169473Y2344D01*
X169751Y2760D01*
X170200Y2671D01*
X170785Y2787D01*
X171281Y3119D01*
X171613Y3615D01*
X171729Y4200D01*
X171613Y4785D01*
X171315Y5232D01*
X171668Y5585D01*
X172115Y5287D01*
X172700Y5171D01*
X173285Y5287D01*
X173781Y5619D01*
X174113Y6115D01*
X174113Y6115D01*
Y6115D01*
X174186Y6330D01*
X174660Y6491D01*
X174815Y6387D01*
X175400Y6271D01*
X175985Y6387D01*
X176481Y6719D01*
X176813Y7215D01*
X176929Y7800D01*
X176813Y8385D01*
X176743Y8491D01*
X177020Y8906D01*
X177200Y8871D01*
X177785Y8987D01*
X178182Y8775D01*
Y4591D01*
X178019Y4481D01*
X177687Y3985D01*
X177571Y3400D01*
X177687Y2815D01*
X178019Y2319D01*
X178515Y1987D01*
X179100Y1871D01*
X179685Y1987D01*
X180181Y2319D01*
X180513Y2815D01*
X180629Y3400D01*
X180576Y3671D01*
X180929Y4025D01*
X181200Y3971D01*
X181785Y4087D01*
X182281Y4419D01*
X182613Y4915D01*
X182729Y5500D01*
X182613Y6085D01*
X182281Y6581D01*
X182118Y6691D01*
Y24000D01*
X182059Y24293D01*
X182048Y24351D01*
X181849Y24649D01*
X168249Y38249D01*
X167951Y38448D01*
D01*
X167951D01*
Y38448D01*
D01*
D01*
Y38448D01*
X167951Y38448D01*
D01*
D01*
D01*
D01*
X167957Y38503D01*
X287402D01*
X287403Y38504D01*
X288769Y38369D01*
D02*
G37*
%LPC*%
G36*
X31496Y4410D02*
X23622D01*
X23290Y4344D01*
X23009Y4156D01*
X22821Y3875D01*
X22755Y3543D01*
Y-3543D01*
X22755Y-3543D01*
X22755D01*
X22821Y-3875D01*
X23009Y-4156D01*
X23290Y-4344D01*
X23622Y-4410D01*
X31496D01*
X31828Y-4344D01*
X32109Y-4156D01*
X32297Y-3875D01*
X32363Y-3543D01*
Y-3161D01*
X32474Y-2600D01*
X32445Y-2450D01*
X32474Y-2300D01*
X32415Y-2000D01*
X32474Y-1700D01*
X32415Y-1400D01*
X32474Y-1100D01*
X32415Y-800D01*
X32474Y-500D01*
X32415Y-200D01*
X32474Y100D01*
X32415Y400D01*
X32474Y700D01*
X32415Y1000D01*
X32474Y1300D01*
X32415Y1600D01*
X32474Y1900D01*
X32405Y2250D01*
X32474Y2600D01*
X32363Y3161D01*
Y3543D01*
X32297Y3875D01*
X32109Y4156D01*
X31828Y4344D01*
X31496Y4410D01*
D02*
G37*
G36*
X-51181D02*
X-59055D01*
X-59387Y4344D01*
X-59668Y4156D01*
X-59856Y3875D01*
X-59922Y3543D01*
Y-3543D01*
X-59856Y-3875D01*
X-59668Y-4156D01*
X-59387Y-4344D01*
X-59055Y-4410D01*
X-51181D01*
X-50849Y-4344D01*
X-50568Y-4156D01*
X-50380Y-3875D01*
X-50314Y-3543D01*
D01*
D01*
D01*
D01*
D01*
D01*
X-50314D01*
D01*
D01*
D01*
Y-3543D01*
X-50314Y-3543D01*
D01*
D01*
D01*
D01*
D01*
D01*
D01*
D01*
D01*
D01*
D01*
Y-3506D01*
X-50314Y-3161D01*
X-50203Y-2600D01*
X-50233Y-2450D01*
X-50203Y-2300D01*
X-50262Y-2000D01*
X-50203Y-1700D01*
X-50262Y-1400D01*
X-50203Y-1100D01*
X-50262Y-800D01*
X-50203Y-500D01*
X-50262Y-200D01*
X-50203Y100D01*
X-50262Y400D01*
X-50203Y700D01*
X-50262Y1000D01*
X-50203Y1300D01*
X-50262Y1600D01*
X-50203Y1900D01*
X-50272Y2250D01*
X-50203Y2600D01*
X-50314Y3161D01*
Y3543D01*
X-50380Y3875D01*
X-50568Y4156D01*
X-50849Y4344D01*
X-51181Y4410D01*
D02*
G37*
G36*
X-23622D02*
X-31496D01*
X-31828Y4344D01*
X-32109Y4156D01*
X-32297Y3875D01*
X-32363Y3543D01*
Y-3543D01*
X-32297Y-3875D01*
X-32109Y-4156D01*
X-31828Y-4344D01*
X-31496Y-4410D01*
X-23622D01*
X-23290Y-4344D01*
X-23009Y-4156D01*
X-22821Y-3875D01*
X-22755Y-3543D01*
D01*
D01*
D01*
D01*
D01*
D01*
X-22755D01*
D01*
D01*
D01*
Y-3543D01*
X-22755Y-3543D01*
D01*
D01*
D01*
D01*
D01*
D01*
D01*
D01*
D01*
D01*
D01*
Y-3506D01*
X-22755Y-3161D01*
X-22644Y-2600D01*
X-22674Y-2450D01*
X-22644Y-2300D01*
X-22704Y-2000D01*
X-22644Y-1700D01*
X-22704Y-1400D01*
X-22644Y-1100D01*
X-22704Y-800D01*
X-22644Y-500D01*
X-22704Y-200D01*
X-22644Y100D01*
X-22704Y400D01*
X-22644Y700D01*
X-22704Y1000D01*
X-22644Y1300D01*
X-22704Y1600D01*
X-22644Y1900D01*
X-22713Y2250D01*
X-22644Y2600D01*
X-22755Y3161D01*
Y3543D01*
X-22821Y3875D01*
X-23009Y4156D01*
X-23290Y4344D01*
X-23622Y4410D01*
D02*
G37*
G36*
X-275591Y5934D02*
X-276748Y5820D01*
X-277862Y5483D01*
X-278888Y4934D01*
X-279787Y4196D01*
X-280525Y3297D01*
X-281073Y2271D01*
X-281411Y1158D01*
X-281525Y0D01*
X-281411Y-1158D01*
X-281073Y-2271D01*
X-280525Y-3297D01*
X-279787Y-4196D01*
X-278888Y-4934D01*
X-277862Y-5482D01*
X-276748Y-5820D01*
X-275591Y-5934D01*
X-274433Y-5820D01*
X-273320Y-5482D01*
X-272294Y-4934D01*
X-271395Y-4196D01*
X-270657Y-3297D01*
X-270108Y-2271D01*
X-269771Y-1158D01*
X-269657Y0D01*
X-269771Y1158D01*
X-270108Y2271D01*
X-270657Y3297D01*
X-271395Y4196D01*
X-272294Y4934D01*
X-273320Y5483D01*
X-274433Y5820D01*
X-275591Y5934D01*
D02*
G37*
G36*
X101900Y-11971D02*
X101315Y-12087D01*
X100819Y-12419D01*
X100487Y-12915D01*
X100371Y-13500D01*
X100487Y-14085D01*
X100819Y-14581D01*
X101315Y-14913D01*
X101900Y-15029D01*
X102485Y-14913D01*
X102540Y-14876D01*
X109530D01*
X119427Y-24773D01*
D01*
X119427Y-24773D01*
X119427Y-24773D01*
D01*
D01*
D01*
X119427Y-24773D01*
Y-24773D01*
X119873Y-25072D01*
X120400Y-25176D01*
X143730D01*
X150827Y-32273D01*
X151273Y-32572D01*
X151800Y-32676D01*
X213800D01*
X214327Y-32572D01*
X214773Y-32273D01*
X220921Y-26126D01*
X220985Y-26113D01*
X221481Y-25781D01*
X221813Y-25285D01*
X221929Y-24700D01*
X221813Y-24115D01*
X221481Y-23619D01*
X220985Y-23287D01*
X220400Y-23171D01*
X219815Y-23287D01*
X219319Y-23619D01*
X218987Y-24115D01*
X218974Y-24179D01*
X213230Y-29924D01*
X152370D01*
X145273Y-22827D01*
X144827Y-22528D01*
X144300Y-22424D01*
X120970D01*
X111073Y-12527D01*
X110627Y-12228D01*
X110100Y-12124D01*
X102540D01*
X102485Y-12087D01*
X101900Y-11971D01*
D02*
G37*
G36*
X112327Y8756D02*
X111742Y8640D01*
X111245Y8308D01*
X110914Y7812D01*
X110901Y7748D01*
X107627Y4473D01*
X107328Y4027D01*
X107224Y3500D01*
Y-3682D01*
X107223Y-3682D01*
X107224D01*
X107328Y-4209D01*
X107627Y-4655D01*
X121449Y-18477D01*
X121449Y-18477D01*
X121895Y-18776D01*
Y-18776D01*
X121895Y-18776D01*
D01*
D01*
D01*
X121895D01*
Y-18776D01*
D01*
X121895Y-18776D01*
X121895Y-18776D01*
X122422Y-18880D01*
X122422Y-18880D01*
X135298D01*
X135390Y-19018D01*
X135486Y-19114D01*
X136181Y-19578D01*
Y-19578D01*
X136181Y-19578D01*
D01*
D01*
D01*
X136181D01*
Y-19578D01*
D01*
X136181Y-19578D01*
X136181Y-19578D01*
X137000Y-19741D01*
X147713D01*
X155186Y-27214D01*
X155186Y-27214D01*
X155186D01*
X155186Y-27214D01*
X155186D01*
X155186Y-27214D01*
Y-27214D01*
Y-27214D01*
D01*
D01*
X155186D01*
Y-27214D01*
X155881Y-27678D01*
X156700Y-27841D01*
X201100D01*
X201919Y-27678D01*
X202614Y-27214D01*
X203078Y-26519D01*
X203241Y-25700D01*
X203078Y-24881D01*
X202614Y-24186D01*
X201919Y-23722D01*
X201100Y-23559D01*
X157587D01*
X150114Y-16086D01*
X149419Y-15622D01*
Y-15622D01*
X149419D01*
D01*
D01*
D01*
D01*
X149419D01*
Y-15622D01*
D01*
D01*
X149419Y-15622D01*
X149419Y-15622D01*
X149419Y-15622D01*
X149419D01*
X148600Y-15459D01*
X140392D01*
X140201Y-14997D01*
X147249Y-7949D01*
X147448Y-7651D01*
X147459Y-7593D01*
X147518Y-7300D01*
Y-3991D01*
X147681Y-3881D01*
X148013Y-3385D01*
X148129Y-2800D01*
X148013Y-2215D01*
X147681Y-1719D01*
X147185Y-1387D01*
X146600Y-1271D01*
X146015Y-1387D01*
X145519Y-1719D01*
X145187Y-2215D01*
X145071Y-2800D01*
X145187Y-3385D01*
X145519Y-3881D01*
X145682Y-3991D01*
Y-6920D01*
X138520Y-14082D01*
X134391D01*
X134281Y-13919D01*
X133785Y-13587D01*
X133200Y-13471D01*
X132615Y-13587D01*
X132119Y-13919D01*
X132009Y-14082D01*
X123480D01*
X113691Y-4293D01*
X113729Y-4100D01*
X113613Y-3515D01*
X113281Y-3019D01*
X112785Y-2687D01*
X112200Y-2571D01*
X111615Y-2687D01*
X111119Y-3019D01*
X110843Y-3432D01*
X110345Y-3480D01*
X109976Y-3112D01*
Y2930D01*
X112848Y5801D01*
X112912Y5814D01*
X113408Y6145D01*
X113740Y6641D01*
X113856Y7227D01*
X113740Y7812D01*
X113408Y8308D01*
X112912Y8640D01*
X112327Y8756D01*
D02*
G37*
G36*
X275591Y6788D02*
X274266Y6658D01*
X272993Y6272D01*
X271819Y5644D01*
X270791Y4800D01*
X269947Y3771D01*
X269319Y2598D01*
X268933Y1324D01*
X268802Y0D01*
X268933Y-1324D01*
X269319Y-2598D01*
X269947Y-3771D01*
X270791Y-4800D01*
X271819Y-5644D01*
X272993Y-6271D01*
X274266Y-6658D01*
X275591Y-6788D01*
X276915Y-6658D01*
X278188Y-6271D01*
X279362Y-5644D01*
X280391Y-4800D01*
X281235Y-3771D01*
X281862Y-2598D01*
X282248Y-1324D01*
X282379Y0D01*
X282248Y1324D01*
X281862Y2598D01*
X281235Y3771D01*
X280391Y4800D01*
X279362Y5644D01*
X278188Y6272D01*
X276915Y6658D01*
X275591Y6788D01*
D02*
G37*
G36*
X59055Y4410D02*
X51181D01*
X50849Y4344D01*
X50568Y4156D01*
X50380Y3875D01*
X50314Y3543D01*
Y-3543D01*
X50380Y-3875D01*
X50568Y-4156D01*
X50849Y-4344D01*
X51181Y-4410D01*
X59055D01*
X59387Y-4344D01*
X59668Y-4156D01*
X59856Y-3875D01*
X59922Y-3543D01*
D01*
D01*
D01*
D01*
D01*
D01*
X59922D01*
D01*
D01*
D01*
Y-3543D01*
X59922Y-3543D01*
D01*
D01*
D01*
D01*
D01*
D01*
D01*
D01*
D01*
D01*
D01*
Y-3506D01*
X59922Y-3161D01*
X60033Y-2600D01*
X60004Y-2450D01*
X60033Y-2300D01*
X59974Y-2000D01*
X60033Y-1700D01*
X59974Y-1400D01*
X60033Y-1100D01*
X59974Y-800D01*
X60033Y-500D01*
X59974Y-200D01*
X60033Y100D01*
X59974Y400D01*
X60033Y700D01*
X59974Y1000D01*
X60033Y1300D01*
X59974Y1600D01*
X60033Y1900D01*
X59964Y2250D01*
X60033Y2600D01*
X59922Y3161D01*
Y3543D01*
X59856Y3875D01*
X59668Y4156D01*
X59387Y4344D01*
X59055Y4410D01*
D02*
G37*
G36*
X18268Y19797D02*
X17683Y19681D01*
X17186Y19349D01*
X16855Y18853D01*
X16752Y18339D01*
X10315Y11901D01*
X9285Y12780D01*
X7172Y14075D01*
X4882Y15024D01*
X2471Y15602D01*
X0Y15797D01*
X-2471Y15602D01*
X-4882Y15024D01*
X-7172Y14075D01*
X-9285Y12780D01*
X-11170Y11170D01*
X-12780Y9285D01*
X-14075Y7172D01*
X-15024Y4882D01*
X-15602Y2471D01*
X-15797Y0D01*
X-15602Y-2471D01*
X-15024Y-4882D01*
X-14075Y-7172D01*
X-12780Y-9285D01*
X-11170Y-11170D01*
X-9285Y-12780D01*
X-7172Y-14075D01*
X-4882Y-15024D01*
X-2471Y-15602D01*
X0Y-15797D01*
X2471Y-15602D01*
X4882Y-15024D01*
X7172Y-14075D01*
X9285Y-12780D01*
X11170Y-11170D01*
X12780Y-9285D01*
X14075Y-7172D01*
X15024Y-4882D01*
X15602Y-2471D01*
X15797Y0D01*
X15602Y2471D01*
X15024Y4882D01*
X14075Y7172D01*
X12780Y9285D01*
X11901Y10315D01*
X18339Y16752D01*
X18853Y16855D01*
X19349Y17186D01*
X19681Y17683D01*
X19797Y18268D01*
X19681Y18853D01*
X19349Y19349D01*
X18853Y19681D01*
X18268Y19797D01*
D02*
G37*
G36*
X127200Y19929D02*
X126615Y19813D01*
X126119Y19481D01*
X126012Y19321D01*
X101921D01*
X101485Y19613D01*
X100900Y19729D01*
X100315Y19613D01*
X99819Y19281D01*
X99487Y18785D01*
X99371Y18200D01*
X99487Y17615D01*
X99819Y17119D01*
X100315Y16787D01*
X100900Y16671D01*
X101485Y16787D01*
X101921Y17078D01*
X126478D01*
X126615Y16987D01*
X127200Y16871D01*
X127785Y16987D01*
X128281Y17319D01*
X128613Y17815D01*
X128729Y18400D01*
X128613Y18985D01*
X128281Y19481D01*
X127785Y19813D01*
X127200Y19929D01*
D02*
G37*
G36*
X54200Y32731D02*
X53576Y32607D01*
X53047Y32254D01*
X52693Y31724D01*
X52687Y31694D01*
X46847Y25853D01*
X46493Y25324D01*
X46369Y24700D01*
Y18876D01*
X40246Y12754D01*
X39893Y12224D01*
X39769Y11600D01*
X39893Y10976D01*
X40246Y10447D01*
X40776Y10093D01*
X41400Y9969D01*
X42024Y10093D01*
X42553Y10447D01*
X49154Y17047D01*
X49507Y17576D01*
X49631Y18200D01*
D01*
D01*
D01*
D01*
D01*
X49631D01*
D01*
D01*
D01*
D01*
Y18200D01*
X49631D01*
D01*
Y18200D01*
D01*
D01*
D01*
D01*
D01*
D01*
D01*
D01*
D01*
D01*
D01*
D01*
Y18200D01*
D01*
X49631D01*
D01*
D01*
D01*
D01*
X49631Y18200D01*
Y24024D01*
X55353Y29746D01*
X55707Y30276D01*
X55831Y30900D01*
D01*
D01*
D01*
D01*
D01*
D01*
X55831D01*
D01*
D01*
D01*
D01*
D01*
D01*
D01*
X55831D01*
Y30900D01*
D01*
D01*
D01*
D01*
Y30900D01*
D01*
D01*
D01*
D01*
D01*
D01*
D01*
D01*
Y30900D01*
D01*
X55831Y31100D01*
D01*
X55831Y31100D01*
X55831D01*
D01*
D01*
D01*
D01*
D01*
X55792Y31296D01*
X55792Y31296D01*
D01*
D01*
D01*
X55785Y31335D01*
X55707Y31724D01*
Y31724D01*
D01*
D01*
D01*
D01*
D01*
X55707Y31724D01*
X55353Y32254D01*
X54824Y32607D01*
X54200Y32731D01*
D02*
G37*
G36*
X236221Y2217D02*
X235372Y2049D01*
X234652Y1568D01*
X234172Y849D01*
X234003Y0D01*
X234172Y-848D01*
X234652Y-1568D01*
X235372Y-2049D01*
X236221Y-2217D01*
X237069Y-2049D01*
X237788Y-1568D01*
X238269Y-848D01*
X238438Y0D01*
X238269Y849D01*
X237788Y1568D01*
X237069Y2049D01*
X236221Y2217D01*
D02*
G37*
G36*
X-236221D02*
X-237069Y2049D01*
X-237788Y1568D01*
X-238269Y849D01*
X-238438Y0D01*
X-238269Y-848D01*
X-237788Y-1568D01*
X-237069Y-2049D01*
X-236221Y-2217D01*
X-235372Y-2049D01*
X-234652Y-1568D01*
X-234172Y-848D01*
X-234003Y0D01*
X-234172Y849D01*
X-234652Y1568D01*
X-235372Y2049D01*
X-236221Y2217D01*
D02*
G37*
G36*
X-78740D02*
X-79589Y2049D01*
X-80308Y1568D01*
X-80789Y849D01*
X-80958Y0D01*
X-80789Y-848D01*
X-80308Y-1568D01*
X-79589Y-2049D01*
X-78740Y-2217D01*
X-77892Y-2049D01*
X-77172Y-1568D01*
X-76692Y-848D01*
X-76523Y0D01*
X-76692Y849D01*
X-77172Y1568D01*
X-77892Y2049D01*
X-78740Y2217D01*
D02*
G37*
G36*
X78740D02*
X77892Y2049D01*
X77172Y1568D01*
X76692Y849D01*
X76523Y0D01*
X76692Y-848D01*
X77172Y-1568D01*
X77892Y-2049D01*
X78740Y-2217D01*
X79589Y-2049D01*
X80308Y-1568D01*
X80789Y-848D01*
X80958Y0D01*
X80789Y849D01*
X80308Y1568D01*
X79589Y2049D01*
X78740Y2217D01*
D02*
G37*
%LPD*%
D10*
X9843Y0D02*
X9792Y996D01*
X9641Y1981D01*
X9391Y2946D01*
X9045Y3881D01*
X8606Y4777D01*
X8078Y5623D01*
X7468Y6411D01*
X6781Y7134D01*
X6025Y7783D01*
X5206Y8353D01*
X4335Y8837D01*
X3418Y9230D01*
X2467Y9528D01*
X1490Y9729D01*
X499Y9830D01*
X-499D01*
X-1490Y9729D01*
X-2467Y9528D01*
X-3418Y9230D01*
X-4335Y8837D01*
X-5206Y8353D01*
X-6025Y7783D01*
X-6781Y7134D01*
X-7468Y6411D01*
X-8078Y5623D01*
X-8606Y4777D01*
X-9045Y3881D01*
X-9391Y2946D01*
X-9641Y1981D01*
X-9792Y996D01*
X-9843Y-0D01*
X-9792Y-996D01*
X-9641Y-1981D01*
X-9391Y-2946D01*
X-9045Y-3881D01*
X-8606Y-4777D01*
X-8078Y-5623D01*
X-7468Y-6411D01*
X-6781Y-7134D01*
X-6025Y-7783D01*
X-5206Y-8353D01*
X-4335Y-8837D01*
X-3418Y-9230D01*
X-2467Y-9528D01*
X-1490Y-9729D01*
X-499Y-9830D01*
X499D01*
X1491Y-9729D01*
X2467Y-9528D01*
X3418Y-9230D01*
X4335Y-8837D01*
X5206Y-8353D01*
X6025Y-7783D01*
X6781Y-7134D01*
X7468Y-6411D01*
X8078Y-5623D01*
X8606Y-4777D01*
X9045Y-3881D01*
X9391Y-2946D01*
X9641Y-1981D01*
X9792Y-996D01*
X9843Y0D01*
D11*
X305118Y31496D02*
D03*
X-305118Y220472D02*
D03*
D12*
X8000Y8000D02*
X18268Y18268D01*
X100900Y18200D02*
X127000D01*
X127200Y18400D01*
D13*
X108600Y-3682D02*
X122422Y-17504D01*
X108600Y-3682D02*
Y3500D01*
X112327Y7227D01*
X122422Y-17504D02*
X136904D01*
X101900Y-13500D02*
X110100D01*
X120400Y-23800D01*
X144300D01*
X151800Y-31300D01*
X213800D01*
X220400Y-24700D01*
D14*
X136904Y-17504D02*
X137000Y-17600D01*
X148600D01*
X156700Y-25700D01*
X201100D01*
D15*
X133200Y-15000D02*
X138900D01*
X146600Y-7300D01*
Y-2800D01*
X112200Y-4100D02*
X123100Y-15000D01*
X133200D01*
X177100Y17000D02*
X177200Y16900D01*
Y10400D02*
Y16900D01*
X168200Y1500D02*
X168300Y1400D01*
X170200Y4200D02*
Y19100D01*
X166200Y-800D02*
Y28900D01*
X57900Y22100D02*
X58000D01*
X179100Y3400D02*
Y23600D01*
X166300Y36400D02*
X179100Y23600D01*
X163800Y31300D02*
X166200Y28900D01*
X67100Y31300D02*
X163800D01*
X181200Y5500D02*
Y24000D01*
X175300Y7900D02*
X175400Y7800D01*
X172700Y6700D02*
Y20600D01*
X175300Y7900D02*
Y24600D01*
X164900Y35000D02*
X175300Y24600D01*
X167600Y37600D02*
X181200Y24000D01*
X52000Y13900D02*
Y18646D01*
X66000Y35000D02*
X164900D01*
X168300Y1400D02*
Y29200D01*
X164000Y33500D02*
X168300Y29200D01*
X66854Y33500D02*
X164000D01*
X52000Y18646D02*
X66854Y33500D01*
X52300Y23200D02*
X54200D01*
X66000Y35000D01*
X-49500Y31300D02*
X-43200Y37600D01*
X167600D01*
X-20100Y36400D02*
X166300D01*
X-25700Y30800D02*
X-20100Y36400D01*
X57900Y22100D02*
X67100Y31300D01*
D16*
X161500Y-4000D02*
X163700Y-1800D01*
Y11800D01*
X54200Y30900D02*
Y31100D01*
X48000Y24700D02*
X54200Y30900D01*
X41400Y11600D02*
X48000Y18200D01*
Y24700D01*
D17*
X8000Y8000D02*
D03*
X18268Y18268D02*
D03*
X146000Y-13500D02*
D03*
X142500Y-28700D02*
D03*
X136100Y-28600D02*
D03*
X133800D02*
D03*
X74500Y-16000D02*
D03*
X201100Y-25700D02*
D03*
X-48000Y-16900D02*
D03*
X-65000Y-17000D02*
D03*
X-59000Y-16500D02*
D03*
X-190000Y5000D02*
D03*
X122500Y-28600D02*
D03*
X-68000Y-16900D02*
D03*
X112200Y-4100D02*
D03*
X82500Y10000D02*
D03*
X136904Y-17504D02*
D03*
X112327Y7227D02*
D03*
X127200Y18400D02*
D03*
X100900Y18200D02*
D03*
X146600Y-2800D02*
D03*
X-162500Y3300D02*
D03*
X-140000Y10000D02*
D03*
X-150000D02*
D03*
X-245000Y0D02*
D03*
Y10000D02*
D03*
Y-10000D02*
D03*
X-290000Y-35000D02*
D03*
Y-25000D02*
D03*
Y-5000D02*
D03*
Y-15000D02*
D03*
Y5000D02*
D03*
Y25000D02*
D03*
Y15000D02*
D03*
Y35000D02*
D03*
X157500Y-12500D02*
D03*
X163000D02*
D03*
X290000Y27500D02*
D03*
Y7500D02*
D03*
Y-2500D02*
D03*
Y-22500D02*
D03*
Y-12500D02*
D03*
Y-32500D02*
D03*
X-195000Y-35000D02*
D03*
X-185000D02*
D03*
X-205000D02*
D03*
X-225000D02*
D03*
X-215000D02*
D03*
X-235000D02*
D03*
X-255000D02*
D03*
X-245000D02*
D03*
X-265000D02*
D03*
X-275000D02*
D03*
X-195000Y-15000D02*
D03*
X-185000D02*
D03*
X-205000D02*
D03*
X-225000D02*
D03*
X-215000D02*
D03*
X-235000D02*
D03*
X-255000D02*
D03*
X-245000D02*
D03*
X-265000D02*
D03*
X-275000D02*
D03*
X-200000Y35000D02*
D03*
X-190000D02*
D03*
X-210000D02*
D03*
X-230000D02*
D03*
X-220000D02*
D03*
X-240000D02*
D03*
X-260000D02*
D03*
X-250000D02*
D03*
X-270000D02*
D03*
X-280000D02*
D03*
X-100000D02*
D03*
X-90000D02*
D03*
X-110000D02*
D03*
X-130000D02*
D03*
X-120000D02*
D03*
X-140000D02*
D03*
X-160000D02*
D03*
X-150000D02*
D03*
X-170000D02*
D03*
X-180000D02*
D03*
X-60000D02*
D03*
X-70000D02*
D03*
X-80000D02*
D03*
X-77500Y-22500D02*
D03*
X-87500D02*
D03*
X-107500D02*
D03*
X-97500D02*
D03*
X-117500D02*
D03*
X-127500D02*
D03*
X-105000Y0D02*
D03*
X-95000D02*
D03*
X-115000D02*
D03*
X-135000D02*
D03*
X-125000D02*
D03*
X-145000D02*
D03*
X-155000D02*
D03*
X10000Y17500D02*
D03*
X-7500D02*
D03*
X2500D02*
D03*
X-17500D02*
D03*
X-37500D02*
D03*
X-47500D02*
D03*
X-57500D02*
D03*
X240000Y36900D02*
D03*
X230000D02*
D03*
X250000D02*
D03*
X270000D02*
D03*
X260000D02*
D03*
X280000D02*
D03*
X290000D02*
D03*
X240000Y17500D02*
D03*
X230000D02*
D03*
X250000D02*
D03*
X270000D02*
D03*
X260000D02*
D03*
X280000D02*
D03*
X290000D02*
D03*
X260000Y0D02*
D03*
Y10000D02*
D03*
Y-10000D02*
D03*
Y-30000D02*
D03*
Y-20000D02*
D03*
X275000Y-22500D02*
D03*
Y-12500D02*
D03*
Y-32500D02*
D03*
X-203000Y5000D02*
D03*
X-212500D02*
D03*
X-222500D02*
D03*
X-172500Y2900D02*
D03*
X-182200Y2700D02*
D03*
X-162500Y-5000D02*
D03*
X-172500D02*
D03*
X-182500D02*
D03*
X-150000Y-20000D02*
D03*
X-160000D02*
D03*
X-170000D02*
D03*
X-135000Y-35000D02*
D03*
X-145000D02*
D03*
X-155000D02*
D03*
X47800Y9700D02*
D03*
X72500Y29000D02*
D03*
X69500D02*
D03*
X77500Y9900D02*
D03*
X85000Y5000D02*
D03*
Y-5000D02*
D03*
X220000Y27000D02*
D03*
X202300Y36500D02*
D03*
X220000Y-15000D02*
D03*
Y-5000D02*
D03*
Y5000D02*
D03*
X242500Y-15000D02*
D03*
Y5000D02*
D03*
X255000Y-15000D02*
D03*
Y-5000D02*
D03*
X254500Y7300D02*
D03*
X252500Y-30000D02*
D03*
X242500Y-32000D02*
D03*
X232500D02*
D03*
X-221000Y500D02*
D03*
X-235000Y7500D02*
D03*
X-238500Y-7500D02*
D03*
X-231500Y14000D02*
D03*
X-77500Y7500D02*
D03*
X-80000Y-7500D02*
D03*
X-76000Y12500D02*
D03*
X84900Y-500D02*
D03*
X67500Y10000D02*
D03*
X72500D02*
D03*
X31500Y13500D02*
D03*
X85000Y-10000D02*
D03*
X101300Y-7200D02*
D03*
X97000Y1500D02*
D03*
X102000Y15000D02*
D03*
Y11000D02*
D03*
Y4500D02*
D03*
X129400Y-28600D02*
D03*
X145000Y12500D02*
D03*
X161900Y25400D02*
D03*
X128000Y29500D02*
D03*
X135000Y600D02*
D03*
X125000D02*
D03*
X130000D02*
D03*
X135000Y5500D02*
D03*
X125000D02*
D03*
X130000D02*
D03*
X135000Y-4400D02*
D03*
X125000D02*
D03*
X130000D02*
D03*
X227400Y12800D02*
D03*
X207500Y36500D02*
D03*
Y27000D02*
D03*
X214000Y36500D02*
D03*
Y27000D02*
D03*
X254500Y10000D02*
D03*
X54200Y31100D02*
D03*
X48000Y24700D02*
D03*
X41400Y11600D02*
D03*
X101900Y-13500D02*
D03*
X133200Y-15000D02*
D03*
X242500Y-5000D02*
D03*
X220400Y-24700D02*
D03*
X177100Y17000D02*
D03*
X166200Y-800D02*
D03*
X161500Y-4000D02*
D03*
X163700Y11800D02*
D03*
X161300Y13600D02*
D03*
X177200Y10400D02*
D03*
X170200Y19100D02*
D03*
X168300Y1400D02*
D03*
X170200Y4200D02*
D03*
X52000Y13900D02*
D03*
X58000Y22100D02*
D03*
X179100Y3400D02*
D03*
X181200Y5500D02*
D03*
X172700Y6700D02*
D03*
X175400Y7800D02*
D03*
X52300Y23200D02*
D03*
X172500Y20800D02*
D03*
X242500Y-20000D02*
D03*
X147500Y25000D02*
D03*
X138500D02*
D03*
X142500Y28500D02*
D03*
X126500Y16000D02*
D03*
X95000Y-5000D02*
D03*
X67500Y20000D02*
D03*
X77500D02*
D03*
Y-15000D02*
D03*
X74500Y-12500D02*
D03*
X14500Y31500D02*
D03*
Y27500D02*
D03*
X95400Y-300D02*
D03*
X205000Y15700D02*
D03*
X193800Y15300D02*
D03*
X202200Y4400D02*
D03*
X182100Y-4200D02*
D03*
X200200Y-11500D02*
D03*
X200100Y-1700D02*
D03*
X205000Y-15000D02*
D03*
X200500Y-18500D02*
D03*
X214000Y-24500D02*
D03*
X169000Y-11500D02*
D03*
X151000Y-37000D02*
D03*
X36300Y-21000D02*
D03*
X60100Y-20600D02*
D03*
X45600Y-21100D02*
D03*
X-1100Y-21000D02*
D03*
X25800Y-21100D02*
D03*
X14000Y-20800D02*
D03*
X-21400Y-23800D02*
D03*
X-32000Y-18500D02*
D03*
X-10900Y-24000D02*
D03*
X-71500Y-28500D02*
D03*
X-51500D02*
D03*
X-61500D02*
D03*
X-17500Y27000D02*
D03*
X2500D02*
D03*
X-7500D02*
D03*
X45500Y-14000D02*
D03*
X89000Y16000D02*
D03*
X61000D02*
D03*
X100000Y23500D02*
D03*
X95500Y7500D02*
D03*
X96000Y27000D02*
D03*
X-125000Y-29000D02*
D03*
X-115000D02*
D03*
X-105000D02*
D03*
X-120000Y-37000D02*
D03*
X-110000D02*
D03*
X-100000D02*
D03*
X-90000D02*
D03*
X-80000D02*
D03*
X-70000D02*
D03*
X-62000D02*
D03*
X-52000D02*
D03*
X-42000D02*
D03*
X-34000D02*
D03*
X-24000D02*
D03*
X-14000D02*
D03*
X-3000D02*
D03*
X7000D02*
D03*
X17000D02*
D03*
X28000D02*
D03*
X38000D02*
D03*
X48000D02*
D03*
X59000D02*
D03*
X69000D02*
D03*
X79000D02*
D03*
X90000D02*
D03*
X100000D02*
D03*
X110000D02*
D03*
X120000D02*
D03*
X130000D02*
D03*
X140000D02*
D03*
X89800Y-30700D02*
D03*
X99800D02*
D03*
X109800D02*
D03*
X59000Y-30600D02*
D03*
X69000D02*
D03*
X79000D02*
D03*
X27700Y-30500D02*
D03*
X37700D02*
D03*
X47700D02*
D03*
X-3900Y-30600D02*
D03*
X6100D02*
D03*
X16100D02*
D03*
X-34900D02*
D03*
X-24900D02*
D03*
X-14900D02*
D03*
X-97100Y-29100D02*
D03*
X-87100D02*
D03*
X-77100D02*
D03*
X-120000Y-11300D02*
D03*
X-130000D02*
D03*
X-140000D02*
D03*
X-140700Y-27900D02*
D03*
X-150700D02*
D03*
X-160700D02*
D03*
X22600Y-24400D02*
D03*
X12600D02*
D03*
X2600D02*
D03*
X60400Y-24500D02*
D03*
X50400D02*
D03*
X40400D02*
D03*
X105800Y-24900D02*
D03*
X95800D02*
D03*
X69900Y-25200D02*
D03*
X104000Y-18500D02*
D03*
X94000D02*
D03*
X83300Y-16300D02*
D03*
X113400Y-20900D02*
D03*
X117600Y-16600D02*
D03*
X111100Y-10900D02*
D03*
X117500Y-25400D02*
D03*
X145700Y-29500D02*
D03*
X121200Y-20800D02*
D03*
X152200Y-26200D02*
D03*
X146800Y-22800D02*
D03*
X144400Y-21000D02*
D03*
X157400Y-21900D02*
D03*
X148300Y-13400D02*
D03*
X140800Y-10300D02*
D03*
X172200Y-28900D02*
D03*
X164100D02*
D03*
X165200Y-21800D02*
D03*
X182600Y-37600D02*
D03*
X172600D02*
D03*
X162600D02*
D03*
X270000Y-36700D02*
D03*
X260000D02*
D03*
X250000D02*
D03*
X253500Y-20000D02*
D03*
X245800Y-18800D02*
D03*
X246400Y-26100D02*
D03*
X51000Y34000D02*
D03*
X53000D02*
D03*
X55379Y18832D02*
D03*
X63000Y22000D02*
D03*
X39000Y23000D02*
D03*
Y26000D02*
D03*
X24000Y23000D02*
D03*
X45000Y27000D02*
D03*
X62000Y34000D02*
D03*
X56000Y29000D02*
D03*
X-49500Y31300D02*
D03*
X-25700Y30800D02*
D03*
M02*
