G04 Layer_Physical_Order=1*
G04 Layer_Color=255*
%FSLAX25Y25*%
%MOIN*%
G70*
G01*
G75*
%ADD10C,0.03937*%
%ADD11O,0.02756X0.07087*%
%ADD12R,0.02165X0.01772*%
%ADD13R,0.01772X0.02165*%
%ADD14R,0.03200X0.04000*%
%ADD15R,0.07087X0.05315*%
%ADD16R,0.05905X0.14961*%
%ADD17R,0.14173X0.05905*%
%ADD18R,0.13386X0.03937*%
%ADD19O,0.08661X0.02756*%
%ADD20R,0.01968X0.04134*%
%ADD21R,0.04000X0.03200*%
%ADD22R,0.05000X0.03937*%
%ADD23R,0.03937X0.03937*%
%ADD24R,0.05000X0.05000*%
%ADD25R,0.03937X0.02953*%
%ADD26R,0.13780X0.04724*%
%ADD27R,0.13386X0.05905*%
%ADD28R,0.05315X0.07087*%
%ADD29R,0.03937X0.09842*%
G04:AMPARAMS|DCode=30|XSize=47.24mil|YSize=47.24mil|CornerRadius=11.81mil|HoleSize=0mil|Usage=FLASHONLY|Rotation=90.000|XOffset=0mil|YOffset=0mil|HoleType=Round|Shape=RoundedRectangle|*
%AMROUNDEDRECTD30*
21,1,0.04724,0.02362,0,0,90.0*
21,1,0.02362,0.04724,0,0,90.0*
1,1,0.02362,0.01181,0.01181*
1,1,0.02362,0.01181,-0.01181*
1,1,0.02362,-0.01181,-0.01181*
1,1,0.02362,-0.01181,0.01181*
%
%ADD30ROUNDEDRECTD30*%
%ADD31R,0.06299X0.01575*%
%ADD32C,0.02000*%
%ADD33C,0.00800*%
%ADD34C,0.00600*%
%ADD35C,0.01000*%
%ADD36C,0.03000*%
%ADD37C,0.01500*%
%ADD38C,0.18898*%
%ADD39C,0.05905*%
%ADD40R,0.05905X0.05905*%
%ADD41O,0.05905X0.04724*%
%ADD42C,0.04724*%
%ADD43C,0.01800*%
G36*
X249119Y76669D02*
X249969Y76500D01*
X250398Y76585D01*
X250898Y76175D01*
Y47120D01*
X250398Y46848D01*
X249732Y46981D01*
X247370D01*
X246597Y46827D01*
X245942Y46389D01*
X245504Y45734D01*
X245350Y44961D01*
Y42598D01*
X245504Y41825D01*
X245942Y41170D01*
X246597Y40732D01*
X247370Y40578D01*
X249732D01*
X250398Y40711D01*
X250898Y40439D01*
Y38262D01*
X250398Y37990D01*
X249732Y38122D01*
X247370D01*
X246597Y37969D01*
X245942Y37531D01*
X245504Y36875D01*
X245350Y36102D01*
Y33740D01*
X245504Y32967D01*
X245942Y32312D01*
X246597Y31874D01*
X247370Y31720D01*
X249732D01*
X250398Y31853D01*
X250898Y31581D01*
Y1949D01*
X174299D01*
Y76259D01*
X174685Y76576D01*
X175068Y76500D01*
X175918Y76669D01*
X176043Y76752D01*
X176994D01*
X177119Y76669D01*
X177969Y76500D01*
X178818Y76669D01*
X178943Y76752D01*
X179994D01*
X180119Y76669D01*
X180968Y76500D01*
X181818Y76669D01*
X181943Y76752D01*
X182994D01*
X183119Y76669D01*
X183968Y76500D01*
X184818Y76669D01*
X184943Y76752D01*
X185994D01*
X186119Y76669D01*
X186969Y76500D01*
X187818Y76669D01*
X187943Y76752D01*
X189494D01*
X189619Y76669D01*
X190469Y76500D01*
X191318Y76669D01*
X191443Y76752D01*
X192994D01*
X193119Y76669D01*
X193968Y76500D01*
X194818Y76669D01*
X194943Y76752D01*
X196494D01*
X196619Y76669D01*
X197468Y76500D01*
X198318Y76669D01*
X198443Y76752D01*
X199994D01*
X200119Y76669D01*
X200969Y76500D01*
X201818Y76669D01*
X201943Y76752D01*
X203494D01*
X203619Y76669D01*
X204468Y76500D01*
X205318Y76669D01*
X205443Y76752D01*
X206994D01*
X207119Y76669D01*
X207968Y76500D01*
X208818Y76669D01*
X208943Y76752D01*
X210494D01*
X210619Y76669D01*
X211469Y76500D01*
X212318Y76669D01*
X212443Y76752D01*
X213994D01*
X214119Y76669D01*
X214968Y76500D01*
X215818Y76669D01*
X215943Y76752D01*
X217494D01*
X217619Y76669D01*
X218468Y76500D01*
X219318Y76669D01*
X219443Y76752D01*
X220994D01*
X221119Y76669D01*
X221969Y76500D01*
X222818Y76669D01*
X222943Y76752D01*
X224494D01*
X224619Y76669D01*
X225468Y76500D01*
X226318Y76669D01*
X226443Y76752D01*
X227494D01*
X227619Y76669D01*
X228468Y76500D01*
X229318Y76669D01*
X229443Y76752D01*
X230494D01*
X230619Y76669D01*
X231469Y76500D01*
X232318Y76669D01*
X232443Y76752D01*
X233494D01*
X233619Y76669D01*
X234469Y76500D01*
X235318Y76669D01*
X235443Y76752D01*
X236994D01*
X237119Y76669D01*
X237968Y76500D01*
X238818Y76669D01*
X238943Y76752D01*
X239994D01*
X240119Y76669D01*
X240968Y76500D01*
X241818Y76669D01*
X241943Y76752D01*
X242994D01*
X243119Y76669D01*
X243969Y76500D01*
X244818Y76669D01*
X244943Y76752D01*
X245994D01*
X246119Y76669D01*
X246969Y76500D01*
X247818Y76669D01*
X247943Y76752D01*
X248994D01*
X249119Y76669D01*
D02*
G37*
G36*
X-47600Y-124618D02*
X-41622D01*
Y-126035D01*
X-44465Y-128878D01*
X-65367D01*
X-65541Y-128459D01*
X-65447Y-128234D01*
X-60935D01*
Y-127622D01*
X-57000D01*
X-57000Y-127622D01*
X-56571Y-127536D01*
X-56207Y-127293D01*
X-55530Y-126617D01*
X-55068Y-126808D01*
Y-128319D01*
X-53000D01*
Y-125749D01*
X-52501D01*
Y-125250D01*
X-49931D01*
Y-123181D01*
D01*
Y-123181D01*
X-49922Y-123172D01*
X-47600D01*
Y-124618D01*
D02*
G37*
G36*
X-28569Y-74729D02*
X-28271Y-74928D01*
X-28213Y-74940D01*
X-27920Y-74998D01*
X-22279D01*
X-22181Y-75488D01*
X-22540Y-75637D01*
X-23282Y-76206D01*
X-23851Y-76948D01*
X-24209Y-77813D01*
X-24331Y-78740D01*
X-24209Y-79668D01*
X-23851Y-80532D01*
X-23845Y-80540D01*
X-29629Y-86324D01*
X-29828Y-86621D01*
X-29898Y-86972D01*
Y-118399D01*
X-30299Y-118697D01*
X-30468Y-118646D01*
X-30550Y-118233D01*
X-30904Y-117703D01*
X-31433Y-117350D01*
X-32057Y-117226D01*
X-32174Y-117249D01*
X-33900D01*
Y-117081D01*
X-39100D01*
Y-117754D01*
X-39579Y-117899D01*
X-39707Y-117707D01*
X-41207Y-116207D01*
X-41571Y-115964D01*
X-42000Y-115878D01*
X-42000Y-115878D01*
X-46862D01*
X-48096Y-114645D01*
X-47905Y-114183D01*
X-45687D01*
Y-114183D01*
X-45687D01*
X-45687Y-114183D01*
X-45313Y-114183D01*
Y-114183D01*
X-44327D01*
Y-112499D01*
X-43828D01*
Y-112000D01*
X-42341D01*
Y-110863D01*
X-41879Y-110671D01*
X-41397Y-111153D01*
X-40868Y-111507D01*
X-40243Y-111631D01*
X-39100D01*
Y-115919D01*
X-33900D01*
Y-111519D01*
X-34869D01*
Y-111500D01*
X-34993Y-110876D01*
X-35346Y-110346D01*
X-36847Y-108846D01*
X-37376Y-108493D01*
X-38000Y-108369D01*
X-37889Y-108257D01*
X-36342D01*
Y-105001D01*
Y-101742D01*
X-39845D01*
X-40080Y-101302D01*
X-39774Y-100843D01*
X-39650Y-100219D01*
Y-99600D01*
X-39081D01*
Y-94400D01*
X-40109D01*
Y-90815D01*
X-40156Y-90578D01*
Y-88148D01*
X-40156Y-88148D01*
X-40156D01*
X-40275Y-87861D01*
X-38535Y-86122D01*
X-35965D01*
X-35381Y-86705D01*
Y-88148D01*
X-35844D01*
Y-93482D01*
X-32676D01*
Y-88148D01*
X-33138D01*
Y-86240D01*
X-33138Y-86240D01*
X-33224Y-85811D01*
X-33224D01*
D01*
D01*
X-33224Y-85811D01*
D01*
D01*
D01*
D01*
X-33224Y-85811D01*
D01*
D01*
Y-85811D01*
D01*
X-33224D01*
D01*
D01*
X-33224D01*
D01*
D01*
X-33467Y-85447D01*
X-33467Y-85447D01*
X-34707Y-84207D01*
X-35071Y-83964D01*
X-35500Y-83878D01*
X-35500Y-83878D01*
X-39000D01*
X-39000Y-83878D01*
X-39429Y-83964D01*
X-39721Y-84159D01*
X-40083Y-83917D01*
X-40134Y-83866D01*
X-40109Y-83740D01*
D01*
D01*
D01*
D01*
D01*
X-40109D01*
D01*
D01*
D01*
D01*
Y-83740D01*
X-40109D01*
D01*
Y-83740D01*
D01*
D01*
D01*
D01*
D01*
D01*
D01*
D01*
D01*
D01*
D01*
D01*
Y-83740D01*
D01*
X-40109D01*
D01*
D01*
D01*
D01*
X-40109Y-83740D01*
Y-80185D01*
X-40109Y-80185D01*
X-40109Y-80185D01*
Y-76622D01*
X-37521D01*
X-37085Y-76913D01*
X-36500Y-77029D01*
X-35915Y-76913D01*
X-35419Y-76581D01*
X-35087Y-76085D01*
X-34971Y-75500D01*
X-35052Y-75093D01*
Y-74183D01*
X-34687Y-74183D01*
D01*
D01*
X-34313Y-74183D01*
Y-74183D01*
X-31341D01*
Y-73418D01*
X-29880D01*
X-28569Y-74729D01*
D02*
G37*
G36*
X-77500Y-34500D02*
X-64000D01*
X-59000Y-39500D01*
Y-47500D01*
X-56500Y-50000D01*
X-45000D01*
X-42500Y-52500D01*
Y-56000D01*
X-43000Y-56500D01*
X-49000D01*
X-51000Y-58500D01*
Y-61000D01*
X-51500Y-61500D01*
X-56000D01*
X-57445Y-60055D01*
Y-52555D01*
X-62000Y-48000D01*
Y-41000D01*
X-64500Y-38500D01*
X-77500D01*
X-78500Y-39500D01*
Y-42323D01*
X-79129Y-42953D01*
X-82547D01*
X-83000Y-42500D01*
Y-38000D01*
X-82500Y-37500D01*
Y-32410D01*
X-82220Y-32130D01*
X-79870D01*
X-77500Y-34500D01*
D02*
G37*
G36*
X-75500Y-117500D02*
X-73000D01*
X-72500Y-118000D01*
Y-121000D01*
X-70500Y-123000D01*
X-66500D01*
X-66000Y-123500D01*
Y-128000D01*
X-66500Y-128500D01*
X-82563D01*
X-83563Y-127500D01*
Y-122937D01*
X-86500Y-120000D01*
Y-114500D01*
X-85693Y-113693D01*
X-79307D01*
X-75500Y-117500D01*
D02*
G37*
G36*
X-57183Y-91313D02*
X-57183D01*
X-57183Y-91687D01*
X-57183D01*
Y-93270D01*
X-58293Y-94380D01*
X-58536Y-94744D01*
X-58622Y-95173D01*
X-58622Y-95173D01*
Y-103035D01*
X-59234Y-103648D01*
X-59675Y-103412D01*
X-59574Y-102902D01*
Y-101236D01*
X-63607D01*
Y-102902D01*
X-63453Y-103673D01*
X-63016Y-104328D01*
X-62908Y-104400D01*
X-63053Y-104878D01*
X-65127D01*
X-65260Y-104439D01*
X-65269Y-104398D01*
X-65164Y-104328D01*
X-64727Y-103673D01*
X-64574Y-102902D01*
Y-98571D01*
X-64727Y-97799D01*
X-65164Y-97145D01*
X-65469Y-96941D01*
Y-94555D01*
X-61862Y-90948D01*
X-57183D01*
X-57183Y-91313D01*
D02*
G37*
G36*
X-15386Y-1338D02*
X-16120Y-1940D01*
X-17376Y-3471D01*
X-18309Y-5216D01*
X-18884Y-7110D01*
X-19078Y-9080D01*
X-18884Y-11050D01*
X-18309Y-12944D01*
X-17376Y-14690D01*
X-16120Y-16220D01*
X-14590Y-17476D01*
X-12844Y-18409D01*
X-10950Y-18984D01*
X-8980Y-19178D01*
X-7010Y-18984D01*
X-5116Y-18409D01*
X-3370Y-17476D01*
X-1840Y-16220D01*
X-1337Y-15608D01*
X-867Y-15776D01*
Y-141785D01*
X-1337Y-141953D01*
X-1840Y-141340D01*
X-3370Y-140085D01*
X-5116Y-139152D01*
X-7010Y-138577D01*
X-8980Y-138383D01*
X-10950Y-138577D01*
X-12844Y-139152D01*
X-14590Y-140085D01*
X-16120Y-141340D01*
X-17376Y-142871D01*
X-18309Y-144616D01*
X-18884Y-146511D01*
X-19078Y-148480D01*
X-18884Y-150450D01*
X-18309Y-152345D01*
X-17376Y-154090D01*
X-16120Y-155620D01*
X-15484Y-156143D01*
X-15652Y-156614D01*
X-20187D01*
Y-156233D01*
X-20187D01*
Y-149128D01*
X-27293D01*
Y-156233D01*
X-27293D01*
Y-156260D01*
X-27646Y-156614D01*
X-32671D01*
X-32768Y-156123D01*
X-31948Y-155784D01*
X-31206Y-155214D01*
X-30637Y-154472D01*
X-30279Y-153608D01*
X-30157Y-152680D01*
X-30279Y-151753D01*
X-30637Y-150889D01*
X-31206Y-150146D01*
X-31948Y-149577D01*
X-32813Y-149219D01*
X-33740Y-149097D01*
X-34668Y-149219D01*
X-35532Y-149577D01*
X-36274Y-150146D01*
X-36843Y-150889D01*
X-37201Y-151753D01*
X-37323Y-152680D01*
X-37201Y-153608D01*
X-36843Y-154472D01*
X-36274Y-155214D01*
X-35532Y-155784D01*
X-34712Y-156123D01*
X-34809Y-156614D01*
X-42671D01*
X-42768Y-156123D01*
X-41948Y-155784D01*
X-41206Y-155214D01*
X-40637Y-154472D01*
X-40279Y-153608D01*
X-40222Y-153180D01*
X-47258D01*
X-47201Y-153608D01*
X-46843Y-154472D01*
X-46274Y-155214D01*
X-45532Y-155784D01*
X-44712Y-156123D01*
X-44809Y-156614D01*
X-52671D01*
X-52768Y-156123D01*
X-51948Y-155784D01*
X-51206Y-155214D01*
X-50637Y-154472D01*
X-50279Y-153608D01*
X-50157Y-152680D01*
X-50279Y-151753D01*
X-50637Y-150889D01*
X-51206Y-150146D01*
X-51948Y-149577D01*
X-52813Y-149219D01*
X-53740Y-149097D01*
X-54668Y-149219D01*
X-55532Y-149577D01*
X-56274Y-150146D01*
X-56843Y-150889D01*
X-57201Y-151753D01*
X-57323Y-152680D01*
X-57201Y-153608D01*
X-56843Y-154472D01*
X-56274Y-155214D01*
X-55532Y-155784D01*
X-54712Y-156123D01*
X-54809Y-156614D01*
X-62671D01*
X-62768Y-156123D01*
X-61948Y-155784D01*
X-61206Y-155214D01*
X-60637Y-154472D01*
X-60279Y-153608D01*
X-60157Y-152680D01*
X-60279Y-151753D01*
X-60637Y-150889D01*
X-61206Y-150146D01*
X-61948Y-149577D01*
X-62813Y-149219D01*
X-63740Y-149097D01*
X-64668Y-149219D01*
X-65532Y-149577D01*
X-66274Y-150146D01*
X-66843Y-150889D01*
X-67201Y-151753D01*
X-67323Y-152680D01*
X-67201Y-153608D01*
X-66843Y-154472D01*
X-66274Y-155214D01*
X-65532Y-155784D01*
X-64712Y-156123D01*
X-64810Y-156614D01*
X-72671D01*
X-72768Y-156123D01*
X-71948Y-155784D01*
X-71206Y-155214D01*
X-70637Y-154472D01*
X-70279Y-153608D01*
X-70157Y-152680D01*
X-70279Y-151753D01*
X-70637Y-150889D01*
X-71206Y-150146D01*
X-71948Y-149577D01*
X-72813Y-149219D01*
X-73740Y-149097D01*
X-74668Y-149219D01*
X-75532Y-149577D01*
X-76274Y-150146D01*
X-76843Y-150889D01*
X-77201Y-151753D01*
X-77324Y-152680D01*
X-77201Y-153608D01*
X-76843Y-154472D01*
X-76274Y-155214D01*
X-75532Y-155784D01*
X-74712Y-156123D01*
X-74809Y-156614D01*
X-82671D01*
X-82768Y-156123D01*
X-81948Y-155784D01*
X-81206Y-155214D01*
X-80637Y-154472D01*
X-80279Y-153608D01*
X-80222Y-153180D01*
X-87258D01*
X-87201Y-153608D01*
X-86843Y-154472D01*
X-86274Y-155214D01*
X-85532Y-155784D01*
X-84712Y-156123D01*
X-84809Y-156614D01*
X-92671D01*
X-92768Y-156123D01*
X-91948Y-155784D01*
X-91206Y-155214D01*
X-90637Y-154472D01*
X-90279Y-153608D01*
X-90157Y-152680D01*
X-90279Y-151753D01*
X-90637Y-150889D01*
X-91206Y-150146D01*
X-91948Y-149577D01*
X-92813Y-149219D01*
X-93740Y-149097D01*
X-94668Y-149219D01*
X-95532Y-149577D01*
X-96274Y-150146D01*
X-96843Y-150889D01*
X-97201Y-151753D01*
X-97324Y-152680D01*
X-97201Y-153608D01*
X-96843Y-154472D01*
X-96274Y-155214D01*
X-95532Y-155784D01*
X-94712Y-156123D01*
X-94810Y-156614D01*
X-102671D01*
X-102768Y-156123D01*
X-101948Y-155784D01*
X-101206Y-155214D01*
X-100637Y-154472D01*
X-100279Y-153608D01*
X-100157Y-152680D01*
X-100279Y-151753D01*
X-100637Y-150889D01*
X-101206Y-150146D01*
X-101948Y-149577D01*
X-102813Y-149219D01*
X-103740Y-149097D01*
X-104668Y-149219D01*
X-105338Y-149497D01*
X-107378Y-147456D01*
Y-144462D01*
X-106888Y-144364D01*
X-106843Y-144472D01*
X-106274Y-145214D01*
X-105532Y-145784D01*
X-104668Y-146142D01*
X-103740Y-146264D01*
X-102813Y-146142D01*
X-101948Y-145784D01*
X-101206Y-145214D01*
X-100637Y-144472D01*
X-100279Y-143608D01*
X-100157Y-142680D01*
X-100279Y-141753D01*
X-100637Y-140889D01*
X-101206Y-140147D01*
X-101948Y-139577D01*
X-102813Y-139219D01*
X-103740Y-139097D01*
X-104668Y-139219D01*
X-105532Y-139577D01*
X-105762Y-139753D01*
X-106091Y-139378D01*
X-101176Y-134462D01*
X-92560D01*
X-92560Y-134462D01*
X-92131Y-134376D01*
X-91767Y-134133D01*
X-90067Y-132433D01*
X-90067Y-132433D01*
X-89824Y-132069D01*
D01*
D01*
D01*
Y-132069D01*
X-89824D01*
D01*
D01*
D01*
D01*
X-89824D01*
D01*
D01*
D01*
D01*
Y-132069D01*
X-89824D01*
D01*
Y-132069D01*
D01*
D01*
D01*
D01*
D01*
D01*
D01*
D01*
D01*
D01*
D01*
D01*
Y-132069D01*
D01*
X-89824D01*
D01*
D01*
D01*
D01*
X-89824Y-132069D01*
X-89738Y-131640D01*
X-89738Y-131640D01*
Y-124675D01*
X-88382Y-123318D01*
X-87941Y-123554D01*
X-88029Y-124000D01*
X-87913Y-124585D01*
X-87581Y-125081D01*
X-87418Y-125191D01*
Y-135060D01*
X-91940Y-139583D01*
X-91948Y-139577D01*
X-92813Y-139219D01*
X-93740Y-139097D01*
X-94668Y-139219D01*
X-95532Y-139577D01*
X-96274Y-140147D01*
X-96843Y-140889D01*
X-97201Y-141753D01*
X-97324Y-142680D01*
X-97201Y-143608D01*
X-96843Y-144472D01*
X-96274Y-145214D01*
X-95532Y-145784D01*
X-94668Y-146142D01*
X-93740Y-146264D01*
X-92813Y-146142D01*
X-91948Y-145784D01*
X-91206Y-145214D01*
X-90637Y-144472D01*
X-90279Y-143608D01*
X-90157Y-142680D01*
X-90279Y-141753D01*
X-90637Y-140889D01*
X-90643Y-140881D01*
X-85851Y-136089D01*
X-85652Y-135791D01*
X-85582Y-135440D01*
D01*
D01*
D01*
D01*
D01*
X-85582D01*
D01*
D01*
D01*
D01*
Y-135440D01*
X-85582D01*
D01*
Y-135440D01*
D01*
D01*
D01*
D01*
D01*
D01*
D01*
D01*
D01*
D01*
D01*
D01*
Y-135440D01*
D01*
X-85582D01*
D01*
D01*
D01*
D01*
X-85582Y-135440D01*
Y-125191D01*
X-85419Y-125081D01*
X-85363Y-124998D01*
X-84933Y-124913D01*
X-84806D01*
X-84356Y-125585D01*
X-84212Y-125729D01*
Y-127500D01*
X-84078Y-127825D01*
X-84022Y-127959D01*
X-83022Y-128959D01*
X-82563Y-129149D01*
X-73889D01*
X-73698Y-129611D01*
X-83248Y-139162D01*
X-83740Y-139097D01*
X-84668Y-139219D01*
X-85532Y-139577D01*
X-86274Y-140147D01*
X-86843Y-140889D01*
X-87201Y-141753D01*
X-87323Y-142680D01*
X-87201Y-143608D01*
X-86843Y-144472D01*
X-86274Y-145214D01*
X-85532Y-145784D01*
X-84668Y-146142D01*
X-83740Y-146264D01*
X-82813Y-146142D01*
X-81948Y-145784D01*
X-81206Y-145214D01*
X-80637Y-144472D01*
X-80279Y-143608D01*
X-80157Y-142680D01*
X-80279Y-141753D01*
X-80637Y-140889D01*
X-81143Y-140229D01*
X-78965Y-138051D01*
X-78487Y-138196D01*
X-78393Y-138666D01*
X-78062Y-139162D01*
X-77566Y-139493D01*
X-76980Y-139610D01*
X-76395Y-139493D01*
X-75899Y-139162D01*
X-75864Y-139110D01*
X-75374Y-139207D01*
X-75318Y-139488D01*
X-75532Y-139577D01*
X-76274Y-140147D01*
X-76843Y-140889D01*
X-77201Y-141753D01*
X-77324Y-142680D01*
X-77201Y-143608D01*
X-76843Y-144472D01*
X-76274Y-145214D01*
X-75532Y-145784D01*
X-74668Y-146142D01*
X-73740Y-146264D01*
X-72813Y-146142D01*
X-71948Y-145784D01*
X-71206Y-145214D01*
X-70637Y-144472D01*
X-70279Y-143608D01*
X-70157Y-142680D01*
X-70279Y-141753D01*
X-70637Y-140889D01*
X-71206Y-140147D01*
X-71948Y-139577D01*
X-72162Y-139488D01*
X-72065Y-138998D01*
X-65415D01*
X-65318Y-139488D01*
X-65532Y-139577D01*
X-66274Y-140147D01*
X-66843Y-140889D01*
X-67201Y-141753D01*
X-67258Y-142180D01*
X-60223D01*
X-60279Y-141753D01*
X-60637Y-140889D01*
X-61206Y-140147D01*
X-61948Y-139577D01*
X-62163Y-139488D01*
X-62065Y-138998D01*
X-55415D01*
X-55318Y-139488D01*
X-55532Y-139577D01*
X-56274Y-140147D01*
X-56843Y-140889D01*
X-57201Y-141753D01*
X-57323Y-142680D01*
X-57201Y-143608D01*
X-56843Y-144472D01*
X-56274Y-145214D01*
X-55532Y-145784D01*
X-54668Y-146142D01*
X-53740Y-146264D01*
X-52813Y-146142D01*
X-51948Y-145784D01*
X-51206Y-145214D01*
X-50637Y-144472D01*
X-50279Y-143608D01*
X-50157Y-142680D01*
X-50279Y-141753D01*
X-50637Y-140889D01*
X-50643Y-140881D01*
X-48860Y-139098D01*
X-45730D01*
X-45532Y-139577D01*
X-46274Y-140147D01*
X-46843Y-140889D01*
X-47201Y-141753D01*
X-47324Y-142680D01*
X-47201Y-143608D01*
X-46843Y-144472D01*
X-46274Y-145214D01*
X-45532Y-145784D01*
X-44668Y-146142D01*
X-43740Y-146264D01*
X-42813Y-146142D01*
X-41948Y-145784D01*
X-41206Y-145214D01*
X-40637Y-144472D01*
X-40279Y-143608D01*
X-40277Y-143598D01*
X-39880D01*
X-39529Y-143528D01*
X-39232Y-143329D01*
X-37683Y-141780D01*
X-37234Y-142001D01*
X-37323Y-142680D01*
X-37201Y-143608D01*
X-36843Y-144472D01*
X-36274Y-145214D01*
X-35532Y-145784D01*
X-34668Y-146142D01*
X-33740Y-146264D01*
X-32813Y-146142D01*
X-31948Y-145784D01*
X-31206Y-145214D01*
X-30637Y-144472D01*
X-30279Y-143608D01*
X-30157Y-142680D01*
X-30279Y-141753D01*
X-30637Y-140889D01*
X-30643Y-140881D01*
X-2331Y-112569D01*
X-2132Y-112272D01*
X-2063Y-111921D01*
D01*
D01*
D01*
D01*
D01*
X-2063D01*
D01*
D01*
D01*
D01*
Y-111921D01*
X-2063D01*
D01*
Y-111921D01*
D01*
D01*
D01*
D01*
D01*
D01*
D01*
D01*
D01*
D01*
D01*
D01*
Y-111920D01*
D01*
X-2063D01*
D01*
D01*
D01*
D01*
X-2063Y-111920D01*
Y-77580D01*
X-2121Y-77287D01*
X-2132Y-77229D01*
X-2331Y-76931D01*
X-7031Y-72231D01*
X-7329Y-72032D01*
X-7680Y-71963D01*
X-8334D01*
X-8495Y-71489D01*
X-8214Y-71274D01*
X-7645Y-70532D01*
X-7287Y-69668D01*
X-7165Y-68740D01*
X-7287Y-67813D01*
X-7645Y-66948D01*
X-8214Y-66206D01*
X-8956Y-65637D01*
X-9821Y-65279D01*
X-10748Y-65157D01*
X-11676Y-65279D01*
X-12540Y-65637D01*
X-13282Y-66206D01*
X-13851Y-66948D01*
X-14209Y-67813D01*
X-14331Y-68740D01*
X-14209Y-69668D01*
X-13851Y-70532D01*
X-13282Y-71274D01*
X-13001Y-71489D01*
X-13162Y-71963D01*
X-18334D01*
X-18495Y-71489D01*
X-18214Y-71274D01*
X-17645Y-70532D01*
X-17287Y-69668D01*
X-17165Y-68740D01*
X-17287Y-67813D01*
X-17645Y-66948D01*
X-18214Y-66206D01*
X-18956Y-65637D01*
X-19821Y-65279D01*
X-20748Y-65157D01*
X-21676Y-65279D01*
X-22540Y-65637D01*
X-22548Y-65643D01*
X-28082Y-60108D01*
Y-28500D01*
X-28109Y-28365D01*
X-27847Y-28225D01*
X-27418Y-28482D01*
Y-52988D01*
X-27418Y-52988D01*
X-27418D01*
X-27348Y-53339D01*
X-27149Y-53637D01*
X-23845Y-56941D01*
X-23851Y-56949D01*
X-24209Y-57813D01*
X-24331Y-58740D01*
X-24209Y-59668D01*
X-23851Y-60532D01*
X-23282Y-61274D01*
X-22540Y-61844D01*
X-21676Y-62201D01*
X-20748Y-62324D01*
X-19821Y-62201D01*
X-18956Y-61844D01*
X-18214Y-61274D01*
X-17645Y-60532D01*
X-17287Y-59668D01*
X-17165Y-58740D01*
X-17287Y-57813D01*
X-17645Y-56949D01*
X-18214Y-56206D01*
X-18956Y-55637D01*
X-19821Y-55279D01*
X-20748Y-55157D01*
X-21676Y-55279D01*
X-22540Y-55637D01*
X-22548Y-55643D01*
X-25582Y-52608D01*
Y-28000D01*
X-25641Y-27707D01*
X-25652Y-27649D01*
X-25851Y-27351D01*
X-44202Y-9000D01*
X-43981Y-8552D01*
X-43740Y-8583D01*
X-42813Y-8461D01*
X-41948Y-8103D01*
X-41206Y-7534D01*
X-40637Y-6792D01*
X-40279Y-5928D01*
X-40157Y-5000D01*
X-40279Y-4073D01*
X-40637Y-3208D01*
X-41206Y-2466D01*
X-41948Y-1897D01*
X-42813Y-1539D01*
X-43740Y-1417D01*
X-44668Y-1539D01*
X-45532Y-1897D01*
X-46274Y-2466D01*
X-46843Y-3208D01*
X-47201Y-4073D01*
X-47324Y-5000D01*
X-47201Y-5928D01*
X-46843Y-6792D01*
X-46274Y-7534D01*
X-45785Y-7909D01*
X-45946Y-8382D01*
X-51534D01*
X-51695Y-7909D01*
X-51206Y-7534D01*
X-50637Y-6792D01*
X-50279Y-5928D01*
X-50157Y-5000D01*
X-50279Y-4073D01*
X-50637Y-3208D01*
X-51206Y-2466D01*
X-51948Y-1897D01*
X-52813Y-1539D01*
X-53740Y-1417D01*
X-54668Y-1539D01*
X-55532Y-1897D01*
X-56274Y-2466D01*
X-56843Y-3208D01*
X-57201Y-4073D01*
X-57323Y-5000D01*
X-57201Y-5928D01*
X-56843Y-6792D01*
X-56274Y-7534D01*
X-55785Y-7909D01*
X-55946Y-8382D01*
X-61534D01*
X-61695Y-7909D01*
X-61206Y-7534D01*
X-60637Y-6792D01*
X-60279Y-5928D01*
X-60157Y-5000D01*
X-60279Y-4073D01*
X-60637Y-3208D01*
X-61206Y-2466D01*
X-61948Y-1897D01*
X-62813Y-1539D01*
X-63740Y-1417D01*
X-64668Y-1539D01*
X-65532Y-1897D01*
X-66274Y-2466D01*
X-66843Y-3208D01*
X-67201Y-4073D01*
X-67323Y-5000D01*
X-67201Y-5928D01*
X-66843Y-6792D01*
X-66274Y-7534D01*
X-65785Y-7909D01*
X-65946Y-8382D01*
X-71534D01*
X-71695Y-7909D01*
X-71206Y-7534D01*
X-70637Y-6792D01*
X-70279Y-5928D01*
X-70157Y-5000D01*
X-70279Y-4073D01*
X-70637Y-3208D01*
X-71206Y-2466D01*
X-71948Y-1897D01*
X-72813Y-1539D01*
X-73740Y-1417D01*
X-74668Y-1539D01*
X-75532Y-1897D01*
X-76274Y-2466D01*
X-76843Y-3208D01*
X-77201Y-4073D01*
X-77324Y-5000D01*
X-77201Y-5928D01*
X-76843Y-6792D01*
X-76274Y-7534D01*
X-75785Y-7909D01*
X-75946Y-8382D01*
X-81534D01*
X-81695Y-7909D01*
X-81206Y-7534D01*
X-80637Y-6792D01*
X-80279Y-5928D01*
X-80157Y-5000D01*
X-80279Y-4073D01*
X-80637Y-3208D01*
X-81206Y-2466D01*
X-81948Y-1897D01*
X-82813Y-1539D01*
X-83740Y-1417D01*
X-84668Y-1539D01*
X-85532Y-1897D01*
X-86274Y-2466D01*
X-86843Y-3208D01*
X-87201Y-4073D01*
X-87323Y-5000D01*
X-87201Y-5928D01*
X-86843Y-6792D01*
X-86274Y-7534D01*
X-85785Y-7909D01*
X-85946Y-8382D01*
X-89060D01*
X-90643Y-6800D01*
X-90637Y-6792D01*
X-90279Y-5928D01*
X-90157Y-5000D01*
X-90279Y-4073D01*
X-90637Y-3208D01*
X-91206Y-2466D01*
X-91948Y-1897D01*
X-92813Y-1539D01*
X-93740Y-1417D01*
X-94668Y-1539D01*
X-95532Y-1897D01*
X-96274Y-2466D01*
X-96843Y-3208D01*
X-97201Y-4073D01*
X-97324Y-5000D01*
X-97201Y-5928D01*
X-96843Y-6792D01*
X-96274Y-7534D01*
X-95532Y-8103D01*
X-94668Y-8461D01*
X-93740Y-8583D01*
X-92813Y-8461D01*
X-91948Y-8103D01*
X-91940Y-8097D01*
X-90917Y-9120D01*
X-91109Y-9582D01*
X-97860D01*
X-100643Y-6800D01*
X-100637Y-6792D01*
X-100279Y-5928D01*
X-100157Y-5000D01*
X-100279Y-4073D01*
X-100637Y-3208D01*
X-101206Y-2466D01*
X-101948Y-1897D01*
X-102813Y-1539D01*
X-103740Y-1417D01*
X-104668Y-1539D01*
X-105532Y-1897D01*
X-106274Y-2466D01*
X-106843Y-3208D01*
X-107201Y-4073D01*
X-107324Y-5000D01*
X-107201Y-5928D01*
X-106843Y-6792D01*
X-106274Y-7534D01*
X-105532Y-8103D01*
X-104668Y-8461D01*
X-103740Y-8583D01*
X-102813Y-8461D01*
X-101948Y-8103D01*
X-101941Y-8097D01*
X-98889Y-11149D01*
X-98591Y-11348D01*
X-98533Y-11359D01*
X-98240Y-11418D01*
X-95730D01*
X-95532Y-11897D01*
X-96274Y-12466D01*
X-96843Y-13208D01*
X-97201Y-14073D01*
X-97324Y-15000D01*
X-97201Y-15927D01*
X-96843Y-16792D01*
X-96274Y-17534D01*
X-95532Y-18103D01*
X-94668Y-18461D01*
X-93740Y-18583D01*
X-92813Y-18461D01*
X-91948Y-18103D01*
X-91206Y-17534D01*
X-90637Y-16792D01*
X-90279Y-15927D01*
X-90157Y-15000D01*
X-90279Y-14073D01*
X-90637Y-13208D01*
X-91206Y-12466D01*
X-91948Y-11897D01*
X-92813Y-11539D01*
X-92805Y-11418D01*
X-85730D01*
X-85532Y-11897D01*
X-86274Y-12466D01*
X-86843Y-13208D01*
X-87201Y-14073D01*
X-87323Y-15000D01*
X-87201Y-15927D01*
X-86843Y-16792D01*
X-86274Y-17534D01*
X-85532Y-18103D01*
X-84668Y-18461D01*
X-83740Y-18583D01*
X-82813Y-18461D01*
X-82397Y-18289D01*
X-75713Y-24973D01*
X-75713D01*
X-75713Y-24973D01*
X-75713D01*
X-75713Y-24973D01*
Y-24973D01*
X-75713Y-24973D01*
Y-24973D01*
X-75267Y-25272D01*
X-74740Y-25376D01*
X-60159D01*
Y-25683D01*
X-57187D01*
Y-25683D01*
X-57187D01*
X-57187Y-25683D01*
X-56813Y-25683D01*
Y-25683D01*
X-53841D01*
Y-25376D01*
X-51659D01*
Y-25683D01*
X-48687D01*
Y-25683D01*
X-48687D01*
X-48687Y-25683D01*
X-48313Y-25683D01*
Y-25683D01*
X-45341D01*
Y-25376D01*
X-41200D01*
X-39221Y-27355D01*
X-39311Y-27571D01*
X-39557Y-27817D01*
X-39687Y-27817D01*
X-39687Y-27817D01*
X-39687D01*
D01*
D01*
X-39687Y-27817D01*
Y-27817D01*
Y-27817D01*
X-39687D01*
X-39687D01*
X-39687Y-27817D01*
X-39687D01*
D01*
X-42659D01*
Y-29039D01*
X-43743Y-30123D01*
X-47639D01*
X-47672Y-30074D01*
X-48327Y-29637D01*
X-49098Y-29483D01*
X-55004D01*
X-55776Y-29637D01*
X-56430Y-30074D01*
X-56867Y-30728D01*
X-57021Y-31500D01*
X-56867Y-32272D01*
X-56430Y-32926D01*
X-55776Y-33363D01*
X-55004Y-33517D01*
X-49098D01*
X-48327Y-33363D01*
X-47672Y-32926D01*
X-47639Y-32876D01*
X-43173D01*
X-43045Y-32851D01*
X-42659Y-33168D01*
Y-34039D01*
X-43743Y-35124D01*
X-47639D01*
X-47672Y-35074D01*
X-48327Y-34637D01*
X-49098Y-34483D01*
X-55004D01*
X-55776Y-34637D01*
X-56430Y-35074D01*
X-56867Y-35728D01*
X-57021Y-36500D01*
X-56867Y-37272D01*
X-56430Y-37926D01*
X-55776Y-38363D01*
X-55004Y-38517D01*
X-49098D01*
X-48327Y-38363D01*
X-47672Y-37926D01*
X-47639Y-37876D01*
X-43173D01*
X-43046Y-37851D01*
X-42659Y-38168D01*
Y-40414D01*
X-43121Y-40606D01*
X-43200Y-40527D01*
X-43646Y-40228D01*
X-44173Y-40124D01*
X-47639D01*
X-47672Y-40074D01*
X-48327Y-39637D01*
X-49098Y-39483D01*
X-55004D01*
X-55776Y-39637D01*
X-56430Y-40074D01*
X-56867Y-40728D01*
X-57021Y-41500D01*
X-56867Y-42272D01*
X-56430Y-42926D01*
X-55776Y-43363D01*
X-55004Y-43517D01*
X-49098D01*
X-48327Y-43363D01*
X-47672Y-42926D01*
X-47639Y-42876D01*
X-44743D01*
X-42659Y-44961D01*
Y-46183D01*
X-39687D01*
Y-46183D01*
X-39687D01*
X-39687Y-46183D01*
X-39313Y-46183D01*
Y-46183D01*
X-38327D01*
Y-44501D01*
Y-42817D01*
X-39313D01*
D01*
D01*
X-39313Y-42817D01*
X-39687Y-42817D01*
Y-42817D01*
X-40909D01*
X-42082Y-41645D01*
X-41891Y-41183D01*
X-39687D01*
Y-41183D01*
X-39687D01*
X-39687Y-41183D01*
X-39313Y-41183D01*
Y-41183D01*
X-38327D01*
Y-39501D01*
Y-37817D01*
X-38078D01*
X-38269Y-37355D01*
X-37097Y-36183D01*
X-36341D01*
Y-32817D01*
X-39313D01*
D01*
D01*
X-39313Y-32817D01*
X-39687Y-32817D01*
Y-32817D01*
X-41891D01*
X-42082Y-32355D01*
X-40909Y-31183D01*
X-39687D01*
Y-31183D01*
X-39687D01*
X-39687Y-31183D01*
X-39313Y-31183D01*
Y-31183D01*
X-36341D01*
Y-27817D01*
X-36450D01*
Y-26803D01*
X-36450Y-26803D01*
Y-26803D01*
X-36450D01*
X-36450Y-26803D01*
D01*
D01*
D01*
D01*
X-36450Y-26803D01*
D01*
X-36555Y-26276D01*
X-36854Y-25830D01*
X-39657Y-23027D01*
X-40103Y-22728D01*
X-40630Y-22624D01*
X-45341D01*
Y-22317D01*
X-48313D01*
D01*
D01*
X-48313Y-22317D01*
X-48687Y-22317D01*
Y-22317D01*
X-51659D01*
Y-22624D01*
X-53841D01*
Y-22317D01*
X-56813D01*
D01*
D01*
X-56813Y-22317D01*
X-57187Y-22317D01*
Y-22317D01*
X-60159D01*
Y-22624D01*
X-74170D01*
X-80451Y-16343D01*
X-80279Y-15927D01*
X-80157Y-15000D01*
X-80279Y-14073D01*
X-80637Y-13208D01*
X-81206Y-12466D01*
X-81948Y-11897D01*
X-82813Y-11539D01*
X-82805Y-11418D01*
X-75730D01*
X-75532Y-11897D01*
X-76274Y-12466D01*
X-76843Y-13208D01*
X-77201Y-14073D01*
X-77324Y-15000D01*
X-77201Y-15927D01*
X-76843Y-16792D01*
X-76274Y-17534D01*
X-75532Y-18103D01*
X-74668Y-18461D01*
X-73740Y-18583D01*
X-72813Y-18461D01*
X-71948Y-18103D01*
X-71206Y-17534D01*
X-70637Y-16792D01*
X-70279Y-15927D01*
X-70157Y-15000D01*
X-70279Y-14073D01*
X-70637Y-13208D01*
X-71206Y-12466D01*
X-71948Y-11897D01*
X-72813Y-11539D01*
X-72805Y-11418D01*
X-67646D01*
X-67293Y-11771D01*
Y-18553D01*
X-60187D01*
Y-11771D01*
X-60187Y-11771D01*
D01*
D01*
X-60187Y-11447D01*
D01*
X-60158Y-11418D01*
X-47380D01*
X-29918Y-28880D01*
Y-60488D01*
X-29918Y-60488D01*
X-29918D01*
X-29848Y-60839D01*
X-29649Y-61137D01*
X-23845Y-66941D01*
X-23851Y-66948D01*
X-24209Y-67813D01*
X-24331Y-68740D01*
X-24209Y-69668D01*
X-23851Y-70532D01*
X-23282Y-71274D01*
X-23001Y-71489D01*
X-23162Y-71963D01*
X-24240D01*
X-28851Y-67351D01*
X-29149Y-67152D01*
X-29500Y-67082D01*
X-31341D01*
Y-66317D01*
X-34313D01*
D01*
D01*
X-34313Y-66317D01*
X-34687Y-66317D01*
Y-66317D01*
X-37659D01*
Y-69683D01*
X-37295D01*
Y-70817D01*
X-37659D01*
Y-74183D01*
D01*
Y-74183D01*
X-37855Y-74378D01*
X-39900D01*
Y-71581D01*
X-45100D01*
D01*
X-45100D01*
X-45401Y-71280D01*
Y-70419D01*
X-45048Y-70419D01*
X-45048D01*
Y-70419D01*
D01*
D01*
D01*
X-43000D01*
Y-68220D01*
Y-66019D01*
X-44556D01*
X-44748Y-65557D01*
X-42113Y-62922D01*
X-38600D01*
Y-62981D01*
X-33400D01*
Y-58581D01*
X-38600D01*
Y-58640D01*
X-40400D01*
X-40592Y-58178D01*
X-39707Y-57293D01*
X-39464Y-56929D01*
X-39378Y-56500D01*
X-39378Y-56500D01*
Y-52500D01*
X-39378Y-52500D01*
X-39464Y-52071D01*
X-39707Y-51707D01*
X-39707Y-51707D01*
X-45707Y-45707D01*
X-46071Y-45464D01*
X-46500Y-45378D01*
X-46500Y-45378D01*
X-47469D01*
X-47672Y-45074D01*
X-48327Y-44637D01*
X-49098Y-44483D01*
X-55004D01*
X-55776Y-44637D01*
X-56430Y-45074D01*
X-56867Y-45728D01*
X-57021Y-46500D01*
X-56867Y-47272D01*
X-56430Y-47926D01*
X-55776Y-48363D01*
X-55004Y-48517D01*
X-49098D01*
X-48327Y-48363D01*
X-47672Y-47926D01*
X-47469Y-47622D01*
X-46965D01*
X-45698Y-48889D01*
X-45889Y-49351D01*
X-56231D01*
X-58351Y-47231D01*
Y-39500D01*
X-58541Y-39041D01*
X-63541Y-34041D01*
X-64000Y-33851D01*
X-67127D01*
X-67224Y-33363D01*
X-66570Y-32926D01*
X-66133Y-32272D01*
X-65979Y-31500D01*
X-66133Y-30728D01*
X-66570Y-30074D01*
X-67224Y-29637D01*
X-67996Y-29483D01*
X-70323D01*
X-70949Y-29359D01*
X-75674D01*
X-78466Y-26566D01*
X-79161Y-26102D01*
Y-26102D01*
X-79161D01*
D01*
D01*
D01*
D01*
X-79161D01*
Y-26102D01*
D01*
D01*
X-79161Y-26102D01*
X-79161Y-26102D01*
X-79161Y-26102D01*
X-79161D01*
X-79980Y-25939D01*
X-90980D01*
X-91800Y-26102D01*
X-92494Y-26566D01*
X-94348Y-28420D01*
X-99041D01*
X-99441Y-28020D01*
X-102670D01*
Y-28316D01*
X-102959Y-28420D01*
D01*
X-102959D01*
X-102959Y-28420D01*
X-102959D01*
X-102959Y-28420D01*
X-103519D01*
X-103711Y-27958D01*
X-101853Y-26100D01*
X-100081D01*
Y-20900D01*
X-104481D01*
Y-22672D01*
X-108026Y-26217D01*
X-108490Y-26911D01*
X-108653Y-27731D01*
Y-28420D01*
X-110065D01*
Y-32727D01*
X-114680D01*
Y-31905D01*
X-129659D01*
Y-37830D01*
X-114680D01*
Y-37009D01*
X-110065D01*
Y-43815D01*
X-110527Y-44006D01*
X-111336Y-43196D01*
X-112031Y-42732D01*
X-112850Y-42569D01*
X-114680D01*
Y-41748D01*
X-129659D01*
Y-47672D01*
X-114680D01*
Y-46851D01*
X-113737D01*
X-110065Y-50524D01*
Y-62080D01*
X-108653D01*
Y-63288D01*
X-108490Y-64108D01*
X-108490Y-64108D01*
X-108490Y-64108D01*
X-108026Y-64802D01*
X-104814Y-68014D01*
X-104119Y-68478D01*
X-103300Y-68641D01*
X-101981D01*
Y-69100D01*
X-97581D01*
Y-63900D01*
X-101981D01*
Y-64138D01*
X-102443Y-64329D01*
X-104371Y-62401D01*
Y-62080D01*
X-102959D01*
Y-61874D01*
X-99480D01*
X-99480Y-61874D01*
X-99480Y-61874D01*
X-99041Y-62056D01*
Y-62080D01*
X-91935D01*
Y-50564D01*
X-90013Y-48641D01*
X-70949D01*
X-70323Y-48517D01*
X-67996D01*
X-67224Y-48363D01*
X-66570Y-47926D01*
X-66133Y-47272D01*
X-65979Y-46500D01*
X-66133Y-45728D01*
X-66570Y-45074D01*
X-67224Y-44637D01*
X-67996Y-44483D01*
X-70323D01*
X-70949Y-44359D01*
X-90900D01*
X-91549Y-44488D01*
X-91935Y-44171D01*
Y-32063D01*
X-90093Y-30221D01*
X-80867D01*
X-80070Y-31018D01*
X-80261Y-31480D01*
X-82220D01*
X-82545Y-31615D01*
X-82679Y-31671D01*
X-82959Y-31951D01*
X-83111Y-32317D01*
X-83187D01*
X-83187D01*
X-83241D01*
X-83503Y-32317D01*
X-83503Y-32317D01*
Y-32317D01*
X-84173D01*
Y-34001D01*
Y-35683D01*
X-83503D01*
X-83149Y-36036D01*
Y-37231D01*
X-83318Y-37400D01*
X-83419D01*
Y-37501D01*
X-83459Y-37541D01*
X-83649Y-38000D01*
Y-42500D01*
X-83459Y-42959D01*
X-83006Y-43412D01*
X-82547Y-43602D01*
X-79129D01*
X-78670Y-43412D01*
X-78280Y-43022D01*
X-77954Y-43054D01*
X-77507Y-43352D01*
X-76980Y-43457D01*
X-76454Y-43352D01*
X-76007Y-43054D01*
X-75830Y-42876D01*
X-75361D01*
X-75328Y-42926D01*
X-74673Y-43363D01*
X-73902Y-43517D01*
X-71449D01*
Y-41499D01*
X-70449D01*
Y-43517D01*
X-67996D01*
X-67224Y-43363D01*
X-66877Y-43131D01*
X-64954Y-45054D01*
X-64507Y-45352D01*
X-63980Y-45457D01*
X-63454Y-45352D01*
X-63090Y-45109D01*
X-62649Y-45345D01*
Y-48000D01*
X-62515Y-48325D01*
X-62459Y-48459D01*
X-58094Y-52824D01*
Y-59265D01*
X-58556Y-59457D01*
X-59378Y-58634D01*
Y-53000D01*
X-59378Y-53000D01*
X-59464Y-52571D01*
X-59464D01*
D01*
D01*
X-59464Y-52571D01*
D01*
D01*
D01*
D01*
X-59464Y-52571D01*
D01*
D01*
Y-52571D01*
D01*
X-59464D01*
D01*
D01*
X-59464D01*
D01*
D01*
X-59707Y-52207D01*
X-59707Y-52207D01*
X-61132Y-50782D01*
X-61496Y-50538D01*
X-61925Y-50453D01*
X-61926Y-50453D01*
X-64425D01*
X-64855Y-50538D01*
X-65219Y-50782D01*
X-65219Y-50782D01*
X-67254Y-52817D01*
X-68659D01*
Y-53378D01*
X-70341D01*
Y-52817D01*
X-73313D01*
D01*
D01*
X-73313Y-52817D01*
X-73687Y-52817D01*
Y-52817D01*
X-74673D01*
Y-54501D01*
Y-56183D01*
X-73687D01*
Y-56183D01*
X-73313Y-56183D01*
Y-56525D01*
X-73666Y-56878D01*
X-75500D01*
X-75929Y-56964D01*
X-76293Y-57207D01*
X-76293Y-57207D01*
X-76880Y-57794D01*
X-77123Y-58157D01*
X-77208Y-58587D01*
X-77208Y-58587D01*
Y-60424D01*
X-79155D01*
Y-60424D01*
D01*
X-79155Y-60424D01*
D01*
D01*
D01*
X-79155Y-60424D01*
X-79341Y-60238D01*
Y-59500D01*
X-80327D01*
Y-60683D01*
X-79509D01*
X-79155Y-61036D01*
Y-64576D01*
X-74018D01*
Y-60424D01*
X-74965D01*
Y-59122D01*
X-73000D01*
X-73000Y-59122D01*
X-72571Y-59036D01*
X-72207Y-58793D01*
X-71034Y-57620D01*
X-71034Y-57620D01*
X-70791Y-57256D01*
X-70705Y-56827D01*
Y-56183D01*
X-70341D01*
Y-55622D01*
X-68659D01*
Y-56183D01*
X-65687D01*
Y-56183D01*
X-65687D01*
X-65687Y-56183D01*
X-65397Y-56183D01*
X-65165Y-56617D01*
X-65162Y-56625D01*
X-65240Y-56741D01*
X-65356Y-57327D01*
X-65240Y-57912D01*
X-64908Y-58408D01*
X-64412Y-58740D01*
X-63827Y-58856D01*
X-63241Y-58740D01*
X-62745Y-58408D01*
X-62414Y-57912D01*
X-62297Y-57327D01*
X-62414Y-56741D01*
X-62705Y-56305D01*
Y-56183D01*
X-62341D01*
Y-53398D01*
X-62037Y-53273D01*
X-61622Y-53550D01*
Y-59099D01*
X-61622Y-59099D01*
X-61536Y-59528D01*
X-61293Y-59892D01*
X-61223Y-59962D01*
X-61415Y-60424D01*
X-64982D01*
Y-63771D01*
X-66149Y-64938D01*
X-66348Y-65236D01*
X-66418Y-65587D01*
Y-67900D01*
X-67781D01*
Y-70501D01*
X-68280D01*
Y-71000D01*
X-70481D01*
Y-72106D01*
X-70943Y-72298D01*
X-72841Y-70400D01*
Y-68817D01*
X-73307D01*
Y-68673D01*
X-73385Y-68283D01*
X-73606Y-67952D01*
X-73606Y-67952D01*
D01*
D01*
D01*
D01*
X-73606Y-67952D01*
D01*
D01*
X-73606D01*
X-74279Y-67279D01*
X-74610Y-67058D01*
X-75000Y-66980D01*
X-79358D01*
X-79748Y-67058D01*
X-80079Y-67279D01*
X-80355Y-67555D01*
X-80817Y-67364D01*
Y-65687D01*
D01*
Y-65687D01*
X-80817Y-65687D01*
X-80817Y-65313D01*
X-80817D01*
Y-62341D01*
X-84183D01*
Y-62705D01*
X-85317D01*
Y-62341D01*
X-85878D01*
Y-60683D01*
X-85659D01*
Y-60683D01*
X-82687D01*
Y-60683D01*
X-82687D01*
X-82687Y-60683D01*
X-82313Y-60683D01*
Y-60683D01*
X-81327D01*
Y-59001D01*
Y-57408D01*
X-81235Y-57317D01*
X-80583D01*
X-80774Y-56855D01*
X-80101Y-56183D01*
X-79341D01*
Y-52817D01*
X-82313D01*
D01*
D01*
X-82313Y-52817D01*
X-82687Y-52817D01*
Y-52817D01*
X-84270D01*
X-84378Y-52709D01*
Y-52021D01*
X-84087Y-51585D01*
X-83971Y-51000D01*
X-84087Y-50415D01*
X-84419Y-49919D01*
X-84915Y-49587D01*
X-85500Y-49471D01*
X-86085Y-49587D01*
X-86581Y-49919D01*
X-86913Y-50415D01*
X-87029Y-51000D01*
X-86913Y-51585D01*
X-86622Y-52021D01*
Y-53173D01*
X-86622Y-53173D01*
X-86536Y-53602D01*
X-86293Y-53966D01*
X-86009Y-54250D01*
Y-54750D01*
X-87793Y-56534D01*
X-88036Y-56897D01*
X-88121Y-57327D01*
X-88121Y-57327D01*
Y-62341D01*
X-88683D01*
Y-65313D01*
D01*
D01*
X-88683Y-65313D01*
X-88683Y-65687D01*
X-88683D01*
Y-67270D01*
X-89793Y-68380D01*
X-90036Y-68744D01*
X-90122Y-69173D01*
X-90122Y-69173D01*
Y-75543D01*
X-90122Y-75543D01*
X-90036Y-75972D01*
X-89793Y-76336D01*
X-88336Y-77793D01*
X-88336Y-77793D01*
X-87973Y-78036D01*
Y-78036D01*
X-87973Y-78036D01*
D01*
D01*
D01*
X-87973D01*
Y-78036D01*
D01*
X-87972Y-78036D01*
X-87972Y-78036D01*
X-87543Y-78122D01*
X-87159D01*
Y-78683D01*
X-84187D01*
Y-78683D01*
X-84187D01*
X-84187Y-78683D01*
X-83813Y-78683D01*
Y-78683D01*
X-81530D01*
X-81372Y-78918D01*
X-81279Y-79145D01*
X-82951Y-80817D01*
X-83813D01*
D01*
D01*
X-83813Y-80817D01*
X-84187Y-80817D01*
Y-80817D01*
X-85173D01*
Y-82501D01*
Y-84183D01*
X-84312D01*
X-84076Y-84624D01*
X-84350Y-85033D01*
X-84474Y-85658D01*
X-84350Y-86282D01*
X-84077Y-86690D01*
X-84313Y-87131D01*
X-85141D01*
X-89519Y-82753D01*
Y-79900D01*
X-93919D01*
Y-85100D01*
X-91066D01*
X-90227Y-85938D01*
X-90419Y-86400D01*
X-93919D01*
Y-91600D01*
X-91066D01*
X-89692Y-92973D01*
X-89246Y-93272D01*
X-88719Y-93376D01*
X-80070D01*
X-77967Y-95480D01*
Y-97112D01*
X-78016Y-97145D01*
X-78453Y-97799D01*
X-78607Y-98571D01*
Y-102902D01*
X-78453Y-103673D01*
X-78016Y-104328D01*
X-77712Y-104531D01*
Y-106317D01*
X-79159D01*
Y-109683D01*
X-76187D01*
Y-109683D01*
X-76187D01*
X-76187Y-109683D01*
X-75813Y-109683D01*
Y-109683D01*
X-74134D01*
X-73942Y-110145D01*
X-74880Y-111082D01*
X-75809D01*
X-75919Y-110919D01*
X-76415Y-110587D01*
X-77000Y-110471D01*
X-77585Y-110587D01*
X-78081Y-110919D01*
X-78413Y-111415D01*
X-78529Y-112000D01*
X-78413Y-112585D01*
X-78081Y-113081D01*
X-77585Y-113413D01*
X-77000Y-113529D01*
X-76415Y-113413D01*
X-75919Y-113081D01*
X-75809Y-112918D01*
X-75122D01*
X-75083Y-112956D01*
X-74868Y-113359D01*
X-75036Y-113610D01*
X-75122Y-114039D01*
X-75122Y-114039D01*
Y-116307D01*
X-75583Y-116498D01*
X-78847Y-113234D01*
X-79307Y-113044D01*
X-80701D01*
Y-97342D01*
X-80864Y-96523D01*
X-81328Y-95828D01*
X-82023Y-95364D01*
X-82842Y-95201D01*
X-87624D01*
X-88443Y-95364D01*
X-88674Y-95519D01*
X-90600D01*
Y-99919D01*
X-85400D01*
Y-99919D01*
X-85337D01*
X-84984Y-100273D01*
Y-101081D01*
X-85400D01*
Y-101081D01*
X-87500D01*
Y-103282D01*
Y-105481D01*
X-85400D01*
Y-105481D01*
X-85337D01*
X-84984Y-105835D01*
Y-106628D01*
X-85364Y-106882D01*
X-85425Y-106915D01*
X-85915Y-106587D01*
X-86500Y-106471D01*
X-87085Y-106587D01*
X-87581Y-106919D01*
X-87623Y-106980D01*
X-92841D01*
Y-106317D01*
X-95813D01*
D01*
D01*
X-95813Y-106317D01*
X-96187Y-106317D01*
D01*
X-96552Y-106317D01*
Y-105183D01*
X-96187Y-105183D01*
D01*
D01*
X-95813Y-105183D01*
Y-105183D01*
X-94827D01*
Y-103501D01*
Y-101817D01*
X-95813D01*
D01*
D01*
X-95813Y-101817D01*
X-96187Y-101817D01*
Y-101817D01*
X-99159D01*
Y-105183D01*
X-98795D01*
Y-106317D01*
X-99159D01*
Y-106878D01*
X-101841D01*
Y-106317D01*
X-104813D01*
D01*
D01*
X-104813Y-106317D01*
X-105187Y-106317D01*
Y-106317D01*
X-106173D01*
Y-108001D01*
X-106672D01*
Y-108500D01*
X-108159D01*
Y-109625D01*
X-108159Y-109625D01*
X-108159D01*
X-108159Y-109683D01*
X-108455Y-109978D01*
X-129135D01*
X-139678Y-99435D01*
Y-80000D01*
X-139678Y-80000D01*
X-139764Y-79571D01*
X-140007Y-79207D01*
X-143007Y-76207D01*
X-143371Y-75964D01*
X-143800Y-75878D01*
X-143800Y-75878D01*
X-147035D01*
X-148682Y-74232D01*
Y-73773D01*
X-147235D01*
Y-62731D01*
X-152372D01*
Y-73773D01*
X-150925D01*
Y-74697D01*
X-150925Y-74697D01*
X-150839Y-75126D01*
X-150596Y-75490D01*
X-148293Y-77793D01*
X-148099Y-77923D01*
X-148212Y-78410D01*
X-148305Y-78422D01*
X-149074Y-78741D01*
X-149733Y-79247D01*
X-150240Y-79907D01*
X-150558Y-80675D01*
X-150667Y-81500D01*
X-150558Y-82325D01*
X-150240Y-83093D01*
X-149733Y-83753D01*
X-149074Y-84259D01*
X-148305Y-84578D01*
X-147480Y-84686D01*
X-146656Y-84578D01*
X-145887Y-84259D01*
X-145227Y-83753D01*
X-144721Y-83093D01*
X-144403Y-82325D01*
X-144294Y-81500D01*
X-144403Y-80675D01*
X-144721Y-79907D01*
X-145227Y-79247D01*
X-145887Y-78741D01*
X-146198Y-78612D01*
X-146100Y-78122D01*
X-144265D01*
X-141922Y-80465D01*
Y-99900D01*
X-141922Y-99900D01*
X-141836Y-100329D01*
X-141593Y-100693D01*
X-130393Y-111893D01*
X-130393Y-111893D01*
X-130029Y-112136D01*
X-129600Y-112222D01*
X-91059D01*
X-90000Y-113281D01*
X-90191Y-113742D01*
X-92658D01*
Y-117001D01*
Y-120257D01*
X-89122D01*
Y-120886D01*
X-91653Y-123417D01*
X-91896Y-123781D01*
X-91981Y-124210D01*
X-93048Y-124424D01*
X-93635D01*
X-94792Y-123267D01*
X-95486Y-122803D01*
Y-122803D01*
X-95486D01*
D01*
D01*
D01*
D01*
X-95486D01*
Y-122803D01*
D01*
D01*
X-95486Y-122803D01*
X-95486Y-122803D01*
X-95486Y-122803D01*
X-95486D01*
X-96306Y-122640D01*
X-99400D01*
Y-122581D01*
X-103891D01*
X-104591Y-121881D01*
X-104508Y-121681D01*
D01*
X-104400Y-121419D01*
X-102500D01*
Y-119719D01*
X-104600D01*
Y-121219D01*
X-104862Y-121327D01*
D01*
X-105062Y-121410D01*
X-111443Y-115029D01*
Y-113495D01*
X-126029D01*
Y-118631D01*
X-113897D01*
X-111621Y-120907D01*
X-111813Y-121369D01*
X-118236D01*
Y-123437D01*
X-111443D01*
Y-121738D01*
X-111313Y-121684D01*
D01*
X-110981Y-121547D01*
X-106233Y-126295D01*
X-105538Y-126759D01*
Y-126759D01*
X-105538Y-126759D01*
D01*
D01*
D01*
X-105538D01*
Y-126759D01*
D01*
X-105538Y-126759D01*
X-105538Y-126759D01*
X-104719Y-126922D01*
X-104600D01*
Y-126981D01*
X-99400D01*
Y-126922D01*
X-97192D01*
X-97155Y-126960D01*
Y-128576D01*
X-94912D01*
X-94587Y-128641D01*
X-94261Y-128576D01*
X-92335D01*
X-91981Y-128930D01*
Y-131176D01*
X-93024Y-132219D01*
X-101640D01*
X-101640Y-132219D01*
X-102069Y-132304D01*
X-102433Y-132547D01*
X-102433Y-132547D01*
X-109293Y-139407D01*
X-109536Y-139771D01*
X-109622Y-140200D01*
X-109622Y-140200D01*
Y-147921D01*
X-109622Y-147921D01*
X-109536Y-148350D01*
X-109293Y-148714D01*
X-106924Y-151083D01*
X-107201Y-151753D01*
X-107324Y-152680D01*
X-107201Y-153608D01*
X-106843Y-154472D01*
X-106274Y-155214D01*
X-105532Y-155784D01*
X-104712Y-156123D01*
X-104809Y-156614D01*
X-112671D01*
X-112768Y-156123D01*
X-111948Y-155784D01*
X-111206Y-155214D01*
X-110637Y-154472D01*
X-110279Y-153608D01*
X-110222Y-153180D01*
X-117258D01*
X-117201Y-153608D01*
X-116843Y-154472D01*
X-116274Y-155214D01*
X-115532Y-155784D01*
X-114712Y-156123D01*
X-114810Y-156614D01*
X-122671D01*
X-122768Y-156123D01*
X-121948Y-155784D01*
X-121206Y-155214D01*
X-120637Y-154472D01*
X-120279Y-153608D01*
X-120157Y-152680D01*
X-120279Y-151753D01*
X-120637Y-150889D01*
X-121206Y-150146D01*
X-121948Y-149577D01*
X-122813Y-149219D01*
X-123740Y-149097D01*
X-124668Y-149219D01*
X-125532Y-149577D01*
X-126274Y-150146D01*
X-126843Y-150889D01*
X-127201Y-151753D01*
X-127323Y-152680D01*
X-127201Y-153608D01*
X-126843Y-154472D01*
X-126274Y-155214D01*
X-125532Y-155784D01*
X-124712Y-156123D01*
X-124810Y-156614D01*
X-132671D01*
X-132768Y-156123D01*
X-131948Y-155784D01*
X-131206Y-155214D01*
X-130637Y-154472D01*
X-130279Y-153608D01*
X-130157Y-152680D01*
X-130279Y-151753D01*
X-130637Y-150889D01*
X-131206Y-150146D01*
X-131948Y-149577D01*
X-132813Y-149219D01*
X-133740Y-149097D01*
X-134668Y-149219D01*
X-135532Y-149577D01*
X-136274Y-150146D01*
X-136843Y-150889D01*
X-137201Y-151753D01*
X-137323Y-152680D01*
X-137201Y-153608D01*
X-136843Y-154472D01*
X-136274Y-155214D01*
X-135532Y-155784D01*
X-134712Y-156123D01*
X-134810Y-156614D01*
X-141931D01*
X-142099Y-156143D01*
X-141340Y-155520D01*
X-140085Y-153990D01*
X-139152Y-152244D01*
X-138577Y-150350D01*
X-138383Y-148380D01*
X-138577Y-146411D01*
X-139152Y-144516D01*
X-140085Y-142771D01*
X-141340Y-141240D01*
X-142871Y-139985D01*
X-144616Y-139052D01*
X-146511Y-138477D01*
X-148480Y-138283D01*
X-150450Y-138477D01*
X-152345Y-139052D01*
X-154090Y-139985D01*
X-155620Y-141240D01*
X-156143Y-141877D01*
X-156614Y-141709D01*
Y-15652D01*
X-156143Y-15483D01*
X-155620Y-16120D01*
X-154090Y-17376D01*
X-152345Y-18309D01*
X-150450Y-18884D01*
X-148480Y-19078D01*
X-146511Y-18884D01*
X-144616Y-18309D01*
X-142871Y-17376D01*
X-141340Y-16120D01*
X-140085Y-14590D01*
X-139152Y-12844D01*
X-138577Y-10950D01*
X-138383Y-8980D01*
X-138577Y-7010D01*
X-139152Y-5116D01*
X-140085Y-3370D01*
X-141340Y-1840D01*
X-141953Y-1338D01*
X-141785Y-867D01*
X-15554D01*
X-15386Y-1338D01*
D02*
G37*
G36*
X249119Y-2071D02*
X249969Y-2240D01*
X250398Y-2155D01*
X250898Y-2565D01*
Y-31620D01*
X250398Y-31892D01*
X249732Y-31760D01*
X247370D01*
X246597Y-31913D01*
X245942Y-32351D01*
X245504Y-33007D01*
X245350Y-33779D01*
Y-36142D01*
X245504Y-36915D01*
X245942Y-37570D01*
X246597Y-38008D01*
X247370Y-38162D01*
X249732D01*
X250398Y-38029D01*
X250898Y-38301D01*
Y-40478D01*
X250398Y-40750D01*
X249732Y-40618D01*
X247370D01*
X246597Y-40772D01*
X245942Y-41210D01*
X245504Y-41865D01*
X245350Y-42638D01*
Y-45000D01*
X245504Y-45773D01*
X245942Y-46428D01*
X246597Y-46866D01*
X247370Y-47020D01*
X249732D01*
X250398Y-46887D01*
X250898Y-47159D01*
Y-76791D01*
X174299D01*
Y-2481D01*
X174685Y-2164D01*
X175068Y-2240D01*
X175918Y-2071D01*
X176043Y-1988D01*
X176994D01*
X177119Y-2071D01*
X177969Y-2240D01*
X178818Y-2071D01*
X178943Y-1988D01*
X179994D01*
X180119Y-2071D01*
X180968Y-2240D01*
X181818Y-2071D01*
X181943Y-1988D01*
X182994D01*
X183119Y-2071D01*
X183968Y-2240D01*
X184818Y-2071D01*
X184943Y-1988D01*
X185994D01*
X186119Y-2071D01*
X186969Y-2240D01*
X187818Y-2071D01*
X187943Y-1988D01*
X189494D01*
X189619Y-2071D01*
X190469Y-2240D01*
X191318Y-2071D01*
X191443Y-1988D01*
X192994D01*
X193119Y-2071D01*
X193968Y-2240D01*
X194818Y-2071D01*
X194943Y-1988D01*
X196494D01*
X196619Y-2071D01*
X197468Y-2240D01*
X198318Y-2071D01*
X198443Y-1988D01*
X199994D01*
X200119Y-2071D01*
X200969Y-2240D01*
X201818Y-2071D01*
X201943Y-1988D01*
X203494D01*
X203619Y-2071D01*
X204468Y-2240D01*
X205318Y-2071D01*
X205443Y-1988D01*
X206994D01*
X207119Y-2071D01*
X207968Y-2240D01*
X208818Y-2071D01*
X208943Y-1988D01*
X210494D01*
X210619Y-2071D01*
X211469Y-2240D01*
X212318Y-2071D01*
X212443Y-1988D01*
X213994D01*
X214119Y-2071D01*
X214968Y-2240D01*
X215818Y-2071D01*
X215943Y-1988D01*
X217494D01*
X217619Y-2071D01*
X218468Y-2240D01*
X219318Y-2071D01*
X219443Y-1988D01*
X220994D01*
X221119Y-2071D01*
X221969Y-2240D01*
X222818Y-2071D01*
X222943Y-1988D01*
X224494D01*
X224619Y-2071D01*
X225468Y-2240D01*
X226318Y-2071D01*
X226443Y-1988D01*
X227494D01*
X227619Y-2071D01*
X228468Y-2240D01*
X229318Y-2071D01*
X229443Y-1988D01*
X230494D01*
X230619Y-2071D01*
X231469Y-2240D01*
X232318Y-2071D01*
X232443Y-1988D01*
X233494D01*
X233619Y-2071D01*
X234469Y-2240D01*
X235318Y-2071D01*
X235443Y-1988D01*
X236994D01*
X237119Y-2071D01*
X237968Y-2240D01*
X238818Y-2071D01*
X238943Y-1988D01*
X239994D01*
X240119Y-2071D01*
X240968Y-2240D01*
X241818Y-2071D01*
X241943Y-1988D01*
X242994D01*
X243119Y-2071D01*
X243969Y-2240D01*
X244818Y-2071D01*
X244943Y-1988D01*
X245994D01*
X246119Y-2071D01*
X246969Y-2240D01*
X247818Y-2071D01*
X247943Y-1988D01*
X248994D01*
X249119Y-2071D01*
D02*
G37*
G36*
Y-80811D02*
X249969Y-80980D01*
X250398Y-80895D01*
X250898Y-81305D01*
Y-110360D01*
X250398Y-110632D01*
X249732Y-110500D01*
X247370D01*
X246597Y-110653D01*
X245942Y-111091D01*
X245504Y-111747D01*
X245350Y-112520D01*
Y-114882D01*
X245504Y-115655D01*
X245942Y-116310D01*
X246597Y-116748D01*
X247370Y-116902D01*
X249732D01*
X250398Y-116769D01*
X250898Y-117041D01*
Y-119219D01*
X250398Y-119491D01*
X249732Y-119358D01*
X247370D01*
X246597Y-119512D01*
X245942Y-119950D01*
X245504Y-120605D01*
X245350Y-121378D01*
Y-123740D01*
X245504Y-124513D01*
X245942Y-125168D01*
X246597Y-125606D01*
X247370Y-125760D01*
X249732D01*
X250398Y-125628D01*
X250898Y-125900D01*
Y-155532D01*
X174299D01*
Y-81221D01*
X174685Y-80904D01*
X175068Y-80980D01*
X175918Y-80811D01*
X176043Y-80728D01*
X176994D01*
X177119Y-80811D01*
X177969Y-80980D01*
X178818Y-80811D01*
X178943Y-80728D01*
X179994D01*
X180119Y-80811D01*
X180968Y-80980D01*
X181818Y-80811D01*
X181943Y-80728D01*
X182994D01*
X183119Y-80811D01*
X183968Y-80980D01*
X184818Y-80811D01*
X184943Y-80728D01*
X185994D01*
X186119Y-80811D01*
X186969Y-80980D01*
X187818Y-80811D01*
X187943Y-80728D01*
X189494D01*
X189619Y-80811D01*
X190469Y-80980D01*
X191318Y-80811D01*
X191443Y-80728D01*
X192994D01*
X193119Y-80811D01*
X193968Y-80980D01*
X194818Y-80811D01*
X194943Y-80728D01*
X196494D01*
X196619Y-80811D01*
X197468Y-80980D01*
X198318Y-80811D01*
X198443Y-80728D01*
X199994D01*
X200119Y-80811D01*
X200969Y-80980D01*
X201818Y-80811D01*
X201943Y-80728D01*
X203494D01*
X203619Y-80811D01*
X204468Y-80980D01*
X205318Y-80811D01*
X205443Y-80728D01*
X206994D01*
X207119Y-80811D01*
X207968Y-80980D01*
X208818Y-80811D01*
X208943Y-80728D01*
X210494D01*
X210619Y-80811D01*
X211469Y-80980D01*
X212318Y-80811D01*
X212443Y-80728D01*
X213994D01*
X214119Y-80811D01*
X214968Y-80980D01*
X215818Y-80811D01*
X215943Y-80728D01*
X217494D01*
X217619Y-80811D01*
X218468Y-80980D01*
X219318Y-80811D01*
X219443Y-80728D01*
X220994D01*
X221119Y-80811D01*
X221969Y-80980D01*
X222818Y-80811D01*
X222943Y-80728D01*
X224494D01*
X224619Y-80811D01*
X225468Y-80980D01*
X226318Y-80811D01*
X226443Y-80728D01*
X227494D01*
X227619Y-80811D01*
X228468Y-80980D01*
X229318Y-80811D01*
X229443Y-80728D01*
X230494D01*
X230619Y-80811D01*
X231469Y-80980D01*
X232318Y-80811D01*
X232443Y-80728D01*
X233494D01*
X233619Y-80811D01*
X234469Y-80980D01*
X235318Y-80811D01*
X235443Y-80728D01*
X236994D01*
X237119Y-80811D01*
X237968Y-80980D01*
X238818Y-80811D01*
X238943Y-80728D01*
X239994D01*
X240119Y-80811D01*
X240968Y-80980D01*
X241818Y-80811D01*
X241943Y-80728D01*
X242994D01*
X243119Y-80811D01*
X243969Y-80980D01*
X244818Y-80811D01*
X244943Y-80728D01*
X245994D01*
X246119Y-80811D01*
X246969Y-80980D01*
X247818Y-80811D01*
X247943Y-80728D01*
X248994D01*
X249119Y-80811D01*
D02*
G37*
G36*
X-57392Y-63793D02*
X-57392Y-63793D01*
X-57028Y-64036D01*
X-56757Y-64090D01*
Y-67658D01*
X-50243D01*
Y-65334D01*
X-50074Y-64491D01*
X-49584Y-64394D01*
X-49515Y-64496D01*
X-49521Y-64504D01*
X-49684Y-65324D01*
Y-73113D01*
X-52514Y-75943D01*
X-52978Y-76638D01*
X-53141Y-77457D01*
Y-94466D01*
X-53557Y-94744D01*
X-53817Y-94636D01*
Y-91687D01*
D01*
Y-91687D01*
X-53817Y-91687D01*
X-53817Y-91313D01*
X-53817D01*
Y-88341D01*
X-54277D01*
Y-86321D01*
X-53716D01*
Y-83349D01*
D01*
Y-83349D01*
X-53716Y-83349D01*
X-53716Y-82974D01*
X-53716D01*
Y-81989D01*
X-57082D01*
Y-82974D01*
D01*
D01*
X-57082Y-82974D01*
X-57082Y-83349D01*
D01*
X-57082Y-83713D01*
X-59201D01*
X-59725Y-83189D01*
X-59574Y-82429D01*
Y-78098D01*
X-59727Y-77327D01*
X-60164Y-76672D01*
X-60469Y-76469D01*
Y-74910D01*
X-60554Y-74481D01*
X-60797Y-74117D01*
X-60797Y-74117D01*
X-61597Y-73317D01*
Y-73100D01*
X-60519D01*
Y-67900D01*
X-64582D01*
Y-65967D01*
X-63192Y-64576D01*
X-59845D01*
Y-61993D01*
X-59383Y-61802D01*
X-57392Y-63793D01*
D02*
G37*
G36*
X249119Y155409D02*
X249969Y155240D01*
X250398Y155325D01*
X250898Y154915D01*
Y125860D01*
X250398Y125588D01*
X249732Y125721D01*
X247370D01*
X246597Y125567D01*
X245942Y125129D01*
X245504Y124474D01*
X245350Y123701D01*
Y121339D01*
X245504Y120566D01*
X245942Y119910D01*
X246597Y119472D01*
X247370Y119319D01*
X249732D01*
X250398Y119451D01*
X250898Y119179D01*
Y117002D01*
X250398Y116730D01*
X249732Y116862D01*
X247370D01*
X246597Y116709D01*
X245942Y116271D01*
X245504Y115615D01*
X245350Y114842D01*
Y112480D01*
X245504Y111707D01*
X245942Y111052D01*
X246597Y110614D01*
X247370Y110460D01*
X249732D01*
X250398Y110593D01*
X250898Y110321D01*
Y80689D01*
X174299D01*
Y154999D01*
X174685Y155316D01*
X175068Y155240D01*
X175918Y155409D01*
X176043Y155492D01*
X176994D01*
X177119Y155409D01*
X177969Y155240D01*
X178818Y155409D01*
X178943Y155492D01*
X179994D01*
X180119Y155409D01*
X180968Y155240D01*
X181818Y155409D01*
X181943Y155492D01*
X182994D01*
X183119Y155409D01*
X183968Y155240D01*
X184818Y155409D01*
X184943Y155492D01*
X185994D01*
X186119Y155409D01*
X186969Y155240D01*
X187818Y155409D01*
X187943Y155492D01*
X189494D01*
X189619Y155409D01*
X190469Y155240D01*
X191318Y155409D01*
X191443Y155492D01*
X192994D01*
X193119Y155409D01*
X193968Y155240D01*
X194818Y155409D01*
X194943Y155492D01*
X196494D01*
X196619Y155409D01*
X197468Y155240D01*
X198318Y155409D01*
X198443Y155492D01*
X199994D01*
X200119Y155409D01*
X200969Y155240D01*
X201818Y155409D01*
X201943Y155492D01*
X203494D01*
X203619Y155409D01*
X204468Y155240D01*
X205318Y155409D01*
X205443Y155492D01*
X206994D01*
X207119Y155409D01*
X207968Y155240D01*
X208818Y155409D01*
X208943Y155492D01*
X210494D01*
X210619Y155409D01*
X211469Y155240D01*
X212318Y155409D01*
X212443Y155492D01*
X213994D01*
X214119Y155409D01*
X214968Y155240D01*
X215818Y155409D01*
X215943Y155492D01*
X217494D01*
X217619Y155409D01*
X218468Y155240D01*
X219318Y155409D01*
X219443Y155492D01*
X220994D01*
X221119Y155409D01*
X221969Y155240D01*
X222818Y155409D01*
X222943Y155492D01*
X224494D01*
X224619Y155409D01*
X225468Y155240D01*
X226318Y155409D01*
X226443Y155492D01*
X227494D01*
X227619Y155409D01*
X228468Y155240D01*
X229318Y155409D01*
X229443Y155492D01*
X230494D01*
X230619Y155409D01*
X231469Y155240D01*
X232318Y155409D01*
X232443Y155492D01*
X233494D01*
X233619Y155409D01*
X234469Y155240D01*
X235318Y155409D01*
X235443Y155492D01*
X236994D01*
X237119Y155409D01*
X237968Y155240D01*
X238818Y155409D01*
X238943Y155492D01*
X239994D01*
X240119Y155409D01*
X240968Y155240D01*
X241818Y155409D01*
X241943Y155492D01*
X242994D01*
X243119Y155409D01*
X243969Y155240D01*
X244818Y155409D01*
X244943Y155492D01*
X245994D01*
X246119Y155409D01*
X246969Y155240D01*
X247818Y155409D01*
X247943Y155492D01*
X248994D01*
X249119Y155409D01*
D02*
G37*
%LPC*%
G36*
X218307Y45256D02*
X212114D01*
Y43787D01*
X218307D01*
Y45256D01*
D02*
G37*
G36*
X233563Y48398D02*
X231688D01*
X231079Y47788D01*
X230791Y47358D01*
X230690Y46850D01*
Y45256D01*
X228866D01*
Y44969D01*
X235165D01*
Y45256D01*
X233341D01*
Y46207D01*
X233563Y46402D01*
Y48398D01*
D02*
G37*
G36*
X236372D02*
X234563D01*
Y46589D01*
X234985Y46672D01*
X235766Y47195D01*
X236288Y47976D01*
X236372Y48398D01*
D02*
G37*
G36*
X211114Y45256D02*
X204921D01*
Y43787D01*
X211114D01*
Y45256D01*
D02*
G37*
G36*
X235165Y43968D02*
X228866D01*
Y43681D01*
X228482Y43402D01*
X228289Y43274D01*
X228113Y43009D01*
X228050Y42697D01*
Y41122D01*
X228113Y40810D01*
X228233Y40630D01*
X228113Y40450D01*
X228050Y40138D01*
Y38563D01*
X228113Y38251D01*
X228233Y38071D01*
X228113Y37891D01*
X228050Y37579D01*
Y36444D01*
X227551Y36237D01*
X225360Y38427D01*
X225096Y38604D01*
X224783Y38666D01*
X224783Y38666D01*
X198284D01*
X197971Y38604D01*
X197707Y38427D01*
X197707Y38427D01*
X196707Y37427D01*
X196530Y37163D01*
X196468Y36850D01*
X196468Y36850D01*
Y31850D01*
X196530Y31538D01*
X196707Y31274D01*
X196707Y31274D01*
X199207Y28774D01*
X199471Y28597D01*
X199784Y28535D01*
X199784Y28535D01*
X224783D01*
X225096Y28597D01*
X225360Y28774D01*
X225360Y28774D01*
X229021Y32435D01*
X232850D01*
X233001Y31935D01*
X232360Y31506D01*
X231838Y30725D01*
X231754Y30303D01*
X236372D01*
X236288Y30725D01*
X235766Y31506D01*
X235125Y31935D01*
X235276Y32435D01*
X235283D01*
X235596Y32497D01*
X235860Y32674D01*
X235860Y32674D01*
X236060Y32874D01*
X236237Y33138D01*
X236299Y33450D01*
X236299Y33450D01*
Y34850D01*
X236237Y35162D01*
X236060Y35427D01*
X235919Y35692D01*
X235981Y36004D01*
Y37579D01*
X235919Y37891D01*
X235799Y38071D01*
X235919Y38251D01*
X235981Y38563D01*
Y40138D01*
X235919Y40450D01*
X235799Y40630D01*
X235919Y40810D01*
X235981Y41122D01*
Y42697D01*
X235919Y43009D01*
X235742Y43274D01*
X235550Y43402D01*
X235165Y43681D01*
Y43968D01*
D02*
G37*
G36*
X211114Y42787D02*
X204921D01*
Y41319D01*
X211114D01*
Y42787D01*
D02*
G37*
G36*
X218307D02*
X212114D01*
Y41319D01*
X218307D01*
Y42787D01*
D02*
G37*
G36*
X181587Y51842D02*
X175000D01*
Y49390D01*
X181587D01*
Y51842D01*
D02*
G37*
G36*
X247514Y53122D02*
X245114D01*
Y51214D01*
X245205D01*
X246126Y51397D01*
X246908Y51919D01*
X247430Y52700D01*
X247514Y53122D01*
D02*
G37*
G36*
X181587Y55295D02*
X175000D01*
Y52842D01*
X181587D01*
Y55295D01*
D02*
G37*
G36*
X189173D02*
X182587D01*
Y52842D01*
X189173D01*
Y55295D01*
D02*
G37*
G36*
X244114Y53122D02*
X241715D01*
X241798Y52700D01*
X242321Y51919D01*
X243102Y51397D01*
X244024Y51214D01*
X244114D01*
Y53122D01*
D02*
G37*
G36*
X189173Y51842D02*
X182587D01*
Y49390D01*
X189173D01*
Y51842D01*
D02*
G37*
G36*
X233563Y51207D02*
X233141Y51123D01*
X232360Y50601D01*
X231838Y49819D01*
X231754Y49398D01*
X233563D01*
Y51207D01*
D02*
G37*
G36*
X234563D02*
Y49398D01*
X236372D01*
X236288Y49819D01*
X235766Y50601D01*
X234985Y51123D01*
X234563Y51207D01*
D02*
G37*
G36*
X236372Y29303D02*
X234563D01*
Y27494D01*
X234985Y27578D01*
X235766Y28100D01*
X236288Y28881D01*
X236372Y29303D01*
D02*
G37*
G36*
X232283Y16812D02*
X230920Y16678D01*
X229609Y16280D01*
X228400Y15634D01*
X227341Y14765D01*
X226472Y13706D01*
X225826Y12498D01*
X225429Y11186D01*
X225294Y9823D01*
X225429Y8459D01*
X225826Y7148D01*
X226472Y5940D01*
X227341Y4881D01*
X228400Y4011D01*
X229609Y3366D01*
X230920Y2968D01*
X232283Y2834D01*
X233647Y2968D01*
X234958Y3366D01*
X236166Y4011D01*
X237226Y4881D01*
X238095Y5940D01*
X238741Y7148D01*
X239138Y8459D01*
X239273Y9823D01*
X239138Y11186D01*
X238741Y12498D01*
X238095Y13706D01*
X237226Y14765D01*
X236166Y15634D01*
X234958Y16280D01*
X233647Y16678D01*
X232283Y16812D01*
D02*
G37*
G36*
X244114Y24579D02*
X241715D01*
X241798Y24157D01*
X242321Y23376D01*
X243102Y22854D01*
X244024Y22670D01*
X244114D01*
Y24579D01*
D02*
G37*
G36*
X247514D02*
X245114D01*
Y22670D01*
X245205D01*
X246126Y22854D01*
X246908Y23376D01*
X247430Y24157D01*
X247514Y24579D01*
D02*
G37*
G36*
X181587Y29311D02*
X175000D01*
Y26858D01*
X181587D01*
Y29311D01*
D02*
G37*
G36*
X189173D02*
X182587D01*
Y26858D01*
X189173D01*
Y29311D01*
D02*
G37*
G36*
X233563Y29303D02*
X231754D01*
X231838Y28881D01*
X232360Y28100D01*
X233141Y27578D01*
X233563Y27494D01*
Y29303D01*
D02*
G37*
G36*
X245205Y27487D02*
X245114D01*
Y25579D01*
X247514D01*
X247430Y26000D01*
X246908Y26782D01*
X246126Y27304D01*
X245205Y27487D01*
D02*
G37*
G36*
X181587Y25858D02*
X175000D01*
Y23405D01*
X181587D01*
Y25858D01*
D02*
G37*
G36*
X189173D02*
X182587D01*
Y23405D01*
X189173D01*
Y25858D01*
D02*
G37*
G36*
X244114Y27487D02*
X244024D01*
X243102Y27304D01*
X242321Y26782D01*
X241798Y26000D01*
X241715Y25579D01*
X244114D01*
Y27487D01*
D02*
G37*
G36*
Y56030D02*
X244024D01*
X243102Y55847D01*
X242321Y55325D01*
X241798Y54544D01*
X241715Y54122D01*
X244114D01*
Y56030D01*
D02*
G37*
G36*
X245205D02*
X245114D01*
Y54122D01*
X247514D01*
X247430Y54544D01*
X246908Y55325D01*
X246126Y55847D01*
X245205Y56030D01*
D02*
G37*
G36*
X232283Y75867D02*
X230920Y75733D01*
X229609Y75335D01*
X228400Y74689D01*
X227341Y73820D01*
X226472Y72761D01*
X225826Y71553D01*
X225429Y70241D01*
X225294Y68878D01*
X225429Y67514D01*
X225826Y66203D01*
X226472Y64995D01*
X227341Y63936D01*
X228400Y63067D01*
X229609Y62421D01*
X230920Y62023D01*
X232283Y61889D01*
X233647Y62023D01*
X234958Y62421D01*
X236166Y63067D01*
X237226Y63936D01*
X238095Y64995D01*
X238741Y66203D01*
X239138Y67514D01*
X239273Y68878D01*
X239138Y70241D01*
X238741Y71553D01*
X238095Y72761D01*
X237226Y73820D01*
X236166Y74689D01*
X234958Y75335D01*
X233647Y75733D01*
X232283Y75867D01*
D02*
G37*
%LPD*%
G36*
X227484Y35150D02*
X235184D01*
X235484Y34850D01*
Y33450D01*
X235283Y33250D01*
X228683D01*
X224783Y29350D01*
X199784D01*
X197283Y31850D01*
Y36850D01*
X198284Y37850D01*
X224783D01*
X227484Y35150D01*
D02*
G37*
%LPC*%
G36*
X-49931Y-126250D02*
X-52000D01*
Y-128319D01*
X-49931D01*
Y-126250D01*
D02*
G37*
G36*
X-38500Y-91315D02*
X-39584D01*
Y-93482D01*
X-38500D01*
Y-91315D01*
D02*
G37*
G36*
X-33519Y-94400D02*
X-35219D01*
Y-96500D01*
X-33519D01*
Y-94400D01*
D02*
G37*
G36*
X-32676Y-77518D02*
X-35844D01*
Y-82852D01*
X-32676D01*
Y-77518D01*
D02*
G37*
G36*
X-36416Y-91315D02*
X-37500D01*
Y-93482D01*
X-36416D01*
Y-91315D01*
D02*
G37*
G36*
X-38500Y-88148D02*
X-39584D01*
Y-90315D01*
X-38500D01*
Y-88148D01*
D02*
G37*
G36*
X-36416D02*
X-37500D01*
Y-90315D01*
X-36416D01*
Y-88148D01*
D02*
G37*
G36*
X-33519Y-97500D02*
X-35219D01*
Y-99600D01*
X-33519D01*
Y-97500D01*
D02*
G37*
G36*
X-36219Y-94400D02*
X-37919D01*
Y-96500D01*
X-36219D01*
Y-94400D01*
D02*
G37*
G36*
Y-97500D02*
X-37919D01*
Y-99600D01*
X-36219D01*
Y-97500D01*
D02*
G37*
G36*
X-31699Y-101742D02*
X-35342D01*
Y-104500D01*
X-31699D01*
Y-101742D01*
D02*
G37*
G36*
X-42341Y-113000D02*
X-43327D01*
Y-114183D01*
X-42341D01*
Y-113000D01*
D02*
G37*
G36*
X-31699Y-105500D02*
X-35342D01*
Y-108257D01*
X-31699D01*
Y-105500D01*
D02*
G37*
G36*
X-62090Y-96654D02*
X-62362Y-96708D01*
X-63016Y-97145D01*
X-63453Y-97799D01*
X-63607Y-98571D01*
Y-100236D01*
X-62090D01*
Y-96654D01*
D02*
G37*
G36*
X-61090D02*
Y-100236D01*
X-59574D01*
Y-98571D01*
X-59727Y-97799D01*
X-60164Y-97145D01*
X-60818Y-96708D01*
X-61090Y-96654D01*
D02*
G37*
G36*
X-144243Y-89227D02*
X-146311D01*
Y-94248D01*
X-144243D01*
Y-89227D01*
D02*
G37*
G36*
X-92841Y-92817D02*
X-93827D01*
Y-94000D01*
X-92841D01*
Y-92817D01*
D02*
G37*
G36*
X-147311Y-89227D02*
X-149380D01*
Y-94248D01*
X-147311D01*
Y-89227D01*
D02*
G37*
G36*
X-92841Y-95000D02*
X-93827D01*
Y-96183D01*
X-92841D01*
Y-95000D01*
D02*
G37*
G36*
X-86173Y-83000D02*
X-87159D01*
Y-84183D01*
X-86173D01*
Y-83000D01*
D02*
G37*
G36*
X-119961Y-78314D02*
X-120785Y-78422D01*
X-121554Y-78741D01*
X-122214Y-79247D01*
X-122720Y-79907D01*
X-123038Y-80675D01*
X-123147Y-81500D01*
X-123038Y-82325D01*
X-122720Y-83093D01*
X-122214Y-83753D01*
X-121554Y-84259D01*
X-120785Y-84578D01*
X-119961Y-84686D01*
X-119136Y-84578D01*
X-118368Y-84259D01*
X-117708Y-83753D01*
X-117201Y-83093D01*
X-116883Y-82325D01*
X-116774Y-81500D01*
X-116883Y-80675D01*
X-117201Y-79907D01*
X-117708Y-79247D01*
X-118368Y-78741D01*
X-119136Y-78422D01*
X-119961Y-78314D01*
D02*
G37*
G36*
X-147311Y-95248D02*
X-149380D01*
Y-100269D01*
X-147311D01*
Y-95248D01*
D02*
G37*
G36*
X-144243D02*
X-146311D01*
Y-100269D01*
X-144243D01*
Y-95248D01*
D02*
G37*
G36*
X-92841Y-99500D02*
X-93827D01*
Y-100683D01*
X-92841D01*
Y-99500D01*
D02*
G37*
G36*
Y-101817D02*
X-93827D01*
Y-103000D01*
X-92841D01*
Y-101817D01*
D02*
G37*
G36*
X-149244Y-52772D02*
X-156037D01*
Y-55824D01*
X-149244D01*
Y-52772D01*
D02*
G37*
G36*
X-88500Y-101081D02*
X-90600D01*
Y-102781D01*
X-88500D01*
Y-101081D01*
D02*
G37*
G36*
X-92841Y-97317D02*
X-93827D01*
Y-98500D01*
X-92841D01*
Y-97317D01*
D02*
G37*
G36*
X-133022Y-89227D02*
X-138159D01*
Y-100269D01*
X-133022D01*
Y-89227D01*
D02*
G37*
G36*
X-86173Y-80817D02*
X-87159D01*
Y-82000D01*
X-86173D01*
Y-80817D01*
D02*
G37*
G36*
X-94719Y-67000D02*
X-96419D01*
Y-69100D01*
X-94719D01*
Y-67000D01*
D02*
G37*
G36*
X-92019D02*
X-93719D01*
Y-69100D01*
X-92019D01*
Y-67000D01*
D02*
G37*
G36*
X-39900Y-66019D02*
X-42000D01*
Y-67719D01*
X-39900D01*
Y-66019D01*
D02*
G37*
G36*
X-68781Y-67900D02*
X-70481D01*
Y-70000D01*
X-68781D01*
Y-67900D01*
D02*
G37*
G36*
X-92841Y-70817D02*
X-93827D01*
Y-72000D01*
X-92841D01*
Y-70817D01*
D02*
G37*
G36*
X-126500Y-58123D02*
X-127027Y-58228D01*
X-127473Y-58527D01*
X-127473Y-58527D01*
X-131677Y-62731D01*
X-133868D01*
Y-73773D01*
X-132676D01*
Y-80201D01*
X-132676Y-80201D01*
X-132676D01*
X-132571Y-80727D01*
X-132273Y-81174D01*
X-125747Y-87700D01*
Y-89227D01*
X-126939D01*
Y-100269D01*
X-121802D01*
Y-89227D01*
X-122994D01*
Y-87130D01*
X-122994Y-87130D01*
Y-87130D01*
X-122994D01*
X-122994Y-87130D01*
D01*
D01*
D01*
D01*
X-122994Y-87130D01*
D01*
X-123099Y-86603D01*
X-123218Y-86424D01*
X-123397Y-86157D01*
X-123397Y-86156D01*
X-129923Y-79631D01*
Y-73773D01*
X-128731D01*
Y-63677D01*
X-125930Y-60876D01*
X-120070D01*
X-118376Y-62570D01*
Y-71500D01*
X-118377Y-71500D01*
X-118376D01*
X-118272Y-72027D01*
X-117973Y-72473D01*
X-106973Y-83473D01*
X-106527Y-83772D01*
X-106000Y-83876D01*
X-99481D01*
Y-85100D01*
X-95081D01*
Y-79900D01*
X-96297D01*
Y-79036D01*
X-95943Y-78683D01*
X-95813Y-78683D01*
D01*
X-95813D01*
X-95813D01*
Y-78683D01*
X-94827D01*
Y-77001D01*
Y-75317D01*
X-95813D01*
Y-75317D01*
D01*
Y-75317D01*
X-95813D01*
D01*
D01*
D01*
D01*
D01*
X-96187Y-75317D01*
D01*
X-96297Y-75317D01*
Y-74536D01*
X-95943Y-74183D01*
X-95813Y-74183D01*
D01*
X-95813D01*
X-95813D01*
Y-74183D01*
X-94827D01*
Y-72501D01*
Y-70817D01*
X-95813D01*
D01*
D01*
X-95813Y-70817D01*
X-96187Y-70817D01*
Y-70817D01*
X-99159D01*
Y-74183D01*
X-99050D01*
Y-75317D01*
X-99159D01*
Y-78683D01*
X-99050D01*
Y-79900D01*
X-99481D01*
Y-81124D01*
X-105430D01*
X-115624Y-70930D01*
Y-62000D01*
X-115728Y-61473D01*
X-115848Y-61294D01*
X-116027Y-61027D01*
X-116027Y-61027D01*
X-118527Y-58527D01*
X-118973Y-58228D01*
X-119500Y-58124D01*
X-126500D01*
X-126500Y-58123D01*
D02*
G37*
G36*
X-39900Y-68719D02*
X-42000D01*
Y-70419D01*
X-39900D01*
Y-68719D01*
D02*
G37*
G36*
X-79341Y-57317D02*
X-80327D01*
Y-58500D01*
X-79341D01*
Y-57317D01*
D02*
G37*
G36*
X-149244Y-56824D02*
X-156037D01*
Y-59877D01*
X-149244D01*
Y-56824D01*
D02*
G37*
G36*
X-141451D02*
X-148244D01*
Y-59877D01*
X-141451D01*
Y-56824D01*
D02*
G37*
G36*
X-7231Y-59240D02*
X-10248D01*
Y-62258D01*
X-9821Y-62201D01*
X-8956Y-61844D01*
X-8214Y-61274D01*
X-7645Y-60532D01*
X-7287Y-59668D01*
X-7231Y-59240D01*
D02*
G37*
G36*
X-94719Y-63900D02*
X-96419D01*
Y-66000D01*
X-94719D01*
Y-63900D01*
D02*
G37*
G36*
X-92019D02*
X-93719D01*
Y-66000D01*
X-92019D01*
Y-63900D01*
D02*
G37*
G36*
X-11248Y-59240D02*
X-14266D01*
X-14209Y-59668D01*
X-13851Y-60532D01*
X-13282Y-61274D01*
X-12540Y-61844D01*
X-11676Y-62201D01*
X-11248Y-62258D01*
Y-59240D01*
D02*
G37*
G36*
X-33400Y-55719D02*
X-35500D01*
Y-57419D01*
X-33400D01*
Y-55719D01*
D02*
G37*
G36*
X-92841Y-77500D02*
X-93827D01*
Y-78683D01*
X-92841D01*
Y-77500D01*
D02*
G37*
G36*
Y-75317D02*
X-93827D01*
Y-76500D01*
X-92841D01*
Y-75317D01*
D02*
G37*
G36*
X-119479Y-62731D02*
X-124616D01*
Y-73773D01*
X-121673D01*
X-115313Y-80133D01*
Y-89227D01*
X-116506D01*
Y-100269D01*
X-111369D01*
Y-91315D01*
X-110430Y-90376D01*
X-99481D01*
Y-91600D01*
X-99050D01*
Y-92817D01*
X-99159D01*
Y-96183D01*
X-99050D01*
Y-97317D01*
X-99159D01*
Y-100683D01*
X-96187D01*
Y-100683D01*
X-96187D01*
X-96187Y-100683D01*
X-95813Y-100683D01*
Y-100683D01*
X-94827D01*
Y-99001D01*
Y-97317D01*
X-95813D01*
D01*
D01*
D01*
D01*
D01*
Y-97317D01*
X-95813D01*
D01*
D01*
Y-97317D01*
D01*
D01*
X-95813D01*
D01*
D01*
X-96187Y-97317D01*
D01*
X-96297Y-97317D01*
Y-96536D01*
X-95943Y-96183D01*
X-95813Y-96183D01*
D01*
X-95813D01*
X-95813D01*
Y-96183D01*
X-94827D01*
Y-94501D01*
Y-92817D01*
X-95813D01*
Y-92817D01*
D01*
Y-92817D01*
X-95813D01*
D01*
D01*
D01*
D01*
D01*
X-96187Y-92817D01*
D01*
X-96297Y-92817D01*
Y-91600D01*
X-95081D01*
Y-86400D01*
X-99481D01*
Y-87624D01*
X-111000D01*
X-111527Y-87728D01*
X-111973Y-88027D01*
X-111973Y-88027D01*
X-112099Y-88152D01*
X-112561Y-87961D01*
Y-79563D01*
X-112561Y-79563D01*
Y-79563D01*
X-112561D01*
X-112561Y-79563D01*
D01*
D01*
D01*
D01*
X-112561Y-79563D01*
D01*
X-112665Y-79036D01*
X-112964Y-78590D01*
X-119479Y-72075D01*
Y-62731D01*
D02*
G37*
G36*
X-75673Y-55000D02*
X-76659D01*
Y-56183D01*
X-75673D01*
Y-55000D01*
D02*
G37*
G36*
X-92841Y-73000D02*
X-93827D01*
Y-74183D01*
X-92841D01*
Y-73000D01*
D02*
G37*
G36*
X-139754Y-62731D02*
X-144891D01*
Y-73773D01*
X-139754D01*
Y-62731D01*
D02*
G37*
G36*
X-11248Y-55223D02*
X-11676Y-55279D01*
X-12540Y-55637D01*
X-13282Y-56206D01*
X-13851Y-56949D01*
X-14209Y-57813D01*
X-14266Y-58240D01*
X-11248D01*
Y-55223D01*
D02*
G37*
G36*
X-36500Y-55719D02*
X-38600D01*
Y-57419D01*
X-36500D01*
Y-55719D01*
D02*
G37*
G36*
X-10248Y-55223D02*
Y-58240D01*
X-7231D01*
X-7287Y-57813D01*
X-7645Y-56949D01*
X-8214Y-56206D01*
X-8956Y-55637D01*
X-9821Y-55279D01*
X-10248Y-55223D01*
D02*
G37*
G36*
X-140577Y-129439D02*
X-147764D01*
Y-132492D01*
X-140577D01*
Y-129439D01*
D02*
G37*
G36*
X-148764D02*
X-155950D01*
Y-132492D01*
X-148764D01*
Y-129439D01*
D02*
G37*
G36*
X-119236Y-124437D02*
X-126029D01*
Y-126505D01*
X-119236D01*
Y-124437D01*
D02*
G37*
G36*
X-111443D02*
X-118236D01*
Y-126505D01*
X-111443D01*
Y-124437D01*
D02*
G37*
G36*
X-119236Y-121369D02*
X-126029D01*
Y-123437D01*
X-119236D01*
Y-121369D01*
D02*
G37*
G36*
X-83240Y-149163D02*
Y-152180D01*
X-80222D01*
X-80279Y-151753D01*
X-80637Y-150889D01*
X-81206Y-150146D01*
X-81948Y-149577D01*
X-82813Y-149219D01*
X-83240Y-149163D01*
D02*
G37*
G36*
X-44240D02*
X-44668Y-149219D01*
X-45532Y-149577D01*
X-46274Y-150146D01*
X-46843Y-150889D01*
X-47201Y-151753D01*
X-47258Y-152180D01*
X-44240D01*
Y-149163D01*
D02*
G37*
G36*
X-43240D02*
Y-152180D01*
X-40222D01*
X-40279Y-151753D01*
X-40637Y-150889D01*
X-41206Y-150146D01*
X-41948Y-149577D01*
X-42813Y-149219D01*
X-43240Y-149163D01*
D02*
G37*
G36*
X-84240D02*
X-84668Y-149219D01*
X-85532Y-149577D01*
X-86274Y-150146D01*
X-86843Y-150889D01*
X-87201Y-151753D01*
X-87258Y-152180D01*
X-84240D01*
Y-149163D01*
D02*
G37*
G36*
X-114240D02*
X-114668Y-149219D01*
X-115532Y-149577D01*
X-116274Y-150146D01*
X-116843Y-150889D01*
X-117201Y-151753D01*
X-117258Y-152180D01*
X-114240D01*
Y-149163D01*
D02*
G37*
G36*
X-113240D02*
Y-152180D01*
X-110222D01*
X-110279Y-151753D01*
X-110637Y-150889D01*
X-111206Y-150146D01*
X-111948Y-149577D01*
X-112813Y-149219D01*
X-113240Y-149163D01*
D02*
G37*
G36*
X-123740Y-139097D02*
X-124668Y-139219D01*
X-125532Y-139577D01*
X-126274Y-140147D01*
X-126843Y-140889D01*
X-127201Y-141753D01*
X-127323Y-142680D01*
X-127201Y-143608D01*
X-126843Y-144472D01*
X-126274Y-145214D01*
X-125532Y-145784D01*
X-124668Y-146142D01*
X-123740Y-146264D01*
X-122813Y-146142D01*
X-121948Y-145784D01*
X-121206Y-145214D01*
X-120637Y-144472D01*
X-120279Y-143608D01*
X-120157Y-142680D01*
X-120279Y-141753D01*
X-120637Y-140889D01*
X-121206Y-140147D01*
X-121948Y-139577D01*
X-122813Y-139219D01*
X-123740Y-139097D01*
D02*
G37*
G36*
X-126460Y-133871D02*
X-127045Y-133987D01*
X-127541Y-134319D01*
X-127873Y-134815D01*
X-127989Y-135400D01*
X-127951Y-135593D01*
X-131941Y-139583D01*
X-131948Y-139577D01*
X-132813Y-139219D01*
X-133740Y-139097D01*
X-134668Y-139219D01*
X-135532Y-139577D01*
X-136274Y-140147D01*
X-136843Y-140889D01*
X-137201Y-141753D01*
X-137323Y-142680D01*
X-137201Y-143608D01*
X-136843Y-144472D01*
X-136274Y-145214D01*
X-135532Y-145784D01*
X-134668Y-146142D01*
X-133740Y-146264D01*
X-132813Y-146142D01*
X-131948Y-145784D01*
X-131206Y-145214D01*
X-130637Y-144472D01*
X-130279Y-143608D01*
X-130157Y-142680D01*
X-130279Y-141753D01*
X-130637Y-140889D01*
X-130643Y-140881D01*
X-126653Y-136891D01*
X-126460Y-136929D01*
X-125874Y-136813D01*
X-125378Y-136481D01*
X-125047Y-135985D01*
X-124930Y-135400D01*
X-125047Y-134815D01*
X-125378Y-134319D01*
X-125874Y-133987D01*
X-126460Y-133871D01*
D02*
G37*
G36*
X-148764Y-133492D02*
X-155950D01*
Y-136545D01*
X-148764D01*
Y-133492D01*
D02*
G37*
G36*
X-140577D02*
X-147764D01*
Y-136545D01*
X-140577D01*
Y-133492D01*
D02*
G37*
G36*
X-60223Y-143180D02*
X-63240D01*
Y-146198D01*
X-62813Y-146142D01*
X-61948Y-145784D01*
X-61206Y-145214D01*
X-60637Y-144472D01*
X-60279Y-143608D01*
X-60223Y-143180D01*
D02*
G37*
G36*
X-113740Y-139097D02*
X-114668Y-139219D01*
X-115532Y-139577D01*
X-116274Y-140147D01*
X-116843Y-140889D01*
X-117201Y-141753D01*
X-117324Y-142680D01*
X-117201Y-143608D01*
X-116843Y-144472D01*
X-116274Y-145214D01*
X-115532Y-145784D01*
X-114668Y-146142D01*
X-113740Y-146264D01*
X-112813Y-146142D01*
X-111948Y-145784D01*
X-111206Y-145214D01*
X-110637Y-144472D01*
X-110279Y-143608D01*
X-110157Y-142680D01*
X-110279Y-141753D01*
X-110637Y-140889D01*
X-111206Y-140147D01*
X-111948Y-139577D01*
X-112813Y-139219D01*
X-113740Y-139097D01*
D02*
G37*
G36*
X-20187Y-139128D02*
X-27293D01*
Y-146233D01*
X-20187D01*
Y-139128D01*
D02*
G37*
G36*
X-64240Y-143180D02*
X-67258D01*
X-67201Y-143608D01*
X-66843Y-144472D01*
X-66274Y-145214D01*
X-65532Y-145784D01*
X-64668Y-146142D01*
X-64240Y-146198D01*
Y-143180D01*
D02*
G37*
G36*
X-99400Y-119719D02*
X-101500D01*
Y-121419D01*
X-99400D01*
Y-119719D01*
D02*
G37*
G36*
X-148764Y-103455D02*
X-155950D01*
Y-106508D01*
X-148764D01*
Y-103455D01*
D02*
G37*
G36*
X-140577D02*
X-147764D01*
Y-106508D01*
X-140577D01*
Y-103455D01*
D02*
G37*
G36*
X-107173Y-106317D02*
X-108159D01*
Y-107500D01*
X-107173D01*
Y-106317D01*
D02*
G37*
G36*
X-88500Y-103781D02*
X-90600D01*
Y-105481D01*
X-88500D01*
Y-103781D01*
D02*
G37*
G36*
X-92841Y-104000D02*
X-93827D01*
Y-105183D01*
X-92841D01*
Y-104000D01*
D02*
G37*
G36*
X-93657Y-113742D02*
X-97301D01*
Y-116500D01*
X-93657D01*
Y-113742D01*
D02*
G37*
G36*
X-99400Y-117019D02*
X-101500D01*
Y-118719D01*
X-99400D01*
Y-117019D01*
D02*
G37*
G36*
X-93657Y-117500D02*
X-97301D01*
Y-120257D01*
X-93657D01*
Y-117500D01*
D02*
G37*
G36*
X-102500Y-117019D02*
X-104600D01*
Y-118719D01*
X-102500D01*
Y-117019D01*
D02*
G37*
G36*
X-148764Y-107508D02*
X-155950D01*
Y-110561D01*
X-148764D01*
Y-107508D01*
D02*
G37*
G36*
X-140577D02*
X-147764D01*
Y-110561D01*
X-140577D01*
Y-107508D01*
D02*
G37*
G36*
X-141451Y-52772D02*
X-148244D01*
Y-55824D01*
X-141451D01*
Y-52772D01*
D02*
G37*
G36*
X-133240Y-1482D02*
Y-4500D01*
X-130222D01*
X-130279Y-4073D01*
X-130637Y-3208D01*
X-131206Y-2466D01*
X-131948Y-1897D01*
X-132813Y-1539D01*
X-133240Y-1482D01*
D02*
G37*
G36*
X-134240D02*
X-134668Y-1539D01*
X-135532Y-1897D01*
X-136274Y-2466D01*
X-136843Y-3208D01*
X-137201Y-4073D01*
X-137258Y-4500D01*
X-134240D01*
Y-1482D01*
D02*
G37*
G36*
X-20187Y-1447D02*
X-27293D01*
Y-8553D01*
X-20187D01*
Y-1447D01*
D02*
G37*
G36*
X-134240Y-5500D02*
X-137258D01*
X-137201Y-5928D01*
X-136843Y-6792D01*
X-136274Y-7534D01*
X-135532Y-8103D01*
X-134668Y-8461D01*
X-134240Y-8518D01*
Y-5500D01*
D02*
G37*
G36*
X-130222D02*
X-133240D01*
Y-8518D01*
X-132813Y-8461D01*
X-131948Y-8103D01*
X-131206Y-7534D01*
X-130637Y-6792D01*
X-130279Y-5928D01*
X-130222Y-5500D01*
D02*
G37*
G36*
X-36341Y-40000D02*
X-37327D01*
Y-41183D01*
X-36341D01*
Y-40000D01*
D02*
G37*
G36*
X-87281Y-37400D02*
X-88981D01*
Y-39500D01*
X-87281D01*
Y-37400D01*
D02*
G37*
G36*
X-84581Y-40500D02*
X-86281D01*
Y-42600D01*
X-84581D01*
Y-40500D01*
D02*
G37*
G36*
X-36341Y-45000D02*
X-37327D01*
Y-46183D01*
X-36341D01*
Y-45000D01*
D02*
G37*
G36*
Y-42817D02*
X-37327D01*
Y-44000D01*
X-36341D01*
Y-42817D01*
D02*
G37*
G36*
X-87281Y-40500D02*
X-88981D01*
Y-42600D01*
X-87281D01*
Y-40500D01*
D02*
G37*
G36*
X-84581Y-37400D02*
X-86281D01*
Y-39500D01*
X-84581D01*
Y-37400D01*
D02*
G37*
G36*
X-85173Y-34500D02*
X-86159D01*
Y-35683D01*
X-85173D01*
Y-34500D01*
D02*
G37*
G36*
X-36341Y-37817D02*
X-37327D01*
Y-39000D01*
X-36341D01*
Y-37817D01*
D02*
G37*
G36*
X-10248Y-45223D02*
Y-48240D01*
X-7231D01*
X-7287Y-47813D01*
X-7645Y-46949D01*
X-8214Y-46206D01*
X-8956Y-45637D01*
X-9821Y-45279D01*
X-10248Y-45223D01*
D02*
G37*
G36*
X-75673Y-52817D02*
X-76659D01*
Y-54000D01*
X-75673D01*
Y-52817D01*
D02*
G37*
G36*
X-33400Y-53019D02*
X-35500D01*
Y-54719D01*
X-33400D01*
Y-53019D01*
D02*
G37*
G36*
X-36500D02*
X-38600D01*
Y-54719D01*
X-36500D01*
Y-53019D01*
D02*
G37*
G36*
X-40000Y-8471D02*
X-40585Y-8587D01*
X-41081Y-8919D01*
X-41413Y-9415D01*
X-41529Y-10000D01*
X-41413Y-10585D01*
X-41081Y-11081D01*
X-40585Y-11413D01*
X-40000Y-11529D01*
X-39807Y-11491D01*
X-21666Y-29632D01*
Y-45278D01*
X-21676Y-45279D01*
X-22540Y-45637D01*
X-23282Y-46206D01*
X-23851Y-46949D01*
X-24209Y-47813D01*
X-24331Y-48740D01*
X-24209Y-49668D01*
X-23851Y-50532D01*
X-23282Y-51274D01*
X-22540Y-51844D01*
X-21676Y-52201D01*
X-20748Y-52324D01*
X-19821Y-52201D01*
X-18956Y-51844D01*
X-18214Y-51274D01*
X-17645Y-50532D01*
X-17287Y-49668D01*
X-17165Y-48740D01*
X-17287Y-47813D01*
X-17645Y-46949D01*
X-18214Y-46206D01*
X-18956Y-45637D01*
X-19821Y-45279D01*
X-19830Y-45278D01*
Y-29252D01*
X-19900Y-28901D01*
X-20099Y-28603D01*
X-20099Y-28603D01*
X-20099D01*
X-20099Y-28603D01*
Y-28603D01*
X-38509Y-10193D01*
X-38471Y-10000D01*
X-38587Y-9415D01*
X-38919Y-8919D01*
X-39415Y-8587D01*
X-40000Y-8471D01*
D02*
G37*
G36*
X-11248Y-45223D02*
X-11676Y-45279D01*
X-12540Y-45637D01*
X-13282Y-46206D01*
X-13851Y-46949D01*
X-14209Y-47813D01*
X-14266Y-48240D01*
X-11248D01*
Y-45223D01*
D02*
G37*
G36*
Y-49240D02*
X-14266D01*
X-14209Y-49668D01*
X-13851Y-50532D01*
X-13282Y-51274D01*
X-12540Y-51844D01*
X-11676Y-52201D01*
X-11248Y-52258D01*
Y-49240D01*
D02*
G37*
G36*
X-7231D02*
X-10248D01*
Y-52258D01*
X-9821Y-52201D01*
X-8956Y-51844D01*
X-8214Y-51274D01*
X-7645Y-50532D01*
X-7287Y-49668D01*
X-7231Y-49240D01*
D02*
G37*
G36*
X-85173Y-32317D02*
X-86159D01*
Y-33500D01*
X-85173D01*
Y-32317D01*
D02*
G37*
G36*
X-133240Y-11482D02*
Y-14500D01*
X-130222D01*
X-130279Y-14073D01*
X-130637Y-13208D01*
X-131206Y-12466D01*
X-131948Y-11897D01*
X-132813Y-11539D01*
X-133240Y-11482D01*
D02*
G37*
G36*
X-94519Y-20900D02*
X-96219D01*
Y-23000D01*
X-94519D01*
Y-20900D01*
D02*
G37*
G36*
X-149244Y-19701D02*
X-156037D01*
Y-22753D01*
X-149244D01*
Y-19701D01*
D02*
G37*
G36*
X-97219Y-20900D02*
X-98919D01*
Y-23000D01*
X-97219D01*
Y-20900D01*
D02*
G37*
G36*
X-113740Y-1417D02*
X-114668Y-1539D01*
X-115532Y-1897D01*
X-116274Y-2466D01*
X-116843Y-3208D01*
X-117201Y-4073D01*
X-117324Y-5000D01*
X-117201Y-5928D01*
X-116843Y-6792D01*
X-116274Y-7534D01*
X-115532Y-8103D01*
X-114668Y-8461D01*
X-113740Y-8583D01*
X-112813Y-8461D01*
X-111948Y-8103D01*
X-111206Y-7534D01*
X-110637Y-6792D01*
X-110279Y-5928D01*
X-110157Y-5000D01*
X-110279Y-4073D01*
X-110637Y-3208D01*
X-111206Y-2466D01*
X-111948Y-1897D01*
X-112813Y-1539D01*
X-113740Y-1417D01*
D02*
G37*
G36*
X-123740D02*
X-124668Y-1539D01*
X-125532Y-1897D01*
X-126274Y-2466D01*
X-126843Y-3208D01*
X-127201Y-4073D01*
X-127323Y-5000D01*
X-127201Y-5928D01*
X-126843Y-6792D01*
X-126274Y-7534D01*
X-125532Y-8103D01*
X-124668Y-8461D01*
X-123740Y-8583D01*
X-122813Y-8461D01*
X-121948Y-8103D01*
X-121206Y-7534D01*
X-120637Y-6792D01*
X-120279Y-5928D01*
X-120157Y-5000D01*
X-120279Y-4073D01*
X-120637Y-3208D01*
X-121206Y-2466D01*
X-121948Y-1897D01*
X-122813Y-1539D01*
X-123740Y-1417D01*
D02*
G37*
G36*
X-141451Y-19701D02*
X-148244D01*
Y-22753D01*
X-141451D01*
Y-19701D01*
D02*
G37*
G36*
X-130222Y-15500D02*
X-133240D01*
Y-18518D01*
X-132813Y-18461D01*
X-131948Y-18103D01*
X-131206Y-17534D01*
X-130637Y-16792D01*
X-130279Y-15927D01*
X-130222Y-15500D01*
D02*
G37*
G36*
X-134240Y-11482D02*
X-134668Y-11539D01*
X-135532Y-11897D01*
X-136274Y-12466D01*
X-136843Y-13208D01*
X-137201Y-14073D01*
X-137258Y-14500D01*
X-134240D01*
Y-11482D01*
D02*
G37*
G36*
Y-15500D02*
X-137258D01*
X-137201Y-15927D01*
X-136843Y-16792D01*
X-136274Y-17534D01*
X-135532Y-18103D01*
X-134668Y-18461D01*
X-134240Y-18518D01*
Y-15500D01*
D02*
G37*
G36*
X-123740Y-11417D02*
X-124668Y-11539D01*
X-125532Y-11897D01*
X-126274Y-12466D01*
X-126843Y-13208D01*
X-127201Y-14073D01*
X-127323Y-15000D01*
X-127201Y-15927D01*
X-126843Y-16792D01*
X-126274Y-17534D01*
X-125532Y-18103D01*
X-124668Y-18461D01*
X-123740Y-18583D01*
X-122813Y-18461D01*
X-121948Y-18103D01*
X-121206Y-17534D01*
X-120637Y-16792D01*
X-120279Y-15927D01*
X-120157Y-15000D01*
X-120279Y-14073D01*
X-120637Y-13208D01*
X-121206Y-12466D01*
X-121948Y-11897D01*
X-122813Y-11539D01*
X-123740Y-11417D01*
D02*
G37*
G36*
X-113740D02*
X-114668Y-11539D01*
X-115532Y-11897D01*
X-116274Y-12466D01*
X-116843Y-13208D01*
X-117201Y-14073D01*
X-117324Y-15000D01*
X-117201Y-15927D01*
X-116843Y-16792D01*
X-116274Y-17534D01*
X-115532Y-18103D01*
X-114668Y-18461D01*
X-113740Y-18583D01*
X-112813Y-18461D01*
X-111948Y-18103D01*
X-111206Y-17534D01*
X-110637Y-16792D01*
X-110279Y-15927D01*
X-110157Y-15000D01*
X-110279Y-14073D01*
X-110637Y-13208D01*
X-111206Y-12466D01*
X-111948Y-11897D01*
X-112813Y-11539D01*
X-113740Y-11417D01*
D02*
G37*
G36*
X-103740D02*
X-104668Y-11539D01*
X-105532Y-11897D01*
X-106274Y-12466D01*
X-106843Y-13208D01*
X-107201Y-14073D01*
X-107324Y-15000D01*
X-107201Y-15927D01*
X-106843Y-16792D01*
X-106274Y-17534D01*
X-105532Y-18103D01*
X-104668Y-18461D01*
X-103740Y-18583D01*
X-102813Y-18461D01*
X-101948Y-18103D01*
X-101206Y-17534D01*
X-100637Y-16792D01*
X-100279Y-15927D01*
X-100157Y-15000D01*
X-100279Y-14073D01*
X-100637Y-13208D01*
X-101206Y-12466D01*
X-101948Y-11897D01*
X-102813Y-11539D01*
X-103740Y-11417D01*
D02*
G37*
G36*
X-33740Y-1417D02*
X-34668Y-1539D01*
X-35532Y-1897D01*
X-36274Y-2466D01*
X-36843Y-3208D01*
X-37201Y-4073D01*
X-37323Y-5000D01*
X-37201Y-5928D01*
X-36843Y-6792D01*
X-36274Y-7534D01*
X-35532Y-8103D01*
X-34668Y-8461D01*
X-33740Y-8583D01*
X-32813Y-8461D01*
X-31948Y-8103D01*
X-31206Y-7534D01*
X-30637Y-6792D01*
X-30279Y-5928D01*
X-30157Y-5000D01*
X-30279Y-4073D01*
X-30637Y-3208D01*
X-31206Y-2466D01*
X-31948Y-1897D01*
X-32813Y-1539D01*
X-33740Y-1417D01*
D02*
G37*
G36*
X-94519Y-24000D02*
X-96219D01*
Y-26100D01*
X-94519D01*
Y-24000D01*
D02*
G37*
G36*
X-149244Y-23753D02*
X-156037D01*
Y-26806D01*
X-149244D01*
Y-23753D01*
D02*
G37*
G36*
X-141451D02*
X-148244D01*
Y-26806D01*
X-141451D01*
Y-23753D01*
D02*
G37*
G36*
X-97219Y-24000D02*
X-98919D01*
Y-26100D01*
X-97219D01*
Y-24000D01*
D02*
G37*
G36*
X244114Y-54161D02*
X241715D01*
X241798Y-54583D01*
X242321Y-55365D01*
X243102Y-55887D01*
X244024Y-56070D01*
X244114D01*
Y-54161D01*
D02*
G37*
G36*
X247514D02*
X245114D01*
Y-56070D01*
X245205D01*
X246126Y-55887D01*
X246908Y-55365D01*
X247430Y-54583D01*
X247514Y-54161D01*
D02*
G37*
G36*
X232283Y-61928D02*
X230920Y-62062D01*
X229609Y-62460D01*
X228400Y-63106D01*
X227341Y-63975D01*
X226472Y-65034D01*
X225826Y-66243D01*
X225429Y-67554D01*
X225294Y-68917D01*
X225429Y-70281D01*
X225826Y-71592D01*
X226472Y-72800D01*
X227341Y-73859D01*
X228400Y-74729D01*
X229609Y-75375D01*
X230920Y-75772D01*
X232283Y-75906D01*
X233647Y-75772D01*
X234958Y-75375D01*
X236166Y-74729D01*
X237226Y-73859D01*
X238095Y-72800D01*
X238741Y-71592D01*
X239138Y-70281D01*
X239273Y-68917D01*
X239138Y-67554D01*
X238741Y-66243D01*
X238095Y-65034D01*
X237226Y-63975D01*
X236166Y-63106D01*
X234958Y-62460D01*
X233647Y-62062D01*
X232283Y-61928D01*
D02*
G37*
G36*
X235165Y-34772D02*
X228866D01*
Y-35059D01*
X228482Y-35338D01*
X228289Y-35467D01*
X228113Y-35731D01*
X228050Y-36043D01*
Y-37618D01*
X228113Y-37930D01*
X228233Y-38110D01*
X228113Y-38290D01*
X228050Y-38602D01*
Y-40177D01*
X228113Y-40489D01*
X228233Y-40669D01*
X228113Y-40849D01*
X228050Y-41161D01*
Y-42296D01*
X227551Y-42503D01*
X225360Y-40313D01*
X225096Y-40136D01*
X224783Y-40074D01*
X224783Y-40074D01*
X198284D01*
X197971Y-40136D01*
X197707Y-40313D01*
X197707Y-40313D01*
X196707Y-41313D01*
X196530Y-41578D01*
X196468Y-41890D01*
X196468Y-41890D01*
Y-46890D01*
X196530Y-47202D01*
X196707Y-47466D01*
X196707Y-47467D01*
X199207Y-49966D01*
X199471Y-50143D01*
X199784Y-50205D01*
X199784Y-50205D01*
X224783D01*
X225096Y-50143D01*
X225360Y-49966D01*
X225360Y-49966D01*
X229021Y-46305D01*
X232850D01*
X233001Y-46805D01*
X232360Y-47234D01*
X231838Y-48015D01*
X231754Y-48437D01*
X236372D01*
X236288Y-48015D01*
X235766Y-47234D01*
X235125Y-46805D01*
X235276Y-46305D01*
X235283D01*
X235596Y-46243D01*
X235860Y-46066D01*
X235860Y-46066D01*
X236060Y-45867D01*
X236237Y-45602D01*
X236299Y-45290D01*
X236299Y-45290D01*
Y-43890D01*
X236237Y-43578D01*
X236060Y-43313D01*
X235919Y-43048D01*
X235981Y-42736D01*
Y-41161D01*
X235919Y-40849D01*
X235799Y-40669D01*
X235919Y-40489D01*
X235981Y-40177D01*
Y-38602D01*
X235919Y-38290D01*
X235799Y-38110D01*
X235919Y-37930D01*
X235981Y-37618D01*
Y-36043D01*
X235919Y-35731D01*
X235742Y-35467D01*
X235550Y-35338D01*
X235165Y-35059D01*
Y-34772D01*
D02*
G37*
G36*
X211114Y-33484D02*
X204921D01*
Y-34953D01*
X211114D01*
Y-33484D01*
D02*
G37*
G36*
X218307D02*
X212114D01*
Y-34953D01*
X218307D01*
Y-33484D01*
D02*
G37*
G36*
X233563Y-30343D02*
X231688D01*
X231079Y-30953D01*
X230791Y-31383D01*
X230690Y-31890D01*
Y-33484D01*
X228866D01*
Y-33772D01*
X235165D01*
Y-33484D01*
X233341D01*
Y-32533D01*
X233563Y-32339D01*
Y-30343D01*
D02*
G37*
G36*
X211114Y-35953D02*
X204921D01*
Y-37421D01*
X211114D01*
Y-35953D01*
D02*
G37*
G36*
X218307D02*
X212114D01*
Y-37421D01*
X218307D01*
Y-35953D01*
D02*
G37*
G36*
X244114Y-51253D02*
X244024D01*
X243102Y-51436D01*
X242321Y-51958D01*
X241798Y-52740D01*
X241715Y-53161D01*
X244114D01*
Y-51253D01*
D02*
G37*
G36*
X245205D02*
X245114D01*
Y-53161D01*
X247514D01*
X247430Y-52740D01*
X246908Y-51958D01*
X246126Y-51436D01*
X245205Y-51253D01*
D02*
G37*
G36*
X181587Y-52882D02*
X175000D01*
Y-55335D01*
X181587D01*
Y-52882D01*
D02*
G37*
G36*
X189173D02*
X182587D01*
Y-55335D01*
X189173D01*
Y-52882D01*
D02*
G37*
G36*
X233563Y-49437D02*
X231754D01*
X231838Y-49859D01*
X232360Y-50640D01*
X233141Y-51162D01*
X233563Y-51246D01*
Y-49437D01*
D02*
G37*
G36*
X236372D02*
X234563D01*
Y-51246D01*
X234985Y-51162D01*
X235766Y-50640D01*
X236288Y-49859D01*
X236372Y-49437D01*
D02*
G37*
G36*
X189173Y-49429D02*
X182587D01*
Y-51882D01*
X189173D01*
Y-49429D01*
D02*
G37*
G36*
X181587D02*
X175000D01*
Y-51882D01*
X181587D01*
Y-49429D01*
D02*
G37*
G36*
X245205Y-22710D02*
X245114D01*
Y-24618D01*
X247514D01*
X247430Y-24196D01*
X246908Y-23415D01*
X246126Y-22893D01*
X245205Y-22710D01*
D02*
G37*
G36*
X232283Y-2873D02*
X230920Y-3007D01*
X229609Y-3405D01*
X228400Y-4051D01*
X227341Y-4920D01*
X226472Y-5979D01*
X225826Y-7188D01*
X225429Y-8499D01*
X225294Y-9862D01*
X225429Y-11226D01*
X225826Y-12537D01*
X226472Y-13745D01*
X227341Y-14804D01*
X228400Y-15674D01*
X229609Y-16319D01*
X230920Y-16717D01*
X232283Y-16851D01*
X233647Y-16717D01*
X234958Y-16319D01*
X236166Y-15674D01*
X237226Y-14804D01*
X238095Y-13745D01*
X238741Y-12537D01*
X239138Y-11226D01*
X239273Y-9862D01*
X239138Y-8499D01*
X238741Y-7188D01*
X238095Y-5979D01*
X237226Y-4920D01*
X236166Y-4051D01*
X234958Y-3405D01*
X233647Y-3007D01*
X232283Y-2873D01*
D02*
G37*
G36*
X234563Y-27534D02*
Y-29342D01*
X236372D01*
X236288Y-28921D01*
X235766Y-28139D01*
X234985Y-27617D01*
X234563Y-27534D01*
D02*
G37*
G36*
X244114Y-25618D02*
X241715D01*
X241798Y-26040D01*
X242321Y-26821D01*
X243102Y-27343D01*
X244024Y-27527D01*
X244114D01*
Y-25618D01*
D02*
G37*
G36*
X233563Y-27534D02*
X233141Y-27617D01*
X232360Y-28139D01*
X231838Y-28921D01*
X231754Y-29342D01*
X233563D01*
Y-27534D01*
D02*
G37*
G36*
X236372Y-30343D02*
X234563D01*
Y-32151D01*
X234985Y-32068D01*
X235766Y-31546D01*
X236288Y-30764D01*
X236372Y-30343D01*
D02*
G37*
G36*
X181587Y-26898D02*
X175000D01*
Y-29350D01*
X181587D01*
Y-26898D01*
D02*
G37*
G36*
X189173D02*
X182587D01*
Y-29350D01*
X189173D01*
Y-26898D01*
D02*
G37*
G36*
X247514Y-25618D02*
X245114D01*
Y-27527D01*
X245205D01*
X246126Y-27343D01*
X246908Y-26821D01*
X247430Y-26040D01*
X247514Y-25618D01*
D02*
G37*
G36*
X181587Y-23445D02*
X175000D01*
Y-25898D01*
X181587D01*
Y-23445D01*
D02*
G37*
G36*
X189173D02*
X182587D01*
Y-25898D01*
X189173D01*
Y-23445D01*
D02*
G37*
G36*
X244114Y-22710D02*
X244024D01*
X243102Y-22893D01*
X242321Y-23415D01*
X241798Y-24196D01*
X241715Y-24618D01*
X244114D01*
Y-22710D01*
D02*
G37*
%LPD*%
G36*
X227484Y-43590D02*
X235184D01*
X235484Y-43890D01*
Y-45290D01*
X235283Y-45490D01*
X228683D01*
X224783Y-49390D01*
X199784D01*
X197283Y-46890D01*
Y-41890D01*
X198284Y-40890D01*
X224783D01*
X227484Y-43590D01*
D02*
G37*
%LPC*%
G36*
X232283Y-81613D02*
X230920Y-81748D01*
X229609Y-82145D01*
X228400Y-82791D01*
X227341Y-83660D01*
X226472Y-84719D01*
X225826Y-85928D01*
X225429Y-87239D01*
X225294Y-88602D01*
X225429Y-89966D01*
X225826Y-91277D01*
X226472Y-92485D01*
X227341Y-93544D01*
X228400Y-94414D01*
X229609Y-95060D01*
X230920Y-95457D01*
X232283Y-95591D01*
X233647Y-95457D01*
X234958Y-95060D01*
X236166Y-94414D01*
X237226Y-93544D01*
X238095Y-92485D01*
X238741Y-91277D01*
X239138Y-89966D01*
X239273Y-88602D01*
X239138Y-87239D01*
X238741Y-85928D01*
X238095Y-84719D01*
X237226Y-83660D01*
X236166Y-82791D01*
X234958Y-82145D01*
X233647Y-81748D01*
X232283Y-81613D01*
D02*
G37*
G36*
X244114Y-129993D02*
X244024D01*
X243102Y-130176D01*
X242321Y-130699D01*
X241798Y-131480D01*
X241715Y-131902D01*
X244114D01*
Y-129993D01*
D02*
G37*
G36*
X245205D02*
X245114D01*
Y-131902D01*
X247514D01*
X247430Y-131480D01*
X246908Y-130699D01*
X246126Y-130176D01*
X245205Y-129993D01*
D02*
G37*
G36*
X247514Y-132902D02*
X245114D01*
Y-134810D01*
X245205D01*
X246126Y-134627D01*
X246908Y-134105D01*
X247430Y-133323D01*
X247514Y-132902D01*
D02*
G37*
G36*
X181587Y-131622D02*
X175000D01*
Y-134075D01*
X181587D01*
Y-131622D01*
D02*
G37*
G36*
X189173D02*
X182587D01*
Y-134075D01*
X189173D01*
Y-131622D01*
D02*
G37*
G36*
X181587Y-128169D02*
X175000D01*
Y-130622D01*
X181587D01*
Y-128169D01*
D02*
G37*
G36*
X189173D02*
X182587D01*
Y-130622D01*
X189173D01*
Y-128169D01*
D02*
G37*
G36*
X233563Y-128177D02*
X231754D01*
X231838Y-128599D01*
X232360Y-129380D01*
X233141Y-129902D01*
X233563Y-129986D01*
Y-128177D01*
D02*
G37*
G36*
X236372D02*
X234563D01*
Y-129986D01*
X234985Y-129902D01*
X235766Y-129380D01*
X236288Y-128599D01*
X236372Y-128177D01*
D02*
G37*
G36*
X244114Y-132902D02*
X241715D01*
X241798Y-133323D01*
X242321Y-134105D01*
X243102Y-134627D01*
X244024Y-134810D01*
X244114D01*
Y-132902D01*
D02*
G37*
G36*
X232283Y-140668D02*
X230920Y-140803D01*
X229609Y-141200D01*
X228400Y-141846D01*
X227341Y-142715D01*
X226472Y-143774D01*
X225826Y-144983D01*
X225429Y-146294D01*
X225294Y-147658D01*
X225429Y-149021D01*
X225826Y-150332D01*
X226472Y-151541D01*
X227341Y-152600D01*
X228400Y-153469D01*
X229609Y-154115D01*
X230920Y-154512D01*
X232283Y-154647D01*
X233647Y-154512D01*
X234958Y-154115D01*
X236166Y-153469D01*
X237226Y-152600D01*
X238095Y-151541D01*
X238741Y-150332D01*
X239138Y-149021D01*
X239273Y-147658D01*
X239138Y-146294D01*
X238741Y-144983D01*
X238095Y-143774D01*
X237226Y-142715D01*
X236166Y-141846D01*
X234958Y-141200D01*
X233647Y-140803D01*
X232283Y-140668D01*
D02*
G37*
G36*
X244114Y-104358D02*
X241715D01*
X241798Y-104780D01*
X242321Y-105561D01*
X243102Y-106083D01*
X244024Y-106267D01*
X244114D01*
Y-104358D01*
D02*
G37*
G36*
X189173Y-105638D02*
X182587D01*
Y-108090D01*
X189173D01*
Y-105638D01*
D02*
G37*
G36*
X233563Y-106274D02*
X233141Y-106358D01*
X232360Y-106880D01*
X231838Y-107661D01*
X231754Y-108083D01*
X233563D01*
Y-106274D01*
D02*
G37*
G36*
X234563D02*
Y-108083D01*
X236372D01*
X236288Y-107661D01*
X235766Y-106880D01*
X234985Y-106358D01*
X234563Y-106274D01*
D02*
G37*
G36*
X247514Y-104358D02*
X245114D01*
Y-106267D01*
X245205D01*
X246126Y-106083D01*
X246908Y-105561D01*
X247430Y-104780D01*
X247514Y-104358D01*
D02*
G37*
G36*
X244114Y-101450D02*
X244024D01*
X243102Y-101633D01*
X242321Y-102155D01*
X241798Y-102937D01*
X241715Y-103358D01*
X244114D01*
Y-101450D01*
D02*
G37*
G36*
X245205D02*
X245114D01*
Y-103358D01*
X247514D01*
X247430Y-102937D01*
X246908Y-102155D01*
X246126Y-101633D01*
X245205Y-101450D01*
D02*
G37*
G36*
X189173Y-102185D02*
X182587D01*
Y-104638D01*
X189173D01*
Y-102185D01*
D02*
G37*
G36*
X181587D02*
X175000D01*
Y-104638D01*
X181587D01*
Y-102185D01*
D02*
G37*
G36*
Y-105638D02*
X175000D01*
Y-108090D01*
X181587D01*
Y-105638D01*
D02*
G37*
G36*
X211114Y-114693D02*
X204921D01*
Y-116161D01*
X211114D01*
Y-114693D01*
D02*
G37*
G36*
X218307D02*
X212114D01*
Y-116161D01*
X218307D01*
Y-114693D01*
D02*
G37*
G36*
X235165Y-113512D02*
X228866D01*
Y-113799D01*
X228482Y-114078D01*
X228289Y-114207D01*
X228113Y-114471D01*
X228050Y-114784D01*
Y-116358D01*
X228113Y-116670D01*
X228233Y-116850D01*
X228113Y-117030D01*
X228050Y-117342D01*
Y-118917D01*
X228113Y-119229D01*
X228233Y-119409D01*
X228113Y-119589D01*
X228050Y-119902D01*
Y-121036D01*
X227551Y-121243D01*
X225360Y-119053D01*
X225096Y-118876D01*
X224783Y-118814D01*
X224783Y-118814D01*
X198284D01*
X197971Y-118876D01*
X197707Y-119053D01*
X197707Y-119053D01*
X196707Y-120053D01*
X196530Y-120318D01*
X196468Y-120630D01*
X196468Y-120630D01*
Y-125630D01*
X196530Y-125942D01*
X196707Y-126207D01*
X196707Y-126207D01*
X199207Y-128707D01*
X199471Y-128884D01*
X199784Y-128946D01*
X199784Y-128946D01*
X224783D01*
X225096Y-128884D01*
X225360Y-128707D01*
X225360Y-128707D01*
X229021Y-125046D01*
X232850D01*
X233001Y-125546D01*
X232360Y-125974D01*
X231838Y-126755D01*
X231754Y-127177D01*
X236372D01*
X236288Y-126755D01*
X235766Y-125974D01*
X235125Y-125546D01*
X235276Y-125046D01*
X235283D01*
X235596Y-124984D01*
X235860Y-124807D01*
X235860Y-124807D01*
X236060Y-124607D01*
X236237Y-124342D01*
X236299Y-124030D01*
X236299Y-124030D01*
Y-122630D01*
X236237Y-122318D01*
X236060Y-122053D01*
X235919Y-121789D01*
X235981Y-121476D01*
Y-119902D01*
X235919Y-119589D01*
X235799Y-119409D01*
X235919Y-119229D01*
X235981Y-118917D01*
Y-117342D01*
X235919Y-117030D01*
X235799Y-116850D01*
X235919Y-116670D01*
X235981Y-116358D01*
Y-114784D01*
X235919Y-114471D01*
X235742Y-114207D01*
X235550Y-114078D01*
X235165Y-113799D01*
Y-113512D01*
D02*
G37*
G36*
X236372Y-109083D02*
X234563D01*
Y-110892D01*
X234985Y-110808D01*
X235766Y-110286D01*
X236288Y-109504D01*
X236372Y-109083D01*
D02*
G37*
G36*
X211114Y-112224D02*
X204921D01*
Y-113693D01*
X211114D01*
Y-112224D01*
D02*
G37*
G36*
X218307D02*
X212114D01*
Y-113693D01*
X218307D01*
Y-112224D01*
D02*
G37*
G36*
X233563Y-109083D02*
X231688D01*
X231079Y-109693D01*
X230791Y-110123D01*
X230690Y-110630D01*
Y-112224D01*
X228866D01*
Y-112512D01*
X235165D01*
Y-112224D01*
X233341D01*
Y-111274D01*
X233563Y-111079D01*
Y-109083D01*
D02*
G37*
%LPD*%
G36*
X227484Y-122330D02*
X235184D01*
X235484Y-122630D01*
Y-124030D01*
X235283Y-124230D01*
X228683D01*
X224783Y-128130D01*
X199784D01*
X197283Y-125630D01*
Y-120630D01*
X198284Y-119630D01*
X224783D01*
X227484Y-122330D01*
D02*
G37*
%LPC*%
G36*
X-50243Y-68657D02*
X-53000D01*
Y-72301D01*
X-50243D01*
Y-68657D01*
D02*
G37*
G36*
X-55899Y-80003D02*
X-57082D01*
Y-80989D01*
X-55899D01*
Y-80003D01*
D02*
G37*
G36*
X-53716D02*
X-54899D01*
Y-80989D01*
X-53716D01*
Y-80003D01*
D02*
G37*
G36*
X-54000Y-68657D02*
X-56757D01*
Y-72301D01*
X-54000D01*
Y-68657D01*
D02*
G37*
G36*
X181587Y130583D02*
X175000D01*
Y128130D01*
X181587D01*
Y130583D01*
D02*
G37*
G36*
X189173D02*
X182587D01*
Y128130D01*
X189173D01*
Y130583D01*
D02*
G37*
G36*
X233563Y129947D02*
X233141Y129863D01*
X232360Y129341D01*
X231838Y128560D01*
X231754Y128138D01*
X233563D01*
Y129947D01*
D02*
G37*
G36*
X236372Y127138D02*
X234563D01*
Y125329D01*
X234985Y125413D01*
X235766Y125935D01*
X236288Y126716D01*
X236372Y127138D01*
D02*
G37*
G36*
X211114Y123996D02*
X204921D01*
Y122528D01*
X211114D01*
Y123996D01*
D02*
G37*
G36*
X218307D02*
X212114D01*
Y122528D01*
X218307D01*
Y123996D01*
D02*
G37*
G36*
X233563Y127138D02*
X231688D01*
X231079Y126528D01*
X230791Y126098D01*
X230690Y125591D01*
Y123996D01*
X228866D01*
Y123709D01*
X235165D01*
Y123996D01*
X233341D01*
Y124947D01*
X233563Y125142D01*
Y127138D01*
D02*
G37*
G36*
X234563Y129947D02*
Y128138D01*
X236372D01*
X236288Y128560D01*
X235766Y129341D01*
X234985Y129863D01*
X234563Y129947D01*
D02*
G37*
G36*
X244114Y134771D02*
X244024D01*
X243102Y134587D01*
X242321Y134065D01*
X241798Y133284D01*
X241715Y132862D01*
X244114D01*
Y134771D01*
D02*
G37*
G36*
X245205D02*
X245114D01*
Y132862D01*
X247514D01*
X247430Y133284D01*
X246908Y134065D01*
X246126Y134587D01*
X245205Y134771D01*
D02*
G37*
G36*
X232283Y154607D02*
X230920Y154473D01*
X229609Y154075D01*
X228400Y153429D01*
X227341Y152560D01*
X226472Y151501D01*
X225826Y150293D01*
X225429Y148982D01*
X225294Y147618D01*
X225429Y146255D01*
X225826Y144943D01*
X226472Y143735D01*
X227341Y142676D01*
X228400Y141807D01*
X229609Y141161D01*
X230920Y140763D01*
X232283Y140629D01*
X233647Y140763D01*
X234958Y141161D01*
X236166Y141807D01*
X237226Y142676D01*
X238095Y143735D01*
X238741Y144943D01*
X239138Y146255D01*
X239273Y147618D01*
X239138Y148982D01*
X238741Y150293D01*
X238095Y151501D01*
X237226Y152560D01*
X236166Y153429D01*
X234958Y154075D01*
X233647Y154473D01*
X232283Y154607D01*
D02*
G37*
G36*
X189173Y134035D02*
X182587D01*
Y131583D01*
X189173D01*
Y134035D01*
D02*
G37*
G36*
X244114Y131862D02*
X241715D01*
X241798Y131440D01*
X242321Y130659D01*
X243102Y130137D01*
X244024Y129954D01*
X244114D01*
Y131862D01*
D02*
G37*
G36*
X247514D02*
X245114D01*
Y129954D01*
X245205D01*
X246126Y130137D01*
X246908Y130659D01*
X247430Y131440D01*
X247514Y131862D01*
D02*
G37*
G36*
X181587Y134035D02*
X175000D01*
Y131583D01*
X181587D01*
Y134035D01*
D02*
G37*
G36*
X218307Y121528D02*
X212114D01*
Y120059D01*
X218307D01*
Y121528D01*
D02*
G37*
G36*
X247514Y103319D02*
X245114D01*
Y101410D01*
X245205D01*
X246126Y101594D01*
X246908Y102116D01*
X247430Y102897D01*
X247514Y103319D01*
D02*
G37*
G36*
X181587Y104598D02*
X175000D01*
Y102146D01*
X181587D01*
Y104598D01*
D02*
G37*
G36*
X189173D02*
X182587D01*
Y102146D01*
X189173D01*
Y104598D01*
D02*
G37*
G36*
X244114Y103319D02*
X241715D01*
X241798Y102897D01*
X242321Y102116D01*
X243102Y101594D01*
X244024Y101410D01*
X244114D01*
Y103319D01*
D02*
G37*
G36*
X232283Y95552D02*
X230920Y95418D01*
X229609Y95020D01*
X228400Y94374D01*
X227341Y93505D01*
X226472Y92446D01*
X225826Y91238D01*
X225429Y89926D01*
X225294Y88563D01*
X225429Y87199D01*
X225826Y85888D01*
X226472Y84680D01*
X227341Y83621D01*
X228400Y82752D01*
X229609Y82106D01*
X230920Y81708D01*
X232283Y81574D01*
X233647Y81708D01*
X234958Y82106D01*
X236166Y82752D01*
X237226Y83621D01*
X238095Y84680D01*
X238741Y85888D01*
X239138Y87199D01*
X239273Y88563D01*
X239138Y89926D01*
X238741Y91238D01*
X238095Y92446D01*
X237226Y93505D01*
X236166Y94374D01*
X234958Y95020D01*
X233647Y95418D01*
X232283Y95552D01*
D02*
G37*
G36*
X244114Y106227D02*
X244024D01*
X243102Y106044D01*
X242321Y105522D01*
X241798Y104741D01*
X241715Y104319D01*
X244114D01*
Y106227D01*
D02*
G37*
G36*
X236372Y108043D02*
X234563D01*
Y106234D01*
X234985Y106318D01*
X235766Y106840D01*
X236288Y107622D01*
X236372Y108043D01*
D02*
G37*
G36*
X235165Y122709D02*
X228866D01*
Y122421D01*
X228482Y122142D01*
X228289Y122014D01*
X228113Y121749D01*
X228050Y121437D01*
Y119862D01*
X228113Y119550D01*
X228233Y119370D01*
X228113Y119190D01*
X228050Y118878D01*
Y117303D01*
X228113Y116991D01*
X228233Y116811D01*
X228113Y116631D01*
X228050Y116319D01*
Y115184D01*
X227551Y114977D01*
X225360Y117167D01*
X225096Y117344D01*
X224783Y117406D01*
X224783Y117406D01*
X198284D01*
X197971Y117344D01*
X197707Y117167D01*
X197707Y117167D01*
X196707Y116167D01*
X196530Y115903D01*
X196468Y115591D01*
X196468Y115591D01*
Y110591D01*
X196530Y110278D01*
X196707Y110014D01*
X196707Y110014D01*
X199207Y107514D01*
X199471Y107337D01*
X199784Y107275D01*
X199784Y107275D01*
X224783D01*
X225096Y107337D01*
X225360Y107514D01*
X225360Y107514D01*
X229021Y111175D01*
X232850D01*
X233001Y110675D01*
X232360Y110246D01*
X231838Y109465D01*
X231754Y109043D01*
X236372D01*
X236288Y109465D01*
X235766Y110246D01*
X235125Y110675D01*
X235276Y111175D01*
X235283D01*
X235596Y111237D01*
X235860Y111414D01*
X235860Y111414D01*
X236060Y111614D01*
X236237Y111878D01*
X236299Y112191D01*
X236299Y112191D01*
Y113591D01*
X236237Y113903D01*
X236060Y114167D01*
X235919Y114432D01*
X235981Y114744D01*
Y116319D01*
X235919Y116631D01*
X235799Y116811D01*
X235919Y116991D01*
X235981Y117303D01*
Y118878D01*
X235919Y119190D01*
X235799Y119370D01*
X235919Y119550D01*
X235981Y119862D01*
Y121437D01*
X235919Y121749D01*
X235742Y122014D01*
X235550Y122142D01*
X235165Y122421D01*
Y122709D01*
D02*
G37*
G36*
X211114Y121528D02*
X204921D01*
Y120059D01*
X211114D01*
Y121528D01*
D02*
G37*
G36*
X233563Y108043D02*
X231754D01*
X231838Y107622D01*
X232360Y106840D01*
X233141Y106318D01*
X233563Y106234D01*
Y108043D01*
D02*
G37*
G36*
X245205Y106227D02*
X245114D01*
Y104319D01*
X247514D01*
X247430Y104741D01*
X246908Y105522D01*
X246126Y106044D01*
X245205Y106227D01*
D02*
G37*
G36*
X181587Y108051D02*
X175000D01*
Y105598D01*
X181587D01*
Y108051D01*
D02*
G37*
G36*
X189173D02*
X182587D01*
Y105598D01*
X189173D01*
Y108051D01*
D02*
G37*
%LPD*%
G36*
X227484Y113891D02*
X235184D01*
X235484Y113591D01*
Y112191D01*
X235283Y111991D01*
X228683D01*
X224783Y108091D01*
X199784D01*
X197283Y110591D01*
Y115591D01*
X198284Y116591D01*
X224783D01*
X227484Y113891D01*
D02*
G37*
D10*
X173228Y167323D02*
D03*
X-78760Y-167342D02*
D03*
X-46500Y-85500D02*
D03*
X-119961Y-81500D02*
D03*
X-147480D02*
D03*
D11*
X-61590Y-80264D02*
D03*
X-66590D02*
D03*
X-71590D02*
D03*
X-76590D02*
D03*
X-61590Y-100736D02*
D03*
X-66590D02*
D03*
X-71590D02*
D03*
X-76590D02*
D03*
D12*
X-55399Y-81489D02*
D03*
X-55399Y-84835D02*
D03*
X-55500Y-89827D02*
D03*
X-55500Y-93173D02*
D03*
X-87000Y-67173D02*
D03*
X-87000Y-63827D02*
D03*
X-82500Y-67173D02*
D03*
X-82500Y-63827D02*
D03*
X-63500Y-108827D02*
D03*
X-63500Y-112173D02*
D03*
X-68000Y-108827D02*
D03*
X-68000Y-112173D02*
D03*
D13*
X-82327Y-77000D02*
D03*
X-85673Y-77000D02*
D03*
X-77673Y-70500D02*
D03*
X-74327Y-70500D02*
D03*
X-77673Y-108000D02*
D03*
X-74327Y-108000D02*
D03*
X-97673Y-72500D02*
D03*
X-94327Y-72500D02*
D03*
X-94327Y-94500D02*
D03*
X-97673Y-94500D02*
D03*
X-82327Y-72500D02*
D03*
X-85673Y-72500D02*
D03*
X-97673Y-77000D02*
D03*
X-94327Y-77000D02*
D03*
X-82327Y-82500D02*
D03*
X-85673Y-82500D02*
D03*
X-43827Y-112500D02*
D03*
X-47173Y-112500D02*
D03*
X-55173Y-112500D02*
D03*
X-51827Y-112500D02*
D03*
X-71827Y-54500D02*
D03*
X-75173Y-54500D02*
D03*
X-63827Y-54500D02*
D03*
X-67173Y-54500D02*
D03*
X-41173Y-34500D02*
D03*
X-37827Y-34500D02*
D03*
X-41173Y-29500D02*
D03*
X-37827Y-29500D02*
D03*
X-80827Y-54500D02*
D03*
X-84173Y-54500D02*
D03*
X-55327Y-24000D02*
D03*
X-58673Y-24000D02*
D03*
X-36173Y-72500D02*
D03*
X-32827Y-72500D02*
D03*
X-36173Y-68000D02*
D03*
X-32827Y-68000D02*
D03*
X-37827Y-44500D02*
D03*
X-41173Y-44500D02*
D03*
X-50173Y-24000D02*
D03*
X-46827Y-24000D02*
D03*
X-37827Y-39500D02*
D03*
X-41173Y-39500D02*
D03*
X-81327Y-34000D02*
D03*
X-84673Y-34000D02*
D03*
X-80827Y-59000D02*
D03*
X-84173Y-59000D02*
D03*
X-94327Y-108000D02*
D03*
X-97673Y-108000D02*
D03*
X-103327Y-108000D02*
D03*
X-106673Y-108000D02*
D03*
X-94327Y-99000D02*
D03*
X-97673Y-99000D02*
D03*
X-94327Y-103500D02*
D03*
X-97673Y-103500D02*
D03*
D14*
X-62719Y-70500D02*
D03*
X-68281D02*
D03*
X-81219Y-40000D02*
D03*
X-86781D02*
D03*
X-94219Y-66500D02*
D03*
X-99781D02*
D03*
X-102281Y-23500D02*
D03*
X-96719D02*
D03*
X-41281Y-97000D02*
D03*
X-35719D02*
D03*
X-97281Y-89000D02*
D03*
X-91719D02*
D03*
X-97281Y-82500D02*
D03*
X-91719D02*
D03*
D15*
X-93158Y-117000D02*
D03*
X-82842D02*
D03*
X-46158Y-105000D02*
D03*
X-35842D02*
D03*
D16*
X-106512Y-54000D02*
D03*
X-95488D02*
D03*
Y-36500D02*
D03*
X-106512D02*
D03*
D17*
X-148264Y-107008D02*
D03*
Y-132992D02*
D03*
X182087Y-26398D02*
D03*
Y-52382D02*
D03*
Y-105138D02*
D03*
Y-131122D02*
D03*
Y131083D02*
D03*
Y105098D02*
D03*
Y52342D02*
D03*
Y26358D02*
D03*
D18*
X-118736Y-116063D02*
D03*
Y-123937D02*
D03*
X211614Y-35453D02*
D03*
Y-43327D02*
D03*
Y-114193D02*
D03*
Y-122067D02*
D03*
Y122028D02*
D03*
Y114154D02*
D03*
Y43287D02*
D03*
Y35413D02*
D03*
D19*
X-70949Y-31500D02*
D03*
Y-36500D02*
D03*
Y-41500D02*
D03*
Y-46500D02*
D03*
X-52051Y-31500D02*
D03*
Y-36500D02*
D03*
Y-41500D02*
D03*
Y-46500D02*
D03*
D20*
X-41740Y-90815D02*
D03*
X-38000D02*
D03*
X-34260D02*
D03*
Y-80185D02*
D03*
X-41740D02*
D03*
D21*
X-36500Y-119281D02*
D03*
Y-113719D02*
D03*
X-36000Y-60781D02*
D03*
Y-55219D02*
D03*
X-102000Y-124781D02*
D03*
Y-119219D02*
D03*
X-88000Y-97719D02*
D03*
Y-103281D02*
D03*
X-45000Y-60781D02*
D03*
Y-55219D02*
D03*
X-42500Y-73781D02*
D03*
Y-68219D02*
D03*
D22*
X-44500Y-122050D02*
D03*
D23*
X-52500Y-125750D02*
D03*
Y-118250D02*
D03*
D24*
X-59776Y-122000D02*
D03*
X-69224Y-118260D02*
D03*
Y-125740D02*
D03*
D25*
X-62413Y-62500D02*
D03*
X-76587D02*
D03*
X-80413Y-126500D02*
D03*
X-94587D02*
D03*
D26*
X-122169Y-44710D02*
D03*
Y-34868D02*
D03*
D27*
X-148744Y-56324D02*
D03*
Y-23254D02*
D03*
D28*
X-53500Y-68158D02*
D03*
Y-57842D02*
D03*
D29*
X-122047Y-68252D02*
D03*
X-124370Y-94748D02*
D03*
X-135591D02*
D03*
X-146811D02*
D03*
X-113937D02*
D03*
X-131299Y-68252D02*
D03*
X-142323D02*
D03*
X-149803D02*
D03*
D30*
X248551Y-43819D02*
D03*
Y-34961D02*
D03*
Y-122559D02*
D03*
Y-113701D02*
D03*
Y113661D02*
D03*
Y122520D02*
D03*
Y34921D02*
D03*
Y43780D02*
D03*
D31*
X232016Y-39390D02*
D03*
Y-41949D02*
D03*
Y-34272D02*
D03*
Y-44508D02*
D03*
Y-36831D02*
D03*
Y-118130D02*
D03*
Y-120689D02*
D03*
Y-113012D02*
D03*
Y-123248D02*
D03*
Y-115571D02*
D03*
Y118091D02*
D03*
Y115532D02*
D03*
Y123209D02*
D03*
Y112972D02*
D03*
Y120650D02*
D03*
Y39350D02*
D03*
Y36791D02*
D03*
Y44469D02*
D03*
Y34232D02*
D03*
Y41909D02*
D03*
D32*
X-36500Y-113719D02*
Y-111500D01*
X-38000Y-110000D02*
X-36500Y-111500D01*
X-40243Y-110000D02*
X-38000D01*
X-45243Y-105000D02*
X-40243Y-110000D01*
X-46158Y-105000D02*
X-45243D01*
X-82842Y-85658D02*
X-82327Y-85142D01*
Y-82500D01*
X-80090Y-80264D01*
X-76590D01*
X-41281Y-100219D02*
Y-97000D01*
X-46500Y-104657D02*
X-46158Y-105000D01*
X-36500Y-119281D02*
X-36099Y-118880D01*
X-32080D01*
X-46500Y-104657D02*
Y-85500D01*
X-41740Y-80185D02*
Y-74541D01*
X-46315Y-80185D02*
X-41740D01*
Y-96541D02*
X-41281Y-97000D01*
X-41740Y-96541D02*
Y-90815D01*
X-43500Y-85500D02*
X-41740Y-83740D01*
X-46500Y-85500D02*
X-43500D01*
X-41740Y-83740D02*
Y-80185D01*
X-32080Y-118880D02*
X-32057Y-118857D01*
D33*
X-46843Y-105000D02*
X-46158D01*
X-49843Y-108000D02*
X-46843Y-105000D01*
X-52000Y-108000D02*
X-49843D01*
X-94327Y-108000D02*
X-86500D01*
X-82327Y-72500D02*
Y-70969D01*
X-74327Y-70500D02*
Y-68673D01*
X-75000Y-68000D02*
X-74327Y-68673D01*
X-79358Y-68000D02*
X-75000D01*
X-82327Y-70969D02*
X-79358Y-68000D01*
D34*
X-65500Y-65587D02*
X-62413Y-62500D01*
X-65500Y-74000D02*
Y-65587D01*
Y-74000D02*
X-64000Y-75500D01*
Y-87500D02*
Y-75500D01*
X-69000Y-92500D02*
X-64000Y-87500D01*
X-69000Y-106500D02*
Y-92500D01*
X-74500Y-112000D02*
X-69000Y-106500D01*
X-77000Y-112000D02*
X-74500D01*
X-32827Y-72500D02*
X-29500D01*
X-27920Y-74080D01*
X-24620Y-72880D02*
X-7680D01*
X-29500Y-68000D02*
X-24620Y-72880D01*
X-32827Y-68000D02*
X-29500D01*
X-27920Y-74080D02*
X-8980D01*
X-86500Y-135440D02*
Y-124000D01*
X-93740Y-142680D02*
X-86500Y-135440D01*
X-73480Y-134180D02*
X-42028D01*
X-76980Y-138080D02*
X-52480D01*
X-70880Y-135680D02*
X-40780D01*
X-51280Y-136880D02*
X-39580D01*
X-52480Y-138080D02*
X-51280Y-136880D01*
X-49240Y-138180D02*
X-38080D01*
X-53740Y-142680D02*
X-49240Y-138180D01*
X-71480Y-136280D02*
X-70880Y-135680D01*
X-25637Y-120537D02*
Y-103630D01*
X-40780Y-135680D02*
X-25637Y-120537D01*
X-20748Y-118048D02*
Y-108740D01*
X-39580Y-136880D02*
X-20748Y-118048D01*
X-42028Y-134180D02*
X-27480Y-119632D01*
X-29000Y-60488D02*
Y-28500D01*
X-26500Y-52988D02*
X-20748Y-58740D01*
X-26500Y-52988D02*
Y-28000D01*
X-29000Y-60488D02*
X-20748Y-68740D01*
X-16180Y-84172D02*
X-10748Y-78740D01*
X-27480Y-95472D02*
X-20748Y-88740D01*
X-42180Y-132280D02*
X-28980Y-119080D01*
X-93740Y-5000D02*
X-89440Y-9300D01*
X-103740Y-5000D02*
X-98240Y-10500D01*
X-28980Y-86972D02*
X-20748Y-78740D01*
X-8980Y-74080D02*
X-4980Y-78080D01*
X-7680Y-72880D02*
X-2980Y-77580D01*
X-4980Y-82972D02*
Y-78080D01*
X-10748Y-88740D02*
X-4980Y-82972D01*
X-20748Y-48740D02*
Y-29252D01*
X-14601Y-92593D02*
X-10748Y-88740D01*
Y-98740D02*
X-3140D01*
X-33740Y-142680D02*
X-2980Y-111921D01*
Y-77580D01*
X-39880Y-142680D02*
X-14601Y-117401D01*
Y-92593D01*
X-38080Y-138180D02*
X-16180Y-116280D01*
Y-84172D01*
X-25637Y-103630D02*
X-20748Y-98740D01*
X-27480Y-119632D02*
Y-95472D01*
X-28980Y-119080D02*
Y-86972D01*
X-40000Y-10000D02*
X-20748Y-29252D01*
X-133740Y-142680D02*
X-126460Y-135400D01*
X-89440Y-9300D02*
X-45200D01*
X-98240Y-10500D02*
X-47000D01*
X-45200Y-9300D02*
X-26500Y-28000D01*
X-47000Y-10500D02*
X-29000Y-28500D01*
X-43740Y-142680D02*
X-39880D01*
X-71520Y-132280D02*
X-42180D01*
D35*
X-68000Y-108827D02*
X-65173Y-106000D01*
X-57500Y-95173D02*
X-55500Y-93173D01*
X-57500Y-103500D02*
Y-95173D01*
X-60000Y-106000D02*
X-57500Y-103500D01*
X-65173Y-106000D02*
X-60000D01*
X-36500Y-75500D02*
X-36173Y-75173D01*
Y-72500D01*
X-40781Y-75500D02*
X-36500D01*
X-67173Y-54500D02*
Y-54322D01*
X-64425Y-51575D01*
X-61925D01*
X-60500Y-53000D01*
Y-59099D02*
Y-53000D01*
Y-59099D02*
X-56599Y-63000D01*
X-50000D01*
X-48732Y-61732D01*
Y-58732D01*
X-48000Y-58000D01*
X-42000D01*
X-40500Y-56500D01*
Y-52500D01*
X-46500Y-46500D02*
X-40500Y-52500D01*
X-52051Y-46500D02*
X-46500D01*
X-63827Y-57327D02*
Y-54500D01*
X-36173Y-72500D02*
Y-68000D01*
X-71590Y-100736D02*
X-71500Y-100646D01*
Y-90500D01*
X-79827Y-74500D02*
X-79000D01*
X-82327Y-77000D02*
X-79827Y-74500D01*
X-68787Y-108827D02*
X-68000D01*
X-74000Y-114039D02*
X-68787Y-108827D01*
X-77673Y-72327D02*
X-75824Y-74176D01*
X-77673Y-72327D02*
Y-70500D01*
X-75824Y-74176D02*
X-74176D01*
X-71590Y-76761D01*
Y-80264D02*
Y-76761D01*
X-90860Y-124210D02*
X-88000Y-121350D01*
Y-113694D01*
X-90860Y-131640D02*
Y-124210D01*
X-92560Y-133340D02*
X-90860Y-131640D01*
X-72500Y-130000D02*
X-44000D01*
X-83740Y-141240D02*
X-72500Y-130000D01*
X-44000D02*
X-40500Y-126500D01*
X-129600Y-111100D02*
X-90594D01*
X-88000Y-113694D01*
X-76590Y-106917D02*
Y-100736D01*
X-77673Y-108000D02*
X-76590Y-106917D01*
X-97673Y-108000D02*
Y-103500D01*
X-97673Y-108000D02*
X-97673Y-108000D01*
X-103327Y-108000D02*
X-97673D01*
X-97673Y-110927D02*
Y-108000D01*
X-108500Y-147921D02*
X-103740Y-152680D01*
X-108500Y-147921D02*
Y-140200D01*
X-101640Y-133340D01*
X-92560D01*
X-149803Y-74697D02*
X-147500Y-77000D01*
X-143800D02*
X-140800Y-80000D01*
Y-99900D02*
X-129600Y-111100D01*
X-140800Y-99900D02*
Y-80000D01*
X-147500Y-77000D02*
X-143800D01*
X-149803Y-74697D02*
Y-68252D01*
X-89000Y-69173D02*
X-87000Y-67173D01*
X-89000Y-75543D02*
Y-69173D01*
Y-75543D02*
X-87543Y-77000D01*
X-85673D01*
X-59665Y-84835D02*
X-55399D01*
X-61590Y-82910D02*
X-59665Y-84835D01*
X-61590Y-82910D02*
Y-80264D01*
X-74327Y-108000D02*
X-71590Y-105263D01*
Y-100736D01*
X-49673Y-110000D02*
X-47173Y-112500D01*
X-52851Y-110000D02*
X-49673D01*
X-55173Y-112322D02*
X-52851Y-110000D01*
X-63900Y-125600D02*
Y-112573D01*
X-63500Y-112173D01*
X-69224Y-118260D02*
Y-113398D01*
X-68000Y-112173D01*
X-67669D02*
X-64322Y-108827D01*
X-68000Y-112173D02*
X-67669D01*
X-64322Y-108827D02*
X-63500D01*
X-57000Y-126500D02*
X-56000Y-125500D01*
X-63000Y-126500D02*
X-57000D01*
X-63900Y-125600D02*
X-63000Y-126500D01*
X-56000Y-125500D02*
Y-123000D01*
X-55050Y-122050D01*
X-44500D01*
X-83740Y-142680D02*
Y-141240D01*
X-40500Y-126500D02*
Y-118500D01*
X-42000Y-117000D02*
X-40500Y-118500D01*
X-47327Y-117000D02*
X-42000D01*
X-51827Y-112500D02*
X-47327Y-117000D01*
X-55173Y-112500D02*
Y-112322D01*
Y-115577D02*
X-52500Y-118250D01*
X-55173Y-115577D02*
Y-112500D01*
X-34260Y-90815D02*
Y-86240D01*
X-35500Y-85000D02*
X-34260Y-86240D01*
X-39000Y-85000D02*
X-35500D01*
X-41740Y-87740D02*
X-39000Y-85000D01*
X-41740Y-90815D02*
Y-87740D01*
X-66590Y-94090D02*
X-62327Y-89827D01*
X-66590Y-100736D02*
Y-94090D01*
X-62327Y-89827D02*
X-55500D01*
X-68323Y-74677D02*
X-66590Y-76410D01*
Y-80264D02*
Y-76410D01*
X-70149Y-74677D02*
X-68323D01*
X-74327Y-70500D02*
X-70149Y-74677D01*
X-76587Y-62500D02*
X-76087Y-62000D01*
Y-58587D01*
X-71827Y-56827D02*
Y-54500D01*
X-73000Y-58000D02*
X-71827Y-56827D01*
X-75500Y-58000D02*
X-73000D01*
X-76087Y-58587D02*
X-75500Y-58000D01*
X-87000Y-57327D02*
X-84173Y-54500D01*
X-87000Y-63827D02*
Y-57327D01*
X-85500Y-53173D02*
X-84173Y-54500D01*
X-85500Y-53173D02*
Y-51000D01*
X-55399Y-89726D02*
Y-84835D01*
X-62719Y-73781D02*
Y-70500D01*
Y-73781D02*
X-61590Y-74910D01*
Y-80264D02*
Y-74910D01*
X-71827Y-54500D02*
X-67173D01*
X-80827Y-55322D02*
Y-54500D01*
X-84173Y-58669D02*
X-80827Y-55322D01*
X-84173Y-59000D02*
Y-58669D01*
X-87000Y-63827D02*
X-82500D01*
X-85673Y-69756D02*
X-83091Y-67173D01*
X-82500D01*
X-85673Y-72500D02*
Y-69756D01*
X-62719Y-70500D02*
X-62090Y-71129D01*
X-37827Y-35327D02*
Y-34500D01*
X-41173Y-38673D02*
X-37827Y-35327D01*
X-41173Y-39500D02*
Y-38673D01*
X-74000Y-120965D02*
Y-119000D01*
Y-114039D01*
X-42500Y-73781D02*
X-41740Y-74541D01*
X-40781Y-75500D01*
X-74000Y-120965D02*
X-69224Y-125740D01*
X232016Y-31890D02*
X234063Y-29842D01*
X232016Y-34272D02*
Y-31890D01*
Y-113012D02*
Y-110630D01*
X234063Y-108583D01*
X232016Y125591D02*
X234063Y127638D01*
X232016Y123209D02*
Y125591D01*
Y44469D02*
Y46850D01*
X234063Y48898D01*
D36*
X-43500Y-60781D02*
X-36000D01*
X-53500Y-104224D02*
Y-98000D01*
X-59276Y-110000D02*
X-53500Y-104224D01*
X-82842Y-117000D02*
Y-97342D01*
X-69984Y-126500D02*
X-69224Y-125740D01*
X-80413Y-126500D02*
X-69984D01*
X-88000Y-97719D02*
X-87624Y-97342D01*
X-82842D01*
X-102000Y-124781D02*
X-96306D01*
X-94587Y-126500D01*
X-113437Y-116063D02*
X-104719Y-124781D01*
X-118736Y-116063D02*
X-113437D01*
X-104719Y-124781D02*
X-102000D01*
X-82842Y-124071D02*
Y-117000D01*
Y-124071D02*
X-80413Y-126500D01*
X-53500Y-98000D02*
X-51000Y-95500D01*
Y-77457D01*
X-47543Y-74000D01*
Y-65324D01*
X-82842Y-117000D02*
X-82327Y-116484D01*
X-90900Y-46500D02*
X-70949D01*
X-95488Y-51088D02*
X-90900Y-46500D01*
X-95488Y-54000D02*
Y-51088D01*
X-106512Y-63288D02*
X-103300Y-66500D01*
X-99781D01*
X-106512Y-63288D02*
Y-54000D01*
X-105219Y-55293D01*
X-76561Y-31500D02*
X-70949D01*
X-79980Y-28080D02*
X-76561Y-31500D01*
X-95488Y-36500D02*
Y-32588D01*
X-106512Y-54000D02*
Y-51049D01*
X-112850Y-44710D02*
X-106512Y-51049D01*
X-122169Y-44710D02*
X-112850D01*
X-106512Y-34612D02*
X-105219Y-33319D01*
X-108144Y-34868D02*
X-106512Y-36500D01*
X-122169Y-34868D02*
X-108144D01*
X-95488Y-32588D02*
X-90980Y-28080D01*
X-79980D01*
X-106512Y-27731D02*
X-102281Y-23500D01*
X-59276Y-122000D02*
Y-110000D01*
X-47543Y-65324D02*
X-43500Y-61281D01*
X-106512Y-36500D02*
Y-34612D01*
Y-27731D01*
D37*
X-85711Y-88507D02*
X-74507D01*
X-76590Y-100736D02*
Y-94910D01*
X-79500Y-92000D02*
X-76590Y-94910D01*
X-88719Y-92000D02*
X-79500D01*
X-91719Y-82500D02*
X-85711Y-88507D01*
X-74507D02*
X-71590Y-85590D01*
Y-80264D01*
X-91719Y-89000D02*
X-88719Y-92000D01*
X-106000Y-82500D02*
X-97281D01*
X-117000Y-71500D02*
X-106000Y-82500D01*
X-117000Y-71500D02*
Y-62000D01*
X-119500Y-59500D02*
X-117000Y-62000D01*
X-126500Y-59500D02*
X-119500D01*
X-131299Y-64299D02*
X-126500Y-59500D01*
X-131299Y-68252D02*
Y-64299D01*
Y-80201D02*
Y-68252D01*
X-124370Y-94748D02*
Y-87130D01*
X-131299Y-80201D02*
X-124370Y-87130D01*
X-122047Y-71453D02*
X-113937Y-79563D01*
Y-91937D02*
Y-79563D01*
X-122047Y-71453D02*
Y-68252D01*
X-113937Y-91937D02*
X-111000Y-89000D01*
X-97281D01*
X-97673Y-94500D02*
Y-89392D01*
Y-99000D02*
Y-94500D01*
Y-89392D02*
X-97281Y-89000D01*
X-76980Y-42080D02*
X-76400Y-41500D01*
X-70949D01*
X-81327Y-39892D02*
Y-34000D01*
Y-39892D02*
X-81219Y-40000D01*
X-70949Y-41500D02*
X-66561D01*
X-63980Y-44080D01*
X-83740Y-15000D02*
X-74740Y-24000D01*
X-58673D01*
X-55327Y-24000D02*
X-50173D01*
X-46827Y-24000D02*
X-40630D01*
X-37827Y-26803D01*
Y-29500D02*
Y-26803D01*
X-43173Y-31500D02*
X-41173Y-29500D01*
X-52051Y-31500D02*
X-43173D01*
Y-36500D02*
X-41173Y-34500D01*
X-52051Y-36500D02*
X-43173D01*
X-44173Y-41500D02*
X-41173Y-44500D01*
X-52051Y-41500D02*
X-44173D01*
X-97673Y-82108D02*
Y-72500D01*
D38*
X-148480Y-148380D02*
D03*
Y-8980D02*
D03*
X-8980Y-148480D02*
D03*
Y-9080D02*
D03*
D39*
X-33740Y-152680D02*
D03*
X-43740D02*
D03*
X-53740D02*
D03*
X-63740D02*
D03*
X-73740D02*
D03*
X-83740D02*
D03*
X-93740D02*
D03*
X-103740D02*
D03*
X-113740D02*
D03*
X-123740D02*
D03*
X-133740D02*
D03*
X-33740Y-142680D02*
D03*
X-43740D02*
D03*
X-53740D02*
D03*
X-63740D02*
D03*
X-73740D02*
D03*
X-83740D02*
D03*
X-93740D02*
D03*
X-103740D02*
D03*
X-113740D02*
D03*
X-123740D02*
D03*
X-133740D02*
D03*
X-73740Y-15000D02*
D03*
X-83740D02*
D03*
X-93740D02*
D03*
X-103740D02*
D03*
X-113740D02*
D03*
X-123740D02*
D03*
X-133740D02*
D03*
X-33740Y-5000D02*
D03*
X-43740D02*
D03*
X-53740D02*
D03*
X-63740D02*
D03*
X-73740D02*
D03*
X-83740D02*
D03*
X-93740D02*
D03*
X-103740D02*
D03*
X-113740D02*
D03*
X-123740D02*
D03*
X-133740D02*
D03*
X-10748Y-88740D02*
D03*
Y-98740D02*
D03*
Y-108740D02*
D03*
X-20748Y-88740D02*
D03*
Y-98740D02*
D03*
Y-108740D02*
D03*
X-10748Y-78740D02*
D03*
Y-68740D02*
D03*
Y-58740D02*
D03*
Y-48740D02*
D03*
X-20748Y-78740D02*
D03*
Y-68740D02*
D03*
Y-58740D02*
D03*
Y-48740D02*
D03*
D40*
X-23740Y-152680D02*
D03*
Y-142680D02*
D03*
X-63740Y-15000D02*
D03*
X-23740Y-5000D02*
D03*
D41*
X244614Y-25118D02*
D03*
Y-53661D02*
D03*
Y-103858D02*
D03*
Y-132402D02*
D03*
Y132362D02*
D03*
Y103819D02*
D03*
Y53622D02*
D03*
Y25079D02*
D03*
D42*
X234063Y-48937D02*
D03*
X234063Y-29842D02*
D03*
X234063Y-127677D02*
D03*
X234063Y-108583D02*
D03*
X234063Y108543D02*
D03*
X234063Y127638D02*
D03*
X234063Y29803D02*
D03*
X234063Y48898D02*
D03*
D43*
X-103000Y-115000D02*
D03*
X-100000D02*
D03*
X-91000Y-94000D02*
D03*
X-88000Y-80000D02*
D03*
X-91000Y-101000D02*
D03*
X-90953Y-105400D02*
D03*
X-91000Y-72000D02*
D03*
Y-77000D02*
D03*
X-61000Y-92000D02*
D03*
X-45000Y-127000D02*
D03*
X-48000D02*
D03*
X-62000Y-95000D02*
D03*
X-41000Y-113000D02*
D03*
X-32000Y-98000D02*
D03*
X-31012Y-101055D02*
D03*
X-55000Y-78000D02*
D03*
Y-75000D02*
D03*
X-72000Y-67000D02*
D03*
X-70000Y-65000D02*
D03*
Y-60000D02*
D03*
X-80000Y-50000D02*
D03*
X-75000D02*
D03*
X-70000D02*
D03*
X-36500Y-75500D02*
D03*
X-63827Y-57327D02*
D03*
X-76758Y-119789D02*
D03*
X-77000Y-122500D02*
D03*
X-74000Y-122000D02*
D03*
Y-119000D02*
D03*
X-41281Y-100219D02*
D03*
X-71500Y-90500D02*
D03*
X-79000Y-74500D02*
D03*
X-82842Y-85658D02*
D03*
X-86500Y-124000D02*
D03*
X-52000Y-108000D02*
D03*
X-86500Y-108000D02*
D03*
X-77000Y-112000D02*
D03*
X-82842Y-97342D02*
D03*
X-101000Y-71000D02*
D03*
X-106000Y-115000D02*
D03*
X-46315Y-80185D02*
D03*
X-63980Y-47080D02*
D03*
X-85500Y-51000D02*
D03*
X-91000Y-67500D02*
D03*
X-90000Y-65000D02*
D03*
X-115000Y-105000D02*
D03*
X-18980Y-19080D02*
D03*
X-92000Y-24000D02*
D03*
X-112700Y-54100D02*
D03*
X-59380Y-36580D02*
D03*
X-35000Y-65000D02*
D03*
X-92000Y-21000D02*
D03*
X-3980Y-44080D02*
D03*
X-10000Y-30000D02*
D03*
Y-35000D02*
D03*
X-113980Y-69080D02*
D03*
X-32080Y-118880D02*
D03*
X-123980Y-24080D02*
D03*
X-113980Y-27080D02*
D03*
X-133980Y-24080D02*
D03*
X-128980Y-29080D02*
D03*
X-118980D02*
D03*
X-148980D02*
D03*
X-138980D02*
D03*
X-148980Y-39080D02*
D03*
X-138980D02*
D03*
X-113980Y-40080D02*
D03*
X-148980Y-49080D02*
D03*
X-138980D02*
D03*
X-128980Y-54589D02*
D03*
X-118980Y-54080D02*
D03*
X-113980Y-64080D02*
D03*
X-15000Y-40000D02*
D03*
X-40000Y-50000D02*
D03*
Y-65000D02*
D03*
X-10000Y-40000D02*
D03*
X-3980Y-24080D02*
D03*
X-13980D02*
D03*
X-3980Y-49080D02*
D03*
X-35000Y-45000D02*
D03*
X-5000Y-57500D02*
D03*
Y-65000D02*
D03*
X-96000Y-130000D02*
D03*
X-35000Y-50000D02*
D03*
X-63980Y-44080D02*
D03*
X-37500Y-47500D02*
D03*
X-35000Y-40000D02*
D03*
X-60980Y-32080D02*
D03*
X-100200Y-130100D02*
D03*
X-32000Y-50000D02*
D03*
X-88980Y-31580D02*
D03*
Y-34080D02*
D03*
X-105000Y-100000D02*
D03*
X-32000Y-95000D02*
D03*
X-90000Y-50000D02*
D03*
Y-55000D02*
D03*
Y-60000D02*
D03*
X-89980Y-37080D02*
D03*
X-78000Y-58000D02*
D03*
X-76980Y-42080D02*
D03*
X-89980Y-43080D02*
D03*
X-40000Y-10000D02*
D03*
X-126460Y-135400D02*
D03*
X-73480Y-134180D02*
D03*
X-71520Y-132280D02*
D03*
X-71480Y-136280D02*
D03*
X-76980Y-138080D02*
D03*
X-155000Y-86000D02*
D03*
X-145000D02*
D03*
X-135000D02*
D03*
X-155000Y-76000D02*
D03*
X-135000D02*
D03*
X-150000Y-115000D02*
D03*
X-140000D02*
D03*
X-130000D02*
D03*
X-150000Y-125000D02*
D03*
X-140000D02*
D03*
X-130000D02*
D03*
Y-130000D02*
D03*
X-120000D02*
D03*
X-110000D02*
D03*
X-130000Y-105000D02*
D03*
X-120000D02*
D03*
X-110000D02*
D03*
X-32000Y-55000D02*
D03*
X-59000Y-75000D02*
D03*
X-106000Y-70000D02*
D03*
X-42000Y-20000D02*
D03*
X-48000Y-15000D02*
D03*
X-55000D02*
D03*
X-46000Y-28000D02*
D03*
X-50000D02*
D03*
X-57000D02*
D03*
X-67000D02*
D03*
X-74000Y-27000D02*
D03*
X-82000Y-24000D02*
D03*
X-89000D02*
D03*
Y-13000D02*
D03*
X-99000Y-18000D02*
D03*
X-109000Y-12000D02*
D03*
Y-20000D02*
D03*
X-116000Y-23000D02*
D03*
X-33000Y-32000D02*
D03*
X-35000Y-27000D02*
D03*
X-33000Y-37000D02*
D03*
X-155000Y-99000D02*
D03*
X-138000Y-107000D02*
D03*
X185784Y-61390D02*
D03*
X193283D02*
D03*
X200783D02*
D03*
X248284Y-3890D02*
D03*
Y-11390D02*
D03*
Y-18890D02*
D03*
Y-58890D02*
D03*
Y-66390D02*
D03*
Y-73890D02*
D03*
X240283Y-32890D02*
D03*
Y-40390D02*
D03*
Y-47890D02*
D03*
X224783Y-27390D02*
D03*
X217284D02*
D03*
X209784D02*
D03*
X179283Y-47890D02*
D03*
Y-40390D02*
D03*
X193283Y-47890D02*
D03*
Y-40390D02*
D03*
Y-32890D02*
D03*
X210784Y-22390D02*
D03*
X218284D02*
D03*
X225783D02*
D03*
X199784Y-10390D02*
D03*
X207283D02*
D03*
X214784D02*
D03*
X177784D02*
D03*
X185284D02*
D03*
X192783D02*
D03*
X200783Y-69390D02*
D03*
X208283D02*
D03*
X215784D02*
D03*
X176784D02*
D03*
X184283D02*
D03*
X191783D02*
D03*
X179368Y-33060D02*
D03*
X225768Y-54960D02*
D03*
X218268D02*
D03*
X210769D02*
D03*
Y-133700D02*
D03*
X218268D02*
D03*
X225768D02*
D03*
X179368Y-111800D02*
D03*
X191783Y-148130D02*
D03*
X184283D02*
D03*
X176784D02*
D03*
X215784D02*
D03*
X208283D02*
D03*
X200783D02*
D03*
X192783Y-89130D02*
D03*
X185284D02*
D03*
X177784D02*
D03*
X214784D02*
D03*
X207283D02*
D03*
X199784D02*
D03*
X225783Y-101130D02*
D03*
X218284D02*
D03*
X210784D02*
D03*
X193283Y-111630D02*
D03*
Y-119130D02*
D03*
Y-126630D02*
D03*
X179283Y-119130D02*
D03*
Y-126630D02*
D03*
X209784Y-106130D02*
D03*
X217284D02*
D03*
X224783D02*
D03*
X240283Y-126630D02*
D03*
Y-119130D02*
D03*
Y-111630D02*
D03*
X248284Y-152630D02*
D03*
Y-145130D02*
D03*
Y-137630D02*
D03*
Y-97630D02*
D03*
Y-90130D02*
D03*
Y-82630D02*
D03*
X200783Y-140130D02*
D03*
X193283D02*
D03*
X185784D02*
D03*
Y96091D02*
D03*
X193283D02*
D03*
X200783D02*
D03*
X248284Y153591D02*
D03*
Y146091D02*
D03*
Y138591D02*
D03*
Y98590D02*
D03*
Y91091D02*
D03*
Y83591D02*
D03*
X240283Y124591D02*
D03*
Y117091D02*
D03*
Y109591D02*
D03*
X224783Y130091D02*
D03*
X217284D02*
D03*
X209784D02*
D03*
X179283Y109591D02*
D03*
Y117091D02*
D03*
X193283Y109591D02*
D03*
Y117091D02*
D03*
Y124591D02*
D03*
X210784Y135091D02*
D03*
X218284D02*
D03*
X225783D02*
D03*
X199784Y147091D02*
D03*
X207283D02*
D03*
X214784D02*
D03*
X177784D02*
D03*
X185284D02*
D03*
X192783D02*
D03*
X200783Y88090D02*
D03*
X208283D02*
D03*
X215784D02*
D03*
X176784D02*
D03*
X184283D02*
D03*
X191783D02*
D03*
X179368Y124420D02*
D03*
X225768Y102521D02*
D03*
X218268D02*
D03*
X210769D02*
D03*
Y23780D02*
D03*
X218268D02*
D03*
X225768D02*
D03*
X179368Y45680D02*
D03*
X191783Y9350D02*
D03*
X184283D02*
D03*
X176784D02*
D03*
X215784D02*
D03*
X208283D02*
D03*
X200783D02*
D03*
X192783Y68350D02*
D03*
X185284D02*
D03*
X177784D02*
D03*
X214784D02*
D03*
X207283D02*
D03*
X199784D02*
D03*
X225783Y56350D02*
D03*
X218284D02*
D03*
X210784D02*
D03*
X193283Y45850D02*
D03*
Y38350D02*
D03*
Y30850D02*
D03*
X179283Y38350D02*
D03*
Y30850D02*
D03*
X209784Y51350D02*
D03*
X217284D02*
D03*
X224783D02*
D03*
X240283Y30850D02*
D03*
Y38350D02*
D03*
Y45850D02*
D03*
X248284Y4850D02*
D03*
Y12350D02*
D03*
Y19850D02*
D03*
Y59850D02*
D03*
Y67350D02*
D03*
Y74850D02*
D03*
X200783Y17350D02*
D03*
X193283D02*
D03*
X185784D02*
D03*
M02*
