G04 Layer_Color=255*
%FSLAX25Y25*%
%MOIN*%
G70*
G01*
G75*
%ADD10C,0.03937*%
%ADD38C,0.18898*%
%ADD39C,0.05905*%
%ADD40R,0.05905X0.05905*%
%ADD41O,0.05905X0.04724*%
%ADD42C,0.04724*%
D10*
X173228Y167323D02*
D03*
X-78760Y-167342D02*
D03*
X-119961Y-81500D02*
D03*
X-147480D02*
D03*
D38*
X-148480Y-148380D02*
D03*
Y-8980D02*
D03*
X-8980Y-148480D02*
D03*
Y-9080D02*
D03*
D39*
X-33740Y-152680D02*
D03*
X-43740D02*
D03*
X-53740D02*
D03*
X-63740D02*
D03*
X-73740D02*
D03*
X-83740D02*
D03*
X-93740D02*
D03*
X-103740D02*
D03*
X-113740D02*
D03*
X-123740D02*
D03*
X-133740D02*
D03*
X-33740Y-142680D02*
D03*
X-43740D02*
D03*
X-53740D02*
D03*
X-63740D02*
D03*
X-73740D02*
D03*
X-83740D02*
D03*
X-93740D02*
D03*
X-103740D02*
D03*
X-113740D02*
D03*
X-123740D02*
D03*
X-133740D02*
D03*
X-73740Y-15000D02*
D03*
X-83740D02*
D03*
X-93740D02*
D03*
X-103740D02*
D03*
X-113740D02*
D03*
X-123740D02*
D03*
X-133740D02*
D03*
X-33740Y-5000D02*
D03*
X-43740D02*
D03*
X-53740D02*
D03*
X-63740D02*
D03*
X-73740D02*
D03*
X-83740D02*
D03*
X-93740D02*
D03*
X-103740D02*
D03*
X-113740D02*
D03*
X-123740D02*
D03*
X-133740D02*
D03*
X-10748Y-88740D02*
D03*
Y-98740D02*
D03*
Y-108740D02*
D03*
X-20748Y-88740D02*
D03*
Y-98740D02*
D03*
Y-108740D02*
D03*
X-10748Y-78740D02*
D03*
Y-68740D02*
D03*
Y-58740D02*
D03*
Y-48740D02*
D03*
X-20748Y-78740D02*
D03*
Y-68740D02*
D03*
Y-58740D02*
D03*
Y-48740D02*
D03*
D40*
X-23740Y-152680D02*
D03*
Y-142680D02*
D03*
X-63740Y-15000D02*
D03*
X-23740Y-5000D02*
D03*
D41*
X244614Y-25118D02*
D03*
Y-53661D02*
D03*
Y-103858D02*
D03*
Y-132402D02*
D03*
Y132362D02*
D03*
Y103819D02*
D03*
Y53622D02*
D03*
Y25079D02*
D03*
D42*
X234063Y-48937D02*
D03*
X234063Y-29842D02*
D03*
X234063Y-127677D02*
D03*
X234063Y-108583D02*
D03*
X234063Y108543D02*
D03*
X234063Y127638D02*
D03*
X234063Y29803D02*
D03*
X234063Y48898D02*
D03*
M02*
