G04 Layer_Physical_Order=2*
G04 Layer_Color=16711680*
%FSLAX25Y25*%
%MOIN*%
G70*
G01*
G75*
%ADD10C,0.03937*%
%ADD32C,0.02000*%
%ADD33C,0.00800*%
%ADD34C,0.00600*%
%ADD35C,0.01000*%
%ADD36C,0.03000*%
%ADD37C,0.01500*%
%ADD38C,0.18898*%
%ADD39C,0.05905*%
%ADD40R,0.05905X0.05905*%
%ADD41O,0.05905X0.04724*%
%ADD42C,0.04724*%
%ADD43C,0.01800*%
G36*
X249119Y-2071D02*
X249969Y-2240D01*
X250398Y-2155D01*
X250898Y-2565D01*
Y-76791D01*
X174299D01*
Y-2481D01*
X174685Y-2164D01*
X175068Y-2240D01*
X175918Y-2071D01*
X176043Y-1988D01*
X176994D01*
X177119Y-2071D01*
X177969Y-2240D01*
X178818Y-2071D01*
X178943Y-1988D01*
X179994D01*
X180119Y-2071D01*
X180968Y-2240D01*
X181818Y-2071D01*
X181943Y-1988D01*
X182994D01*
X183119Y-2071D01*
X183968Y-2240D01*
X184818Y-2071D01*
X184943Y-1988D01*
X185994D01*
X186119Y-2071D01*
X186969Y-2240D01*
X187818Y-2071D01*
X187943Y-1988D01*
X189494D01*
X189619Y-2071D01*
X190469Y-2240D01*
X191318Y-2071D01*
X191443Y-1988D01*
X192994D01*
X193119Y-2071D01*
X193968Y-2240D01*
X194818Y-2071D01*
X194943Y-1988D01*
X196494D01*
X196619Y-2071D01*
X197468Y-2240D01*
X198318Y-2071D01*
X198443Y-1988D01*
X199994D01*
X200119Y-2071D01*
X200969Y-2240D01*
X201818Y-2071D01*
X201943Y-1988D01*
X203494D01*
X203619Y-2071D01*
X204468Y-2240D01*
X205318Y-2071D01*
X205443Y-1988D01*
X206994D01*
X207119Y-2071D01*
X207968Y-2240D01*
X208818Y-2071D01*
X208943Y-1988D01*
X210494D01*
X210619Y-2071D01*
X211469Y-2240D01*
X212318Y-2071D01*
X212443Y-1988D01*
X213994D01*
X214119Y-2071D01*
X214968Y-2240D01*
X215818Y-2071D01*
X215943Y-1988D01*
X217494D01*
X217619Y-2071D01*
X218468Y-2240D01*
X219318Y-2071D01*
X219443Y-1988D01*
X220994D01*
X221119Y-2071D01*
X221969Y-2240D01*
X222818Y-2071D01*
X222943Y-1988D01*
X224494D01*
X224619Y-2071D01*
X225468Y-2240D01*
X226318Y-2071D01*
X226443Y-1988D01*
X227494D01*
X227619Y-2071D01*
X228468Y-2240D01*
X229318Y-2071D01*
X229443Y-1988D01*
X230494D01*
X230619Y-2071D01*
X231469Y-2240D01*
X232318Y-2071D01*
X232443Y-1988D01*
X233494D01*
X233619Y-2071D01*
X234469Y-2240D01*
X235318Y-2071D01*
X235443Y-1988D01*
X236994D01*
X237119Y-2071D01*
X237968Y-2240D01*
X238818Y-2071D01*
X238943Y-1988D01*
X239994D01*
X240119Y-2071D01*
X240968Y-2240D01*
X241818Y-2071D01*
X241943Y-1988D01*
X242994D01*
X243119Y-2071D01*
X243969Y-2240D01*
X244818Y-2071D01*
X244943Y-1988D01*
X245994D01*
X246119Y-2071D01*
X246969Y-2240D01*
X247818Y-2071D01*
X247943Y-1988D01*
X248994D01*
X249119Y-2071D01*
D02*
G37*
G36*
Y76669D02*
X249969Y76500D01*
X250398Y76585D01*
X250898Y76175D01*
Y1949D01*
X174299D01*
Y76259D01*
X174685Y76576D01*
X175068Y76500D01*
X175918Y76669D01*
X176043Y76752D01*
X176994D01*
X177119Y76669D01*
X177969Y76500D01*
X178818Y76669D01*
X178943Y76752D01*
X179994D01*
X180119Y76669D01*
X180968Y76500D01*
X181818Y76669D01*
X181943Y76752D01*
X182994D01*
X183119Y76669D01*
X183968Y76500D01*
X184818Y76669D01*
X184943Y76752D01*
X185994D01*
X186119Y76669D01*
X186969Y76500D01*
X187818Y76669D01*
X187943Y76752D01*
X189494D01*
X189619Y76669D01*
X190469Y76500D01*
X191318Y76669D01*
X191443Y76752D01*
X192994D01*
X193119Y76669D01*
X193968Y76500D01*
X194818Y76669D01*
X194943Y76752D01*
X196494D01*
X196619Y76669D01*
X197468Y76500D01*
X198318Y76669D01*
X198443Y76752D01*
X199994D01*
X200119Y76669D01*
X200969Y76500D01*
X201818Y76669D01*
X201943Y76752D01*
X203494D01*
X203619Y76669D01*
X204468Y76500D01*
X205318Y76669D01*
X205443Y76752D01*
X206994D01*
X207119Y76669D01*
X207968Y76500D01*
X208818Y76669D01*
X208943Y76752D01*
X210494D01*
X210619Y76669D01*
X211469Y76500D01*
X212318Y76669D01*
X212443Y76752D01*
X213994D01*
X214119Y76669D01*
X214968Y76500D01*
X215818Y76669D01*
X215943Y76752D01*
X217494D01*
X217619Y76669D01*
X218468Y76500D01*
X219318Y76669D01*
X219443Y76752D01*
X220994D01*
X221119Y76669D01*
X221969Y76500D01*
X222818Y76669D01*
X222943Y76752D01*
X224494D01*
X224619Y76669D01*
X225468Y76500D01*
X226318Y76669D01*
X226443Y76752D01*
X227494D01*
X227619Y76669D01*
X228468Y76500D01*
X229318Y76669D01*
X229443Y76752D01*
X230494D01*
X230619Y76669D01*
X231469Y76500D01*
X232318Y76669D01*
X232443Y76752D01*
X233494D01*
X233619Y76669D01*
X234469Y76500D01*
X235318Y76669D01*
X235443Y76752D01*
X236994D01*
X237119Y76669D01*
X237968Y76500D01*
X238818Y76669D01*
X238943Y76752D01*
X239994D01*
X240119Y76669D01*
X240968Y76500D01*
X241818Y76669D01*
X241943Y76752D01*
X242994D01*
X243119Y76669D01*
X243969Y76500D01*
X244818Y76669D01*
X244943Y76752D01*
X245994D01*
X246119Y76669D01*
X246969Y76500D01*
X247818Y76669D01*
X247943Y76752D01*
X248994D01*
X249119Y76669D01*
D02*
G37*
G36*
Y-80811D02*
X249969Y-80980D01*
X250398Y-80895D01*
X250898Y-81305D01*
Y-155532D01*
X174299D01*
Y-81221D01*
X174685Y-80904D01*
X175068Y-80980D01*
X175918Y-80811D01*
X176043Y-80728D01*
X176994D01*
X177119Y-80811D01*
X177969Y-80980D01*
X178818Y-80811D01*
X178943Y-80728D01*
X179994D01*
X180119Y-80811D01*
X180968Y-80980D01*
X181818Y-80811D01*
X181943Y-80728D01*
X182994D01*
X183119Y-80811D01*
X183968Y-80980D01*
X184818Y-80811D01*
X184943Y-80728D01*
X185994D01*
X186119Y-80811D01*
X186969Y-80980D01*
X187818Y-80811D01*
X187943Y-80728D01*
X189494D01*
X189619Y-80811D01*
X190469Y-80980D01*
X191318Y-80811D01*
X191443Y-80728D01*
X192994D01*
X193119Y-80811D01*
X193968Y-80980D01*
X194818Y-80811D01*
X194943Y-80728D01*
X196494D01*
X196619Y-80811D01*
X197468Y-80980D01*
X198318Y-80811D01*
X198443Y-80728D01*
X199994D01*
X200119Y-80811D01*
X200969Y-80980D01*
X201818Y-80811D01*
X201943Y-80728D01*
X203494D01*
X203619Y-80811D01*
X204468Y-80980D01*
X205318Y-80811D01*
X205443Y-80728D01*
X206994D01*
X207119Y-80811D01*
X207968Y-80980D01*
X208818Y-80811D01*
X208943Y-80728D01*
X210494D01*
X210619Y-80811D01*
X211469Y-80980D01*
X212318Y-80811D01*
X212443Y-80728D01*
X213994D01*
X214119Y-80811D01*
X214968Y-80980D01*
X215818Y-80811D01*
X215943Y-80728D01*
X217494D01*
X217619Y-80811D01*
X218468Y-80980D01*
X219318Y-80811D01*
X219443Y-80728D01*
X220994D01*
X221119Y-80811D01*
X221969Y-80980D01*
X222818Y-80811D01*
X222943Y-80728D01*
X224494D01*
X224619Y-80811D01*
X225468Y-80980D01*
X226318Y-80811D01*
X226443Y-80728D01*
X227494D01*
X227619Y-80811D01*
X228468Y-80980D01*
X229318Y-80811D01*
X229443Y-80728D01*
X230494D01*
X230619Y-80811D01*
X231469Y-80980D01*
X232318Y-80811D01*
X232443Y-80728D01*
X233494D01*
X233619Y-80811D01*
X234469Y-80980D01*
X235318Y-80811D01*
X235443Y-80728D01*
X236994D01*
X237119Y-80811D01*
X237968Y-80980D01*
X238818Y-80811D01*
X238943Y-80728D01*
X239994D01*
X240119Y-80811D01*
X240968Y-80980D01*
X241818Y-80811D01*
X241943Y-80728D01*
X242994D01*
X243119Y-80811D01*
X243969Y-80980D01*
X244818Y-80811D01*
X244943Y-80728D01*
X245994D01*
X246119Y-80811D01*
X246969Y-80980D01*
X247818Y-80811D01*
X247943Y-80728D01*
X248994D01*
X249119Y-80811D01*
D02*
G37*
G36*
Y155409D02*
X249969Y155240D01*
X250398Y155325D01*
X250898Y154915D01*
Y80689D01*
X174299D01*
Y154999D01*
X174685Y155316D01*
X175068Y155240D01*
X175918Y155409D01*
X176043Y155492D01*
X176994D01*
X177119Y155409D01*
X177969Y155240D01*
X178818Y155409D01*
X178943Y155492D01*
X179994D01*
X180119Y155409D01*
X180968Y155240D01*
X181818Y155409D01*
X181943Y155492D01*
X182994D01*
X183119Y155409D01*
X183968Y155240D01*
X184818Y155409D01*
X184943Y155492D01*
X185994D01*
X186119Y155409D01*
X186969Y155240D01*
X187818Y155409D01*
X187943Y155492D01*
X189494D01*
X189619Y155409D01*
X190469Y155240D01*
X191318Y155409D01*
X191443Y155492D01*
X192994D01*
X193119Y155409D01*
X193968Y155240D01*
X194818Y155409D01*
X194943Y155492D01*
X196494D01*
X196619Y155409D01*
X197468Y155240D01*
X198318Y155409D01*
X198443Y155492D01*
X199994D01*
X200119Y155409D01*
X200969Y155240D01*
X201818Y155409D01*
X201943Y155492D01*
X203494D01*
X203619Y155409D01*
X204468Y155240D01*
X205318Y155409D01*
X205443Y155492D01*
X206994D01*
X207119Y155409D01*
X207968Y155240D01*
X208818Y155409D01*
X208943Y155492D01*
X210494D01*
X210619Y155409D01*
X211469Y155240D01*
X212318Y155409D01*
X212443Y155492D01*
X213994D01*
X214119Y155409D01*
X214968Y155240D01*
X215818Y155409D01*
X215943Y155492D01*
X217494D01*
X217619Y155409D01*
X218468Y155240D01*
X219318Y155409D01*
X219443Y155492D01*
X220994D01*
X221119Y155409D01*
X221969Y155240D01*
X222818Y155409D01*
X222943Y155492D01*
X224494D01*
X224619Y155409D01*
X225468Y155240D01*
X226318Y155409D01*
X226443Y155492D01*
X227494D01*
X227619Y155409D01*
X228468Y155240D01*
X229318Y155409D01*
X229443Y155492D01*
X230494D01*
X230619Y155409D01*
X231469Y155240D01*
X232318Y155409D01*
X232443Y155492D01*
X233494D01*
X233619Y155409D01*
X234469Y155240D01*
X235318Y155409D01*
X235443Y155492D01*
X236994D01*
X237119Y155409D01*
X237968Y155240D01*
X238818Y155409D01*
X238943Y155492D01*
X239994D01*
X240119Y155409D01*
X240968Y155240D01*
X241818Y155409D01*
X241943Y155492D01*
X242994D01*
X243119Y155409D01*
X243969Y155240D01*
X244818Y155409D01*
X244943Y155492D01*
X245994D01*
X246119Y155409D01*
X246969Y155240D01*
X247818Y155409D01*
X247943Y155492D01*
X248994D01*
X249119Y155409D01*
D02*
G37*
G36*
X-867Y-138000D02*
X-14000D01*
X-19500Y-143500D01*
Y-156614D01*
X-20187D01*
Y-156233D01*
X-20187D01*
Y-153180D01*
X-27293D01*
Y-156233D01*
X-27293D01*
Y-156260D01*
X-27646Y-156614D01*
X-32671D01*
X-32768Y-156123D01*
X-31948Y-155784D01*
X-31206Y-155214D01*
X-30637Y-154472D01*
X-30279Y-153608D01*
X-30222Y-153180D01*
X-37258D01*
X-37201Y-153608D01*
X-36920Y-154287D01*
X-37354Y-154536D01*
X-39000Y-152371D01*
Y-128647D01*
Y-124500D01*
X-82413D01*
X-84000Y-122913D01*
Y-118000D01*
X-81000Y-115000D01*
X-39000D01*
Y-113259D01*
X-31688Y-103641D01*
X-15112D01*
X-14625Y-103000D01*
X-867D01*
Y-138000D01*
D02*
G37*
G36*
X-15386Y-1338D02*
X-16120Y-1940D01*
X-17376Y-3471D01*
X-18309Y-5216D01*
X-18884Y-7110D01*
X-19078Y-9080D01*
X-18884Y-11050D01*
X-18309Y-12944D01*
X-17376Y-14690D01*
X-16120Y-16220D01*
X-14590Y-17476D01*
X-12844Y-18409D01*
X-10950Y-18984D01*
X-8980Y-19178D01*
X-7010Y-18984D01*
X-5116Y-18409D01*
X-3370Y-17476D01*
X-1840Y-16220D01*
X-1337Y-15608D01*
X-867Y-15776D01*
Y-102351D01*
X-8899D01*
X-8997Y-101860D01*
X-8956Y-101844D01*
X-8214Y-101274D01*
X-7645Y-100532D01*
X-7287Y-99668D01*
X-7165Y-98740D01*
X-7287Y-97813D01*
X-7645Y-96948D01*
X-8214Y-96206D01*
X-8956Y-95637D01*
X-9821Y-95279D01*
X-10748Y-95157D01*
X-11676Y-95279D01*
X-12540Y-95637D01*
X-13282Y-96206D01*
X-13851Y-96948D01*
X-14209Y-97813D01*
X-14331Y-98740D01*
X-14209Y-99668D01*
X-13851Y-100532D01*
X-13282Y-101274D01*
X-12540Y-101844D01*
X-12500Y-101860D01*
X-12597Y-102351D01*
X-14625D01*
X-14668Y-102368D01*
X-14713Y-102357D01*
X-14892Y-102461D01*
X-15084Y-102541D01*
X-15102Y-102584D01*
X-15142Y-102607D01*
X-15435Y-102992D01*
X-31688D01*
X-31730Y-103009D01*
X-31775Y-102998D01*
X-31955Y-103102D01*
X-32147Y-103182D01*
X-32164Y-103225D01*
X-32204Y-103248D01*
X-33590Y-105070D01*
X-34089Y-105104D01*
X-40128Y-99065D01*
X-40657Y-98712D01*
X-41281Y-98588D01*
X-41905Y-98712D01*
X-42435Y-99065D01*
X-42788Y-99595D01*
X-42913Y-100219D01*
X-42788Y-100843D01*
X-42435Y-101372D01*
X-35813Y-107994D01*
X-39517Y-112866D01*
X-39570Y-113067D01*
X-39649Y-113259D01*
Y-114351D01*
X-81000D01*
X-81459Y-114541D01*
X-84459Y-117541D01*
X-84649Y-118000D01*
Y-122913D01*
X-84459Y-123373D01*
X-82873Y-124959D01*
X-82413Y-125149D01*
X-39649D01*
Y-128647D01*
Y-152371D01*
X-39570Y-152563D01*
X-39517Y-152764D01*
X-37871Y-154929D01*
X-37690Y-155034D01*
X-37523Y-155163D01*
X-37479Y-155157D01*
X-37441Y-155179D01*
X-37238Y-155126D01*
X-37030Y-155099D01*
X-36597Y-154850D01*
X-36553Y-154850D01*
X-36274Y-155214D01*
X-35532Y-155784D01*
X-34712Y-156123D01*
X-34809Y-156614D01*
X-42671D01*
X-42768Y-156123D01*
X-41948Y-155784D01*
X-41206Y-155214D01*
X-40637Y-154472D01*
X-40279Y-153608D01*
X-40222Y-153180D01*
X-47258D01*
X-47201Y-153608D01*
X-46843Y-154472D01*
X-46274Y-155214D01*
X-45532Y-155784D01*
X-44712Y-156123D01*
X-44809Y-156614D01*
X-52671D01*
X-52768Y-156123D01*
X-51948Y-155784D01*
X-51206Y-155214D01*
X-50637Y-154472D01*
X-50279Y-153608D01*
X-50157Y-152680D01*
X-50279Y-151753D01*
X-50637Y-150889D01*
X-51206Y-150146D01*
X-51948Y-149577D01*
X-52813Y-149219D01*
X-53740Y-149097D01*
X-54668Y-149219D01*
X-55532Y-149577D01*
X-56274Y-150146D01*
X-56843Y-150889D01*
X-57201Y-151753D01*
X-57323Y-152680D01*
X-57201Y-153608D01*
X-56843Y-154472D01*
X-56274Y-155214D01*
X-55532Y-155784D01*
X-54712Y-156123D01*
X-54809Y-156614D01*
X-62671D01*
X-62768Y-156123D01*
X-61948Y-155784D01*
X-61206Y-155214D01*
X-60637Y-154472D01*
X-60279Y-153608D01*
X-60157Y-152680D01*
X-60279Y-151753D01*
X-60637Y-150889D01*
X-61206Y-150146D01*
X-61948Y-149577D01*
X-62813Y-149219D01*
X-63740Y-149097D01*
X-64668Y-149219D01*
X-65532Y-149577D01*
X-66274Y-150146D01*
X-66843Y-150889D01*
X-67201Y-151753D01*
X-67323Y-152680D01*
X-67201Y-153608D01*
X-66843Y-154472D01*
X-66274Y-155214D01*
X-65532Y-155784D01*
X-64712Y-156123D01*
X-64810Y-156614D01*
X-72671D01*
X-72768Y-156123D01*
X-71948Y-155784D01*
X-71206Y-155214D01*
X-70637Y-154472D01*
X-70279Y-153608D01*
X-70157Y-152680D01*
X-70279Y-151753D01*
X-70637Y-150889D01*
X-71206Y-150146D01*
X-71948Y-149577D01*
X-72813Y-149219D01*
X-73740Y-149097D01*
X-74668Y-149219D01*
X-75532Y-149577D01*
X-76274Y-150146D01*
X-76843Y-150889D01*
X-77201Y-151753D01*
X-77324Y-152680D01*
X-77201Y-153608D01*
X-76843Y-154472D01*
X-76274Y-155214D01*
X-75532Y-155784D01*
X-74712Y-156123D01*
X-74809Y-156614D01*
X-82671D01*
X-82768Y-156123D01*
X-81948Y-155784D01*
X-81206Y-155214D01*
X-80637Y-154472D01*
X-80279Y-153608D01*
X-80222Y-153180D01*
X-87258D01*
X-87201Y-153608D01*
X-86843Y-154472D01*
X-86274Y-155214D01*
X-85532Y-155784D01*
X-84712Y-156123D01*
X-84809Y-156614D01*
X-92671D01*
X-92768Y-156123D01*
X-91948Y-155784D01*
X-91206Y-155214D01*
X-90637Y-154472D01*
X-90279Y-153608D01*
X-90157Y-152680D01*
X-90279Y-151753D01*
X-90637Y-150889D01*
X-91206Y-150146D01*
X-91948Y-149577D01*
X-92813Y-149219D01*
X-93740Y-149097D01*
X-94668Y-149219D01*
X-95532Y-149577D01*
X-96274Y-150146D01*
X-96843Y-150889D01*
X-97201Y-151753D01*
X-97324Y-152680D01*
X-97201Y-153608D01*
X-96843Y-154472D01*
X-96274Y-155214D01*
X-95532Y-155784D01*
X-94712Y-156123D01*
X-94810Y-156614D01*
X-102671D01*
X-102768Y-156123D01*
X-101948Y-155784D01*
X-101206Y-155214D01*
X-100637Y-154472D01*
X-100279Y-153608D01*
X-100157Y-152680D01*
X-100279Y-151753D01*
X-100637Y-150889D01*
X-101206Y-150146D01*
X-101948Y-149577D01*
X-102813Y-149219D01*
X-103740Y-149097D01*
X-104668Y-149219D01*
X-105532Y-149577D01*
X-106274Y-150146D01*
X-106843Y-150889D01*
X-107201Y-151753D01*
X-107324Y-152680D01*
X-107201Y-153608D01*
X-106843Y-154472D01*
X-106274Y-155214D01*
X-105532Y-155784D01*
X-104712Y-156123D01*
X-104809Y-156614D01*
X-112671D01*
X-112768Y-156123D01*
X-111948Y-155784D01*
X-111206Y-155214D01*
X-110637Y-154472D01*
X-110279Y-153608D01*
X-110222Y-153180D01*
X-117258D01*
X-117201Y-153608D01*
X-116843Y-154472D01*
X-116274Y-155214D01*
X-115532Y-155784D01*
X-114712Y-156123D01*
X-114810Y-156614D01*
X-122671D01*
X-122768Y-156123D01*
X-121948Y-155784D01*
X-121206Y-155214D01*
X-120637Y-154472D01*
X-120279Y-153608D01*
X-120157Y-152680D01*
X-120279Y-151753D01*
X-120637Y-150889D01*
X-121206Y-150146D01*
X-121948Y-149577D01*
X-122813Y-149219D01*
X-123740Y-149097D01*
X-124668Y-149219D01*
X-125532Y-149577D01*
X-126274Y-150146D01*
X-126843Y-150889D01*
X-127201Y-151753D01*
X-127323Y-152680D01*
X-127201Y-153608D01*
X-126843Y-154472D01*
X-126274Y-155214D01*
X-125532Y-155784D01*
X-124712Y-156123D01*
X-124810Y-156614D01*
X-132671D01*
X-132768Y-156123D01*
X-131948Y-155784D01*
X-131206Y-155214D01*
X-130637Y-154472D01*
X-130279Y-153608D01*
X-130157Y-152680D01*
X-130279Y-151753D01*
X-130637Y-150889D01*
X-130643Y-150881D01*
X-128251Y-148489D01*
X-128052Y-148191D01*
X-127982Y-147840D01*
Y-136776D01*
X-127541Y-136481D01*
Y-136481D01*
X-127541Y-136481D01*
X-127541Y-136481D01*
Y-136481D01*
X-127045Y-136813D01*
X-126460Y-136929D01*
X-125874Y-136813D01*
X-125378Y-136481D01*
X-125047Y-135985D01*
X-124930Y-135400D01*
X-124969Y-135207D01*
X-124860Y-135098D01*
X-118052D01*
X-117907Y-135576D01*
X-117989Y-135631D01*
X-121941Y-139583D01*
X-121948Y-139577D01*
X-122813Y-139219D01*
X-123740Y-139097D01*
X-124668Y-139219D01*
X-125532Y-139577D01*
X-126274Y-140147D01*
X-126843Y-140889D01*
X-127201Y-141753D01*
X-127323Y-142680D01*
X-127201Y-143608D01*
X-126843Y-144472D01*
X-126274Y-145214D01*
X-125532Y-145784D01*
X-124668Y-146142D01*
X-123740Y-146264D01*
X-122813Y-146142D01*
X-121948Y-145784D01*
X-121206Y-145214D01*
X-120637Y-144472D01*
X-120279Y-143608D01*
X-120157Y-142680D01*
X-120279Y-141753D01*
X-120637Y-140889D01*
X-120643Y-140881D01*
X-116960Y-137198D01*
X-110209D01*
X-110017Y-137660D01*
X-111941Y-139583D01*
X-111948Y-139577D01*
X-112813Y-139219D01*
X-113740Y-139097D01*
X-114668Y-139219D01*
X-115532Y-139577D01*
X-116274Y-140147D01*
X-116843Y-140889D01*
X-117201Y-141753D01*
X-117324Y-142680D01*
X-117201Y-143608D01*
X-116843Y-144472D01*
X-116274Y-145214D01*
X-115532Y-145784D01*
X-114668Y-146142D01*
X-113740Y-146264D01*
X-112813Y-146142D01*
X-111948Y-145784D01*
X-111206Y-145214D01*
X-110637Y-144472D01*
X-110279Y-143608D01*
X-110157Y-142680D01*
X-110279Y-141753D01*
X-110637Y-140889D01*
X-110643Y-140881D01*
X-108760Y-138998D01*
X-105415D01*
X-105318Y-139488D01*
X-105532Y-139577D01*
X-106274Y-140147D01*
X-106843Y-140889D01*
X-107201Y-141753D01*
X-107324Y-142680D01*
X-107201Y-143608D01*
X-106843Y-144472D01*
X-106274Y-145214D01*
X-105532Y-145784D01*
X-104668Y-146142D01*
X-103740Y-146264D01*
X-102813Y-146142D01*
X-101948Y-145784D01*
X-101206Y-145214D01*
X-100637Y-144472D01*
X-100279Y-143608D01*
X-100157Y-142680D01*
X-100279Y-141753D01*
X-100637Y-140889D01*
X-101206Y-140147D01*
X-101948Y-139577D01*
X-102163Y-139488D01*
X-102065Y-138998D01*
X-95415D01*
X-95318Y-139488D01*
X-95532Y-139577D01*
X-96274Y-140147D01*
X-96843Y-140889D01*
X-97201Y-141753D01*
X-97324Y-142680D01*
X-97201Y-143608D01*
X-96843Y-144472D01*
X-96274Y-145214D01*
X-95532Y-145784D01*
X-94668Y-146142D01*
X-93740Y-146264D01*
X-92813Y-146142D01*
X-91948Y-145784D01*
X-91206Y-145214D01*
X-90637Y-144472D01*
X-90279Y-143608D01*
X-90157Y-142680D01*
X-90279Y-141753D01*
X-90637Y-140889D01*
X-91206Y-140147D01*
X-91948Y-139577D01*
X-92163Y-139488D01*
X-92065Y-138998D01*
X-85415D01*
X-85318Y-139488D01*
X-85532Y-139577D01*
X-86274Y-140147D01*
X-86843Y-140889D01*
X-87201Y-141753D01*
X-87323Y-142680D01*
X-87201Y-143608D01*
X-86843Y-144472D01*
X-86274Y-145214D01*
X-85532Y-145784D01*
X-84668Y-146142D01*
X-83740Y-146264D01*
X-82813Y-146142D01*
X-81948Y-145784D01*
X-81206Y-145214D01*
X-80637Y-144472D01*
X-80279Y-143608D01*
X-80157Y-142680D01*
X-80279Y-141753D01*
X-80637Y-140889D01*
X-81206Y-140147D01*
X-81948Y-139577D01*
X-82162Y-139488D01*
X-82065Y-138998D01*
X-78171D01*
X-78062Y-139162D01*
X-77566Y-139493D01*
X-76980Y-139610D01*
X-76395Y-139493D01*
X-75899Y-139162D01*
X-75567Y-138666D01*
X-75451Y-138080D01*
X-75567Y-137495D01*
X-75409Y-137198D01*
X-72671D01*
X-72562Y-137362D01*
X-72066Y-137693D01*
X-71480Y-137810D01*
X-70895Y-137693D01*
X-70399Y-137362D01*
X-70067Y-136866D01*
X-69951Y-136280D01*
X-70067Y-135695D01*
X-70399Y-135199D01*
X-70895Y-134867D01*
X-71480Y-134751D01*
X-71647Y-134784D01*
X-72001Y-134431D01*
X-71951Y-134180D01*
X-71958Y-134146D01*
X-71604Y-133793D01*
X-71520Y-133810D01*
X-70934Y-133693D01*
X-70438Y-133362D01*
X-70107Y-132866D01*
X-69990Y-132280D01*
X-70107Y-131695D01*
X-70438Y-131199D01*
X-70934Y-130867D01*
X-71520Y-130751D01*
X-72105Y-130867D01*
X-72601Y-131199D01*
X-72711Y-131363D01*
X-127280D01*
X-127631Y-131432D01*
X-127929Y-131631D01*
X-129549Y-133251D01*
X-129748Y-133549D01*
X-129818Y-133900D01*
Y-141585D01*
X-130308Y-141682D01*
X-130637Y-140889D01*
X-131206Y-140147D01*
X-131948Y-139577D01*
X-132813Y-139219D01*
X-133740Y-139097D01*
X-134668Y-139219D01*
X-135532Y-139577D01*
X-136274Y-140147D01*
X-136843Y-140889D01*
X-137201Y-141753D01*
X-137323Y-142680D01*
X-137201Y-143608D01*
X-136843Y-144472D01*
X-136274Y-145214D01*
X-135532Y-145784D01*
X-134668Y-146142D01*
X-133740Y-146264D01*
X-132813Y-146142D01*
X-131948Y-145784D01*
X-131206Y-145214D01*
X-130637Y-144472D01*
X-130308Y-143678D01*
X-129818Y-143776D01*
Y-147460D01*
X-131941Y-149583D01*
X-131948Y-149577D01*
X-132813Y-149219D01*
X-133740Y-149097D01*
X-134668Y-149219D01*
X-135532Y-149577D01*
X-136274Y-150146D01*
X-136843Y-150889D01*
X-137201Y-151753D01*
X-137323Y-152680D01*
X-137201Y-153608D01*
X-136843Y-154472D01*
X-136274Y-155214D01*
X-135532Y-155784D01*
X-134712Y-156123D01*
X-134810Y-156614D01*
X-141931D01*
X-142099Y-156143D01*
X-141340Y-155520D01*
X-140085Y-153990D01*
X-139152Y-152244D01*
X-138577Y-150350D01*
X-138383Y-148380D01*
X-138577Y-146411D01*
X-139152Y-144516D01*
X-140085Y-142771D01*
X-141340Y-141240D01*
X-142871Y-139985D01*
X-144616Y-139052D01*
X-146511Y-138477D01*
X-148480Y-138283D01*
X-150450Y-138477D01*
X-152345Y-139052D01*
X-154090Y-139985D01*
X-155620Y-141240D01*
X-156143Y-141877D01*
X-156614Y-141709D01*
Y-15652D01*
X-156143Y-15483D01*
X-155620Y-16120D01*
X-154090Y-17376D01*
X-152345Y-18309D01*
X-150450Y-18884D01*
X-148480Y-19078D01*
X-146511Y-18884D01*
X-144616Y-18309D01*
X-142871Y-17376D01*
X-141340Y-16120D01*
X-140085Y-14590D01*
X-139152Y-12844D01*
X-138577Y-10950D01*
X-138383Y-8980D01*
X-138577Y-7010D01*
X-139152Y-5116D01*
X-140085Y-3370D01*
X-141340Y-1840D01*
X-141953Y-1338D01*
X-141785Y-867D01*
X-15554D01*
X-15386Y-1338D01*
D02*
G37*
%LPC*%
G36*
X244114Y-51253D02*
X244024D01*
X243102Y-51436D01*
X242321Y-51958D01*
X241798Y-52740D01*
X241715Y-53161D01*
X244114D01*
Y-51253D01*
D02*
G37*
G36*
X245205D02*
X245114D01*
Y-53161D01*
X247514D01*
X247430Y-52740D01*
X246908Y-51958D01*
X246126Y-51436D01*
X245205Y-51253D01*
D02*
G37*
G36*
X244114Y-54161D02*
X241715D01*
X241798Y-54583D01*
X242321Y-55365D01*
X243102Y-55887D01*
X244024Y-56070D01*
X244114D01*
Y-54161D01*
D02*
G37*
G36*
X247514D02*
X245114D01*
Y-56070D01*
X245205D01*
X246126Y-55887D01*
X246908Y-55365D01*
X247430Y-54583D01*
X247514Y-54161D01*
D02*
G37*
G36*
X232283Y-61928D02*
X230920Y-62062D01*
X229609Y-62460D01*
X228400Y-63106D01*
X227341Y-63975D01*
X226472Y-65034D01*
X225826Y-66243D01*
X225429Y-67554D01*
X225294Y-68917D01*
X225429Y-70281D01*
X225826Y-71592D01*
X226472Y-72800D01*
X227341Y-73859D01*
X228400Y-74729D01*
X229609Y-75375D01*
X230920Y-75772D01*
X232283Y-75906D01*
X233647Y-75772D01*
X234958Y-75375D01*
X236166Y-74729D01*
X237226Y-73859D01*
X238095Y-72800D01*
X238741Y-71592D01*
X239138Y-70281D01*
X239273Y-68917D01*
X239138Y-67554D01*
X238741Y-66243D01*
X238095Y-65034D01*
X237226Y-63975D01*
X236166Y-63106D01*
X234958Y-62460D01*
X233647Y-62062D01*
X232283Y-61928D01*
D02*
G37*
G36*
X236372Y-30343D02*
X234563D01*
Y-32151D01*
X234985Y-32068D01*
X235766Y-31546D01*
X236288Y-30764D01*
X236372Y-30343D01*
D02*
G37*
G36*
X233563Y-27534D02*
X233141Y-27617D01*
X232360Y-28139D01*
X231838Y-28921D01*
X231754Y-29342D01*
X233563D01*
Y-27534D01*
D02*
G37*
G36*
Y-30343D02*
X231754D01*
X231838Y-30764D01*
X232360Y-31546D01*
X233141Y-32068D01*
X233563Y-32151D01*
Y-30343D01*
D02*
G37*
G36*
X247514Y-25618D02*
X245114D01*
Y-27527D01*
X245205D01*
X246126Y-27343D01*
X246908Y-26821D01*
X247430Y-26040D01*
X247514Y-25618D01*
D02*
G37*
G36*
X244114Y-22710D02*
X244024D01*
X243102Y-22893D01*
X242321Y-23415D01*
X241798Y-24196D01*
X241715Y-24618D01*
X244114D01*
Y-22710D01*
D02*
G37*
G36*
X234563Y-27534D02*
Y-29342D01*
X236372D01*
X236288Y-28921D01*
X235766Y-28139D01*
X234985Y-27617D01*
X234563Y-27534D01*
D02*
G37*
G36*
X244114Y-25618D02*
X241715D01*
X241798Y-26040D01*
X242321Y-26821D01*
X243102Y-27343D01*
X244024Y-27527D01*
X244114D01*
Y-25618D01*
D02*
G37*
G36*
X233563Y-49437D02*
X231754D01*
X231838Y-49859D01*
X232360Y-50640D01*
X233141Y-51162D01*
X233563Y-51246D01*
Y-49437D01*
D02*
G37*
G36*
X234563Y-46628D02*
Y-48437D01*
X236372D01*
X236288Y-48015D01*
X235766Y-47234D01*
X234985Y-46712D01*
X234563Y-46628D01*
D02*
G37*
G36*
X236372Y-49437D02*
X234563D01*
Y-51246D01*
X234985Y-51162D01*
X235766Y-50640D01*
X236288Y-49859D01*
X236372Y-49437D01*
D02*
G37*
G36*
X233563Y-46628D02*
X233141Y-46712D01*
X232360Y-47234D01*
X231838Y-48015D01*
X231754Y-48437D01*
X233563D01*
Y-46628D01*
D02*
G37*
G36*
X245205Y-22710D02*
X245114D01*
Y-24618D01*
X247514D01*
X247430Y-24196D01*
X246908Y-23415D01*
X246126Y-22893D01*
X245205Y-22710D01*
D02*
G37*
G36*
X232283Y-2873D02*
X230920Y-3007D01*
X229609Y-3405D01*
X228400Y-4051D01*
X227341Y-4920D01*
X226472Y-5979D01*
X225826Y-7188D01*
X225429Y-8499D01*
X225294Y-9862D01*
X225429Y-11226D01*
X225826Y-12537D01*
X226472Y-13745D01*
X227341Y-14804D01*
X228400Y-15674D01*
X229609Y-16319D01*
X230920Y-16717D01*
X232283Y-16851D01*
X233647Y-16717D01*
X234958Y-16319D01*
X236166Y-15674D01*
X237226Y-14804D01*
X238095Y-13745D01*
X238741Y-12537D01*
X239138Y-11226D01*
X239273Y-9862D01*
X239138Y-8499D01*
X238741Y-7188D01*
X238095Y-5979D01*
X237226Y-4920D01*
X236166Y-4051D01*
X234958Y-3405D01*
X233647Y-3007D01*
X232283Y-2873D01*
D02*
G37*
G36*
X244114Y53122D02*
X241715D01*
X241798Y52700D01*
X242321Y51919D01*
X243102Y51397D01*
X244024Y51214D01*
X244114D01*
Y53122D01*
D02*
G37*
G36*
X247514D02*
X245114D01*
Y51214D01*
X245205D01*
X246126Y51397D01*
X246908Y51919D01*
X247430Y52700D01*
X247514Y53122D01*
D02*
G37*
G36*
X233563Y51207D02*
X233141Y51123D01*
X232360Y50601D01*
X231838Y49819D01*
X231754Y49398D01*
X233563D01*
Y51207D01*
D02*
G37*
G36*
X234563D02*
Y49398D01*
X236372D01*
X236288Y49819D01*
X235766Y50601D01*
X234985Y51123D01*
X234563Y51207D01*
D02*
G37*
G36*
X232283Y75867D02*
X230920Y75733D01*
X229609Y75335D01*
X228400Y74689D01*
X227341Y73820D01*
X226472Y72761D01*
X225826Y71553D01*
X225429Y70241D01*
X225294Y68878D01*
X225429Y67514D01*
X225826Y66203D01*
X226472Y64995D01*
X227341Y63936D01*
X228400Y63067D01*
X229609Y62421D01*
X230920Y62023D01*
X232283Y61889D01*
X233647Y62023D01*
X234958Y62421D01*
X236166Y63067D01*
X237226Y63936D01*
X238095Y64995D01*
X238741Y66203D01*
X239138Y67514D01*
X239273Y68878D01*
X239138Y70241D01*
X238741Y71553D01*
X238095Y72761D01*
X237226Y73820D01*
X236166Y74689D01*
X234958Y75335D01*
X233647Y75733D01*
X232283Y75867D01*
D02*
G37*
G36*
X244114Y56030D02*
X244024D01*
X243102Y55847D01*
X242321Y55325D01*
X241798Y54544D01*
X241715Y54122D01*
X244114D01*
Y56030D01*
D02*
G37*
G36*
X245205D02*
X245114D01*
Y54122D01*
X247514D01*
X247430Y54544D01*
X246908Y55325D01*
X246126Y55847D01*
X245205Y56030D01*
D02*
G37*
G36*
X233563Y29303D02*
X231754D01*
X231838Y28881D01*
X232360Y28100D01*
X233141Y27578D01*
X233563Y27494D01*
Y29303D01*
D02*
G37*
G36*
X236372D02*
X234563D01*
Y27494D01*
X234985Y27578D01*
X235766Y28100D01*
X236288Y28881D01*
X236372Y29303D01*
D02*
G37*
G36*
X244114Y27487D02*
X244024D01*
X243102Y27304D01*
X242321Y26782D01*
X241798Y26000D01*
X241715Y25579D01*
X244114D01*
Y27487D01*
D02*
G37*
G36*
X245205D02*
X245114D01*
Y25579D01*
X247514D01*
X247430Y26000D01*
X246908Y26782D01*
X246126Y27304D01*
X245205Y27487D01*
D02*
G37*
G36*
X233563Y48398D02*
X231754D01*
X231838Y47976D01*
X232360Y47195D01*
X233141Y46672D01*
X233563Y46589D01*
Y48398D01*
D02*
G37*
G36*
X236372D02*
X234563D01*
Y46589D01*
X234985Y46672D01*
X235766Y47195D01*
X236288Y47976D01*
X236372Y48398D01*
D02*
G37*
G36*
X233563Y32112D02*
X233141Y32028D01*
X232360Y31506D01*
X231838Y30725D01*
X231754Y30303D01*
X233563D01*
Y32112D01*
D02*
G37*
G36*
X234563D02*
Y30303D01*
X236372D01*
X236288Y30725D01*
X235766Y31506D01*
X234985Y32028D01*
X234563Y32112D01*
D02*
G37*
G36*
X247514Y24579D02*
X245114D01*
Y22670D01*
X245205D01*
X246126Y22854D01*
X246908Y23376D01*
X247430Y24157D01*
X247514Y24579D01*
D02*
G37*
G36*
X232283Y16812D02*
X230920Y16678D01*
X229609Y16280D01*
X228400Y15634D01*
X227341Y14765D01*
X226472Y13706D01*
X225826Y12498D01*
X225429Y11186D01*
X225294Y9823D01*
X225429Y8459D01*
X225826Y7148D01*
X226472Y5940D01*
X227341Y4881D01*
X228400Y4011D01*
X229609Y3366D01*
X230920Y2968D01*
X232283Y2834D01*
X233647Y2968D01*
X234958Y3366D01*
X236166Y4011D01*
X237226Y4881D01*
X238095Y5940D01*
X238741Y7148D01*
X239138Y8459D01*
X239273Y9823D01*
X239138Y11186D01*
X238741Y12498D01*
X238095Y13706D01*
X237226Y14765D01*
X236166Y15634D01*
X234958Y16280D01*
X233647Y16678D01*
X232283Y16812D01*
D02*
G37*
G36*
X244114Y24579D02*
X241715D01*
X241798Y24157D01*
X242321Y23376D01*
X243102Y22854D01*
X244024Y22670D01*
X244114D01*
Y24579D01*
D02*
G37*
G36*
X232283Y-81613D02*
X230920Y-81748D01*
X229609Y-82145D01*
X228400Y-82791D01*
X227341Y-83660D01*
X226472Y-84719D01*
X225826Y-85928D01*
X225429Y-87239D01*
X225294Y-88602D01*
X225429Y-89966D01*
X225826Y-91277D01*
X226472Y-92485D01*
X227341Y-93544D01*
X228400Y-94414D01*
X229609Y-95060D01*
X230920Y-95457D01*
X232283Y-95591D01*
X233647Y-95457D01*
X234958Y-95060D01*
X236166Y-94414D01*
X237226Y-93544D01*
X238095Y-92485D01*
X238741Y-91277D01*
X239138Y-89966D01*
X239273Y-88602D01*
X239138Y-87239D01*
X238741Y-85928D01*
X238095Y-84719D01*
X237226Y-83660D01*
X236166Y-82791D01*
X234958Y-82145D01*
X233647Y-81748D01*
X232283Y-81613D01*
D02*
G37*
G36*
X233563Y-106274D02*
X233141Y-106358D01*
X232360Y-106880D01*
X231838Y-107661D01*
X231754Y-108083D01*
X233563D01*
Y-106274D01*
D02*
G37*
G36*
X234563D02*
Y-108083D01*
X236372D01*
X236288Y-107661D01*
X235766Y-106880D01*
X234985Y-106358D01*
X234563Y-106274D01*
D02*
G37*
G36*
X244114Y-101450D02*
X244024D01*
X243102Y-101633D01*
X242321Y-102155D01*
X241798Y-102937D01*
X241715Y-103358D01*
X244114D01*
Y-101450D01*
D02*
G37*
G36*
X245205D02*
X245114D01*
Y-103358D01*
X247514D01*
X247430Y-102937D01*
X246908Y-102155D01*
X246126Y-101633D01*
X245205Y-101450D01*
D02*
G37*
G36*
X244114Y-104358D02*
X241715D01*
X241798Y-104780D01*
X242321Y-105561D01*
X243102Y-106083D01*
X244024Y-106267D01*
X244114D01*
Y-104358D01*
D02*
G37*
G36*
X247514D02*
X245114D01*
Y-106267D01*
X245205D01*
X246126Y-106083D01*
X246908Y-105561D01*
X247430Y-104780D01*
X247514Y-104358D01*
D02*
G37*
G36*
X232283Y-140668D02*
X230920Y-140803D01*
X229609Y-141200D01*
X228400Y-141846D01*
X227341Y-142715D01*
X226472Y-143774D01*
X225826Y-144983D01*
X225429Y-146294D01*
X225294Y-147658D01*
X225429Y-149021D01*
X225826Y-150332D01*
X226472Y-151541D01*
X227341Y-152600D01*
X228400Y-153469D01*
X229609Y-154115D01*
X230920Y-154512D01*
X232283Y-154647D01*
X233647Y-154512D01*
X234958Y-154115D01*
X236166Y-153469D01*
X237226Y-152600D01*
X238095Y-151541D01*
X238741Y-150332D01*
X239138Y-149021D01*
X239273Y-147658D01*
X239138Y-146294D01*
X238741Y-144983D01*
X238095Y-143774D01*
X237226Y-142715D01*
X236166Y-141846D01*
X234958Y-141200D01*
X233647Y-140803D01*
X232283Y-140668D01*
D02*
G37*
G36*
X233563Y-125368D02*
X233141Y-125452D01*
X232360Y-125974D01*
X231838Y-126755D01*
X231754Y-127177D01*
X233563D01*
Y-125368D01*
D02*
G37*
G36*
X234563D02*
Y-127177D01*
X236372D01*
X236288Y-126755D01*
X235766Y-125974D01*
X234985Y-125452D01*
X234563Y-125368D01*
D02*
G37*
G36*
X233563Y-109083D02*
X231754D01*
X231838Y-109504D01*
X232360Y-110286D01*
X233141Y-110808D01*
X233563Y-110892D01*
Y-109083D01*
D02*
G37*
G36*
X236372D02*
X234563D01*
Y-110892D01*
X234985Y-110808D01*
X235766Y-110286D01*
X236288Y-109504D01*
X236372Y-109083D01*
D02*
G37*
G36*
X236372Y-128177D02*
X234563D01*
Y-129986D01*
X234985Y-129902D01*
X235766Y-129380D01*
X236288Y-128599D01*
X236372Y-128177D01*
D02*
G37*
G36*
X244114Y-132902D02*
X241715D01*
X241798Y-133323D01*
X242321Y-134105D01*
X243102Y-134627D01*
X244024Y-134810D01*
X244114D01*
Y-132902D01*
D02*
G37*
G36*
X245205Y-129993D02*
X245114D01*
Y-131902D01*
X247514D01*
X247430Y-131480D01*
X246908Y-130699D01*
X246126Y-130176D01*
X245205Y-129993D01*
D02*
G37*
G36*
X233563Y-128177D02*
X231754D01*
X231838Y-128599D01*
X232360Y-129380D01*
X233141Y-129902D01*
X233563Y-129986D01*
Y-128177D01*
D02*
G37*
G36*
X247514Y-132902D02*
X245114D01*
Y-134810D01*
X245205D01*
X246126Y-134627D01*
X246908Y-134105D01*
X247430Y-133323D01*
X247514Y-132902D01*
D02*
G37*
G36*
X244114Y-129993D02*
X244024D01*
X243102Y-130176D01*
X242321Y-130699D01*
X241798Y-131480D01*
X241715Y-131902D01*
X244114D01*
Y-129993D01*
D02*
G37*
G36*
X232283Y95552D02*
X230920Y95418D01*
X229609Y95020D01*
X228400Y94374D01*
X227341Y93505D01*
X226472Y92446D01*
X225826Y91238D01*
X225429Y89926D01*
X225294Y88563D01*
X225429Y87199D01*
X225826Y85888D01*
X226472Y84680D01*
X227341Y83621D01*
X228400Y82752D01*
X229609Y82106D01*
X230920Y81708D01*
X232283Y81574D01*
X233647Y81708D01*
X234958Y82106D01*
X236166Y82752D01*
X237226Y83621D01*
X238095Y84680D01*
X238741Y85888D01*
X239138Y87199D01*
X239273Y88563D01*
X239138Y89926D01*
X238741Y91238D01*
X238095Y92446D01*
X237226Y93505D01*
X236166Y94374D01*
X234958Y95020D01*
X233647Y95418D01*
X232283Y95552D01*
D02*
G37*
G36*
X244114Y103319D02*
X241715D01*
X241798Y102897D01*
X242321Y102116D01*
X243102Y101594D01*
X244024Y101410D01*
X244114D01*
Y103319D01*
D02*
G37*
G36*
X234563Y129947D02*
Y128138D01*
X236372D01*
X236288Y128560D01*
X235766Y129341D01*
X234985Y129863D01*
X234563Y129947D01*
D02*
G37*
G36*
X244114Y131862D02*
X241715D01*
X241798Y131440D01*
X242321Y130659D01*
X243102Y130137D01*
X244024Y129954D01*
X244114D01*
Y131862D01*
D02*
G37*
G36*
X236372Y127138D02*
X234563D01*
Y125329D01*
X234985Y125413D01*
X235766Y125935D01*
X236288Y126716D01*
X236372Y127138D01*
D02*
G37*
G36*
X233563Y129947D02*
X233141Y129863D01*
X232360Y129341D01*
X231838Y128560D01*
X231754Y128138D01*
X233563D01*
Y129947D01*
D02*
G37*
G36*
X245205Y134771D02*
X245114D01*
Y132862D01*
X247514D01*
X247430Y133284D01*
X246908Y134065D01*
X246126Y134587D01*
X245205Y134771D01*
D02*
G37*
G36*
X232283Y154607D02*
X230920Y154473D01*
X229609Y154075D01*
X228400Y153429D01*
X227341Y152560D01*
X226472Y151501D01*
X225826Y150293D01*
X225429Y148982D01*
X225294Y147618D01*
X225429Y146255D01*
X225826Y144943D01*
X226472Y143735D01*
X227341Y142676D01*
X228400Y141807D01*
X229609Y141161D01*
X230920Y140763D01*
X232283Y140629D01*
X233647Y140763D01*
X234958Y141161D01*
X236166Y141807D01*
X237226Y142676D01*
X238095Y143735D01*
X238741Y144943D01*
X239138Y146255D01*
X239273Y147618D01*
X239138Y148982D01*
X238741Y150293D01*
X238095Y151501D01*
X237226Y152560D01*
X236166Y153429D01*
X234958Y154075D01*
X233647Y154473D01*
X232283Y154607D01*
D02*
G37*
G36*
X247514Y131862D02*
X245114D01*
Y129954D01*
X245205D01*
X246126Y130137D01*
X246908Y130659D01*
X247430Y131440D01*
X247514Y131862D01*
D02*
G37*
G36*
X244114Y134771D02*
X244024D01*
X243102Y134587D01*
X242321Y134065D01*
X241798Y133284D01*
X241715Y132862D01*
X244114D01*
Y134771D01*
D02*
G37*
G36*
X245205Y106227D02*
X245114D01*
Y104319D01*
X247514D01*
X247430Y104741D01*
X246908Y105522D01*
X246126Y106044D01*
X245205Y106227D01*
D02*
G37*
G36*
X233563Y108043D02*
X231754D01*
X231838Y107622D01*
X232360Y106840D01*
X233141Y106318D01*
X233563Y106234D01*
Y108043D01*
D02*
G37*
G36*
X247514Y103319D02*
X245114D01*
Y101410D01*
X245205D01*
X246126Y101594D01*
X246908Y102116D01*
X247430Y102897D01*
X247514Y103319D01*
D02*
G37*
G36*
X244114Y106227D02*
X244024D01*
X243102Y106044D01*
X242321Y105522D01*
X241798Y104741D01*
X241715Y104319D01*
X244114D01*
Y106227D01*
D02*
G37*
G36*
X234563Y110852D02*
Y109043D01*
X236372D01*
X236288Y109465D01*
X235766Y110246D01*
X234985Y110768D01*
X234563Y110852D01*
D02*
G37*
G36*
X233563Y127138D02*
X231754D01*
X231838Y126716D01*
X232360Y125935D01*
X233141Y125413D01*
X233563Y125329D01*
Y127138D01*
D02*
G37*
G36*
X236372Y108043D02*
X234563D01*
Y106234D01*
X234985Y106318D01*
X235766Y106840D01*
X236288Y107622D01*
X236372Y108043D01*
D02*
G37*
G36*
X233563Y110852D02*
X233141Y110768D01*
X232360Y110246D01*
X231838Y109465D01*
X231754Y109043D01*
X233563D01*
Y110852D01*
D02*
G37*
G36*
X-11248Y-105223D02*
X-11676Y-105279D01*
X-12540Y-105637D01*
X-13282Y-106206D01*
X-13851Y-106948D01*
X-14209Y-107813D01*
X-14266Y-108240D01*
X-11248D01*
Y-105223D01*
D02*
G37*
G36*
X-10248D02*
Y-108240D01*
X-7231D01*
X-7287Y-107813D01*
X-7645Y-106948D01*
X-8214Y-106206D01*
X-8956Y-105637D01*
X-9821Y-105279D01*
X-10248Y-105223D01*
D02*
G37*
G36*
X-24240Y-149128D02*
X-27293D01*
Y-152180D01*
X-24240D01*
Y-149128D01*
D02*
G37*
G36*
X-20187D02*
X-23240D01*
Y-152180D01*
X-20187D01*
Y-149128D01*
D02*
G37*
G36*
X-32080Y-117249D02*
X-32705Y-117373D01*
X-33234Y-117727D01*
X-33588Y-118256D01*
X-33712Y-118880D01*
Y-121680D01*
X-33588Y-122305D01*
X-33234Y-122834D01*
X-25372Y-130696D01*
Y-139128D01*
X-27293D01*
Y-146233D01*
X-20187D01*
Y-139128D01*
X-22109D01*
Y-130020D01*
X-22233Y-129396D01*
X-22587Y-128867D01*
X-30449Y-121005D01*
Y-118880D01*
X-30573Y-118256D01*
X-30927Y-117727D01*
X-31456Y-117373D01*
X-32080Y-117249D01*
D02*
G37*
G36*
X-33740Y-139097D02*
X-34668Y-139219D01*
X-35532Y-139577D01*
X-36274Y-140147D01*
X-36843Y-140889D01*
X-37201Y-141753D01*
X-37323Y-142680D01*
X-37201Y-143608D01*
X-36843Y-144472D01*
X-36274Y-145214D01*
X-35532Y-145784D01*
X-34668Y-146142D01*
X-33740Y-146264D01*
X-32813Y-146142D01*
X-31948Y-145784D01*
X-31206Y-145214D01*
X-30637Y-144472D01*
X-30279Y-143608D01*
X-30157Y-142680D01*
X-30279Y-141753D01*
X-30637Y-140889D01*
X-31206Y-140147D01*
X-31948Y-139577D01*
X-32813Y-139219D01*
X-33740Y-139097D01*
D02*
G37*
G36*
X-33240Y-149163D02*
Y-152180D01*
X-30222D01*
X-30279Y-151753D01*
X-30637Y-150889D01*
X-31206Y-150146D01*
X-31948Y-149577D01*
X-32813Y-149219D01*
X-33240Y-149163D01*
D02*
G37*
G36*
X-34240D02*
X-34668Y-149219D01*
X-35532Y-149577D01*
X-36274Y-150146D01*
X-36843Y-150889D01*
X-37201Y-151753D01*
X-37258Y-152180D01*
X-34240D01*
Y-149163D01*
D02*
G37*
G36*
X-20748Y-105157D02*
X-21676Y-105279D01*
X-22540Y-105637D01*
X-23282Y-106206D01*
X-23851Y-106948D01*
X-24209Y-107813D01*
X-24331Y-108740D01*
X-24209Y-109668D01*
X-23851Y-110532D01*
X-23282Y-111274D01*
X-22540Y-111844D01*
X-21676Y-112201D01*
X-20748Y-112324D01*
X-19821Y-112201D01*
X-18956Y-111844D01*
X-18214Y-111274D01*
X-17645Y-110532D01*
X-17287Y-109668D01*
X-17165Y-108740D01*
X-17287Y-107813D01*
X-17645Y-106948D01*
X-18214Y-106206D01*
X-18956Y-105637D01*
X-19821Y-105279D01*
X-20748Y-105157D01*
D02*
G37*
G36*
X-11248Y-109240D02*
X-14266D01*
X-14209Y-109668D01*
X-13851Y-110532D01*
X-13282Y-111274D01*
X-12540Y-111844D01*
X-11676Y-112201D01*
X-11248Y-112258D01*
Y-109240D01*
D02*
G37*
G36*
X-7231D02*
X-10248D01*
Y-112258D01*
X-9821Y-112201D01*
X-8956Y-111844D01*
X-8214Y-111274D01*
X-7645Y-110532D01*
X-7287Y-109668D01*
X-7231Y-109240D01*
D02*
G37*
G36*
X-82842Y-83516D02*
X-83662Y-83679D01*
X-84356Y-84144D01*
X-84821Y-84838D01*
X-84984Y-85658D01*
Y-97342D01*
X-84821Y-98162D01*
X-84356Y-98857D01*
X-83662Y-99321D01*
X-82842Y-99484D01*
X-82023Y-99321D01*
X-81328Y-98857D01*
X-80864Y-98162D01*
X-80701Y-97342D01*
Y-85658D01*
X-80864Y-84838D01*
X-81328Y-84144D01*
X-82023Y-83679D01*
X-82842Y-83516D01*
D02*
G37*
G36*
X-20748Y-95157D02*
X-21676Y-95279D01*
X-22540Y-95637D01*
X-23282Y-96206D01*
X-23851Y-96948D01*
X-24209Y-97813D01*
X-24331Y-98740D01*
X-24209Y-99668D01*
X-23851Y-100532D01*
X-23282Y-101274D01*
X-22540Y-101844D01*
X-21676Y-102201D01*
X-20748Y-102324D01*
X-19821Y-102201D01*
X-18956Y-101844D01*
X-18214Y-101274D01*
X-17645Y-100532D01*
X-17287Y-99668D01*
X-17165Y-98740D01*
X-17287Y-97813D01*
X-17645Y-96948D01*
X-18214Y-96206D01*
X-18956Y-95637D01*
X-19821Y-95279D01*
X-20748Y-95157D01*
D02*
G37*
G36*
X-79000Y-72971D02*
X-79585Y-73087D01*
X-80081Y-73419D01*
X-80413Y-73915D01*
X-80529Y-74500D01*
X-80413Y-75085D01*
X-80081Y-75581D01*
X-79585Y-75913D01*
X-79071Y-76015D01*
X-72622Y-82465D01*
Y-89479D01*
X-72913Y-89915D01*
X-73029Y-90500D01*
X-72913Y-91085D01*
X-72581Y-91581D01*
X-72085Y-91913D01*
X-71500Y-92029D01*
X-70915Y-91913D01*
X-70419Y-91581D01*
X-70087Y-91085D01*
X-69971Y-90500D01*
X-70087Y-89915D01*
X-70378Y-89479D01*
Y-82000D01*
X-70464Y-81571D01*
X-70707Y-81207D01*
X-70707Y-81207D01*
X-77485Y-74429D01*
X-77587Y-73915D01*
X-77919Y-73419D01*
X-78415Y-73087D01*
X-79000Y-72971D01*
D02*
G37*
G36*
X-10748Y-85157D02*
X-11676Y-85279D01*
X-12540Y-85637D01*
X-13282Y-86206D01*
X-13851Y-86949D01*
X-14209Y-87813D01*
X-14331Y-88740D01*
X-14209Y-89668D01*
X-13851Y-90532D01*
X-13282Y-91274D01*
X-12540Y-91843D01*
X-11676Y-92202D01*
X-10748Y-92324D01*
X-9821Y-92202D01*
X-8956Y-91843D01*
X-8214Y-91274D01*
X-7645Y-90532D01*
X-7287Y-89668D01*
X-7165Y-88740D01*
X-7287Y-87813D01*
X-7645Y-86949D01*
X-8214Y-86206D01*
X-8956Y-85637D01*
X-9821Y-85279D01*
X-10748Y-85157D01*
D02*
G37*
G36*
X-20748D02*
X-21676Y-85279D01*
X-22540Y-85637D01*
X-23282Y-86206D01*
X-23851Y-86949D01*
X-24209Y-87813D01*
X-24331Y-88740D01*
X-24209Y-89668D01*
X-23851Y-90532D01*
X-23282Y-91274D01*
X-22540Y-91843D01*
X-21676Y-92202D01*
X-20748Y-92324D01*
X-19821Y-92202D01*
X-18956Y-91843D01*
X-18214Y-91274D01*
X-17645Y-90532D01*
X-17287Y-89668D01*
X-17165Y-88740D01*
X-17287Y-87813D01*
X-17645Y-86949D01*
X-18214Y-86206D01*
X-18956Y-85637D01*
X-19821Y-85279D01*
X-20748Y-85157D01*
D02*
G37*
G36*
X-52000Y-106471D02*
X-52585Y-106587D01*
X-53081Y-106919D01*
X-53123Y-106980D01*
X-85377D01*
X-85419Y-106919D01*
X-85915Y-106587D01*
X-86500Y-106471D01*
X-87085Y-106587D01*
X-87581Y-106919D01*
X-87913Y-107415D01*
X-88029Y-108000D01*
X-87913Y-108585D01*
X-87581Y-109081D01*
X-87085Y-109413D01*
X-86500Y-109529D01*
X-85915Y-109413D01*
X-85419Y-109081D01*
X-85377Y-109020D01*
X-53123D01*
X-53081Y-109081D01*
X-52585Y-109413D01*
X-52000Y-109529D01*
X-51415Y-109413D01*
X-50919Y-109081D01*
X-50587Y-108585D01*
X-50471Y-108000D01*
X-50587Y-107415D01*
X-50919Y-106919D01*
X-51415Y-106587D01*
X-52000Y-106471D01*
D02*
G37*
G36*
X-11248Y-55223D02*
X-11676Y-55279D01*
X-12540Y-55637D01*
X-13282Y-56206D01*
X-13851Y-56949D01*
X-14209Y-57813D01*
X-14266Y-58240D01*
X-11248D01*
Y-55223D01*
D02*
G37*
G36*
X-10248D02*
Y-58240D01*
X-7231D01*
X-7287Y-57813D01*
X-7645Y-56949D01*
X-8214Y-56206D01*
X-8956Y-55637D01*
X-9821Y-55279D01*
X-10248Y-55223D01*
D02*
G37*
G36*
X-11248Y-59240D02*
X-14266D01*
X-14209Y-59668D01*
X-13851Y-60532D01*
X-13282Y-61274D01*
X-12540Y-61844D01*
X-11676Y-62201D01*
X-11248Y-62258D01*
Y-59240D01*
D02*
G37*
G36*
X-7231D02*
X-10248D01*
Y-62258D01*
X-9821Y-62201D01*
X-8956Y-61844D01*
X-8214Y-61274D01*
X-7645Y-60532D01*
X-7287Y-59668D01*
X-7231Y-59240D01*
D02*
G37*
G36*
X-20748Y-75157D02*
X-21676Y-75279D01*
X-22540Y-75637D01*
X-23282Y-76206D01*
X-23851Y-76948D01*
X-24209Y-77813D01*
X-24331Y-78740D01*
X-24209Y-79668D01*
X-23851Y-80532D01*
X-23282Y-81274D01*
X-22540Y-81844D01*
X-21676Y-82201D01*
X-20748Y-82324D01*
X-19821Y-82201D01*
X-18956Y-81844D01*
X-18214Y-81274D01*
X-17645Y-80532D01*
X-17287Y-79668D01*
X-17165Y-78740D01*
X-17287Y-77813D01*
X-17645Y-76948D01*
X-18214Y-76206D01*
X-18956Y-75637D01*
X-19821Y-75279D01*
X-20748Y-75157D01*
D02*
G37*
G36*
X-10748D02*
X-11676Y-75279D01*
X-12540Y-75637D01*
X-13282Y-76206D01*
X-13851Y-76948D01*
X-14209Y-77813D01*
X-14331Y-78740D01*
X-14209Y-79668D01*
X-13851Y-80532D01*
X-13282Y-81274D01*
X-12540Y-81844D01*
X-11676Y-82201D01*
X-10748Y-82324D01*
X-9821Y-82201D01*
X-8956Y-81844D01*
X-8214Y-81274D01*
X-7645Y-80532D01*
X-7287Y-79668D01*
X-7165Y-78740D01*
X-7287Y-77813D01*
X-7645Y-76948D01*
X-8214Y-76206D01*
X-8956Y-75637D01*
X-9821Y-75279D01*
X-10748Y-75157D01*
D02*
G37*
G36*
X-147480Y-78314D02*
X-148305Y-78422D01*
X-149074Y-78741D01*
X-149733Y-79247D01*
X-150240Y-79907D01*
X-150558Y-80675D01*
X-150667Y-81500D01*
X-150558Y-82325D01*
X-150240Y-83093D01*
X-149733Y-83753D01*
X-149074Y-84259D01*
X-148305Y-84578D01*
X-147480Y-84686D01*
X-146656Y-84578D01*
X-145887Y-84259D01*
X-145227Y-83753D01*
X-144721Y-83093D01*
X-144403Y-82325D01*
X-144294Y-81500D01*
X-144403Y-80675D01*
X-144721Y-79907D01*
X-145227Y-79247D01*
X-145887Y-78741D01*
X-146656Y-78422D01*
X-147480Y-78314D01*
D02*
G37*
G36*
X-119961D02*
X-120785Y-78422D01*
X-121554Y-78741D01*
X-122214Y-79247D01*
X-122720Y-79907D01*
X-123038Y-80675D01*
X-123147Y-81500D01*
X-123038Y-82325D01*
X-122720Y-83093D01*
X-122214Y-83753D01*
X-121554Y-84259D01*
X-120785Y-84578D01*
X-119961Y-84686D01*
X-119136Y-84578D01*
X-118368Y-84259D01*
X-117708Y-83753D01*
X-117201Y-83093D01*
X-116883Y-82325D01*
X-116774Y-81500D01*
X-116883Y-80675D01*
X-117201Y-79907D01*
X-117708Y-79247D01*
X-118368Y-78741D01*
X-119136Y-78422D01*
X-119961Y-78314D01*
D02*
G37*
G36*
X-10748Y-65157D02*
X-11676Y-65279D01*
X-12540Y-65637D01*
X-13282Y-66206D01*
X-13851Y-66948D01*
X-14209Y-67813D01*
X-14331Y-68740D01*
X-14209Y-69668D01*
X-13932Y-70338D01*
X-15972Y-72378D01*
X-18966D01*
X-19064Y-71888D01*
X-18956Y-71843D01*
X-18214Y-71274D01*
X-17645Y-70532D01*
X-17287Y-69668D01*
X-17165Y-68740D01*
X-17287Y-67813D01*
X-17645Y-66948D01*
X-18214Y-66206D01*
X-18956Y-65637D01*
X-19821Y-65279D01*
X-20748Y-65157D01*
X-21676Y-65279D01*
X-22540Y-65637D01*
X-23282Y-66206D01*
X-23851Y-66948D01*
X-24209Y-67813D01*
X-24331Y-68740D01*
X-24209Y-69668D01*
X-23851Y-70532D01*
X-23282Y-71274D01*
X-22540Y-71843D01*
X-22432Y-71888D01*
X-22530Y-72378D01*
X-34500D01*
X-34500Y-72378D01*
X-34929Y-72464D01*
X-35293Y-72707D01*
X-35293Y-72707D01*
X-36571Y-73985D01*
X-37085Y-74087D01*
X-37581Y-74419D01*
X-37913Y-74915D01*
X-38029Y-75500D01*
X-37913Y-76085D01*
X-37581Y-76581D01*
X-37085Y-76913D01*
X-36500Y-77029D01*
X-35915Y-76913D01*
X-35419Y-76581D01*
X-35087Y-76085D01*
X-34985Y-75571D01*
X-34035Y-74622D01*
X-15508D01*
X-15508Y-74622D01*
X-15079Y-74536D01*
X-14715Y-74293D01*
X-12346Y-71924D01*
X-11676Y-72202D01*
X-10748Y-72324D01*
X-9821Y-72202D01*
X-8956Y-71843D01*
X-8214Y-71274D01*
X-7645Y-70532D01*
X-7287Y-69668D01*
X-7165Y-68740D01*
X-7287Y-67813D01*
X-7645Y-66948D01*
X-8214Y-66206D01*
X-8956Y-65637D01*
X-9821Y-65279D01*
X-10748Y-65157D01*
D02*
G37*
G36*
X-20748Y-55157D02*
X-21676Y-55279D01*
X-22540Y-55637D01*
X-23282Y-56206D01*
X-23851Y-56949D01*
X-24209Y-57813D01*
X-24331Y-58740D01*
X-24209Y-59668D01*
X-23851Y-60532D01*
X-23282Y-61274D01*
X-22540Y-61844D01*
X-21676Y-62201D01*
X-20748Y-62324D01*
X-19821Y-62201D01*
X-18956Y-61844D01*
X-18214Y-61274D01*
X-17645Y-60532D01*
X-17287Y-59668D01*
X-17165Y-58740D01*
X-17287Y-57813D01*
X-17645Y-56949D01*
X-18214Y-56206D01*
X-18956Y-55637D01*
X-19821Y-55279D01*
X-20748Y-55157D01*
D02*
G37*
G36*
X-63827Y-55797D02*
X-64412Y-55914D01*
X-64908Y-56245D01*
X-65240Y-56741D01*
X-65356Y-57327D01*
X-65240Y-57912D01*
X-64948Y-58348D01*
Y-62673D01*
X-64948Y-62673D01*
X-64863Y-63102D01*
X-64620Y-63466D01*
X-47830Y-80256D01*
X-47728Y-80770D01*
X-47396Y-81266D01*
X-46900Y-81598D01*
X-46315Y-81714D01*
X-45730Y-81598D01*
X-45234Y-81266D01*
X-44902Y-80770D01*
X-44786Y-80185D01*
X-44902Y-79600D01*
X-45234Y-79104D01*
X-45730Y-78772D01*
X-46244Y-78670D01*
X-62705Y-62209D01*
Y-58348D01*
X-62414Y-57912D01*
X-62297Y-57327D01*
X-62414Y-56741D01*
X-62745Y-56245D01*
X-63241Y-55914D01*
X-63827Y-55797D01*
D02*
G37*
G36*
X-73740Y-139097D02*
X-74668Y-139219D01*
X-75532Y-139577D01*
X-76274Y-140147D01*
X-76843Y-140889D01*
X-77201Y-141753D01*
X-77324Y-142680D01*
X-77201Y-143608D01*
X-76843Y-144472D01*
X-76274Y-145214D01*
X-75532Y-145784D01*
X-74668Y-146142D01*
X-73740Y-146264D01*
X-72813Y-146142D01*
X-71948Y-145784D01*
X-71206Y-145214D01*
X-70637Y-144472D01*
X-70279Y-143608D01*
X-70157Y-142680D01*
X-70279Y-141753D01*
X-70637Y-140889D01*
X-71206Y-140147D01*
X-71948Y-139577D01*
X-72813Y-139219D01*
X-73740Y-139097D01*
D02*
G37*
G36*
X-53740D02*
X-54668Y-139219D01*
X-55532Y-139577D01*
X-56274Y-140147D01*
X-56843Y-140889D01*
X-57201Y-141753D01*
X-57323Y-142680D01*
X-57201Y-143608D01*
X-56843Y-144472D01*
X-56274Y-145214D01*
X-55532Y-145784D01*
X-54668Y-146142D01*
X-53740Y-146264D01*
X-52813Y-146142D01*
X-51948Y-145784D01*
X-51206Y-145214D01*
X-50637Y-144472D01*
X-50279Y-143608D01*
X-50157Y-142680D01*
X-50279Y-141753D01*
X-50637Y-140889D01*
X-51206Y-140147D01*
X-51948Y-139577D01*
X-52813Y-139219D01*
X-53740Y-139097D01*
D02*
G37*
G36*
X-64240Y-143180D02*
X-67258D01*
X-67201Y-143608D01*
X-66843Y-144472D01*
X-66274Y-145214D01*
X-65532Y-145784D01*
X-64668Y-146142D01*
X-64240Y-146198D01*
Y-143180D01*
D02*
G37*
G36*
X-43740Y-139097D02*
X-44668Y-139219D01*
X-45532Y-139577D01*
X-46274Y-140147D01*
X-46843Y-140889D01*
X-47201Y-141753D01*
X-47324Y-142680D01*
X-47201Y-143608D01*
X-46843Y-144472D01*
X-46274Y-145214D01*
X-45532Y-145784D01*
X-44668Y-146142D01*
X-43740Y-146264D01*
X-42813Y-146142D01*
X-41948Y-145784D01*
X-41206Y-145214D01*
X-40637Y-144472D01*
X-40279Y-143608D01*
X-40157Y-142680D01*
X-40279Y-141753D01*
X-40637Y-140889D01*
X-41206Y-140147D01*
X-41948Y-139577D01*
X-42813Y-139219D01*
X-43740Y-139097D01*
D02*
G37*
G36*
X-113240Y-149163D02*
Y-152180D01*
X-110222D01*
X-110279Y-151753D01*
X-110637Y-150889D01*
X-111206Y-150146D01*
X-111948Y-149577D01*
X-112813Y-149219D01*
X-113240Y-149163D01*
D02*
G37*
G36*
X-84240D02*
X-84668Y-149219D01*
X-85532Y-149577D01*
X-86274Y-150146D01*
X-86843Y-150889D01*
X-87201Y-151753D01*
X-87258Y-152180D01*
X-84240D01*
Y-149163D01*
D02*
G37*
G36*
X-114240D02*
X-114668Y-149219D01*
X-115532Y-149577D01*
X-116274Y-150146D01*
X-116843Y-150889D01*
X-117201Y-151753D01*
X-117258Y-152180D01*
X-114240D01*
Y-149163D01*
D02*
G37*
G36*
X-43240D02*
Y-152180D01*
X-40222D01*
X-40279Y-151753D01*
X-40637Y-150889D01*
X-41206Y-150146D01*
X-41948Y-149577D01*
X-42813Y-149219D01*
X-43240Y-149163D01*
D02*
G37*
G36*
X-83240D02*
Y-152180D01*
X-80222D01*
X-80279Y-151753D01*
X-80637Y-150889D01*
X-81206Y-150146D01*
X-81948Y-149577D01*
X-82813Y-149219D01*
X-83240Y-149163D01*
D02*
G37*
G36*
X-44240D02*
X-44668Y-149219D01*
X-45532Y-149577D01*
X-46274Y-150146D01*
X-46843Y-150889D01*
X-47201Y-151753D01*
X-47258Y-152180D01*
X-44240D01*
Y-149163D01*
D02*
G37*
G36*
X-77000Y-110471D02*
X-77585Y-110587D01*
X-78081Y-110919D01*
X-78191Y-111082D01*
X-81000D01*
X-81293Y-111141D01*
X-81351Y-111152D01*
X-81649Y-111351D01*
X-87149Y-116851D01*
X-87348Y-117149D01*
X-87418Y-117500D01*
Y-122809D01*
X-87581Y-122919D01*
X-87913Y-123415D01*
X-88029Y-124000D01*
X-87913Y-124585D01*
X-87581Y-125081D01*
X-87085Y-125413D01*
X-86500Y-125529D01*
X-85915Y-125413D01*
X-85419Y-125081D01*
X-85087Y-124585D01*
X-84971Y-124000D01*
X-85087Y-123415D01*
X-85419Y-122919D01*
X-85582Y-122809D01*
Y-117880D01*
X-80620Y-112918D01*
X-78191D01*
X-78081Y-113081D01*
X-77585Y-113413D01*
X-77000Y-113529D01*
X-76415Y-113413D01*
X-75919Y-113081D01*
X-75587Y-112585D01*
X-75471Y-112000D01*
X-75587Y-111415D01*
X-75919Y-110919D01*
X-76415Y-110587D01*
X-77000Y-110471D01*
D02*
G37*
G36*
X-63240Y-139163D02*
Y-142180D01*
X-60223D01*
X-60279Y-141753D01*
X-60637Y-140889D01*
X-61206Y-140147D01*
X-61948Y-139577D01*
X-62813Y-139219D01*
X-63240Y-139163D01*
D02*
G37*
G36*
X-60223Y-143180D02*
X-63240D01*
Y-146198D01*
X-62813Y-146142D01*
X-61948Y-145784D01*
X-61206Y-145214D01*
X-60637Y-144472D01*
X-60279Y-143608D01*
X-60223Y-143180D01*
D02*
G37*
G36*
X-64240Y-139163D02*
X-64668Y-139219D01*
X-65532Y-139577D01*
X-66274Y-140147D01*
X-66843Y-140889D01*
X-67201Y-141753D01*
X-67258Y-142180D01*
X-64240D01*
Y-139163D01*
D02*
G37*
G36*
X-10248Y-45223D02*
Y-48240D01*
X-7231D01*
X-7287Y-47813D01*
X-7645Y-46949D01*
X-8214Y-46206D01*
X-8956Y-45637D01*
X-9821Y-45279D01*
X-10248Y-45223D01*
D02*
G37*
G36*
X-7231Y-49240D02*
X-10248D01*
Y-52258D01*
X-9821Y-52201D01*
X-8956Y-51844D01*
X-8214Y-51274D01*
X-7645Y-50532D01*
X-7287Y-49668D01*
X-7231Y-49240D01*
D02*
G37*
G36*
X-20748Y-45157D02*
X-21676Y-45279D01*
X-22540Y-45637D01*
X-23282Y-46206D01*
X-23851Y-46949D01*
X-24209Y-47813D01*
X-24331Y-48740D01*
X-24209Y-49668D01*
X-23851Y-50532D01*
X-23282Y-51274D01*
X-22540Y-51844D01*
X-21676Y-52201D01*
X-20748Y-52324D01*
X-19821Y-52201D01*
X-18956Y-51844D01*
X-18214Y-51274D01*
X-17645Y-50532D01*
X-17287Y-49668D01*
X-17165Y-48740D01*
X-17287Y-47813D01*
X-17645Y-46949D01*
X-18214Y-46206D01*
X-18956Y-45637D01*
X-19821Y-45279D01*
X-20748Y-45157D01*
D02*
G37*
G36*
X-11248Y-49240D02*
X-14266D01*
X-14209Y-49668D01*
X-13851Y-50532D01*
X-13282Y-51274D01*
X-12540Y-51844D01*
X-11676Y-52201D01*
X-11248Y-52258D01*
Y-49240D01*
D02*
G37*
G36*
Y-45223D02*
X-11676Y-45279D01*
X-12540Y-45637D01*
X-13282Y-46206D01*
X-13851Y-46949D01*
X-14209Y-47813D01*
X-14266Y-48240D01*
X-11248D01*
Y-45223D01*
D02*
G37*
G36*
X-134240Y-5500D02*
X-137258D01*
X-137201Y-5928D01*
X-136843Y-6792D01*
X-136274Y-7534D01*
X-135532Y-8103D01*
X-134668Y-8461D01*
X-134240Y-8518D01*
Y-5500D01*
D02*
G37*
G36*
X-130222D02*
X-133240D01*
Y-8518D01*
X-132813Y-8461D01*
X-131948Y-8103D01*
X-131206Y-7534D01*
X-130637Y-6792D01*
X-130279Y-5928D01*
X-130222Y-5500D01*
D02*
G37*
G36*
X-33740Y-1417D02*
X-34668Y-1539D01*
X-35532Y-1897D01*
X-36274Y-2466D01*
X-36843Y-3208D01*
X-37201Y-4073D01*
X-37323Y-5000D01*
X-37201Y-5928D01*
X-36843Y-6792D01*
X-36274Y-7534D01*
X-35532Y-8103D01*
X-34668Y-8461D01*
X-33740Y-8583D01*
X-32813Y-8461D01*
X-31948Y-8103D01*
X-31206Y-7534D01*
X-30637Y-6792D01*
X-30279Y-5928D01*
X-30157Y-5000D01*
X-30279Y-4073D01*
X-30637Y-3208D01*
X-31206Y-2466D01*
X-31948Y-1897D01*
X-32813Y-1539D01*
X-33740Y-1417D01*
D02*
G37*
G36*
X-20187Y-1447D02*
X-27293D01*
Y-8553D01*
X-20187D01*
Y-1447D01*
D02*
G37*
G36*
X-134240Y-1482D02*
X-134668Y-1539D01*
X-135532Y-1897D01*
X-136274Y-2466D01*
X-136843Y-3208D01*
X-137201Y-4073D01*
X-137258Y-4500D01*
X-134240D01*
Y-1482D01*
D02*
G37*
G36*
X-133240D02*
Y-4500D01*
X-130222D01*
X-130279Y-4073D01*
X-130637Y-3208D01*
X-131206Y-2466D01*
X-131948Y-1897D01*
X-132813Y-1539D01*
X-133240Y-1482D01*
D02*
G37*
G36*
X-134240Y-15500D02*
X-137258D01*
X-137201Y-15927D01*
X-136843Y-16792D01*
X-136274Y-17534D01*
X-135532Y-18103D01*
X-134668Y-18461D01*
X-134240Y-18518D01*
Y-15500D01*
D02*
G37*
G36*
X-130222D02*
X-133240D01*
Y-18518D01*
X-132813Y-18461D01*
X-131948Y-18103D01*
X-131206Y-17534D01*
X-130637Y-16792D01*
X-130279Y-15927D01*
X-130222Y-15500D01*
D02*
G37*
G36*
X-123740Y-11417D02*
X-124668Y-11539D01*
X-125532Y-11897D01*
X-126274Y-12466D01*
X-126843Y-13208D01*
X-127201Y-14073D01*
X-127323Y-15000D01*
X-127201Y-15927D01*
X-126843Y-16792D01*
X-126274Y-17534D01*
X-125532Y-18103D01*
X-124668Y-18461D01*
X-123740Y-18583D01*
X-122813Y-18461D01*
X-121948Y-18103D01*
X-121206Y-17534D01*
X-120637Y-16792D01*
X-120279Y-15927D01*
X-120157Y-15000D01*
X-120279Y-14073D01*
X-120637Y-13208D01*
X-121206Y-12466D01*
X-121948Y-11897D01*
X-122813Y-11539D01*
X-123740Y-11417D01*
D02*
G37*
G36*
X-60187Y-11447D02*
X-67293D01*
Y-18553D01*
X-60187D01*
Y-11447D01*
D02*
G37*
G36*
X-133240Y-11482D02*
Y-14500D01*
X-130222D01*
X-130279Y-14073D01*
X-130637Y-13208D01*
X-131206Y-12466D01*
X-131948Y-11897D01*
X-132813Y-11539D01*
X-133240Y-11482D01*
D02*
G37*
G36*
X-43740Y-1417D02*
X-44668Y-1539D01*
X-45532Y-1897D01*
X-46274Y-2466D01*
X-46843Y-3208D01*
X-47201Y-4073D01*
X-47324Y-5000D01*
X-47201Y-5928D01*
X-46843Y-6792D01*
X-46274Y-7534D01*
X-45532Y-8103D01*
X-44668Y-8461D01*
X-43740Y-8583D01*
D01*
X-43740Y-8583D01*
D01*
D01*
D01*
D01*
X-43773Y-9082D01*
X-53708D01*
X-53740Y-8584D01*
X-53740Y-8583D01*
Y-8583D01*
X-52813Y-8461D01*
X-51948Y-8103D01*
X-51206Y-7534D01*
X-50637Y-6792D01*
X-50279Y-5928D01*
X-50157Y-5000D01*
X-50279Y-4073D01*
X-50637Y-3208D01*
X-51206Y-2466D01*
X-51948Y-1897D01*
X-52813Y-1539D01*
X-53740Y-1417D01*
X-54668Y-1539D01*
X-55532Y-1897D01*
X-56274Y-2466D01*
X-56843Y-3208D01*
X-57201Y-4073D01*
X-57323Y-5000D01*
X-57201Y-5928D01*
X-56843Y-6792D01*
X-56274Y-7534D01*
X-55532Y-8103D01*
X-54668Y-8461D01*
X-53740Y-8583D01*
D01*
D01*
X-53773Y-9082D01*
X-63708D01*
X-63740Y-8584D01*
X-63740Y-8583D01*
Y-8583D01*
X-62813Y-8461D01*
X-61948Y-8103D01*
X-61206Y-7534D01*
X-60637Y-6792D01*
X-60279Y-5928D01*
X-60157Y-5000D01*
X-60279Y-4073D01*
X-60637Y-3208D01*
X-61206Y-2466D01*
X-61948Y-1897D01*
X-62813Y-1539D01*
X-63740Y-1417D01*
X-64668Y-1539D01*
X-65532Y-1897D01*
X-66274Y-2466D01*
X-66843Y-3208D01*
X-67201Y-4073D01*
X-67323Y-5000D01*
X-67201Y-5928D01*
X-66843Y-6792D01*
X-66274Y-7534D01*
X-65532Y-8103D01*
X-64668Y-8461D01*
X-63740Y-8583D01*
D01*
D01*
X-63773Y-9082D01*
X-73708D01*
X-73740Y-8584D01*
X-73740Y-8583D01*
Y-8583D01*
X-72813Y-8461D01*
X-71948Y-8103D01*
X-71206Y-7534D01*
X-70637Y-6792D01*
X-70279Y-5928D01*
X-70157Y-5000D01*
X-70279Y-4073D01*
X-70637Y-3208D01*
X-71206Y-2466D01*
X-71948Y-1897D01*
X-72813Y-1539D01*
X-73740Y-1417D01*
X-74668Y-1539D01*
X-75532Y-1897D01*
X-76274Y-2466D01*
X-76843Y-3208D01*
X-77201Y-4073D01*
X-77324Y-5000D01*
X-77201Y-5928D01*
X-76843Y-6792D01*
X-76274Y-7534D01*
X-75532Y-8103D01*
X-74668Y-8461D01*
X-73740Y-8583D01*
D01*
D01*
X-73773Y-9082D01*
X-83708D01*
X-83740Y-8584D01*
X-83740Y-8583D01*
Y-8583D01*
X-82813Y-8461D01*
X-81948Y-8103D01*
X-81206Y-7534D01*
X-80637Y-6792D01*
X-80279Y-5928D01*
X-80157Y-5000D01*
X-80279Y-4073D01*
X-80637Y-3208D01*
X-81206Y-2466D01*
X-81948Y-1897D01*
X-82813Y-1539D01*
X-83740Y-1417D01*
X-84668Y-1539D01*
X-85532Y-1897D01*
X-86274Y-2466D01*
X-86843Y-3208D01*
X-87201Y-4073D01*
X-87323Y-5000D01*
X-87201Y-5928D01*
X-86843Y-6792D01*
X-86274Y-7534D01*
X-85532Y-8103D01*
X-84668Y-8461D01*
X-83740Y-8583D01*
D01*
D01*
X-83773Y-9082D01*
X-93708D01*
X-93740Y-8584D01*
X-93740Y-8583D01*
Y-8583D01*
X-92813Y-8461D01*
X-91948Y-8103D01*
X-91206Y-7534D01*
X-90637Y-6792D01*
X-90279Y-5928D01*
X-90157Y-5000D01*
X-90279Y-4073D01*
X-90637Y-3208D01*
X-91206Y-2466D01*
X-91948Y-1897D01*
X-92813Y-1539D01*
X-93740Y-1417D01*
X-94668Y-1539D01*
X-95532Y-1897D01*
X-96274Y-2466D01*
X-96843Y-3208D01*
X-97201Y-4073D01*
X-97324Y-5000D01*
X-97201Y-5928D01*
X-96843Y-6792D01*
X-96274Y-7534D01*
X-95532Y-8103D01*
X-94668Y-8461D01*
X-93740Y-8583D01*
D01*
D01*
X-93773Y-9082D01*
X-103708D01*
X-103740Y-8584D01*
X-103740Y-8583D01*
Y-8583D01*
X-102813Y-8461D01*
X-101948Y-8103D01*
X-101206Y-7534D01*
X-100637Y-6792D01*
X-100279Y-5928D01*
X-100157Y-5000D01*
X-100279Y-4073D01*
X-100637Y-3208D01*
X-101206Y-2466D01*
X-101948Y-1897D01*
X-102813Y-1539D01*
X-103740Y-1417D01*
X-104668Y-1539D01*
X-105532Y-1897D01*
X-106274Y-2466D01*
X-106843Y-3208D01*
X-107201Y-4073D01*
X-107324Y-5000D01*
X-107201Y-5928D01*
X-106843Y-6792D01*
X-106274Y-7534D01*
X-105532Y-8103D01*
X-104668Y-8461D01*
X-103740Y-8583D01*
D01*
D01*
X-103773Y-9082D01*
X-113708D01*
X-113740Y-8584D01*
X-113740Y-8583D01*
Y-8583D01*
X-112813Y-8461D01*
X-111948Y-8103D01*
X-111206Y-7534D01*
X-110637Y-6792D01*
X-110279Y-5928D01*
X-110157Y-5000D01*
X-110279Y-4073D01*
X-110637Y-3208D01*
X-111206Y-2466D01*
X-111948Y-1897D01*
X-112813Y-1539D01*
X-113740Y-1417D01*
X-114668Y-1539D01*
X-115532Y-1897D01*
X-116274Y-2466D01*
X-116843Y-3208D01*
X-117201Y-4073D01*
X-117324Y-5000D01*
X-117201Y-5928D01*
X-116843Y-6792D01*
X-116274Y-7534D01*
X-115532Y-8103D01*
X-114668Y-8461D01*
X-113740Y-8583D01*
D01*
D01*
X-113773Y-9082D01*
X-118360D01*
X-120643Y-6800D01*
X-120637Y-6792D01*
X-120279Y-5928D01*
X-120157Y-5000D01*
X-120279Y-4073D01*
X-120637Y-3208D01*
X-121206Y-2466D01*
X-121948Y-1897D01*
X-122813Y-1539D01*
X-123740Y-1417D01*
X-124668Y-1539D01*
X-125532Y-1897D01*
X-126274Y-2466D01*
X-126843Y-3208D01*
X-127201Y-4073D01*
X-127323Y-5000D01*
X-127201Y-5928D01*
X-126843Y-6792D01*
X-126274Y-7534D01*
X-125532Y-8103D01*
X-124668Y-8461D01*
X-123740Y-8583D01*
X-122813Y-8461D01*
X-121948Y-8103D01*
X-121941Y-8097D01*
X-119389Y-10649D01*
X-119091Y-10848D01*
X-118740Y-10918D01*
X-113773D01*
X-113740Y-11417D01*
X-113740Y-11417D01*
X-114668Y-11539D01*
X-115532Y-11897D01*
X-116274Y-12466D01*
X-116843Y-13208D01*
X-117201Y-14073D01*
X-117324Y-15000D01*
X-117201Y-15927D01*
X-116843Y-16792D01*
X-116274Y-17534D01*
X-115532Y-18103D01*
X-114668Y-18461D01*
X-113740Y-18583D01*
X-112813Y-18461D01*
X-111948Y-18103D01*
X-111206Y-17534D01*
X-110637Y-16792D01*
X-110279Y-15927D01*
X-110157Y-15000D01*
X-110279Y-14073D01*
X-110637Y-13208D01*
X-111206Y-12466D01*
X-111948Y-11897D01*
X-112813Y-11539D01*
X-113740Y-11417D01*
D01*
X-113708Y-10918D01*
X-103773D01*
X-103740Y-11417D01*
X-103740Y-11417D01*
X-104668Y-11539D01*
X-105532Y-11897D01*
X-106274Y-12466D01*
X-106843Y-13208D01*
X-107201Y-14073D01*
X-107324Y-15000D01*
X-107201Y-15927D01*
X-106843Y-16792D01*
X-106274Y-17534D01*
X-105532Y-18103D01*
X-104668Y-18461D01*
X-103740Y-18583D01*
X-102813Y-18461D01*
X-101948Y-18103D01*
X-101206Y-17534D01*
X-100637Y-16792D01*
X-100279Y-15927D01*
X-100157Y-15000D01*
X-100279Y-14073D01*
X-100637Y-13208D01*
X-101206Y-12466D01*
X-101948Y-11897D01*
X-102813Y-11539D01*
X-103740Y-11417D01*
D01*
X-103708Y-10918D01*
X-93773D01*
X-93740Y-11417D01*
X-93740Y-11417D01*
X-94668Y-11539D01*
X-95532Y-11897D01*
X-96274Y-12466D01*
X-96843Y-13208D01*
X-97201Y-14073D01*
X-97324Y-15000D01*
X-97201Y-15927D01*
X-96843Y-16792D01*
X-96274Y-17534D01*
X-95532Y-18103D01*
X-94668Y-18461D01*
X-93740Y-18583D01*
X-92813Y-18461D01*
X-92142Y-18184D01*
X-86622Y-23705D01*
Y-49979D01*
X-86913Y-50415D01*
X-87029Y-51000D01*
X-86913Y-51585D01*
X-86581Y-52081D01*
X-86085Y-52413D01*
X-85500Y-52529D01*
X-84915Y-52413D01*
X-84419Y-52081D01*
X-84087Y-51585D01*
X-83971Y-51000D01*
X-84087Y-50415D01*
X-84378Y-49979D01*
Y-23240D01*
X-84378Y-23240D01*
X-84464Y-22811D01*
X-84464D01*
D01*
D01*
X-84464Y-22811D01*
D01*
D01*
D01*
D01*
X-84464Y-22811D01*
D01*
D01*
Y-22811D01*
D01*
X-84464D01*
D01*
D01*
X-84464D01*
D01*
D01*
X-84707Y-22447D01*
X-84707Y-22447D01*
X-90556Y-16598D01*
X-90279Y-15927D01*
X-90157Y-15000D01*
X-90279Y-14073D01*
X-90637Y-13208D01*
X-91206Y-12466D01*
X-91948Y-11897D01*
X-92813Y-11539D01*
X-93740Y-11417D01*
D01*
X-93708Y-10918D01*
X-83773D01*
X-83740Y-11417D01*
X-83740Y-11417D01*
X-84668Y-11539D01*
X-85532Y-11897D01*
X-86274Y-12466D01*
X-86843Y-13208D01*
X-87201Y-14073D01*
X-87323Y-15000D01*
X-87201Y-15927D01*
X-86843Y-16792D01*
X-86274Y-17534D01*
X-85532Y-18103D01*
X-84668Y-18461D01*
X-83740Y-18583D01*
X-82813Y-18461D01*
X-81948Y-18103D01*
X-81206Y-17534D01*
X-80637Y-16792D01*
X-80279Y-15927D01*
X-80157Y-15000D01*
X-80279Y-14073D01*
X-80637Y-13208D01*
X-81206Y-12466D01*
X-81948Y-11897D01*
X-82813Y-11539D01*
X-83740Y-11417D01*
D01*
X-83708Y-10918D01*
X-73773D01*
X-73740Y-11417D01*
X-73740Y-11417D01*
X-74668Y-11539D01*
X-75532Y-11897D01*
X-76274Y-12466D01*
X-76843Y-13208D01*
X-77201Y-14073D01*
X-77324Y-15000D01*
X-77201Y-15927D01*
X-76843Y-16792D01*
X-76274Y-17534D01*
X-75532Y-18103D01*
X-74668Y-18461D01*
X-73740Y-18583D01*
X-72813Y-18461D01*
X-71948Y-18103D01*
X-71206Y-17534D01*
X-70637Y-16792D01*
X-70279Y-15927D01*
X-70157Y-15000D01*
X-70279Y-14073D01*
X-70637Y-13208D01*
X-71206Y-12466D01*
X-71948Y-11897D01*
X-72813Y-11539D01*
X-73740Y-11417D01*
D01*
X-73708Y-10918D01*
X-41191D01*
X-41081Y-11081D01*
X-40585Y-11413D01*
X-40000Y-11529D01*
X-39415Y-11413D01*
X-38919Y-11081D01*
X-38587Y-10585D01*
X-38471Y-10000D01*
X-38587Y-9415D01*
X-38919Y-8919D01*
X-39415Y-8587D01*
X-40000Y-8471D01*
X-40585Y-8587D01*
X-41081Y-8919D01*
X-41191Y-9082D01*
X-43708D01*
X-43740Y-8583D01*
X-42813Y-8461D01*
X-41948Y-8103D01*
X-41206Y-7534D01*
X-40637Y-6792D01*
X-40279Y-5928D01*
X-40157Y-5000D01*
X-40279Y-4073D01*
X-40637Y-3208D01*
X-41206Y-2466D01*
X-41948Y-1897D01*
X-42813Y-1539D01*
X-43740Y-1417D01*
D02*
G37*
G36*
X-134240Y-11482D02*
X-134668Y-11539D01*
X-135532Y-11897D01*
X-136274Y-12466D01*
X-136843Y-13208D01*
X-137201Y-14073D01*
X-137258Y-14500D01*
X-134240D01*
Y-11482D01*
D02*
G37*
%LPD*%
D10*
X173228Y167323D02*
D03*
X-78760Y-167342D02*
D03*
X-119961Y-81500D02*
D03*
X-147480D02*
D03*
D32*
X-41281Y-100219D02*
X-33704Y-107797D01*
X-32080Y-121680D02*
Y-118880D01*
Y-121680D02*
X-23740Y-130020D01*
Y-142680D02*
Y-130020D01*
D33*
X-86500Y-108000D02*
X-52000D01*
X-86500Y-108000D02*
X-86500Y-108000D01*
D34*
X-81000Y-112000D02*
X-77000D01*
X-86500Y-117500D02*
X-81000Y-112000D01*
X-86500Y-124000D02*
Y-117500D01*
X-127280Y-132280D02*
X-71520D01*
X-125240Y-134180D02*
X-73480D01*
X-117340Y-136280D02*
X-71480D01*
X-128900Y-133900D02*
X-127280Y-132280D01*
X-128900Y-147840D02*
Y-133900D01*
X-126460Y-135400D02*
X-125240Y-134180D01*
X-123740Y-142680D02*
X-117340Y-136280D01*
X-123740Y-5000D02*
X-118740Y-10000D01*
X-40000D01*
X-133740Y-152680D02*
X-128900Y-147840D01*
X-113740Y-142680D02*
X-109140Y-138080D01*
X-76980D01*
D35*
X-15508Y-73500D02*
X-10748Y-68740D01*
X-34500Y-73500D02*
X-15508D01*
X-36500Y-75500D02*
X-34500Y-73500D01*
X-63827Y-62673D02*
X-46315Y-80185D01*
X-63827Y-62673D02*
Y-57327D01*
X-71500Y-90500D02*
Y-82000D01*
X-79000Y-74500D02*
X-71500Y-82000D01*
X-85500Y-51000D02*
Y-23240D01*
X-93740Y-15000D02*
X-85500Y-23240D01*
D36*
X-82842Y-97342D02*
Y-85658D01*
D37*
X-33301Y-107797D02*
X-32809D01*
D38*
X-148480Y-148380D02*
D03*
Y-8980D02*
D03*
X-8980Y-148480D02*
D03*
Y-9080D02*
D03*
D39*
X-33740Y-152680D02*
D03*
X-43740D02*
D03*
X-53740D02*
D03*
X-63740D02*
D03*
X-73740D02*
D03*
X-83740D02*
D03*
X-93740D02*
D03*
X-103740D02*
D03*
X-113740D02*
D03*
X-123740D02*
D03*
X-133740D02*
D03*
X-33740Y-142680D02*
D03*
X-43740D02*
D03*
X-53740D02*
D03*
X-63740D02*
D03*
X-73740D02*
D03*
X-83740D02*
D03*
X-93740D02*
D03*
X-103740D02*
D03*
X-113740D02*
D03*
X-123740D02*
D03*
X-133740D02*
D03*
X-73740Y-15000D02*
D03*
X-83740D02*
D03*
X-93740D02*
D03*
X-103740D02*
D03*
X-113740D02*
D03*
X-123740D02*
D03*
X-133740D02*
D03*
X-33740Y-5000D02*
D03*
X-43740D02*
D03*
X-53740D02*
D03*
X-63740D02*
D03*
X-73740D02*
D03*
X-83740D02*
D03*
X-93740D02*
D03*
X-103740D02*
D03*
X-113740D02*
D03*
X-123740D02*
D03*
X-133740D02*
D03*
X-10748Y-88740D02*
D03*
Y-98740D02*
D03*
Y-108740D02*
D03*
X-20748Y-88740D02*
D03*
Y-98740D02*
D03*
Y-108740D02*
D03*
X-10748Y-78740D02*
D03*
Y-68740D02*
D03*
Y-58740D02*
D03*
Y-48740D02*
D03*
X-20748Y-78740D02*
D03*
Y-68740D02*
D03*
Y-58740D02*
D03*
Y-48740D02*
D03*
D40*
X-23740Y-152680D02*
D03*
Y-142680D02*
D03*
X-63740Y-15000D02*
D03*
X-23740Y-5000D02*
D03*
D41*
X244614Y-25118D02*
D03*
Y-53661D02*
D03*
Y-103858D02*
D03*
Y-132402D02*
D03*
Y132362D02*
D03*
Y103819D02*
D03*
Y53622D02*
D03*
Y25079D02*
D03*
D42*
X234063Y-48937D02*
D03*
X234063Y-29842D02*
D03*
X234063Y-127677D02*
D03*
X234063Y-108583D02*
D03*
X234063Y108543D02*
D03*
X234063Y127638D02*
D03*
X234063Y29803D02*
D03*
X234063Y48898D02*
D03*
D43*
X-103000Y-115000D02*
D03*
X-100000D02*
D03*
X-91000Y-94000D02*
D03*
X-88000Y-80000D02*
D03*
X-91000Y-101000D02*
D03*
X-90953Y-105400D02*
D03*
X-91000Y-72000D02*
D03*
Y-77000D02*
D03*
X-61000Y-92000D02*
D03*
X-45000Y-127000D02*
D03*
X-48000D02*
D03*
X-62000Y-95000D02*
D03*
X-41000Y-113000D02*
D03*
X-32000Y-98000D02*
D03*
X-31012Y-101055D02*
D03*
X-55000Y-78000D02*
D03*
Y-75000D02*
D03*
X-72000Y-67000D02*
D03*
X-70000Y-65000D02*
D03*
Y-60000D02*
D03*
X-80000Y-50000D02*
D03*
X-75000D02*
D03*
X-70000D02*
D03*
X-36500Y-75500D02*
D03*
X-63827Y-57327D02*
D03*
X-76758Y-119789D02*
D03*
X-77000Y-122500D02*
D03*
X-74000Y-122000D02*
D03*
Y-119000D02*
D03*
X-41281Y-100219D02*
D03*
X-71500Y-90500D02*
D03*
X-79000Y-74500D02*
D03*
X-82842Y-85658D02*
D03*
X-86500Y-124000D02*
D03*
X-52000Y-108000D02*
D03*
X-86500Y-108000D02*
D03*
X-77000Y-112000D02*
D03*
X-82842Y-97342D02*
D03*
X-101000Y-71000D02*
D03*
X-106000Y-115000D02*
D03*
X-46315Y-80185D02*
D03*
X-63980Y-47080D02*
D03*
X-85500Y-51000D02*
D03*
X-91000Y-67500D02*
D03*
X-90000Y-65000D02*
D03*
X-115000Y-105000D02*
D03*
X-18980Y-19080D02*
D03*
X-92000Y-24000D02*
D03*
X-112700Y-54100D02*
D03*
X-59380Y-36580D02*
D03*
X-35000Y-65000D02*
D03*
X-92000Y-21000D02*
D03*
X-3980Y-44080D02*
D03*
X-10000Y-30000D02*
D03*
Y-35000D02*
D03*
X-113980Y-69080D02*
D03*
X-32080Y-118880D02*
D03*
X-123980Y-24080D02*
D03*
X-113980Y-27080D02*
D03*
X-133980Y-24080D02*
D03*
X-128980Y-29080D02*
D03*
X-118980D02*
D03*
X-148980D02*
D03*
X-138980D02*
D03*
X-148980Y-39080D02*
D03*
X-138980D02*
D03*
X-113980Y-40080D02*
D03*
X-148980Y-49080D02*
D03*
X-138980D02*
D03*
X-128980Y-54589D02*
D03*
X-118980Y-54080D02*
D03*
X-113980Y-64080D02*
D03*
X-15000Y-40000D02*
D03*
X-40000Y-50000D02*
D03*
Y-65000D02*
D03*
X-10000Y-40000D02*
D03*
X-3980Y-24080D02*
D03*
X-13980D02*
D03*
X-3980Y-49080D02*
D03*
X-35000Y-45000D02*
D03*
X-5000Y-57500D02*
D03*
Y-65000D02*
D03*
X-96000Y-130000D02*
D03*
X-35000Y-50000D02*
D03*
X-63980Y-44080D02*
D03*
X-37500Y-47500D02*
D03*
X-35000Y-40000D02*
D03*
X-60980Y-32080D02*
D03*
X-100200Y-130100D02*
D03*
X-32000Y-50000D02*
D03*
X-88980Y-31580D02*
D03*
Y-34080D02*
D03*
X-105000Y-100000D02*
D03*
X-32000Y-95000D02*
D03*
X-90000Y-50000D02*
D03*
Y-55000D02*
D03*
Y-60000D02*
D03*
X-89980Y-37080D02*
D03*
X-78000Y-58000D02*
D03*
X-76980Y-42080D02*
D03*
X-89980Y-43080D02*
D03*
X-40000Y-10000D02*
D03*
X-126460Y-135400D02*
D03*
X-73480Y-134180D02*
D03*
X-71520Y-132280D02*
D03*
X-71480Y-136280D02*
D03*
X-76980Y-138080D02*
D03*
X-155000Y-86000D02*
D03*
X-145000D02*
D03*
X-135000D02*
D03*
X-155000Y-76000D02*
D03*
X-135000D02*
D03*
X-150000Y-115000D02*
D03*
X-140000D02*
D03*
X-130000D02*
D03*
X-150000Y-125000D02*
D03*
X-140000D02*
D03*
X-130000D02*
D03*
Y-130000D02*
D03*
X-120000D02*
D03*
X-110000D02*
D03*
X-130000Y-105000D02*
D03*
X-120000D02*
D03*
X-110000D02*
D03*
X-32000Y-55000D02*
D03*
X-59000Y-75000D02*
D03*
X-106000Y-70000D02*
D03*
X-42000Y-20000D02*
D03*
X-48000Y-15000D02*
D03*
X-55000D02*
D03*
X-46000Y-28000D02*
D03*
X-50000D02*
D03*
X-57000D02*
D03*
X-67000D02*
D03*
X-74000Y-27000D02*
D03*
X-82000Y-24000D02*
D03*
X-89000D02*
D03*
Y-13000D02*
D03*
X-99000Y-18000D02*
D03*
X-109000Y-12000D02*
D03*
Y-20000D02*
D03*
X-116000Y-23000D02*
D03*
X-33000Y-32000D02*
D03*
X-35000Y-27000D02*
D03*
X-33000Y-37000D02*
D03*
X-155000Y-99000D02*
D03*
X-138000Y-107000D02*
D03*
X185784Y-61390D02*
D03*
X193283D02*
D03*
X200783D02*
D03*
X248284Y-3890D02*
D03*
Y-11390D02*
D03*
Y-18890D02*
D03*
Y-58890D02*
D03*
Y-66390D02*
D03*
Y-73890D02*
D03*
X240283Y-32890D02*
D03*
Y-40390D02*
D03*
Y-47890D02*
D03*
X224783Y-27390D02*
D03*
X217284D02*
D03*
X209784D02*
D03*
X179283Y-47890D02*
D03*
Y-40390D02*
D03*
X193283Y-47890D02*
D03*
Y-40390D02*
D03*
Y-32890D02*
D03*
X210784Y-22390D02*
D03*
X218284D02*
D03*
X225783D02*
D03*
X199784Y-10390D02*
D03*
X207283D02*
D03*
X214784D02*
D03*
X177784D02*
D03*
X185284D02*
D03*
X192783D02*
D03*
X200783Y-69390D02*
D03*
X208283D02*
D03*
X215784D02*
D03*
X176784D02*
D03*
X184283D02*
D03*
X191783D02*
D03*
X179368Y-33060D02*
D03*
X225768Y-54960D02*
D03*
X218268D02*
D03*
X210769D02*
D03*
Y-133700D02*
D03*
X218268D02*
D03*
X225768D02*
D03*
X179368Y-111800D02*
D03*
X191783Y-148130D02*
D03*
X184283D02*
D03*
X176784D02*
D03*
X215784D02*
D03*
X208283D02*
D03*
X200783D02*
D03*
X192783Y-89130D02*
D03*
X185284D02*
D03*
X177784D02*
D03*
X214784D02*
D03*
X207283D02*
D03*
X199784D02*
D03*
X225783Y-101130D02*
D03*
X218284D02*
D03*
X210784D02*
D03*
X193283Y-111630D02*
D03*
Y-119130D02*
D03*
Y-126630D02*
D03*
X179283Y-119130D02*
D03*
Y-126630D02*
D03*
X209784Y-106130D02*
D03*
X217284D02*
D03*
X224783D02*
D03*
X240283Y-126630D02*
D03*
Y-119130D02*
D03*
Y-111630D02*
D03*
X248284Y-152630D02*
D03*
Y-145130D02*
D03*
Y-137630D02*
D03*
Y-97630D02*
D03*
Y-90130D02*
D03*
Y-82630D02*
D03*
X200783Y-140130D02*
D03*
X193283D02*
D03*
X185784D02*
D03*
Y96091D02*
D03*
X193283D02*
D03*
X200783D02*
D03*
X248284Y153591D02*
D03*
Y146091D02*
D03*
Y138591D02*
D03*
Y98590D02*
D03*
Y91091D02*
D03*
Y83591D02*
D03*
X240283Y124591D02*
D03*
Y117091D02*
D03*
Y109591D02*
D03*
X224783Y130091D02*
D03*
X217284D02*
D03*
X209784D02*
D03*
X179283Y109591D02*
D03*
Y117091D02*
D03*
X193283Y109591D02*
D03*
Y117091D02*
D03*
Y124591D02*
D03*
X210784Y135091D02*
D03*
X218284D02*
D03*
X225783D02*
D03*
X199784Y147091D02*
D03*
X207283D02*
D03*
X214784D02*
D03*
X177784D02*
D03*
X185284D02*
D03*
X192783D02*
D03*
X200783Y88090D02*
D03*
X208283D02*
D03*
X215784D02*
D03*
X176784D02*
D03*
X184283D02*
D03*
X191783D02*
D03*
X179368Y124420D02*
D03*
X225768Y102521D02*
D03*
X218268D02*
D03*
X210769D02*
D03*
Y23780D02*
D03*
X218268D02*
D03*
X225768D02*
D03*
X179368Y45680D02*
D03*
X191783Y9350D02*
D03*
X184283D02*
D03*
X176784D02*
D03*
X215784D02*
D03*
X208283D02*
D03*
X200783D02*
D03*
X192783Y68350D02*
D03*
X185284D02*
D03*
X177784D02*
D03*
X214784D02*
D03*
X207283D02*
D03*
X199784D02*
D03*
X225783Y56350D02*
D03*
X218284D02*
D03*
X210784D02*
D03*
X193283Y45850D02*
D03*
Y38350D02*
D03*
Y30850D02*
D03*
X179283Y38350D02*
D03*
Y30850D02*
D03*
X209784Y51350D02*
D03*
X217284D02*
D03*
X224783D02*
D03*
X240283Y30850D02*
D03*
Y38350D02*
D03*
Y45850D02*
D03*
X248284Y4850D02*
D03*
Y12350D02*
D03*
Y19850D02*
D03*
Y59850D02*
D03*
Y67350D02*
D03*
Y74850D02*
D03*
X200783Y17350D02*
D03*
X193283D02*
D03*
X185784D02*
D03*
M02*
