G04 Layer_Color=2752767*
%FSLAX25Y25*%
%MOIN*%
G70*
G01*
G75*
%ADD51C,0.00787*%
%ADD83C,0.00200*%
%ADD84C,0.00267*%
D51*
X-151500Y190372D02*
Y182500D01*
X-146252D01*
X-139693D02*
X-142317D01*
X-143629Y183812D01*
Y186436D01*
X-142317Y187748D01*
X-139693D01*
X-138381Y186436D01*
Y185124D01*
X-143629D01*
X-135757Y182500D02*
Y187748D01*
X-131821D01*
X-130509Y186436D01*
Y182500D01*
X-125262Y179876D02*
X-123950D01*
X-122638Y181188D01*
Y187748D01*
X-126574D01*
X-127886Y186436D01*
Y183812D01*
X-126574Y182500D01*
X-122638D01*
X-116078D02*
X-118702D01*
X-120014Y183812D01*
Y186436D01*
X-118702Y187748D01*
X-116078D01*
X-114766Y186436D01*
Y185124D01*
X-120014D01*
X-112143Y182500D02*
Y187748D01*
X-108207D01*
X-106895Y186436D01*
Y182500D01*
X-99023Y190372D02*
Y182500D01*
X-102959D01*
X-104271Y183812D01*
Y186436D01*
X-102959Y187748D01*
X-99023D01*
D83*
X-149280Y-149180D02*
Y-147580D01*
X-147680D01*
Y-149180D01*
X-149280D01*
Y-9780D02*
Y-8180D01*
X-147680D01*
Y-9780D01*
X-149280D01*
X-9780Y-149280D02*
Y-147680D01*
X-8180D01*
Y-149280D01*
X-9780D01*
Y-9880D02*
Y-8280D01*
X-8180D01*
Y-9880D01*
X-9780D01*
X-119961Y-82300D02*
X-120761Y-80700D01*
X-119161D01*
X-119961Y-82300D01*
X-147480D02*
X-148280Y-80700D01*
X-146680D01*
X-147480Y-82300D01*
X244614Y-25918D02*
X245014Y-25518D01*
X245414D01*
X245014Y-25118D01*
X245414Y-24718D01*
X245014D01*
X244614Y-24318D01*
X244214Y-24718D01*
X243814D01*
X244214Y-25118D01*
X243814Y-25518D01*
X244214D01*
X244614Y-25918D01*
Y-54461D02*
X245014Y-54061D01*
X245414D01*
X245014Y-53661D01*
X245414Y-53261D01*
X245014D01*
X244614Y-52861D01*
X244214Y-53261D01*
X243814D01*
X244214Y-53661D01*
X243814Y-54061D01*
X244214D01*
X244614Y-54461D01*
X233263Y-49737D02*
X233663Y-48937D01*
X233263Y-48137D01*
X234063Y-48537D01*
X234863Y-48137D01*
X234463Y-48937D01*
X234863Y-49737D01*
X234063Y-49337D01*
X233263Y-49737D01*
X233263Y-30643D02*
X233663Y-29842D01*
X233263Y-29043D01*
X234063Y-29443D01*
X234863Y-29043D01*
X234463Y-29842D01*
X234863Y-30643D01*
X234063Y-30242D01*
X233263Y-30643D01*
X244614Y-104658D02*
X245014Y-104258D01*
X245414D01*
X245014Y-103858D01*
X245414Y-103458D01*
X245014D01*
X244614Y-103058D01*
X244214Y-103458D01*
X243814D01*
X244214Y-103858D01*
X243814Y-104258D01*
X244214D01*
X244614Y-104658D01*
Y-133202D02*
X245014Y-132802D01*
X245414D01*
X245014Y-132402D01*
X245414Y-132002D01*
X245014D01*
X244614Y-131602D01*
X244214Y-132002D01*
X243814D01*
X244214Y-132402D01*
X243814Y-132802D01*
X244214D01*
X244614Y-133202D01*
X233263Y-128477D02*
X233663Y-127677D01*
X233263Y-126877D01*
X234063Y-127277D01*
X234863Y-126877D01*
X234463Y-127677D01*
X234863Y-128477D01*
X234063Y-128077D01*
X233263Y-128477D01*
X233263Y-109383D02*
X233663Y-108583D01*
X233263Y-107783D01*
X234063Y-108183D01*
X234863Y-107783D01*
X234463Y-108583D01*
X234863Y-109383D01*
X234063Y-108983D01*
X233263Y-109383D01*
X244614Y131562D02*
X245014Y131962D01*
X245414D01*
X245014Y132362D01*
X245414Y132762D01*
X245014D01*
X244614Y133162D01*
X244214Y132762D01*
X243814D01*
X244214Y132362D01*
X243814Y131962D01*
X244214D01*
X244614Y131562D01*
Y103019D02*
X245014Y103419D01*
X245414D01*
X245014Y103819D01*
X245414Y104219D01*
X245014D01*
X244614Y104619D01*
X244214Y104219D01*
X243814D01*
X244214Y103819D01*
X243814Y103419D01*
X244214D01*
X244614Y103019D01*
X233263Y107743D02*
X233663Y108543D01*
X233263Y109343D01*
X234063Y108943D01*
X234863Y109343D01*
X234463Y108543D01*
X234863Y107743D01*
X234063Y108143D01*
X233263Y107743D01*
X233263Y126838D02*
X233663Y127638D01*
X233263Y128438D01*
X234063Y128038D01*
X234863Y128438D01*
X234463Y127638D01*
X234863Y126838D01*
X234063Y127238D01*
X233263Y126838D01*
X244614Y52822D02*
X245014Y53222D01*
X245414D01*
X245014Y53622D01*
X245414Y54022D01*
X245014D01*
X244614Y54422D01*
X244214Y54022D01*
X243814D01*
X244214Y53622D01*
X243814Y53222D01*
X244214D01*
X244614Y52822D01*
Y24279D02*
X245014Y24679D01*
X245414D01*
X245014Y25079D01*
X245414Y25479D01*
X245014D01*
X244614Y25879D01*
X244214Y25479D01*
X243814D01*
X244214Y25079D01*
X243814Y24679D01*
X244214D01*
X244614Y24279D01*
X233263Y29003D02*
X233663Y29803D01*
X233263Y30603D01*
X234063Y30203D01*
X234863Y30603D01*
X234463Y29803D01*
X234863Y29003D01*
X234063Y29403D01*
X233263Y29003D01*
X233263Y48098D02*
X233663Y48898D01*
X233263Y49698D01*
X234063Y49298D01*
X234863Y49698D01*
X234463Y48898D01*
X234863Y48098D01*
X234063Y48498D01*
X233263Y48098D01*
X-103400Y-115400D02*
Y-115800D01*
X-102600D01*
Y-115400D01*
X-102200D01*
Y-114600D01*
X-102600D01*
Y-114200D01*
X-103400D01*
Y-114600D01*
X-103800D01*
Y-115400D01*
X-103400D01*
X-100400D02*
Y-115800D01*
X-99600D01*
Y-115400D01*
X-99200D01*
Y-114600D01*
X-99600D01*
Y-114200D01*
X-100400D01*
Y-114600D01*
X-100800D01*
Y-115400D01*
X-100400D01*
X-91400Y-94400D02*
Y-94800D01*
X-90600D01*
Y-94400D01*
X-90200D01*
Y-93600D01*
X-90600D01*
Y-93200D01*
X-91400D01*
Y-93600D01*
X-91800D01*
Y-94400D01*
X-91400D01*
X-88400Y-80400D02*
Y-80800D01*
X-87600D01*
Y-80400D01*
X-87200D01*
Y-79600D01*
X-87600D01*
Y-79200D01*
X-88400D01*
Y-79600D01*
X-88800D01*
Y-80400D01*
X-88400D01*
X-91400Y-101400D02*
Y-101800D01*
X-90600D01*
Y-101400D01*
X-90200D01*
Y-100600D01*
X-90600D01*
Y-100200D01*
X-91400D01*
Y-100600D01*
X-91800D01*
Y-101400D01*
X-91400D01*
X-91353Y-105799D02*
Y-106200D01*
X-90553D01*
Y-105799D01*
X-90153D01*
Y-104999D01*
X-90553D01*
Y-104599D01*
X-91353D01*
Y-104999D01*
X-91753D01*
Y-105799D01*
X-91353D01*
X-91400Y-72400D02*
Y-72800D01*
X-90600D01*
Y-72400D01*
X-90200D01*
Y-71600D01*
X-90600D01*
Y-71200D01*
X-91400D01*
Y-71600D01*
X-91800D01*
Y-72400D01*
X-91400D01*
Y-77400D02*
Y-77800D01*
X-90600D01*
Y-77400D01*
X-90200D01*
Y-76600D01*
X-90600D01*
Y-76200D01*
X-91400D01*
Y-76600D01*
X-91800D01*
Y-77400D01*
X-91400D01*
X-61400Y-92400D02*
Y-92800D01*
X-60600D01*
Y-92400D01*
X-60200D01*
Y-91600D01*
X-60600D01*
Y-91200D01*
X-61400D01*
Y-91600D01*
X-61800D01*
Y-92400D01*
X-61400D01*
X-45400Y-127400D02*
Y-127800D01*
X-44600D01*
Y-127400D01*
X-44200D01*
Y-126600D01*
X-44600D01*
Y-126200D01*
X-45400D01*
Y-126600D01*
X-45800D01*
Y-127400D01*
X-45400D01*
X-48400D02*
Y-127800D01*
X-47600D01*
Y-127400D01*
X-47200D01*
Y-126600D01*
X-47600D01*
Y-126200D01*
X-48400D01*
Y-126600D01*
X-48800D01*
Y-127400D01*
X-48400D01*
X-62400Y-95400D02*
Y-95800D01*
X-61600D01*
Y-95400D01*
X-61200D01*
Y-94600D01*
X-61600D01*
Y-94200D01*
X-62400D01*
Y-94600D01*
X-62800D01*
Y-95400D01*
X-62400D01*
X-41400Y-113400D02*
Y-113800D01*
X-40600D01*
Y-113400D01*
X-40200D01*
Y-112600D01*
X-40600D01*
Y-112200D01*
X-41400D01*
Y-112600D01*
X-41800D01*
Y-113400D01*
X-41400D01*
X-32400Y-98400D02*
Y-98800D01*
X-31600D01*
Y-98400D01*
X-31200D01*
Y-97600D01*
X-31600D01*
Y-97200D01*
X-32400D01*
Y-97600D01*
X-32800D01*
Y-98400D01*
X-32400D01*
X-31412Y-101455D02*
Y-101855D01*
X-30612D01*
Y-101455D01*
X-30212D01*
Y-100655D01*
X-30612D01*
Y-100255D01*
X-31412D01*
Y-100655D01*
X-31812D01*
Y-101455D01*
X-31412D01*
X-55400Y-78400D02*
Y-78800D01*
X-54600D01*
Y-78400D01*
X-54200D01*
Y-77600D01*
X-54600D01*
Y-77200D01*
X-55400D01*
Y-77600D01*
X-55800D01*
Y-78400D01*
X-55400D01*
Y-75400D02*
Y-75800D01*
X-54600D01*
Y-75400D01*
X-54200D01*
Y-74600D01*
X-54600D01*
Y-74200D01*
X-55400D01*
Y-74600D01*
X-55800D01*
Y-75400D01*
X-55400D01*
X-72400Y-67400D02*
Y-67800D01*
X-71600D01*
Y-67400D01*
X-71200D01*
Y-66600D01*
X-71600D01*
Y-66200D01*
X-72400D01*
Y-66600D01*
X-72800D01*
Y-67400D01*
X-72400D01*
X-70400Y-65400D02*
Y-65800D01*
X-69600D01*
Y-65400D01*
X-69200D01*
Y-64600D01*
X-69600D01*
Y-64200D01*
X-70400D01*
Y-64600D01*
X-70800D01*
Y-65400D01*
X-70400D01*
Y-60400D02*
Y-60800D01*
X-69600D01*
Y-60400D01*
X-69200D01*
Y-59600D01*
X-69600D01*
Y-59200D01*
X-70400D01*
Y-59600D01*
X-70800D01*
Y-60400D01*
X-70400D01*
X-80400Y-50400D02*
Y-50800D01*
X-79600D01*
Y-50400D01*
X-79200D01*
Y-49600D01*
X-79600D01*
Y-49200D01*
X-80400D01*
Y-49600D01*
X-80800D01*
Y-50400D01*
X-80400D01*
X-75400D02*
Y-50800D01*
X-74600D01*
Y-50400D01*
X-74200D01*
Y-49600D01*
X-74600D01*
Y-49200D01*
X-75400D01*
Y-49600D01*
X-75800D01*
Y-50400D01*
X-75400D01*
X-70400D02*
Y-50800D01*
X-69600D01*
Y-50400D01*
X-69200D01*
Y-49600D01*
X-69600D01*
Y-49200D01*
X-70400D01*
Y-49600D01*
X-70800D01*
Y-50400D01*
X-70400D01*
X-36900Y-75900D02*
Y-76300D01*
X-36100D01*
Y-75900D01*
X-35700D01*
Y-75100D01*
X-36100D01*
Y-74700D01*
X-36900D01*
Y-75100D01*
X-37300D01*
Y-75900D01*
X-36900D01*
X-64227Y-57727D02*
Y-58127D01*
X-63427D01*
Y-57727D01*
X-63027D01*
Y-56927D01*
X-63427D01*
Y-56527D01*
X-64227D01*
Y-56927D01*
X-64627D01*
Y-57727D01*
X-64227D01*
X-77158Y-120189D02*
Y-120589D01*
X-76358D01*
Y-120189D01*
X-75958D01*
Y-119389D01*
X-76358D01*
Y-118989D01*
X-77158D01*
Y-119389D01*
X-77558D01*
Y-120189D01*
X-77158D01*
X-77400Y-122900D02*
Y-123300D01*
X-76600D01*
Y-122900D01*
X-76200D01*
Y-122100D01*
X-76600D01*
Y-121700D01*
X-77400D01*
Y-122100D01*
X-77800D01*
Y-122900D01*
X-77400D01*
X-74400Y-122400D02*
Y-122800D01*
X-73600D01*
Y-122400D01*
X-73200D01*
Y-121600D01*
X-73600D01*
Y-121200D01*
X-74400D01*
Y-121600D01*
X-74800D01*
Y-122400D01*
X-74400D01*
Y-119400D02*
Y-119800D01*
X-73600D01*
Y-119400D01*
X-73200D01*
Y-118600D01*
X-73600D01*
Y-118200D01*
X-74400D01*
Y-118600D01*
X-74800D01*
Y-119400D01*
X-74400D01*
X-41681Y-100619D02*
Y-101019D01*
X-40881D01*
Y-100619D01*
X-40481D01*
Y-99819D01*
X-40881D01*
Y-99419D01*
X-41681D01*
Y-99819D01*
X-42081D01*
Y-100619D01*
X-41681D01*
X-71900Y-90900D02*
Y-91300D01*
X-71100D01*
Y-90900D01*
X-70700D01*
Y-90100D01*
X-71100D01*
Y-89700D01*
X-71900D01*
Y-90100D01*
X-72300D01*
Y-90900D01*
X-71900D01*
X-79400Y-74900D02*
Y-75300D01*
X-78600D01*
Y-74900D01*
X-78200D01*
Y-74100D01*
X-78600D01*
Y-73700D01*
X-79400D01*
Y-74100D01*
X-79800D01*
Y-74900D01*
X-79400D01*
X-83242Y-86058D02*
Y-86458D01*
X-82442D01*
Y-86058D01*
X-82042D01*
Y-85258D01*
X-82442D01*
Y-84857D01*
X-83242D01*
Y-85258D01*
X-83643D01*
Y-86058D01*
X-83242D01*
X-86900Y-124400D02*
Y-124800D01*
X-86100D01*
Y-124400D01*
X-85700D01*
Y-123600D01*
X-86100D01*
Y-123200D01*
X-86900D01*
Y-123600D01*
X-87300D01*
Y-124400D01*
X-86900D01*
X-52400Y-108400D02*
Y-108800D01*
X-51600D01*
Y-108400D01*
X-51200D01*
Y-107600D01*
X-51600D01*
Y-107200D01*
X-52400D01*
Y-107600D01*
X-52800D01*
Y-108400D01*
X-52400D01*
X-86900Y-108400D02*
Y-108800D01*
X-86100D01*
Y-108400D01*
X-85700D01*
Y-107600D01*
X-86100D01*
Y-107200D01*
X-86900D01*
Y-107600D01*
X-87300D01*
Y-108400D01*
X-86900D01*
X-77400Y-112400D02*
Y-112800D01*
X-76600D01*
Y-112400D01*
X-76200D01*
Y-111600D01*
X-76600D01*
Y-111200D01*
X-77400D01*
Y-111600D01*
X-77800D01*
Y-112400D01*
X-77400D01*
X-83242Y-97742D02*
Y-98142D01*
X-82442D01*
Y-97742D01*
X-82042D01*
Y-96943D01*
X-82442D01*
Y-96543D01*
X-83242D01*
Y-96943D01*
X-83643D01*
Y-97742D01*
X-83242D01*
X-101400Y-71400D02*
Y-71800D01*
X-100600D01*
Y-71400D01*
X-100200D01*
Y-70600D01*
X-100600D01*
Y-70200D01*
X-101400D01*
Y-70600D01*
X-101800D01*
Y-71400D01*
X-101400D01*
X-106400Y-115400D02*
Y-115800D01*
X-105600D01*
Y-115400D01*
X-105200D01*
Y-114600D01*
X-105600D01*
Y-114200D01*
X-106400D01*
Y-114600D01*
X-106800D01*
Y-115400D01*
X-106400D01*
X-46715Y-80585D02*
Y-80985D01*
X-45915D01*
Y-80585D01*
X-45515D01*
Y-79785D01*
X-45915D01*
Y-79385D01*
X-46715D01*
Y-79785D01*
X-47115D01*
Y-80585D01*
X-46715D01*
X-64380Y-47480D02*
Y-47880D01*
X-63580D01*
Y-47480D01*
X-63180D01*
Y-46680D01*
X-63580D01*
Y-46280D01*
X-64380D01*
Y-46680D01*
X-64780D01*
Y-47480D01*
X-64380D01*
X-85900Y-51400D02*
Y-51800D01*
X-85100D01*
Y-51400D01*
X-84700D01*
Y-50600D01*
X-85100D01*
Y-50200D01*
X-85900D01*
Y-50600D01*
X-86300D01*
Y-51400D01*
X-85900D01*
X-91400Y-67900D02*
Y-68300D01*
X-90600D01*
Y-67900D01*
X-90200D01*
Y-67100D01*
X-90600D01*
Y-66700D01*
X-91400D01*
Y-67100D01*
X-91800D01*
Y-67900D01*
X-91400D01*
X-90400Y-65400D02*
Y-65800D01*
X-89600D01*
Y-65400D01*
X-89200D01*
Y-64600D01*
X-89600D01*
Y-64200D01*
X-90400D01*
Y-64600D01*
X-90800D01*
Y-65400D01*
X-90400D01*
X-115400Y-105400D02*
Y-105800D01*
X-114600D01*
Y-105400D01*
X-114200D01*
Y-104600D01*
X-114600D01*
Y-104200D01*
X-115400D01*
Y-104600D01*
X-115800D01*
Y-105400D01*
X-115400D01*
X-19380Y-19480D02*
Y-19880D01*
X-18580D01*
Y-19480D01*
X-18180D01*
Y-18680D01*
X-18580D01*
Y-18280D01*
X-19380D01*
Y-18680D01*
X-19780D01*
Y-19480D01*
X-19380D01*
X-92400Y-24400D02*
Y-24800D01*
X-91600D01*
Y-24400D01*
X-91200D01*
Y-23600D01*
X-91600D01*
Y-23200D01*
X-92400D01*
Y-23600D01*
X-92800D01*
Y-24400D01*
X-92400D01*
X-113100Y-54500D02*
Y-54900D01*
X-112300D01*
Y-54500D01*
X-111900D01*
Y-53700D01*
X-112300D01*
Y-53300D01*
X-113100D01*
Y-53700D01*
X-113500D01*
Y-54500D01*
X-113100D01*
X-59780Y-36980D02*
Y-37380D01*
X-58980D01*
Y-36980D01*
X-58580D01*
Y-36180D01*
X-58980D01*
Y-35780D01*
X-59780D01*
Y-36180D01*
X-60180D01*
Y-36980D01*
X-59780D01*
X-35400Y-65400D02*
Y-65800D01*
X-34600D01*
Y-65400D01*
X-34200D01*
Y-64600D01*
X-34600D01*
Y-64200D01*
X-35400D01*
Y-64600D01*
X-35800D01*
Y-65400D01*
X-35400D01*
X-92400Y-21400D02*
Y-21800D01*
X-91600D01*
Y-21400D01*
X-91200D01*
Y-20600D01*
X-91600D01*
Y-20200D01*
X-92400D01*
Y-20600D01*
X-92800D01*
Y-21400D01*
X-92400D01*
X-4380Y-44480D02*
Y-44880D01*
X-3580D01*
Y-44480D01*
X-3180D01*
Y-43680D01*
X-3580D01*
Y-43280D01*
X-4380D01*
Y-43680D01*
X-4780D01*
Y-44480D01*
X-4380D01*
X-10400Y-30400D02*
Y-30800D01*
X-9600D01*
Y-30400D01*
X-9200D01*
Y-29600D01*
X-9600D01*
Y-29200D01*
X-10400D01*
Y-29600D01*
X-10800D01*
Y-30400D01*
X-10400D01*
Y-35400D02*
Y-35800D01*
X-9600D01*
Y-35400D01*
X-9200D01*
Y-34600D01*
X-9600D01*
Y-34200D01*
X-10400D01*
Y-34600D01*
X-10800D01*
Y-35400D01*
X-10400D01*
X-114380Y-69480D02*
Y-69880D01*
X-113580D01*
Y-69480D01*
X-113180D01*
Y-68680D01*
X-113580D01*
Y-68280D01*
X-114380D01*
Y-68680D01*
X-114780D01*
Y-69480D01*
X-114380D01*
X-32480Y-119280D02*
Y-119680D01*
X-31680D01*
Y-119280D01*
X-31280D01*
Y-118480D01*
X-31680D01*
Y-118080D01*
X-32480D01*
Y-118480D01*
X-32880D01*
Y-119280D01*
X-32480D01*
X-124380Y-24480D02*
Y-24880D01*
X-123580D01*
Y-24480D01*
X-123180D01*
Y-23680D01*
X-123580D01*
Y-23280D01*
X-124380D01*
Y-23680D01*
X-124780D01*
Y-24480D01*
X-124380D01*
X-114380Y-27480D02*
Y-27880D01*
X-113580D01*
Y-27480D01*
X-113180D01*
Y-26680D01*
X-113580D01*
Y-26280D01*
X-114380D01*
Y-26680D01*
X-114780D01*
Y-27480D01*
X-114380D01*
X-134380Y-24480D02*
Y-24880D01*
X-133580D01*
Y-24480D01*
X-133180D01*
Y-23680D01*
X-133580D01*
Y-23280D01*
X-134380D01*
Y-23680D01*
X-134780D01*
Y-24480D01*
X-134380D01*
X-129380Y-29480D02*
Y-29880D01*
X-128580D01*
Y-29480D01*
X-128180D01*
Y-28680D01*
X-128580D01*
Y-28280D01*
X-129380D01*
Y-28680D01*
X-129780D01*
Y-29480D01*
X-129380D01*
X-119380D02*
Y-29880D01*
X-118580D01*
Y-29480D01*
X-118180D01*
Y-28680D01*
X-118580D01*
Y-28280D01*
X-119380D01*
Y-28680D01*
X-119780D01*
Y-29480D01*
X-119380D01*
X-149380D02*
Y-29880D01*
X-148580D01*
Y-29480D01*
X-148180D01*
Y-28680D01*
X-148580D01*
Y-28280D01*
X-149380D01*
Y-28680D01*
X-149780D01*
Y-29480D01*
X-149380D01*
X-139380D02*
Y-29880D01*
X-138580D01*
Y-29480D01*
X-138180D01*
Y-28680D01*
X-138580D01*
Y-28280D01*
X-139380D01*
Y-28680D01*
X-139780D01*
Y-29480D01*
X-139380D01*
X-149380Y-39480D02*
Y-39880D01*
X-148580D01*
Y-39480D01*
X-148180D01*
Y-38680D01*
X-148580D01*
Y-38280D01*
X-149380D01*
Y-38680D01*
X-149780D01*
Y-39480D01*
X-149380D01*
X-139380D02*
Y-39880D01*
X-138580D01*
Y-39480D01*
X-138180D01*
Y-38680D01*
X-138580D01*
Y-38280D01*
X-139380D01*
Y-38680D01*
X-139780D01*
Y-39480D01*
X-139380D01*
X-114380Y-40480D02*
Y-40880D01*
X-113580D01*
Y-40480D01*
X-113180D01*
Y-39680D01*
X-113580D01*
Y-39280D01*
X-114380D01*
Y-39680D01*
X-114780D01*
Y-40480D01*
X-114380D01*
X-149380Y-49480D02*
Y-49880D01*
X-148580D01*
Y-49480D01*
X-148180D01*
Y-48680D01*
X-148580D01*
Y-48280D01*
X-149380D01*
Y-48680D01*
X-149780D01*
Y-49480D01*
X-149380D01*
X-139380D02*
Y-49880D01*
X-138580D01*
Y-49480D01*
X-138180D01*
Y-48680D01*
X-138580D01*
Y-48280D01*
X-139380D01*
Y-48680D01*
X-139780D01*
Y-49480D01*
X-139380D01*
X-129380Y-54989D02*
Y-55389D01*
X-128580D01*
Y-54989D01*
X-128180D01*
Y-54189D01*
X-128580D01*
Y-53789D01*
X-129380D01*
Y-54189D01*
X-129780D01*
Y-54989D01*
X-129380D01*
X-119380Y-54480D02*
Y-54880D01*
X-118580D01*
Y-54480D01*
X-118180D01*
Y-53680D01*
X-118580D01*
Y-53280D01*
X-119380D01*
Y-53680D01*
X-119780D01*
Y-54480D01*
X-119380D01*
X-114380Y-64480D02*
Y-64880D01*
X-113580D01*
Y-64480D01*
X-113180D01*
Y-63680D01*
X-113580D01*
Y-63280D01*
X-114380D01*
Y-63680D01*
X-114780D01*
Y-64480D01*
X-114380D01*
X-15400Y-40400D02*
Y-40800D01*
X-14600D01*
Y-40400D01*
X-14200D01*
Y-39600D01*
X-14600D01*
Y-39200D01*
X-15400D01*
Y-39600D01*
X-15800D01*
Y-40400D01*
X-15400D01*
X-40400Y-50400D02*
Y-50800D01*
X-39600D01*
Y-50400D01*
X-39200D01*
Y-49600D01*
X-39600D01*
Y-49200D01*
X-40400D01*
Y-49600D01*
X-40800D01*
Y-50400D01*
X-40400D01*
Y-65400D02*
Y-65800D01*
X-39600D01*
Y-65400D01*
X-39200D01*
Y-64600D01*
X-39600D01*
Y-64200D01*
X-40400D01*
Y-64600D01*
X-40800D01*
Y-65400D01*
X-40400D01*
X-10400Y-40400D02*
Y-40800D01*
X-9600D01*
Y-40400D01*
X-9200D01*
Y-39600D01*
X-9600D01*
Y-39200D01*
X-10400D01*
Y-39600D01*
X-10800D01*
Y-40400D01*
X-10400D01*
X-4380Y-24480D02*
Y-24880D01*
X-3580D01*
Y-24480D01*
X-3180D01*
Y-23680D01*
X-3580D01*
Y-23280D01*
X-4380D01*
Y-23680D01*
X-4780D01*
Y-24480D01*
X-4380D01*
X-14380D02*
Y-24880D01*
X-13580D01*
Y-24480D01*
X-13180D01*
Y-23680D01*
X-13580D01*
Y-23280D01*
X-14380D01*
Y-23680D01*
X-14780D01*
Y-24480D01*
X-14380D01*
X-4380Y-49480D02*
Y-49880D01*
X-3580D01*
Y-49480D01*
X-3180D01*
Y-48680D01*
X-3580D01*
Y-48280D01*
X-4380D01*
Y-48680D01*
X-4780D01*
Y-49480D01*
X-4380D01*
X-35400Y-45400D02*
Y-45800D01*
X-34600D01*
Y-45400D01*
X-34200D01*
Y-44600D01*
X-34600D01*
Y-44200D01*
X-35400D01*
Y-44600D01*
X-35800D01*
Y-45400D01*
X-35400D01*
X-5400Y-57900D02*
Y-58300D01*
X-4600D01*
Y-57900D01*
X-4200D01*
Y-57100D01*
X-4600D01*
Y-56700D01*
X-5400D01*
Y-57100D01*
X-5800D01*
Y-57900D01*
X-5400D01*
Y-65400D02*
Y-65800D01*
X-4600D01*
Y-65400D01*
X-4200D01*
Y-64600D01*
X-4600D01*
Y-64200D01*
X-5400D01*
Y-64600D01*
X-5800D01*
Y-65400D01*
X-5400D01*
X-96400Y-130400D02*
Y-130800D01*
X-95600D01*
Y-130400D01*
X-95200D01*
Y-129600D01*
X-95600D01*
Y-129200D01*
X-96400D01*
Y-129600D01*
X-96800D01*
Y-130400D01*
X-96400D01*
X-35400Y-50400D02*
Y-50800D01*
X-34600D01*
Y-50400D01*
X-34200D01*
Y-49600D01*
X-34600D01*
Y-49200D01*
X-35400D01*
Y-49600D01*
X-35800D01*
Y-50400D01*
X-35400D01*
X-64380Y-44480D02*
Y-44880D01*
X-63580D01*
Y-44480D01*
X-63180D01*
Y-43680D01*
X-63580D01*
Y-43280D01*
X-64380D01*
Y-43680D01*
X-64780D01*
Y-44480D01*
X-64380D01*
X-37900Y-47900D02*
Y-48300D01*
X-37100D01*
Y-47900D01*
X-36700D01*
Y-47100D01*
X-37100D01*
Y-46700D01*
X-37900D01*
Y-47100D01*
X-38300D01*
Y-47900D01*
X-37900D01*
X-35400Y-40400D02*
Y-40800D01*
X-34600D01*
Y-40400D01*
X-34200D01*
Y-39600D01*
X-34600D01*
Y-39200D01*
X-35400D01*
Y-39600D01*
X-35800D01*
Y-40400D01*
X-35400D01*
X-61380Y-32480D02*
Y-32880D01*
X-60580D01*
Y-32480D01*
X-60180D01*
Y-31680D01*
X-60580D01*
Y-31280D01*
X-61380D01*
Y-31680D01*
X-61780D01*
Y-32480D01*
X-61380D01*
X-100600Y-130500D02*
Y-130900D01*
X-99800D01*
Y-130500D01*
X-99400D01*
Y-129700D01*
X-99800D01*
Y-129300D01*
X-100600D01*
Y-129700D01*
X-101000D01*
Y-130500D01*
X-100600D01*
X-32400Y-50400D02*
Y-50800D01*
X-31600D01*
Y-50400D01*
X-31200D01*
Y-49600D01*
X-31600D01*
Y-49200D01*
X-32400D01*
Y-49600D01*
X-32800D01*
Y-50400D01*
X-32400D01*
X-89380Y-31980D02*
Y-32380D01*
X-88580D01*
Y-31980D01*
X-88180D01*
Y-31180D01*
X-88580D01*
Y-30780D01*
X-89380D01*
Y-31180D01*
X-89780D01*
Y-31980D01*
X-89380D01*
Y-34480D02*
Y-34880D01*
X-88580D01*
Y-34480D01*
X-88180D01*
Y-33680D01*
X-88580D01*
Y-33280D01*
X-89380D01*
Y-33680D01*
X-89780D01*
Y-34480D01*
X-89380D01*
X-105400Y-100400D02*
Y-100800D01*
X-104600D01*
Y-100400D01*
X-104200D01*
Y-99600D01*
X-104600D01*
Y-99200D01*
X-105400D01*
Y-99600D01*
X-105800D01*
Y-100400D01*
X-105400D01*
X-32400Y-95400D02*
Y-95800D01*
X-31600D01*
Y-95400D01*
X-31200D01*
Y-94600D01*
X-31600D01*
Y-94200D01*
X-32400D01*
Y-94600D01*
X-32800D01*
Y-95400D01*
X-32400D01*
X-90400Y-50400D02*
Y-50800D01*
X-89600D01*
Y-50400D01*
X-89200D01*
Y-49600D01*
X-89600D01*
Y-49200D01*
X-90400D01*
Y-49600D01*
X-90800D01*
Y-50400D01*
X-90400D01*
Y-55400D02*
Y-55800D01*
X-89600D01*
Y-55400D01*
X-89200D01*
Y-54600D01*
X-89600D01*
Y-54200D01*
X-90400D01*
Y-54600D01*
X-90800D01*
Y-55400D01*
X-90400D01*
Y-60400D02*
Y-60800D01*
X-89600D01*
Y-60400D01*
X-89200D01*
Y-59600D01*
X-89600D01*
Y-59200D01*
X-90400D01*
Y-59600D01*
X-90800D01*
Y-60400D01*
X-90400D01*
X-90380Y-37480D02*
Y-37880D01*
X-89580D01*
Y-37480D01*
X-89180D01*
Y-36680D01*
X-89580D01*
Y-36280D01*
X-90380D01*
Y-36680D01*
X-90780D01*
Y-37480D01*
X-90380D01*
X-78400Y-58400D02*
Y-58800D01*
X-77600D01*
Y-58400D01*
X-77200D01*
Y-57600D01*
X-77600D01*
Y-57200D01*
X-78400D01*
Y-57600D01*
X-78800D01*
Y-58400D01*
X-78400D01*
X-77380Y-42480D02*
Y-42880D01*
X-76580D01*
Y-42480D01*
X-76180D01*
Y-41680D01*
X-76580D01*
Y-41280D01*
X-77380D01*
Y-41680D01*
X-77780D01*
Y-42480D01*
X-77380D01*
X-90380Y-43480D02*
Y-43880D01*
X-89580D01*
Y-43480D01*
X-89180D01*
Y-42680D01*
X-89580D01*
Y-42280D01*
X-90380D01*
Y-42680D01*
X-90780D01*
Y-43480D01*
X-90380D01*
X-40400Y-10400D02*
Y-10800D01*
X-39600D01*
Y-10400D01*
X-39200D01*
Y-9600D01*
X-39600D01*
Y-9200D01*
X-40400D01*
Y-9600D01*
X-40800D01*
Y-10400D01*
X-40400D01*
X-126860Y-135800D02*
Y-136200D01*
X-126060D01*
Y-135800D01*
X-125660D01*
Y-135000D01*
X-126060D01*
Y-134600D01*
X-126860D01*
Y-135000D01*
X-127260D01*
Y-135800D01*
X-126860D01*
X-73880Y-134580D02*
Y-134980D01*
X-73080D01*
Y-134580D01*
X-72680D01*
Y-133780D01*
X-73080D01*
Y-133380D01*
X-73880D01*
Y-133780D01*
X-74280D01*
Y-134580D01*
X-73880D01*
X-71920Y-132680D02*
Y-133080D01*
X-71120D01*
Y-132680D01*
X-70720D01*
Y-131880D01*
X-71120D01*
Y-131480D01*
X-71920D01*
Y-131880D01*
X-72320D01*
Y-132680D01*
X-71920D01*
X-71880Y-136680D02*
Y-137080D01*
X-71080D01*
Y-136680D01*
X-70680D01*
Y-135880D01*
X-71080D01*
Y-135480D01*
X-71880D01*
Y-135880D01*
X-72280D01*
Y-136680D01*
X-71880D01*
X-77380Y-138480D02*
Y-138880D01*
X-76580D01*
Y-138480D01*
X-76180D01*
Y-137680D01*
X-76580D01*
Y-137280D01*
X-77380D01*
Y-137680D01*
X-77780D01*
Y-138480D01*
X-77380D01*
X-155400Y-86400D02*
Y-86800D01*
X-154600D01*
Y-86400D01*
X-154200D01*
Y-85600D01*
X-154600D01*
Y-85200D01*
X-155400D01*
Y-85600D01*
X-155800D01*
Y-86400D01*
X-155400D01*
X-145400D02*
Y-86800D01*
X-144600D01*
Y-86400D01*
X-144200D01*
Y-85600D01*
X-144600D01*
Y-85200D01*
X-145400D01*
Y-85600D01*
X-145800D01*
Y-86400D01*
X-145400D01*
X-135400D02*
Y-86800D01*
X-134600D01*
Y-86400D01*
X-134200D01*
Y-85600D01*
X-134600D01*
Y-85200D01*
X-135400D01*
Y-85600D01*
X-135800D01*
Y-86400D01*
X-135400D01*
X-155400Y-76400D02*
Y-76800D01*
X-154600D01*
Y-76400D01*
X-154200D01*
Y-75600D01*
X-154600D01*
Y-75200D01*
X-155400D01*
Y-75600D01*
X-155800D01*
Y-76400D01*
X-155400D01*
X-135400D02*
Y-76800D01*
X-134600D01*
Y-76400D01*
X-134200D01*
Y-75600D01*
X-134600D01*
Y-75200D01*
X-135400D01*
Y-75600D01*
X-135800D01*
Y-76400D01*
X-135400D01*
X-150400Y-115400D02*
Y-115800D01*
X-149600D01*
Y-115400D01*
X-149200D01*
Y-114600D01*
X-149600D01*
Y-114200D01*
X-150400D01*
Y-114600D01*
X-150800D01*
Y-115400D01*
X-150400D01*
X-140400D02*
Y-115800D01*
X-139600D01*
Y-115400D01*
X-139200D01*
Y-114600D01*
X-139600D01*
Y-114200D01*
X-140400D01*
Y-114600D01*
X-140800D01*
Y-115400D01*
X-140400D01*
X-130400D02*
Y-115800D01*
X-129600D01*
Y-115400D01*
X-129200D01*
Y-114600D01*
X-129600D01*
Y-114200D01*
X-130400D01*
Y-114600D01*
X-130800D01*
Y-115400D01*
X-130400D01*
X-150400Y-125400D02*
Y-125800D01*
X-149600D01*
Y-125400D01*
X-149200D01*
Y-124600D01*
X-149600D01*
Y-124200D01*
X-150400D01*
Y-124600D01*
X-150800D01*
Y-125400D01*
X-150400D01*
X-140400D02*
Y-125800D01*
X-139600D01*
Y-125400D01*
X-139200D01*
Y-124600D01*
X-139600D01*
Y-124200D01*
X-140400D01*
Y-124600D01*
X-140800D01*
Y-125400D01*
X-140400D01*
X-130400D02*
Y-125800D01*
X-129600D01*
Y-125400D01*
X-129200D01*
Y-124600D01*
X-129600D01*
Y-124200D01*
X-130400D01*
Y-124600D01*
X-130800D01*
Y-125400D01*
X-130400D01*
Y-130400D02*
Y-130800D01*
X-129600D01*
Y-130400D01*
X-129200D01*
Y-129600D01*
X-129600D01*
Y-129200D01*
X-130400D01*
Y-129600D01*
X-130800D01*
Y-130400D01*
X-130400D01*
X-120400D02*
Y-130800D01*
X-119600D01*
Y-130400D01*
X-119200D01*
Y-129600D01*
X-119600D01*
Y-129200D01*
X-120400D01*
Y-129600D01*
X-120800D01*
Y-130400D01*
X-120400D01*
X-110400D02*
Y-130800D01*
X-109600D01*
Y-130400D01*
X-109200D01*
Y-129600D01*
X-109600D01*
Y-129200D01*
X-110400D01*
Y-129600D01*
X-110800D01*
Y-130400D01*
X-110400D01*
X-130400Y-105400D02*
Y-105800D01*
X-129600D01*
Y-105400D01*
X-129200D01*
Y-104600D01*
X-129600D01*
Y-104200D01*
X-130400D01*
Y-104600D01*
X-130800D01*
Y-105400D01*
X-130400D01*
X-120400D02*
Y-105800D01*
X-119600D01*
Y-105400D01*
X-119200D01*
Y-104600D01*
X-119600D01*
Y-104200D01*
X-120400D01*
Y-104600D01*
X-120800D01*
Y-105400D01*
X-120400D01*
X-110400D02*
Y-105800D01*
X-109600D01*
Y-105400D01*
X-109200D01*
Y-104600D01*
X-109600D01*
Y-104200D01*
X-110400D01*
Y-104600D01*
X-110800D01*
Y-105400D01*
X-110400D01*
X-32400Y-55400D02*
Y-55800D01*
X-31600D01*
Y-55400D01*
X-31200D01*
Y-54600D01*
X-31600D01*
Y-54200D01*
X-32400D01*
Y-54600D01*
X-32800D01*
Y-55400D01*
X-32400D01*
X-59400Y-75400D02*
Y-75800D01*
X-58600D01*
Y-75400D01*
X-58200D01*
Y-74600D01*
X-58600D01*
Y-74200D01*
X-59400D01*
Y-74600D01*
X-59800D01*
Y-75400D01*
X-59400D01*
X-106400Y-70400D02*
Y-70800D01*
X-105600D01*
Y-70400D01*
X-105200D01*
Y-69600D01*
X-105600D01*
Y-69200D01*
X-106400D01*
Y-69600D01*
X-106800D01*
Y-70400D01*
X-106400D01*
X-42400Y-20400D02*
Y-20800D01*
X-41600D01*
Y-20400D01*
X-41200D01*
Y-19600D01*
X-41600D01*
Y-19200D01*
X-42400D01*
Y-19600D01*
X-42800D01*
Y-20400D01*
X-42400D01*
X-48400Y-15400D02*
Y-15800D01*
X-47600D01*
Y-15400D01*
X-47200D01*
Y-14600D01*
X-47600D01*
Y-14200D01*
X-48400D01*
Y-14600D01*
X-48800D01*
Y-15400D01*
X-48400D01*
X-55400D02*
Y-15800D01*
X-54600D01*
Y-15400D01*
X-54200D01*
Y-14600D01*
X-54600D01*
Y-14200D01*
X-55400D01*
Y-14600D01*
X-55800D01*
Y-15400D01*
X-55400D01*
X-46400Y-28400D02*
Y-28800D01*
X-45600D01*
Y-28400D01*
X-45200D01*
Y-27600D01*
X-45600D01*
Y-27200D01*
X-46400D01*
Y-27600D01*
X-46800D01*
Y-28400D01*
X-46400D01*
X-50400D02*
Y-28800D01*
X-49600D01*
Y-28400D01*
X-49200D01*
Y-27600D01*
X-49600D01*
Y-27200D01*
X-50400D01*
Y-27600D01*
X-50800D01*
Y-28400D01*
X-50400D01*
X-57400D02*
Y-28800D01*
X-56600D01*
Y-28400D01*
X-56200D01*
Y-27600D01*
X-56600D01*
Y-27200D01*
X-57400D01*
Y-27600D01*
X-57800D01*
Y-28400D01*
X-57400D01*
X-67400D02*
Y-28800D01*
X-66600D01*
Y-28400D01*
X-66200D01*
Y-27600D01*
X-66600D01*
Y-27200D01*
X-67400D01*
Y-27600D01*
X-67800D01*
Y-28400D01*
X-67400D01*
X-74400Y-27400D02*
Y-27800D01*
X-73600D01*
Y-27400D01*
X-73200D01*
Y-26600D01*
X-73600D01*
Y-26200D01*
X-74400D01*
Y-26600D01*
X-74800D01*
Y-27400D01*
X-74400D01*
X-82400Y-24400D02*
Y-24800D01*
X-81600D01*
Y-24400D01*
X-81200D01*
Y-23600D01*
X-81600D01*
Y-23200D01*
X-82400D01*
Y-23600D01*
X-82800D01*
Y-24400D01*
X-82400D01*
X-89400D02*
Y-24800D01*
X-88600D01*
Y-24400D01*
X-88200D01*
Y-23600D01*
X-88600D01*
Y-23200D01*
X-89400D01*
Y-23600D01*
X-89800D01*
Y-24400D01*
X-89400D01*
Y-13400D02*
Y-13800D01*
X-88600D01*
Y-13400D01*
X-88200D01*
Y-12600D01*
X-88600D01*
Y-12200D01*
X-89400D01*
Y-12600D01*
X-89800D01*
Y-13400D01*
X-89400D01*
X-99400Y-18400D02*
Y-18800D01*
X-98600D01*
Y-18400D01*
X-98200D01*
Y-17600D01*
X-98600D01*
Y-17200D01*
X-99400D01*
Y-17600D01*
X-99800D01*
Y-18400D01*
X-99400D01*
X-109400Y-12400D02*
Y-12800D01*
X-108600D01*
Y-12400D01*
X-108200D01*
Y-11600D01*
X-108600D01*
Y-11200D01*
X-109400D01*
Y-11600D01*
X-109800D01*
Y-12400D01*
X-109400D01*
Y-20400D02*
Y-20800D01*
X-108600D01*
Y-20400D01*
X-108200D01*
Y-19600D01*
X-108600D01*
Y-19200D01*
X-109400D01*
Y-19600D01*
X-109800D01*
Y-20400D01*
X-109400D01*
X-116400Y-23400D02*
Y-23800D01*
X-115600D01*
Y-23400D01*
X-115200D01*
Y-22600D01*
X-115600D01*
Y-22200D01*
X-116400D01*
Y-22600D01*
X-116800D01*
Y-23400D01*
X-116400D01*
X-33400Y-32400D02*
Y-32800D01*
X-32600D01*
Y-32400D01*
X-32200D01*
Y-31600D01*
X-32600D01*
Y-31200D01*
X-33400D01*
Y-31600D01*
X-33800D01*
Y-32400D01*
X-33400D01*
X-35400Y-27400D02*
Y-27800D01*
X-34600D01*
Y-27400D01*
X-34200D01*
Y-26600D01*
X-34600D01*
Y-26200D01*
X-35400D01*
Y-26600D01*
X-35800D01*
Y-27400D01*
X-35400D01*
X-33400Y-37400D02*
Y-37800D01*
X-32600D01*
Y-37400D01*
X-32200D01*
Y-36600D01*
X-32600D01*
Y-36200D01*
X-33400D01*
Y-36600D01*
X-33800D01*
Y-37400D01*
X-33400D01*
X-155400Y-99400D02*
Y-99800D01*
X-154600D01*
Y-99400D01*
X-154200D01*
Y-98600D01*
X-154600D01*
Y-98200D01*
X-155400D01*
Y-98600D01*
X-155800D01*
Y-99400D01*
X-155400D01*
X-138400Y-107400D02*
Y-107800D01*
X-137600D01*
Y-107400D01*
X-137200D01*
Y-106600D01*
X-137600D01*
Y-106200D01*
X-138400D01*
Y-106600D01*
X-138800D01*
Y-107400D01*
X-138400D01*
X185383Y-61790D02*
Y-62190D01*
X186184D01*
Y-61790D01*
X186583D01*
Y-60990D01*
X186184D01*
Y-60590D01*
X185383D01*
Y-60990D01*
X184984D01*
Y-61790D01*
X185383D01*
X192884D02*
Y-62190D01*
X193684D01*
Y-61790D01*
X194083D01*
Y-60990D01*
X193684D01*
Y-60590D01*
X192884D01*
Y-60990D01*
X192483D01*
Y-61790D01*
X192884D01*
X200383D02*
Y-62190D01*
X201184D01*
Y-61790D01*
X201584D01*
Y-60990D01*
X201184D01*
Y-60590D01*
X200383D01*
Y-60990D01*
X199984D01*
Y-61790D01*
X200383D01*
X247884Y-4290D02*
Y-4690D01*
X248684D01*
Y-4290D01*
X249083D01*
Y-3490D01*
X248684D01*
Y-3090D01*
X247884D01*
Y-3490D01*
X247483D01*
Y-4290D01*
X247884D01*
Y-11790D02*
Y-12190D01*
X248684D01*
Y-11790D01*
X249083D01*
Y-10990D01*
X248684D01*
Y-10590D01*
X247884D01*
Y-10990D01*
X247483D01*
Y-11790D01*
X247884D01*
Y-19290D02*
Y-19690D01*
X248684D01*
Y-19290D01*
X249083D01*
Y-18490D01*
X248684D01*
Y-18090D01*
X247884D01*
Y-18490D01*
X247483D01*
Y-19290D01*
X247884D01*
Y-59290D02*
Y-59690D01*
X248684D01*
Y-59290D01*
X249083D01*
Y-58490D01*
X248684D01*
Y-58090D01*
X247884D01*
Y-58490D01*
X247483D01*
Y-59290D01*
X247884D01*
Y-66790D02*
Y-67190D01*
X248684D01*
Y-66790D01*
X249083D01*
Y-65990D01*
X248684D01*
Y-65590D01*
X247884D01*
Y-65990D01*
X247483D01*
Y-66790D01*
X247884D01*
Y-74290D02*
Y-74690D01*
X248684D01*
Y-74290D01*
X249083D01*
Y-73490D01*
X248684D01*
Y-73090D01*
X247884D01*
Y-73490D01*
X247483D01*
Y-74290D01*
X247884D01*
X239883Y-33290D02*
Y-33690D01*
X240684D01*
Y-33290D01*
X241084D01*
Y-32490D01*
X240684D01*
Y-32090D01*
X239883D01*
Y-32490D01*
X239483D01*
Y-33290D01*
X239883D01*
Y-40790D02*
Y-41190D01*
X240684D01*
Y-40790D01*
X241084D01*
Y-39990D01*
X240684D01*
Y-39590D01*
X239883D01*
Y-39990D01*
X239483D01*
Y-40790D01*
X239883D01*
Y-48290D02*
Y-48690D01*
X240684D01*
Y-48290D01*
X241084D01*
Y-47490D01*
X240684D01*
Y-47090D01*
X239883D01*
Y-47490D01*
X239483D01*
Y-48290D01*
X239883D01*
X224383Y-27790D02*
Y-28190D01*
X225184D01*
Y-27790D01*
X225584D01*
Y-26990D01*
X225184D01*
Y-26590D01*
X224383D01*
Y-26990D01*
X223984D01*
Y-27790D01*
X224383D01*
X216883D02*
Y-28190D01*
X217684D01*
Y-27790D01*
X218084D01*
Y-26990D01*
X217684D01*
Y-26590D01*
X216883D01*
Y-26990D01*
X216483D01*
Y-27790D01*
X216883D01*
X209384D02*
Y-28190D01*
X210184D01*
Y-27790D01*
X210583D01*
Y-26990D01*
X210184D01*
Y-26590D01*
X209384D01*
Y-26990D01*
X208983D01*
Y-27790D01*
X209384D01*
X178884Y-48290D02*
Y-48690D01*
X179683D01*
Y-48290D01*
X180084D01*
Y-47490D01*
X179683D01*
Y-47090D01*
X178884D01*
Y-47490D01*
X178483D01*
Y-48290D01*
X178884D01*
Y-40790D02*
Y-41190D01*
X179683D01*
Y-40790D01*
X180084D01*
Y-39990D01*
X179683D01*
Y-39590D01*
X178884D01*
Y-39990D01*
X178483D01*
Y-40790D01*
X178884D01*
X192884Y-48290D02*
Y-48690D01*
X193684D01*
Y-48290D01*
X194083D01*
Y-47490D01*
X193684D01*
Y-47090D01*
X192884D01*
Y-47490D01*
X192483D01*
Y-48290D01*
X192884D01*
Y-40790D02*
Y-41190D01*
X193684D01*
Y-40790D01*
X194083D01*
Y-39990D01*
X193684D01*
Y-39590D01*
X192884D01*
Y-39990D01*
X192483D01*
Y-40790D01*
X192884D01*
Y-33290D02*
Y-33690D01*
X193684D01*
Y-33290D01*
X194083D01*
Y-32490D01*
X193684D01*
Y-32090D01*
X192884D01*
Y-32490D01*
X192483D01*
Y-33290D01*
X192884D01*
X210384Y-22790D02*
Y-23190D01*
X211184D01*
Y-22790D01*
X211583D01*
Y-21990D01*
X211184D01*
Y-21590D01*
X210384D01*
Y-21990D01*
X209983D01*
Y-22790D01*
X210384D01*
X217883D02*
Y-23190D01*
X218684D01*
Y-22790D01*
X219083D01*
Y-21990D01*
X218684D01*
Y-21590D01*
X217883D01*
Y-21990D01*
X217483D01*
Y-22790D01*
X217883D01*
X225383D02*
Y-23190D01*
X226184D01*
Y-22790D01*
X226584D01*
Y-21990D01*
X226184D01*
Y-21590D01*
X225383D01*
Y-21990D01*
X224984D01*
Y-22790D01*
X225383D01*
X199383Y-10790D02*
Y-11190D01*
X200184D01*
Y-10790D01*
X200584D01*
Y-9990D01*
X200184D01*
Y-9590D01*
X199383D01*
Y-9990D01*
X198984D01*
Y-10790D01*
X199383D01*
X206884D02*
Y-11190D01*
X207683D01*
Y-10790D01*
X208084D01*
Y-9990D01*
X207683D01*
Y-9590D01*
X206884D01*
Y-9990D01*
X206484D01*
Y-10790D01*
X206884D01*
X214384D02*
Y-11190D01*
X215183D01*
Y-10790D01*
X215583D01*
Y-9990D01*
X215183D01*
Y-9590D01*
X214384D01*
Y-9990D01*
X213983D01*
Y-10790D01*
X214384D01*
X177383D02*
Y-11190D01*
X178183D01*
Y-10790D01*
X178584D01*
Y-9990D01*
X178183D01*
Y-9590D01*
X177383D01*
Y-9990D01*
X176983D01*
Y-10790D01*
X177383D01*
X184883D02*
Y-11190D01*
X185684D01*
Y-10790D01*
X186083D01*
Y-9990D01*
X185684D01*
Y-9590D01*
X184883D01*
Y-9990D01*
X184484D01*
Y-10790D01*
X184883D01*
X192384D02*
Y-11190D01*
X193184D01*
Y-10790D01*
X193584D01*
Y-9990D01*
X193184D01*
Y-9590D01*
X192384D01*
Y-9990D01*
X191983D01*
Y-10790D01*
X192384D01*
X200383Y-69790D02*
Y-70190D01*
X201184D01*
Y-69790D01*
X201584D01*
Y-68990D01*
X201184D01*
Y-68590D01*
X200383D01*
Y-68990D01*
X199984D01*
Y-69790D01*
X200383D01*
X207884D02*
Y-70190D01*
X208683D01*
Y-69790D01*
X209084D01*
Y-68990D01*
X208683D01*
Y-68590D01*
X207884D01*
Y-68990D01*
X207484D01*
Y-69790D01*
X207884D01*
X215384D02*
Y-70190D01*
X216183D01*
Y-69790D01*
X216583D01*
Y-68990D01*
X216183D01*
Y-68590D01*
X215384D01*
Y-68990D01*
X214984D01*
Y-69790D01*
X215384D01*
X176383D02*
Y-70190D01*
X177183D01*
Y-69790D01*
X177584D01*
Y-68990D01*
X177183D01*
Y-68590D01*
X176383D01*
Y-68990D01*
X175984D01*
Y-69790D01*
X176383D01*
X183884D02*
Y-70190D01*
X184684D01*
Y-69790D01*
X185083D01*
Y-68990D01*
X184684D01*
Y-68590D01*
X183884D01*
Y-68990D01*
X183484D01*
Y-69790D01*
X183884D01*
X191384D02*
Y-70190D01*
X192183D01*
Y-69790D01*
X192584D01*
Y-68990D01*
X192183D01*
Y-68590D01*
X191384D01*
Y-68990D01*
X190983D01*
Y-69790D01*
X191384D01*
X178969Y-33460D02*
Y-33860D01*
X179769D01*
Y-33460D01*
X180168D01*
Y-32660D01*
X179769D01*
Y-32260D01*
X178969D01*
Y-32660D01*
X178568D01*
Y-33460D01*
X178969D01*
X225368Y-55360D02*
Y-55760D01*
X226168D01*
Y-55360D01*
X226569D01*
Y-54560D01*
X226168D01*
Y-54160D01*
X225368D01*
Y-54560D01*
X224969D01*
Y-55360D01*
X225368D01*
X217868D02*
Y-55760D01*
X218669D01*
Y-55360D01*
X219069D01*
Y-54560D01*
X218669D01*
Y-54160D01*
X217868D01*
Y-54560D01*
X217469D01*
Y-55360D01*
X217868D01*
X210368D02*
Y-55760D01*
X211169D01*
Y-55360D01*
X211568D01*
Y-54560D01*
X211169D01*
Y-54160D01*
X210368D01*
Y-54560D01*
X209968D01*
Y-55360D01*
X210368D01*
Y-134100D02*
Y-134500D01*
X211169D01*
Y-134100D01*
X211568D01*
Y-133300D01*
X211169D01*
Y-132900D01*
X210368D01*
Y-133300D01*
X209968D01*
Y-134100D01*
X210368D01*
X217868D02*
Y-134500D01*
X218669D01*
Y-134100D01*
X219069D01*
Y-133300D01*
X218669D01*
Y-132900D01*
X217868D01*
Y-133300D01*
X217469D01*
Y-134100D01*
X217868D01*
X225368D02*
Y-134500D01*
X226168D01*
Y-134100D01*
X226569D01*
Y-133300D01*
X226168D01*
Y-132900D01*
X225368D01*
Y-133300D01*
X224969D01*
Y-134100D01*
X225368D01*
X178969Y-112200D02*
Y-112600D01*
X179769D01*
Y-112200D01*
X180168D01*
Y-111400D01*
X179769D01*
Y-111000D01*
X178969D01*
Y-111400D01*
X178568D01*
Y-112200D01*
X178969D01*
X191384Y-148530D02*
Y-148930D01*
X192183D01*
Y-148530D01*
X192584D01*
Y-147730D01*
X192183D01*
Y-147330D01*
X191384D01*
Y-147730D01*
X190983D01*
Y-148530D01*
X191384D01*
X183884D02*
Y-148930D01*
X184684D01*
Y-148530D01*
X185083D01*
Y-147730D01*
X184684D01*
Y-147330D01*
X183884D01*
Y-147730D01*
X183484D01*
Y-148530D01*
X183884D01*
X176383D02*
Y-148930D01*
X177183D01*
Y-148530D01*
X177584D01*
Y-147730D01*
X177183D01*
Y-147330D01*
X176383D01*
Y-147730D01*
X175984D01*
Y-148530D01*
X176383D01*
X215384D02*
Y-148930D01*
X216183D01*
Y-148530D01*
X216583D01*
Y-147730D01*
X216183D01*
Y-147330D01*
X215384D01*
Y-147730D01*
X214984D01*
Y-148530D01*
X215384D01*
X207884D02*
Y-148930D01*
X208683D01*
Y-148530D01*
X209084D01*
Y-147730D01*
X208683D01*
Y-147330D01*
X207884D01*
Y-147730D01*
X207484D01*
Y-148530D01*
X207884D01*
X200383D02*
Y-148930D01*
X201184D01*
Y-148530D01*
X201584D01*
Y-147730D01*
X201184D01*
Y-147330D01*
X200383D01*
Y-147730D01*
X199984D01*
Y-148530D01*
X200383D01*
X192384Y-89530D02*
Y-89930D01*
X193184D01*
Y-89530D01*
X193584D01*
Y-88730D01*
X193184D01*
Y-88330D01*
X192384D01*
Y-88730D01*
X191983D01*
Y-89530D01*
X192384D01*
X184883D02*
Y-89930D01*
X185684D01*
Y-89530D01*
X186083D01*
Y-88730D01*
X185684D01*
Y-88330D01*
X184883D01*
Y-88730D01*
X184484D01*
Y-89530D01*
X184883D01*
X177383D02*
Y-89930D01*
X178183D01*
Y-89530D01*
X178584D01*
Y-88730D01*
X178183D01*
Y-88330D01*
X177383D01*
Y-88730D01*
X176983D01*
Y-89530D01*
X177383D01*
X214384D02*
Y-89930D01*
X215183D01*
Y-89530D01*
X215583D01*
Y-88730D01*
X215183D01*
Y-88330D01*
X214384D01*
Y-88730D01*
X213983D01*
Y-89530D01*
X214384D01*
X206884D02*
Y-89930D01*
X207683D01*
Y-89530D01*
X208084D01*
Y-88730D01*
X207683D01*
Y-88330D01*
X206884D01*
Y-88730D01*
X206484D01*
Y-89530D01*
X206884D01*
X199383D02*
Y-89930D01*
X200184D01*
Y-89530D01*
X200584D01*
Y-88730D01*
X200184D01*
Y-88330D01*
X199383D01*
Y-88730D01*
X198984D01*
Y-89530D01*
X199383D01*
X225383Y-101530D02*
Y-101930D01*
X226184D01*
Y-101530D01*
X226584D01*
Y-100730D01*
X226184D01*
Y-100330D01*
X225383D01*
Y-100730D01*
X224984D01*
Y-101530D01*
X225383D01*
X217883D02*
Y-101930D01*
X218684D01*
Y-101530D01*
X219083D01*
Y-100730D01*
X218684D01*
Y-100330D01*
X217883D01*
Y-100730D01*
X217483D01*
Y-101530D01*
X217883D01*
X210384D02*
Y-101930D01*
X211184D01*
Y-101530D01*
X211583D01*
Y-100730D01*
X211184D01*
Y-100330D01*
X210384D01*
Y-100730D01*
X209983D01*
Y-101530D01*
X210384D01*
X192884Y-112030D02*
Y-112430D01*
X193684D01*
Y-112030D01*
X194083D01*
Y-111230D01*
X193684D01*
Y-110830D01*
X192884D01*
Y-111230D01*
X192483D01*
Y-112030D01*
X192884D01*
Y-119530D02*
Y-119930D01*
X193684D01*
Y-119530D01*
X194083D01*
Y-118730D01*
X193684D01*
Y-118330D01*
X192884D01*
Y-118730D01*
X192483D01*
Y-119530D01*
X192884D01*
Y-127030D02*
Y-127430D01*
X193684D01*
Y-127030D01*
X194083D01*
Y-126230D01*
X193684D01*
Y-125830D01*
X192884D01*
Y-126230D01*
X192483D01*
Y-127030D01*
X192884D01*
X178884Y-119530D02*
Y-119930D01*
X179683D01*
Y-119530D01*
X180084D01*
Y-118730D01*
X179683D01*
Y-118330D01*
X178884D01*
Y-118730D01*
X178483D01*
Y-119530D01*
X178884D01*
Y-127030D02*
Y-127430D01*
X179683D01*
Y-127030D01*
X180084D01*
Y-126230D01*
X179683D01*
Y-125830D01*
X178884D01*
Y-126230D01*
X178483D01*
Y-127030D01*
X178884D01*
X209384Y-106530D02*
Y-106930D01*
X210184D01*
Y-106530D01*
X210583D01*
Y-105730D01*
X210184D01*
Y-105330D01*
X209384D01*
Y-105730D01*
X208983D01*
Y-106530D01*
X209384D01*
X216883D02*
Y-106930D01*
X217684D01*
Y-106530D01*
X218084D01*
Y-105730D01*
X217684D01*
Y-105330D01*
X216883D01*
Y-105730D01*
X216483D01*
Y-106530D01*
X216883D01*
X224383D02*
Y-106930D01*
X225184D01*
Y-106530D01*
X225584D01*
Y-105730D01*
X225184D01*
Y-105330D01*
X224383D01*
Y-105730D01*
X223984D01*
Y-106530D01*
X224383D01*
X239883Y-127030D02*
Y-127430D01*
X240684D01*
Y-127030D01*
X241084D01*
Y-126230D01*
X240684D01*
Y-125830D01*
X239883D01*
Y-126230D01*
X239483D01*
Y-127030D01*
X239883D01*
Y-119530D02*
Y-119930D01*
X240684D01*
Y-119530D01*
X241084D01*
Y-118730D01*
X240684D01*
Y-118330D01*
X239883D01*
Y-118730D01*
X239483D01*
Y-119530D01*
X239883D01*
Y-112030D02*
Y-112430D01*
X240684D01*
Y-112030D01*
X241084D01*
Y-111230D01*
X240684D01*
Y-110830D01*
X239883D01*
Y-111230D01*
X239483D01*
Y-112030D01*
X239883D01*
X247884Y-153030D02*
Y-153430D01*
X248684D01*
Y-153030D01*
X249083D01*
Y-152230D01*
X248684D01*
Y-151830D01*
X247884D01*
Y-152230D01*
X247483D01*
Y-153030D01*
X247884D01*
Y-145530D02*
Y-145930D01*
X248684D01*
Y-145530D01*
X249083D01*
Y-144730D01*
X248684D01*
Y-144330D01*
X247884D01*
Y-144730D01*
X247483D01*
Y-145530D01*
X247884D01*
Y-138030D02*
Y-138430D01*
X248684D01*
Y-138030D01*
X249083D01*
Y-137230D01*
X248684D01*
Y-136830D01*
X247884D01*
Y-137230D01*
X247483D01*
Y-138030D01*
X247884D01*
Y-98030D02*
Y-98430D01*
X248684D01*
Y-98030D01*
X249083D01*
Y-97230D01*
X248684D01*
Y-96830D01*
X247884D01*
Y-97230D01*
X247483D01*
Y-98030D01*
X247884D01*
Y-90530D02*
Y-90930D01*
X248684D01*
Y-90530D01*
X249083D01*
Y-89730D01*
X248684D01*
Y-89330D01*
X247884D01*
Y-89730D01*
X247483D01*
Y-90530D01*
X247884D01*
Y-83030D02*
Y-83430D01*
X248684D01*
Y-83030D01*
X249083D01*
Y-82230D01*
X248684D01*
Y-81830D01*
X247884D01*
Y-82230D01*
X247483D01*
Y-83030D01*
X247884D01*
X200383Y-140530D02*
Y-140930D01*
X201184D01*
Y-140530D01*
X201584D01*
Y-139730D01*
X201184D01*
Y-139330D01*
X200383D01*
Y-139730D01*
X199984D01*
Y-140530D01*
X200383D01*
X192884D02*
Y-140930D01*
X193684D01*
Y-140530D01*
X194083D01*
Y-139730D01*
X193684D01*
Y-139330D01*
X192884D01*
Y-139730D01*
X192483D01*
Y-140530D01*
X192884D01*
X185383D02*
Y-140930D01*
X186184D01*
Y-140530D01*
X186583D01*
Y-139730D01*
X186184D01*
Y-139330D01*
X185383D01*
Y-139730D01*
X184984D01*
Y-140530D01*
X185383D01*
Y95691D02*
Y95290D01*
X186184D01*
Y95691D01*
X186583D01*
Y96491D01*
X186184D01*
Y96890D01*
X185383D01*
Y96491D01*
X184984D01*
Y95691D01*
X185383D01*
X192884D02*
Y95290D01*
X193684D01*
Y95691D01*
X194083D01*
Y96491D01*
X193684D01*
Y96890D01*
X192884D01*
Y96491D01*
X192483D01*
Y95691D01*
X192884D01*
X200383D02*
Y95290D01*
X201184D01*
Y95691D01*
X201584D01*
Y96491D01*
X201184D01*
Y96890D01*
X200383D01*
Y96491D01*
X199984D01*
Y95691D01*
X200383D01*
X247884Y153191D02*
Y152791D01*
X248684D01*
Y153191D01*
X249083D01*
Y153991D01*
X248684D01*
Y154391D01*
X247884D01*
Y153991D01*
X247483D01*
Y153191D01*
X247884D01*
Y145691D02*
Y145291D01*
X248684D01*
Y145691D01*
X249083D01*
Y146491D01*
X248684D01*
Y146891D01*
X247884D01*
Y146491D01*
X247483D01*
Y145691D01*
X247884D01*
Y138191D02*
Y137791D01*
X248684D01*
Y138191D01*
X249083D01*
Y138991D01*
X248684D01*
Y139391D01*
X247884D01*
Y138991D01*
X247483D01*
Y138191D01*
X247884D01*
Y98190D02*
Y97790D01*
X248684D01*
Y98190D01*
X249083D01*
Y98990D01*
X248684D01*
Y99391D01*
X247884D01*
Y98990D01*
X247483D01*
Y98190D01*
X247884D01*
Y90690D02*
Y90290D01*
X248684D01*
Y90690D01*
X249083D01*
Y91491D01*
X248684D01*
Y91891D01*
X247884D01*
Y91491D01*
X247483D01*
Y90690D01*
X247884D01*
Y83191D02*
Y82790D01*
X248684D01*
Y83191D01*
X249083D01*
Y83991D01*
X248684D01*
Y84390D01*
X247884D01*
Y83991D01*
X247483D01*
Y83191D01*
X247884D01*
X239883Y124191D02*
Y123791D01*
X240684D01*
Y124191D01*
X241084D01*
Y124991D01*
X240684D01*
Y125391D01*
X239883D01*
Y124991D01*
X239483D01*
Y124191D01*
X239883D01*
Y116691D02*
Y116291D01*
X240684D01*
Y116691D01*
X241084D01*
Y117491D01*
X240684D01*
Y117891D01*
X239883D01*
Y117491D01*
X239483D01*
Y116691D01*
X239883D01*
Y109191D02*
Y108791D01*
X240684D01*
Y109191D01*
X241084D01*
Y109991D01*
X240684D01*
Y110391D01*
X239883D01*
Y109991D01*
X239483D01*
Y109191D01*
X239883D01*
X224383Y129691D02*
Y129291D01*
X225184D01*
Y129691D01*
X225584D01*
Y130491D01*
X225184D01*
Y130891D01*
X224383D01*
Y130491D01*
X223984D01*
Y129691D01*
X224383D01*
X216883D02*
Y129291D01*
X217684D01*
Y129691D01*
X218084D01*
Y130491D01*
X217684D01*
Y130891D01*
X216883D01*
Y130491D01*
X216483D01*
Y129691D01*
X216883D01*
X209384D02*
Y129291D01*
X210184D01*
Y129691D01*
X210583D01*
Y130491D01*
X210184D01*
Y130891D01*
X209384D01*
Y130491D01*
X208983D01*
Y129691D01*
X209384D01*
X178884Y109191D02*
Y108791D01*
X179683D01*
Y109191D01*
X180084D01*
Y109991D01*
X179683D01*
Y110391D01*
X178884D01*
Y109991D01*
X178483D01*
Y109191D01*
X178884D01*
Y116691D02*
Y116291D01*
X179683D01*
Y116691D01*
X180084D01*
Y117491D01*
X179683D01*
Y117891D01*
X178884D01*
Y117491D01*
X178483D01*
Y116691D01*
X178884D01*
X192884Y109191D02*
Y108791D01*
X193684D01*
Y109191D01*
X194083D01*
Y109991D01*
X193684D01*
Y110391D01*
X192884D01*
Y109991D01*
X192483D01*
Y109191D01*
X192884D01*
Y116691D02*
Y116291D01*
X193684D01*
Y116691D01*
X194083D01*
Y117491D01*
X193684D01*
Y117891D01*
X192884D01*
Y117491D01*
X192483D01*
Y116691D01*
X192884D01*
Y124191D02*
Y123791D01*
X193684D01*
Y124191D01*
X194083D01*
Y124991D01*
X193684D01*
Y125391D01*
X192884D01*
Y124991D01*
X192483D01*
Y124191D01*
X192884D01*
X210384Y134691D02*
Y134291D01*
X211184D01*
Y134691D01*
X211583D01*
Y135491D01*
X211184D01*
Y135891D01*
X210384D01*
Y135491D01*
X209983D01*
Y134691D01*
X210384D01*
X217883D02*
Y134291D01*
X218684D01*
Y134691D01*
X219083D01*
Y135491D01*
X218684D01*
Y135891D01*
X217883D01*
Y135491D01*
X217483D01*
Y134691D01*
X217883D01*
X225383D02*
Y134291D01*
X226184D01*
Y134691D01*
X226584D01*
Y135491D01*
X226184D01*
Y135891D01*
X225383D01*
Y135491D01*
X224984D01*
Y134691D01*
X225383D01*
X199383Y146691D02*
Y146291D01*
X200184D01*
Y146691D01*
X200584D01*
Y147491D01*
X200184D01*
Y147891D01*
X199383D01*
Y147491D01*
X198984D01*
Y146691D01*
X199383D01*
X206884D02*
Y146291D01*
X207683D01*
Y146691D01*
X208084D01*
Y147491D01*
X207683D01*
Y147891D01*
X206884D01*
Y147491D01*
X206484D01*
Y146691D01*
X206884D01*
X214384D02*
Y146291D01*
X215183D01*
Y146691D01*
X215583D01*
Y147491D01*
X215183D01*
Y147891D01*
X214384D01*
Y147491D01*
X213983D01*
Y146691D01*
X214384D01*
X177383D02*
Y146291D01*
X178183D01*
Y146691D01*
X178584D01*
Y147491D01*
X178183D01*
Y147891D01*
X177383D01*
Y147491D01*
X176983D01*
Y146691D01*
X177383D01*
X184883D02*
Y146291D01*
X185684D01*
Y146691D01*
X186083D01*
Y147491D01*
X185684D01*
Y147891D01*
X184883D01*
Y147491D01*
X184484D01*
Y146691D01*
X184883D01*
X192384D02*
Y146291D01*
X193184D01*
Y146691D01*
X193584D01*
Y147491D01*
X193184D01*
Y147891D01*
X192384D01*
Y147491D01*
X191983D01*
Y146691D01*
X192384D01*
X200383Y87691D02*
Y87291D01*
X201184D01*
Y87691D01*
X201584D01*
Y88490D01*
X201184D01*
Y88890D01*
X200383D01*
Y88490D01*
X199984D01*
Y87691D01*
X200383D01*
X207884D02*
Y87291D01*
X208683D01*
Y87691D01*
X209084D01*
Y88490D01*
X208683D01*
Y88890D01*
X207884D01*
Y88490D01*
X207484D01*
Y87691D01*
X207884D01*
X215384D02*
Y87291D01*
X216183D01*
Y87691D01*
X216583D01*
Y88490D01*
X216183D01*
Y88890D01*
X215384D01*
Y88490D01*
X214984D01*
Y87691D01*
X215384D01*
X176383D02*
Y87291D01*
X177183D01*
Y87691D01*
X177584D01*
Y88490D01*
X177183D01*
Y88890D01*
X176383D01*
Y88490D01*
X175984D01*
Y87691D01*
X176383D01*
X183884D02*
Y87291D01*
X184684D01*
Y87691D01*
X185083D01*
Y88490D01*
X184684D01*
Y88890D01*
X183884D01*
Y88490D01*
X183484D01*
Y87691D01*
X183884D01*
X191384D02*
Y87291D01*
X192183D01*
Y87691D01*
X192584D01*
Y88490D01*
X192183D01*
Y88890D01*
X191384D01*
Y88490D01*
X190983D01*
Y87691D01*
X191384D01*
X178969Y124021D02*
Y123620D01*
X179769D01*
Y124021D01*
X180168D01*
Y124820D01*
X179769D01*
Y125221D01*
X178969D01*
Y124820D01*
X178568D01*
Y124021D01*
X178969D01*
X225368Y102120D02*
Y101720D01*
X226168D01*
Y102120D01*
X226569D01*
Y102920D01*
X226168D01*
Y103321D01*
X225368D01*
Y102920D01*
X224969D01*
Y102120D01*
X225368D01*
X217868D02*
Y101720D01*
X218669D01*
Y102120D01*
X219069D01*
Y102920D01*
X218669D01*
Y103321D01*
X217868D01*
Y102920D01*
X217469D01*
Y102120D01*
X217868D01*
X210368D02*
Y101720D01*
X211169D01*
Y102120D01*
X211568D01*
Y102920D01*
X211169D01*
Y103321D01*
X210368D01*
Y102920D01*
X209968D01*
Y102120D01*
X210368D01*
Y23380D02*
Y22980D01*
X211169D01*
Y23380D01*
X211568D01*
Y24180D01*
X211169D01*
Y24580D01*
X210368D01*
Y24180D01*
X209968D01*
Y23380D01*
X210368D01*
X217868D02*
Y22980D01*
X218669D01*
Y23380D01*
X219069D01*
Y24180D01*
X218669D01*
Y24580D01*
X217868D01*
Y24180D01*
X217469D01*
Y23380D01*
X217868D01*
X225368D02*
Y22980D01*
X226168D01*
Y23380D01*
X226569D01*
Y24180D01*
X226168D01*
Y24580D01*
X225368D01*
Y24180D01*
X224969D01*
Y23380D01*
X225368D01*
X178969Y45280D02*
Y44880D01*
X179769D01*
Y45280D01*
X180168D01*
Y46080D01*
X179769D01*
Y46480D01*
X178969D01*
Y46080D01*
X178568D01*
Y45280D01*
X178969D01*
X191384Y8950D02*
Y8550D01*
X192183D01*
Y8950D01*
X192584D01*
Y9750D01*
X192183D01*
Y10150D01*
X191384D01*
Y9750D01*
X190983D01*
Y8950D01*
X191384D01*
X183884D02*
Y8550D01*
X184684D01*
Y8950D01*
X185083D01*
Y9750D01*
X184684D01*
Y10150D01*
X183884D01*
Y9750D01*
X183484D01*
Y8950D01*
X183884D01*
X176383D02*
Y8550D01*
X177183D01*
Y8950D01*
X177584D01*
Y9750D01*
X177183D01*
Y10150D01*
X176383D01*
Y9750D01*
X175984D01*
Y8950D01*
X176383D01*
X215384D02*
Y8550D01*
X216183D01*
Y8950D01*
X216583D01*
Y9750D01*
X216183D01*
Y10150D01*
X215384D01*
Y9750D01*
X214984D01*
Y8950D01*
X215384D01*
X207884D02*
Y8550D01*
X208683D01*
Y8950D01*
X209084D01*
Y9750D01*
X208683D01*
Y10150D01*
X207884D01*
Y9750D01*
X207484D01*
Y8950D01*
X207884D01*
X200383D02*
Y8550D01*
X201184D01*
Y8950D01*
X201584D01*
Y9750D01*
X201184D01*
Y10150D01*
X200383D01*
Y9750D01*
X199984D01*
Y8950D01*
X200383D01*
X192384Y67950D02*
Y67550D01*
X193184D01*
Y67950D01*
X193584D01*
Y68750D01*
X193184D01*
Y69150D01*
X192384D01*
Y68750D01*
X191983D01*
Y67950D01*
X192384D01*
X184883D02*
Y67550D01*
X185684D01*
Y67950D01*
X186083D01*
Y68750D01*
X185684D01*
Y69150D01*
X184883D01*
Y68750D01*
X184484D01*
Y67950D01*
X184883D01*
X177383D02*
Y67550D01*
X178183D01*
Y67950D01*
X178584D01*
Y68750D01*
X178183D01*
Y69150D01*
X177383D01*
Y68750D01*
X176983D01*
Y67950D01*
X177383D01*
X214384D02*
Y67550D01*
X215183D01*
Y67950D01*
X215583D01*
Y68750D01*
X215183D01*
Y69150D01*
X214384D01*
Y68750D01*
X213983D01*
Y67950D01*
X214384D01*
X206884D02*
Y67550D01*
X207683D01*
Y67950D01*
X208084D01*
Y68750D01*
X207683D01*
Y69150D01*
X206884D01*
Y68750D01*
X206484D01*
Y67950D01*
X206884D01*
X199383D02*
Y67550D01*
X200184D01*
Y67950D01*
X200584D01*
Y68750D01*
X200184D01*
Y69150D01*
X199383D01*
Y68750D01*
X198984D01*
Y67950D01*
X199383D01*
X225383Y55950D02*
Y55550D01*
X226184D01*
Y55950D01*
X226584D01*
Y56750D01*
X226184D01*
Y57150D01*
X225383D01*
Y56750D01*
X224984D01*
Y55950D01*
X225383D01*
X217883D02*
Y55550D01*
X218684D01*
Y55950D01*
X219083D01*
Y56750D01*
X218684D01*
Y57150D01*
X217883D01*
Y56750D01*
X217483D01*
Y55950D01*
X217883D01*
X210384D02*
Y55550D01*
X211184D01*
Y55950D01*
X211583D01*
Y56750D01*
X211184D01*
Y57150D01*
X210384D01*
Y56750D01*
X209983D01*
Y55950D01*
X210384D01*
X192884Y45450D02*
Y45050D01*
X193684D01*
Y45450D01*
X194083D01*
Y46250D01*
X193684D01*
Y46650D01*
X192884D01*
Y46250D01*
X192483D01*
Y45450D01*
X192884D01*
Y37950D02*
Y37550D01*
X193684D01*
Y37950D01*
X194083D01*
Y38750D01*
X193684D01*
Y39150D01*
X192884D01*
Y38750D01*
X192483D01*
Y37950D01*
X192884D01*
Y30450D02*
Y30050D01*
X193684D01*
Y30450D01*
X194083D01*
Y31250D01*
X193684D01*
Y31650D01*
X192884D01*
Y31250D01*
X192483D01*
Y30450D01*
X192884D01*
X178884Y37950D02*
Y37550D01*
X179683D01*
Y37950D01*
X180084D01*
Y38750D01*
X179683D01*
Y39150D01*
X178884D01*
Y38750D01*
X178483D01*
Y37950D01*
X178884D01*
Y30450D02*
Y30050D01*
X179683D01*
Y30450D01*
X180084D01*
Y31250D01*
X179683D01*
Y31650D01*
X178884D01*
Y31250D01*
X178483D01*
Y30450D01*
X178884D01*
X209384Y50950D02*
Y50550D01*
X210184D01*
Y50950D01*
X210583D01*
Y51750D01*
X210184D01*
Y52150D01*
X209384D01*
Y51750D01*
X208983D01*
Y50950D01*
X209384D01*
X216883D02*
Y50550D01*
X217684D01*
Y50950D01*
X218084D01*
Y51750D01*
X217684D01*
Y52150D01*
X216883D01*
Y51750D01*
X216483D01*
Y50950D01*
X216883D01*
X224383D02*
Y50550D01*
X225184D01*
Y50950D01*
X225584D01*
Y51750D01*
X225184D01*
Y52150D01*
X224383D01*
Y51750D01*
X223984D01*
Y50950D01*
X224383D01*
X239883Y30450D02*
Y30050D01*
X240684D01*
Y30450D01*
X241084D01*
Y31250D01*
X240684D01*
Y31650D01*
X239883D01*
Y31250D01*
X239483D01*
Y30450D01*
X239883D01*
Y37950D02*
Y37550D01*
X240684D01*
Y37950D01*
X241084D01*
Y38750D01*
X240684D01*
Y39150D01*
X239883D01*
Y38750D01*
X239483D01*
Y37950D01*
X239883D01*
Y45450D02*
Y45050D01*
X240684D01*
Y45450D01*
X241084D01*
Y46250D01*
X240684D01*
Y46650D01*
X239883D01*
Y46250D01*
X239483D01*
Y45450D01*
X239883D01*
X247884Y4450D02*
Y4050D01*
X248684D01*
Y4450D01*
X249083D01*
Y5250D01*
X248684D01*
Y5650D01*
X247884D01*
Y5250D01*
X247483D01*
Y4450D01*
X247884D01*
Y11950D02*
Y11550D01*
X248684D01*
Y11950D01*
X249083D01*
Y12750D01*
X248684D01*
Y13150D01*
X247884D01*
Y12750D01*
X247483D01*
Y11950D01*
X247884D01*
Y19450D02*
Y19050D01*
X248684D01*
Y19450D01*
X249083D01*
Y20250D01*
X248684D01*
Y20650D01*
X247884D01*
Y20250D01*
X247483D01*
Y19450D01*
X247884D01*
Y59450D02*
Y59050D01*
X248684D01*
Y59450D01*
X249083D01*
Y60250D01*
X248684D01*
Y60650D01*
X247884D01*
Y60250D01*
X247483D01*
Y59450D01*
X247884D01*
Y66950D02*
Y66550D01*
X248684D01*
Y66950D01*
X249083D01*
Y67750D01*
X248684D01*
Y68150D01*
X247884D01*
Y67750D01*
X247483D01*
Y66950D01*
X247884D01*
Y74450D02*
Y74050D01*
X248684D01*
Y74450D01*
X249083D01*
Y75250D01*
X248684D01*
Y75650D01*
X247884D01*
Y75250D01*
X247483D01*
Y74450D01*
X247884D01*
X200383Y16950D02*
Y16550D01*
X201184D01*
Y16950D01*
X201584D01*
Y17750D01*
X201184D01*
Y18150D01*
X200383D01*
Y17750D01*
X199984D01*
Y16950D01*
X200383D01*
X192884D02*
Y16550D01*
X193684D01*
Y16950D01*
X194083D01*
Y17750D01*
X193684D01*
Y18150D01*
X192884D01*
Y17750D01*
X192483D01*
Y16950D01*
X192884D01*
X185383D02*
Y16550D01*
X186184D01*
Y16950D01*
X186583D01*
Y17750D01*
X186184D01*
Y18150D01*
X185383D01*
Y17750D01*
X184984D01*
Y16950D01*
X185383D01*
D84*
X-32940Y-152680D02*
X-33493Y-151919D01*
X-34387Y-152210D01*
Y-153151D01*
X-33493Y-153441D01*
X-32940Y-152680D01*
X-42940D02*
X-43493Y-151919D01*
X-44387Y-152210D01*
Y-153151D01*
X-43493Y-153441D01*
X-42940Y-152680D01*
X-52940D02*
X-53493Y-151919D01*
X-54387Y-152210D01*
Y-153151D01*
X-53493Y-153441D01*
X-52940Y-152680D01*
X-62940D02*
X-63493Y-151919D01*
X-64387Y-152210D01*
Y-153151D01*
X-63493Y-153441D01*
X-62940Y-152680D01*
X-72940D02*
X-73493Y-151919D01*
X-74387Y-152210D01*
Y-153151D01*
X-73493Y-153441D01*
X-72940Y-152680D01*
X-82940D02*
X-83493Y-151919D01*
X-84387Y-152210D01*
Y-153151D01*
X-83493Y-153441D01*
X-82940Y-152680D01*
X-92940D02*
X-93493Y-151919D01*
X-94387Y-152210D01*
Y-153151D01*
X-93493Y-153441D01*
X-92940Y-152680D01*
X-102940D02*
X-103493Y-151919D01*
X-104387Y-152210D01*
Y-153151D01*
X-103493Y-153441D01*
X-102940Y-152680D01*
X-112940D02*
X-113493Y-151919D01*
X-114387Y-152210D01*
Y-153151D01*
X-113493Y-153441D01*
X-112940Y-152680D01*
X-122940D02*
X-123493Y-151919D01*
X-124387Y-152210D01*
Y-153151D01*
X-123493Y-153441D01*
X-122940Y-152680D01*
X-132940D02*
X-133493Y-151919D01*
X-134387Y-152210D01*
Y-153151D01*
X-133493Y-153441D01*
X-132940Y-152680D01*
X-22940D02*
X-23493Y-151919D01*
X-24387Y-152210D01*
Y-153151D01*
X-23493Y-153441D01*
X-22940Y-152680D01*
X-32940Y-142680D02*
X-33493Y-141920D01*
X-34387Y-142210D01*
Y-143151D01*
X-33493Y-143441D01*
X-32940Y-142680D01*
X-42940D02*
X-43493Y-141920D01*
X-44387Y-142210D01*
Y-143151D01*
X-43493Y-143441D01*
X-42940Y-142680D01*
X-52940D02*
X-53493Y-141920D01*
X-54387Y-142210D01*
Y-143151D01*
X-53493Y-143441D01*
X-52940Y-142680D01*
X-62940D02*
X-63493Y-141920D01*
X-64387Y-142210D01*
Y-143151D01*
X-63493Y-143441D01*
X-62940Y-142680D01*
X-72940D02*
X-73493Y-141920D01*
X-74387Y-142210D01*
Y-143151D01*
X-73493Y-143441D01*
X-72940Y-142680D01*
X-82940D02*
X-83493Y-141920D01*
X-84387Y-142210D01*
Y-143151D01*
X-83493Y-143441D01*
X-82940Y-142680D01*
X-92940D02*
X-93493Y-141920D01*
X-94387Y-142210D01*
Y-143151D01*
X-93493Y-143441D01*
X-92940Y-142680D01*
X-102940D02*
X-103493Y-141920D01*
X-104387Y-142210D01*
Y-143151D01*
X-103493Y-143441D01*
X-102940Y-142680D01*
X-112940D02*
X-113493Y-141920D01*
X-114387Y-142210D01*
Y-143151D01*
X-113493Y-143441D01*
X-112940Y-142680D01*
X-122940D02*
X-123493Y-141920D01*
X-124387Y-142210D01*
Y-143151D01*
X-123493Y-143441D01*
X-122940Y-142680D01*
X-132940D02*
X-133493Y-141920D01*
X-134387Y-142210D01*
Y-143151D01*
X-133493Y-143441D01*
X-132940Y-142680D01*
X-22940D02*
X-23493Y-141920D01*
X-24387Y-142210D01*
Y-143151D01*
X-23493Y-143441D01*
X-22940Y-142680D01*
X-72940Y-15000D02*
X-73493Y-14239D01*
X-74387Y-14530D01*
Y-15470D01*
X-73493Y-15761D01*
X-72940Y-15000D01*
X-82940D02*
X-83493Y-14239D01*
X-84387Y-14530D01*
Y-15470D01*
X-83493Y-15761D01*
X-82940Y-15000D01*
X-92940D02*
X-93493Y-14239D01*
X-94387Y-14530D01*
Y-15470D01*
X-93493Y-15761D01*
X-92940Y-15000D01*
X-102940D02*
X-103493Y-14239D01*
X-104387Y-14530D01*
Y-15470D01*
X-103493Y-15761D01*
X-102940Y-15000D01*
X-112940D02*
X-113493Y-14239D01*
X-114387Y-14530D01*
Y-15470D01*
X-113493Y-15761D01*
X-112940Y-15000D01*
X-122940D02*
X-123493Y-14239D01*
X-124387Y-14530D01*
Y-15470D01*
X-123493Y-15761D01*
X-122940Y-15000D01*
X-132940D02*
X-133493Y-14239D01*
X-134387Y-14530D01*
Y-15470D01*
X-133493Y-15761D01*
X-132940Y-15000D01*
X-62940D02*
X-63493Y-14239D01*
X-64387Y-14530D01*
Y-15470D01*
X-63493Y-15761D01*
X-62940Y-15000D01*
X-32940Y-5000D02*
X-33493Y-4239D01*
X-34387Y-4530D01*
Y-5470D01*
X-33493Y-5761D01*
X-32940Y-5000D01*
X-42940D02*
X-43493Y-4239D01*
X-44387Y-4530D01*
Y-5470D01*
X-43493Y-5761D01*
X-42940Y-5000D01*
X-52940D02*
X-53493Y-4239D01*
X-54387Y-4530D01*
Y-5470D01*
X-53493Y-5761D01*
X-52940Y-5000D01*
X-62940D02*
X-63493Y-4239D01*
X-64387Y-4530D01*
Y-5470D01*
X-63493Y-5761D01*
X-62940Y-5000D01*
X-72940D02*
X-73493Y-4239D01*
X-74387Y-4530D01*
Y-5470D01*
X-73493Y-5761D01*
X-72940Y-5000D01*
X-82940D02*
X-83493Y-4239D01*
X-84387Y-4530D01*
Y-5470D01*
X-83493Y-5761D01*
X-82940Y-5000D01*
X-92940D02*
X-93493Y-4239D01*
X-94387Y-4530D01*
Y-5470D01*
X-93493Y-5761D01*
X-92940Y-5000D01*
X-102940D02*
X-103493Y-4239D01*
X-104387Y-4530D01*
Y-5470D01*
X-103493Y-5761D01*
X-102940Y-5000D01*
X-112940D02*
X-113493Y-4239D01*
X-114387Y-4530D01*
Y-5470D01*
X-113493Y-5761D01*
X-112940Y-5000D01*
X-122940D02*
X-123493Y-4239D01*
X-124387Y-4530D01*
Y-5470D01*
X-123493Y-5761D01*
X-122940Y-5000D01*
X-132940D02*
X-133493Y-4239D01*
X-134387Y-4530D01*
Y-5470D01*
X-133493Y-5761D01*
X-132940Y-5000D01*
X-22940D02*
X-23493Y-4239D01*
X-24387Y-4530D01*
Y-5470D01*
X-23493Y-5761D01*
X-22940Y-5000D01*
X-9948Y-88740D02*
X-10501Y-87979D01*
X-11395Y-88270D01*
Y-89210D01*
X-10501Y-89501D01*
X-9948Y-88740D01*
Y-98740D02*
X-10501Y-97979D01*
X-11395Y-98270D01*
Y-99210D01*
X-10501Y-99501D01*
X-9948Y-98740D01*
Y-108740D02*
X-10501Y-107979D01*
X-11395Y-108270D01*
Y-109210D01*
X-10501Y-109501D01*
X-9948Y-108740D01*
X-19948Y-88740D02*
X-20501Y-87979D01*
X-21395Y-88270D01*
Y-89210D01*
X-20501Y-89501D01*
X-19948Y-88740D01*
Y-98740D02*
X-20501Y-97979D01*
X-21395Y-98270D01*
Y-99210D01*
X-20501Y-99501D01*
X-19948Y-98740D01*
Y-108740D02*
X-20501Y-107979D01*
X-21395Y-108270D01*
Y-109210D01*
X-20501Y-109501D01*
X-19948Y-108740D01*
X-9948Y-78740D02*
X-10501Y-77979D01*
X-11395Y-78270D01*
Y-79210D01*
X-10501Y-79501D01*
X-9948Y-78740D01*
Y-68740D02*
X-10501Y-67979D01*
X-11395Y-68270D01*
Y-69210D01*
X-10501Y-69501D01*
X-9948Y-68740D01*
Y-58740D02*
X-10501Y-57979D01*
X-11395Y-58270D01*
Y-59210D01*
X-10501Y-59501D01*
X-9948Y-58740D01*
Y-48740D02*
X-10501Y-47979D01*
X-11395Y-48270D01*
Y-49210D01*
X-10501Y-49501D01*
X-9948Y-48740D01*
X-19948Y-78740D02*
X-20501Y-77979D01*
X-21395Y-78270D01*
Y-79210D01*
X-20501Y-79501D01*
X-19948Y-78740D01*
Y-68740D02*
X-20501Y-67979D01*
X-21395Y-68270D01*
Y-69210D01*
X-20501Y-69501D01*
X-19948Y-68740D01*
Y-58740D02*
X-20501Y-57979D01*
X-21395Y-58270D01*
Y-59210D01*
X-20501Y-59501D01*
X-19948Y-58740D01*
Y-48740D02*
X-20501Y-47979D01*
X-21395Y-48270D01*
Y-49210D01*
X-20501Y-49501D01*
X-19948Y-48740D01*
M02*
