M48
;Layer_Color=9474304
;FILE_FORMAT=2:5
INCH,LZ
;TYPE=PLATED
T1F00S00C0.01200
T2F00S00C0.02756
T4F00S00C0.03543
T5F00S00C0.04331
T6F00S00C0.12598
%
T01
X0176784Y-014813
X0184283
X0191783
X0200783
X0208283
X0215784
X0218268Y-01337
X0210769
X0225768
X0240283Y-012663
Y-011913
Y-011163
X0224783Y-010613
X0225783Y-010113
X0218284
X0217284Y-010613
X0209784
X0210784Y-010113
X0207283Y-008913
X0214784
X0199784
X0192783
X0185284
X0177784
X0176784Y-006939
X0184283
X0191783
X0200783
X0208283
X0215784
X0218268Y-005496
X0225768
X0210769
X0200783Y-006139
X0193283
X0185784
X0179283Y-004789
X0193283
X0240283
X0248284Y-005889
Y-006639
Y-007389
Y-008263
Y-009013
Y-009763
Y-013763
Y-014513
Y-015263
X0200783Y-014013
X0193283
X0185784
X0179283Y-012663
Y-011913
X0179368Y-01118
X0193283Y-011163
Y-011913
Y-012663
X-003208Y-011888
X-0041Y-0113
X-0041281Y-0100219
X-0031012Y-0101055
X-0032Y-0098
Y-0095
X-00365Y-00755
X-0035Y-0065
X-004
Y-005
X-0035
X-0032
Y-0055
X-0005Y-00575
Y-0065
X-000398Y-004908
X-007Y-005
X-0075
X-008
X-00855Y-0051
X-009Y-005
Y-0055
Y-006
Y-0065
X-0091Y-00675
Y-0072
Y-0077
X-0088Y-008
X-0082842Y-0085658
Y-0097342
X-0091Y-0094
Y-0101
X-0090953Y-01054
X-00865Y-0108
X-0077Y-0112
X-0076758Y-0119789
X-0077Y-01225
X-0074Y-0122
Y-0119
X-007348Y-013418
X-007152Y-013228
X-007148Y-013628
X-007698Y-013808
X-00865Y-0124
X-0096Y-013
X-01002Y-01301
X-011Y-013
X-012
X-013
Y-0125
Y-0115
X-014
X-015
Y-0125
X-014
X-0138Y-0107
X-013Y-0105
X-012
X-0115
X-011
X-0105Y-01
X-0106Y-0115
X-0103
X-01
X-0101Y-0071
X-0106Y-007
X-011398Y-006908
Y-006408
X-01127Y-00541
X-011898Y-005408
X-012898Y-0054589
X-013898Y-004908
X-014898
X-0145Y-0086
X-0135
Y-0076
X-0079Y-00745
X-0072Y-0067
X-007Y-0065
Y-006
X-0063827Y-0057327
X-0078Y-0058
X-0059Y-0075
X-0055
Y-0078
X-0046315Y-0080185
X-0061Y-0092
X-0062Y-0095
X-00715Y-00905
X-0052Y-0108
X-0048Y-0127
X-0045
X-012646Y-01354
X-0155Y-0099
Y-0086
Y-0076
X-014898Y-003908
Y-002908
X-013898
X-013398Y-002408
X-012398
X-0116Y-0023
X-011398Y-002708
X-011898Y-002908
X-012898
X-013898Y-003908
X-011398Y-004008
X-0109Y-002
Y-0012
X-0099Y-0018
X-0092Y-0021
Y-0024
X-0089
X-0082
X-0074Y-0027
X-0067Y-0028
X-0057
X-005
X-0046
X-0042Y-002
X-0048Y-0015
X-0055
X-004Y-001
X-0035Y-0027
X-0033Y-0032
Y-0037
X-0035Y-004
Y-0045
X-00375Y-00475
X-006398Y-004708
Y-004408
X-005938Y-003658
X-006098Y-003208
X-007698Y-004208
X-008998Y-004308
Y-003708
X-008898Y-003408
Y-003158
X-0089Y-0013
X-001898Y-001908
X-001398Y-002408
X-001Y-003
Y-0035
Y-004
X-0015
X-000398Y-004408
Y-002408
X0179368Y-003306
X0179283Y-004039
X0193283
Y-003289
X0209784Y-002739
X0210784Y-002239
X0218284
X0217284Y-002739
X0224783
X0225783Y-002239
X0214784Y-001039
X0207283
X0199784
X0192783
X0185284
X0177784
X0176784Y000935
X0184283
X0191783
X0200783
X0208283
X0215784
X0218268Y002378
X0210769
X0225768
X0240283Y003085
Y003835
Y004585
X0224783Y005135
X0225783Y005635
X0218284
X0217284Y005135
X0209784
X0210784Y005635
X0207283Y006835
X0214784
X0199784
X0192783
X0185284
X0177784
X0176784Y008809
X0184283
X0191783
X0200783
X0208283
X0215784
X0218268Y0102521
X0225768
X0210769
X0200783Y0096091
X0193283
X0185784
X0179368Y004568
X0179283Y003835
Y003085
X0193283
Y003835
Y004585
Y001735
X0200783
X0185784
X0248284Y001985
Y001235
Y000485
Y-000389
Y-001139
Y-001889
X0240283Y-003289
Y-004039
X0248284Y005985
Y006735
Y007485
Y0083591
Y0091091
Y009859
X0240283Y0109591
Y0117091
Y0124591
X0224783Y0130091
X0225783Y0135091
X0218284
X0217284Y0130091
X0209784
X0210784Y0135091
X0207283Y0147091
X0199784
X0192783
X0185284
X0177784
X0179368Y012442
X0179283Y0117091
Y0109591
X0193283
Y0117091
Y0124591
X0214784Y0147091
X0248284Y0146091
Y0153591
Y0138591
T02
X0234063Y-0127677
X0234063Y-0108583
X0234063Y-0048937
X0234063Y-0029842
X0234063Y0029803
X0234063Y0048898
X0234063Y0108543
X0234063Y0127638
T04
X-013374Y-015268
X-012374
X-011374
X-010374
X-009374
X-008374
X-007374
X-006374
X-005374
X-004374
X-003374
X-002374
Y-014268
X-003374
X-004374
X-005374
X-006374
X-007374
X-008374
X-009374
X-010374
X-011374
X-012374
X-013374
X-0020748Y-010874
X-0010748
Y-009874
Y-008874
X-0020748
Y-009874
Y-007874
X-0010748
Y-006874
Y-005874
Y-004874
X-0020748
Y-005874
Y-006874
X-002374Y-0005
X-003374
X-004374
X-005374
X-006374
Y-0015
X-007374
X-008374
X-009374
X-010374
X-011374
X-012374
X-013374
Y-0005
X-012374
X-011374
X-010374
X-009374
X-008374
X-007374
T05
X-014748Y-00815
X-0119961
T06
X-014848Y-014838
X-000898Y-014848
Y-000908
X-014848Y-000898
M30
