G04 Layer_Color=8388736*
%FSLAX25Y25*%
%MOIN*%
G70*
G01*
G75*
%ADD54C,0.15748*%
%ADD55O,0.03556X0.07887*%
%ADD56R,0.02965X0.02572*%
%ADD57R,0.02572X0.02965*%
%ADD58R,0.04000X0.04800*%
%ADD59R,0.07887X0.06115*%
%ADD60R,0.06706X0.15761*%
%ADD61C,0.04737*%
%ADD62R,0.14973X0.06706*%
%ADD63R,0.14186X0.04737*%
%ADD64O,0.09461X0.03556*%
%ADD65R,0.02768X0.04934*%
%ADD66R,0.04800X0.04000*%
%ADD67R,0.05800X0.04737*%
%ADD68R,0.04737X0.04737*%
%ADD69R,0.05800X0.05800*%
%ADD70R,0.04737X0.03753*%
%ADD71R,0.14579X0.05524*%
%ADD72R,0.14186X0.06706*%
%ADD73R,0.06115X0.07887*%
%ADD74R,0.04737X0.10642*%
G04:AMPARAMS|DCode=75|XSize=48.82mil|YSize=48.82mil|CornerRadius=12.6mil|HoleSize=0mil|Usage=FLASHONLY|Rotation=90.000|XOffset=0mil|YOffset=0mil|HoleType=Round|Shape=RoundedRectangle|*
%AMROUNDEDRECTD75*
21,1,0.04882,0.02362,0,0,90.0*
21,1,0.02362,0.04882,0,0,90.0*
1,1,0.02520,0.01181,0.01181*
1,1,0.02520,0.01181,-0.01181*
1,1,0.02520,-0.01181,-0.01181*
1,1,0.02520,-0.01181,0.01181*
%
%ADD75ROUNDEDRECTD75*%
%ADD76R,0.06457X0.01732*%
%ADD77C,0.19698*%
%ADD78C,0.06706*%
%ADD79R,0.06706X0.06706*%
%ADD80O,0.06706X0.05524*%
%ADD81C,0.05524*%
D54*
X173228Y167323D02*
D03*
X-78760Y-167342D02*
D03*
D55*
X-61590Y-80264D02*
D03*
X-66590D02*
D03*
X-71590D02*
D03*
X-76590D02*
D03*
X-61590Y-100736D02*
D03*
X-66590D02*
D03*
X-71590D02*
D03*
X-76590D02*
D03*
D56*
X-55399Y-81489D02*
D03*
X-55399Y-84835D02*
D03*
X-55500Y-89827D02*
D03*
X-55500Y-93173D02*
D03*
X-87000Y-67173D02*
D03*
X-87000Y-63827D02*
D03*
X-82500Y-67173D02*
D03*
X-82500Y-63827D02*
D03*
X-63500Y-108827D02*
D03*
X-63500Y-112173D02*
D03*
X-68000Y-108827D02*
D03*
X-68000Y-112173D02*
D03*
D57*
X-82327Y-77000D02*
D03*
X-85673Y-77000D02*
D03*
X-77673Y-70500D02*
D03*
X-74327Y-70500D02*
D03*
X-77673Y-108000D02*
D03*
X-74327Y-108000D02*
D03*
X-97673Y-72500D02*
D03*
X-94327Y-72500D02*
D03*
X-94327Y-94500D02*
D03*
X-97673Y-94500D02*
D03*
X-82327Y-72500D02*
D03*
X-85673Y-72500D02*
D03*
X-97673Y-77000D02*
D03*
X-94327Y-77000D02*
D03*
X-82327Y-82500D02*
D03*
X-85673Y-82500D02*
D03*
X-43827Y-112500D02*
D03*
X-47173Y-112500D02*
D03*
X-55173Y-112500D02*
D03*
X-51827Y-112500D02*
D03*
X-71827Y-54500D02*
D03*
X-75173Y-54500D02*
D03*
X-63827Y-54500D02*
D03*
X-67173Y-54500D02*
D03*
X-41173Y-34500D02*
D03*
X-37827Y-34500D02*
D03*
X-41173Y-29500D02*
D03*
X-37827Y-29500D02*
D03*
X-80827Y-54500D02*
D03*
X-84173Y-54500D02*
D03*
X-55327Y-24000D02*
D03*
X-58673Y-24000D02*
D03*
X-36173Y-72500D02*
D03*
X-32827Y-72500D02*
D03*
X-36173Y-68000D02*
D03*
X-32827Y-68000D02*
D03*
X-37827Y-44500D02*
D03*
X-41173Y-44500D02*
D03*
X-50173Y-24000D02*
D03*
X-46827Y-24000D02*
D03*
X-37827Y-39500D02*
D03*
X-41173Y-39500D02*
D03*
X-81327Y-34000D02*
D03*
X-84673Y-34000D02*
D03*
X-80827Y-59000D02*
D03*
X-84173Y-59000D02*
D03*
X-94327Y-108000D02*
D03*
X-97673Y-108000D02*
D03*
X-103327Y-108000D02*
D03*
X-106673Y-108000D02*
D03*
X-94327Y-99000D02*
D03*
X-97673Y-99000D02*
D03*
X-94327Y-103500D02*
D03*
X-97673Y-103500D02*
D03*
D58*
X-62719Y-70500D02*
D03*
X-68281D02*
D03*
X-81219Y-40000D02*
D03*
X-86781D02*
D03*
X-94219Y-66500D02*
D03*
X-99781D02*
D03*
X-102281Y-23500D02*
D03*
X-96719D02*
D03*
X-41281Y-97000D02*
D03*
X-35719D02*
D03*
X-97281Y-89000D02*
D03*
X-91719D02*
D03*
X-97281Y-82500D02*
D03*
X-91719D02*
D03*
D59*
X-93158Y-117000D02*
D03*
X-82842D02*
D03*
X-46158Y-105000D02*
D03*
X-35842D02*
D03*
D60*
X-106512Y-54000D02*
D03*
X-95488D02*
D03*
Y-36500D02*
D03*
X-106512D02*
D03*
D61*
X-46500Y-85500D02*
D03*
X-119961Y-81500D02*
D03*
X-147480D02*
D03*
D62*
X-148264Y-107008D02*
D03*
Y-132992D02*
D03*
X182087Y-26398D02*
D03*
Y-52382D02*
D03*
Y-105138D02*
D03*
Y-131122D02*
D03*
Y131083D02*
D03*
Y105098D02*
D03*
Y52342D02*
D03*
Y26358D02*
D03*
D63*
X-118736Y-116063D02*
D03*
Y-123937D02*
D03*
X211614Y-35453D02*
D03*
Y-43327D02*
D03*
Y-114193D02*
D03*
Y-122067D02*
D03*
Y122028D02*
D03*
Y114154D02*
D03*
Y43287D02*
D03*
Y35413D02*
D03*
D64*
X-70949Y-31500D02*
D03*
Y-36500D02*
D03*
Y-41500D02*
D03*
Y-46500D02*
D03*
X-52051Y-31500D02*
D03*
Y-36500D02*
D03*
Y-41500D02*
D03*
Y-46500D02*
D03*
D65*
X-41740Y-90815D02*
D03*
X-38000D02*
D03*
X-34260D02*
D03*
Y-80185D02*
D03*
X-41740D02*
D03*
D66*
X-36500Y-119281D02*
D03*
Y-113719D02*
D03*
X-36000Y-60781D02*
D03*
Y-55219D02*
D03*
X-102000Y-124781D02*
D03*
Y-119219D02*
D03*
X-88000Y-97719D02*
D03*
Y-103281D02*
D03*
X-45000Y-60781D02*
D03*
Y-55219D02*
D03*
X-42500Y-73781D02*
D03*
Y-68219D02*
D03*
D67*
X-44500Y-122050D02*
D03*
D68*
X-52500Y-125750D02*
D03*
Y-118250D02*
D03*
D69*
X-59776Y-122000D02*
D03*
X-69224Y-118260D02*
D03*
Y-125740D02*
D03*
D70*
X-62413Y-62500D02*
D03*
X-76587D02*
D03*
X-80413Y-126500D02*
D03*
X-94587D02*
D03*
D71*
X-122169Y-44710D02*
D03*
Y-34868D02*
D03*
D72*
X-148744Y-56324D02*
D03*
Y-23254D02*
D03*
D73*
X-53500Y-68158D02*
D03*
Y-57842D02*
D03*
D74*
X-122047Y-68252D02*
D03*
X-124370Y-94748D02*
D03*
X-135591D02*
D03*
X-146811D02*
D03*
X-113937D02*
D03*
X-131299Y-68252D02*
D03*
X-142323D02*
D03*
X-149803D02*
D03*
D75*
X248551Y-43819D02*
D03*
Y-34961D02*
D03*
Y-122559D02*
D03*
Y-113701D02*
D03*
Y113661D02*
D03*
Y122520D02*
D03*
Y34921D02*
D03*
Y43780D02*
D03*
D76*
X232016Y-39390D02*
D03*
Y-41949D02*
D03*
Y-34272D02*
D03*
Y-44508D02*
D03*
Y-36831D02*
D03*
Y-118130D02*
D03*
Y-120689D02*
D03*
Y-113012D02*
D03*
Y-123248D02*
D03*
Y-115571D02*
D03*
Y118091D02*
D03*
Y115532D02*
D03*
Y123209D02*
D03*
Y112972D02*
D03*
Y120650D02*
D03*
Y39350D02*
D03*
Y36791D02*
D03*
Y44469D02*
D03*
Y34232D02*
D03*
Y41909D02*
D03*
D77*
X-148480Y-148380D02*
D03*
Y-8980D02*
D03*
X-8980Y-148480D02*
D03*
Y-9080D02*
D03*
D78*
X-33740Y-152680D02*
D03*
X-43740D02*
D03*
X-53740D02*
D03*
X-63740D02*
D03*
X-73740D02*
D03*
X-83740D02*
D03*
X-93740D02*
D03*
X-103740D02*
D03*
X-113740D02*
D03*
X-123740D02*
D03*
X-133740D02*
D03*
X-33740Y-142680D02*
D03*
X-43740D02*
D03*
X-53740D02*
D03*
X-63740D02*
D03*
X-73740D02*
D03*
X-83740D02*
D03*
X-93740D02*
D03*
X-103740D02*
D03*
X-113740D02*
D03*
X-123740D02*
D03*
X-133740D02*
D03*
X-73740Y-15000D02*
D03*
X-83740D02*
D03*
X-93740D02*
D03*
X-103740D02*
D03*
X-113740D02*
D03*
X-123740D02*
D03*
X-133740D02*
D03*
X-33740Y-5000D02*
D03*
X-43740D02*
D03*
X-53740D02*
D03*
X-63740D02*
D03*
X-73740D02*
D03*
X-83740D02*
D03*
X-93740D02*
D03*
X-103740D02*
D03*
X-113740D02*
D03*
X-123740D02*
D03*
X-133740D02*
D03*
X-10748Y-88740D02*
D03*
Y-98740D02*
D03*
Y-108740D02*
D03*
X-20748Y-88740D02*
D03*
Y-98740D02*
D03*
Y-108740D02*
D03*
X-10748Y-78740D02*
D03*
Y-68740D02*
D03*
Y-58740D02*
D03*
Y-48740D02*
D03*
X-20748Y-78740D02*
D03*
Y-68740D02*
D03*
Y-58740D02*
D03*
Y-48740D02*
D03*
D79*
X-23740Y-152680D02*
D03*
Y-142680D02*
D03*
X-63740Y-15000D02*
D03*
X-23740Y-5000D02*
D03*
D80*
X244614Y-25118D02*
D03*
Y-53661D02*
D03*
Y-103858D02*
D03*
Y-132402D02*
D03*
Y132362D02*
D03*
Y103819D02*
D03*
Y53622D02*
D03*
Y25079D02*
D03*
D81*
X234063Y-48937D02*
D03*
X234063Y-29842D02*
D03*
X234063Y-127677D02*
D03*
X234063Y-108583D02*
D03*
X234063Y108543D02*
D03*
X234063Y127638D02*
D03*
X234063Y29803D02*
D03*
X234063Y48898D02*
D03*
M02*
