<svg xmlns="http://www.w3.org/2000/svg" xmlns:xlink="http://www.w3.org/1999/xlink" height="151.181" width="604.724"><style><![CDATA[.B{stroke-linecap:round}.C{stroke-miterlimit:10}]]></style><defs><clipPath id="A"><path d="M220 110h4550v2460H220z"/></clipPath><path id="B" d="M3392.7 634.18c0 18.9-28.36 18.9-28.36 0s28.36-18.9 28.36 0"/><path id="C" d="M2304.18 295.19h12.77v15.6h-12.77z"/><path id="D" d="M3373.28 504.96c0 4.14-6.25 4.14-6.25 0v-22.11c0-4.18 6.25-4.18 6.25 0v22.11"/><path id="E" d="M3395.94 504.96c0 4.14-6.2 4.14-6.2 0v-22.11c0-4.18 6.2-4.18 6.2 0v22.11"/><path id="F" d="M3498 340.55c0 4.18-6.25 4.18-6.25 0v-22.1c0-4.14 6.25-4.14 6.25 0v22.1"/><path id="G" d="M3475.3 340.55c0 4.18-6.2 4.18-6.2 0v-22.1c0-4.14 6.2-4.14 6.2 0v22.1"/><path id="H" d="M3339.26 477.19c-4.14 0-4.14-6.25 0-6.25h22.1c4.18 0 4.18 6.25 0 6.25h-22.1"/><path id="I" d="M3503.67 352.46c-4.18 0-4.18-6.25 0-6.25h22.1c4.14 0 4.14 6.25 0 6.25h-22.1"/><path id="J" d="M4146.45 407.38c0 11.53-17.3 11.53-17.3 0 0-11.52 17.3-11.52 17.3 0"/><path id="K" d="M3014.14 379.88c0 13.6-20.43 13.6-20.43 0 0-13.6 20.43-13.6 20.43 0"/><path id="L" d="M3823.12 177.23h97.81v28.36h-97.81z"/></defs><g clip-path="url(#A)" transform="matrix(.133333 0 0 -.133333 -30.50779 129.90859)"><g fill="#ffc533" fill-rule="evenodd"><path d="M3157.27 324.57c0 18.9-28.36 18.9-28.36 0 0-18.87 28.36-18.87 28.36 0M2867.1 536.988c0 18.9-28.36 18.9-28.36 0s28.36-18.898 28.36 0M3482.7 645c0 18.87-28.36 18.87-28.36 0 0-18.9 28.36-18.9 28.36 0"/><use xlink:href="#B"/><path d="M3320.7 634.18c0 18.9-28.36 18.9-28.36 0s28.36-18.9 28.36 0m-144.02 0c0 18.9-28.32 18.9-28.32 0s28.32-18.9 28.32 0"/><path d="M3248.7 634.18c0 18.9-28.36 18.9-28.36 0s28.36-18.9 28.36 0"/><use xlink:href="#C"/><path d="M2280.08 295.2h12.77v15.6h-12.77zm969.14 183.6H3262v15.6h-12.77zm24.1 0h12.77v15.6h-12.77zM2874.1 291.602h12.77v15.6h-12.77zm24.1 0h12.77v15.6h-12.77zm-198 0h12.77v15.6h-12.77zm-24.1 0h12.77v15.6h-12.77zm345.58-32.422h12.77v15.6h-12.77zm24.1 0h12.77v15.6h-12.77zm-24.1-28.8h12.77V246h-12.77zm24.1 0h12.77V246h-12.77zm226.8 317.5h12.77v15.6h-12.77zm-24.1 0h12.77v15.6h-12.77zm360-119.5h12.77V444h-12.77zm24.1 0h12.77V444h-12.77zm-24.1-28.82h12.77v15.6h-12.77zm24.1 0h12.77v15.6h-12.77zm-24.1 57.6h12.77v15.6h-12.77zm24.1 0h12.77v15.6h-12.77zM2071.3 259.922h12.77v15.6h-12.77zm24.1 0h12.77v15.6h-12.77zm-24.1-36.024h12.77v15.6h-12.77zm24.1 0h12.77v15.6h-12.77zM3608.48 370.78h12.77v15.6h-12.77zm24.1 0h12.77v15.6h-12.77zm-360 79.92h12.77v15.6h-12.77zm-24.1 0h12.77v15.6h-12.77zM991.3 406.8h12.77v15.6H991.3zm24.1 0h12.77v15.6h-12.77zm2233.08-104.4h12.77v15.6h-12.77zm24.1 0h12.77v15.6h-12.77zm-2281.3 72h12.77v15.6H991.3zm24.1 0h12.77v15.6h-12.77zm1603.08 247.7h12.77v15.6h-12.77zm24.1 0h12.77v15.6h-12.77zm-24.1-31.68h12.77V606h-12.77zm24.1 0h12.77V606h-12.77zM4295 471.602h12.77v15.6H4295zm-24.1 0h12.77v15.6h-12.77zM4130.5 320.4h12.77V336h-12.77zm24.07 0h12.77V336h-12.77zM4295 381.602h12.77v15.6H4295zm-24.1 0h12.77v15.6h-12.77zM3009.77 327.57h12.77v15.6h-12.77zm-24.07 0h12.77v15.6h-12.77zm129.6-68.4h12.77v15.6h-12.77zm24.08 0h12.77v15.6h-12.77zm-96.1 68.4h12.77v15.6h-12.77zm24.1 0h12.77v15.6h-12.77zm47.92-97.18h12.77V246h-12.77zm24.08 0h12.77V246h-12.77zm-974.5 29.532h12.77v15.6h-12.77zm24.1 0h12.77v15.6h-12.77zm-205.18 211.68h12.77v15.6h-12.77zm-24.1 0h12.77v15.6h-12.77zm205.18-247.704h12.77v15.6h-12.77zm24.1 0h12.77v15.6h-12.77zm1419.5 265.672h12.77v15.6h-12.77zm24.1 0h12.77v15.6h-12.77zm-384.1-154.07h12.77v15.6h-12.77zm24.1 0h12.77v15.6h-12.77zm360 2.9h12.77V354h-12.77zm-24.1 0h12.77V354h-12.77zm-360 79.93h12.77v15.6h-12.77zm24.1 0h12.77v15.6h-12.77zM1092.1 406.8h12.77v15.6h-12.77zm24.07 0h12.77v15.6h-12.77zm2132.3 101.53h12.77v15.6h-12.77zm24.1 0h12.77v15.6h-12.77zM849.77 475.2h12.77v15.6h-12.77zm-24.07 0h12.77v15.6H825.7zm266.4-100.82h12.77v15.6h-12.77zm24.07 0h12.77v15.6h-12.77z"/><use xlink:href="#D"/><path d="M3384.6 504.96c0 4.14-6.25 4.14-6.25 0v-22.11c0-4.18 6.25-4.18 6.25 0v22.11"/><use xlink:href="#E"/><path d="M3407.3 504.96c0 4.14-6.25 4.14-6.25 0v-22.1c0-4.18 6.25-4.18 6.25 0v22.1m11.33 0c0 4.14-6.25 4.14-6.25 0v-22.1c0-4.18 6.25-4.18 6.25 0v22.1m11.33 0c0 4.14-6.2 4.14-6.2 0v-22.1c0-4.18 6.2-4.18 6.2 0v22.1m11.34 0c0 4.14-6.2 4.14-6.2 0v-22.1c0-4.18 6.2-4.18 6.2 0v22.1m11.36 0c0 4.14-6.25 4.14-6.25 0v-22.1c0-4.18 6.25-4.18 6.25 0v22.1m11.32 0c0 4.14-6.25 4.14-6.25 0v-22.1c0-4.18 6.25-4.18 6.25 0v22.1m11.32 0c0 4.14-6.2 4.14-6.2 0v-22.1c0-4.18 6.2-4.18 6.2 0v22.1m11.38 0c0 4.14-6.25 4.14-6.25 0v-22.1c0-4.18 6.25-4.18 6.25 0v22.1m11.32 0c0 4.14-6.25 4.14-6.25 0v-22.1c0-4.18 6.25-4.18 6.25 0v22.1"/><use xlink:href="#F"/><path d="M3486.68 340.55c0 4.18-6.25 4.18-6.25 0v-22.1c0-4.14 6.25-4.14 6.25 0v22.1"/><use xlink:href="#G"/><path d="M3463.98 340.55c0 4.18-6.25 4.18-6.25 0v-22.1c0-4.14 6.25-4.14 6.25 0v22.1m-11.32 0c0 4.18-6.25 4.18-6.25 0v-22.1c0-4.14 6.25-4.14 6.25 0v22.1m-11.36 0c0 4.18-6.2 4.18-6.2 0v-22.1c0-4.14 6.2-4.14 6.2 0v22.1m-11.34 0c0 4.18-6.2 4.18-6.2 0v-22.1c0-4.14 6.2-4.14 6.2 0v22.1m-11.33 0c0 4.18-6.25 4.18-6.25 0v-22.1c0-4.14 6.25-4.14 6.25 0v22.1m-11.33 0c0 4.18-6.25 4.18-6.25 0v-22.1c0-4.14 6.25-4.14 6.25 0v22.1m-11.36 0c0 4.18-6.2 4.18-6.2 0v-22.1c0-4.14 6.2-4.14 6.2 0v22.1m-11.34 0c0 4.18-6.25 4.18-6.25 0v-22.1c0-4.14 6.25-4.14 6.25 0v22.1m-11.32 0c0 4.18-6.25 4.18-6.25 0v-22.1c0-4.14 6.25-4.14 6.25 0v22.1"/><use xlink:href="#H"/><path d="M3339.26 465.86c-4.14 0-4.14-6.25 0-6.25h22.1c4.18 0 4.18 6.25 0 6.25h-22.1m0-11.372c-4.14 0-4.14-6.207 0-6.207h22.1c4.18 0 4.18 6.207 0 6.207h-22.1m0-11.328c-4.14 0-4.14-6.25 0-6.25h22.1c4.18 0 4.18 6.25 0 6.25h-22.1m0-11.32c-4.14 0-4.14-6.25 0-6.25h22.1c4.18 0 4.18 6.25 0 6.25h-22.1m0-11.37c-4.14 0-4.14-6.207 0-6.207h22.1c4.18 0 4.18 6.207 0 6.207h-22.1m0-11.33c-4.14 0-4.14-6.2 0-6.2h22.1c4.18 0 4.18 6.2 0 6.2h-22.1m0-11.33c-4.14 0-4.14-6.25 0-6.25h22.1c4.18 0 4.18 6.25 0 6.25h-22.1m0-11.33c-4.14 0-4.14-6.25 0-6.25h22.1c4.18 0 4.18 6.25 0 6.25h-22.1m0-11.36c-4.14 0-4.14-6.2 0-6.2h22.1c4.18 0 4.18 6.2 0 6.2h-22.1m0-11.33c-4.14 0-4.14-6.25 0-6.25h22.1c4.18 0 4.18 6.25 0 6.25h-22.1m0-11.33c-4.14 0-4.14-6.25 0-6.25h22.1c4.18 0 4.18 6.25 0 6.25h-22.1"/><use xlink:href="#I"/><path d="M3503.67 363.8c-4.18 0-4.18-6.25 0-6.25h22.1c4.14 0 4.14 6.25 0 6.25h-22.1m0 11.33c-4.18 0-4.18-6.2 0-6.2h22.1c4.14 0 4.14 6.2 0 6.2h-22.1m0 11.36c-4.18 0-4.18-6.25 0-6.25h22.1c4.14 0 4.14 6.25 0 6.25h-22.1m0 11.33c-4.18 0-4.18-6.25 0-6.25h22.1c4.14 0 4.14 6.25 0 6.25h-22.1m0 11.33c-4.18 0-4.18-6.2 0-6.2h22.1c4.14 0 4.14 6.2 0 6.2h-22.1m0 11.33c-4.18 0-4.18-6.207 0-6.207h22.1c4.14 0 4.14 6.207 0 6.207h-22.1m0 11.37c-4.18 0-4.18-6.25 0-6.25h22.1c4.14 0 4.14 6.25 0 6.25h-22.1m0 11.32c-4.18 0-4.18-6.25 0-6.25h22.1c4.14 0 4.14 6.25 0 6.25h-22.1m0 11.328c-4.18 0-4.18-6.207 0-6.207h22.1c4.14 0 4.14 6.207 0 6.207h-22.1m0 11.372c-4.18 0-4.18-6.25 0-6.25h22.1c4.14 0 4.14 6.25 0 6.25h-22.1m0 11.33c-4.18 0-4.18-6.25 0-6.25h22.1c4.14 0 4.14 6.25 0 6.25h-22.1M3373 352.2h119.06v119.06H3373zm208.88 212.2h39.7v34.02h-39.7zm-72 0h39.7v34.02h-39.7zm0 62.382h39.7v34.02h-39.7zm72 0h39.7v34.02h-39.7zM2742.46 518.36h15.6v41.1h-15.6zm-26.96 0h15.6v41.1h-15.6zm-26.9 0h15.6v41.1h-15.6zm0 60.94h15.6v41.1h-15.6zm26.9 0h15.6v41.1h-15.6zm26.96 0h15.6v41.1h-15.6zm-577.73-251.52h15.6v12.77h-15.6zm0 24.06h15.6v12.77h-15.6zm626.4 238.7h15.6v12.77h-15.6zm0 24.098h15.6v12.773h-15.6zm0-85.268h15.6v12.77h-15.6zm0 24.06h15.6v12.77h-15.6zm1508.4-115.2h15.6v12.77h-15.6zm0-24.1h15.6v12.77h-15.6zm-32.43 24.1h15.6v12.77h-15.6zm0-24.1h15.6v12.77h-15.6zm-892.76 148.32h15.6v12.77h-15.6zm0 24.1h15.6v12.77h-15.6zm-28.84-24.1h15.6v12.77h-15.6zm0 24.1h15.6v12.77h-15.6zm-28.78-24.1h15.6v12.77h-15.6zm0 24.1h15.6v12.77h-15.6zm144.02-24.1h15.6v12.77h-15.6zm0 24.1h15.6v12.77h-15.6zm838.8-238.32h15.6v12.77h-15.6zm0-24.1h15.6v12.77h-15.6zm-644.4 284.42h15.6v12.773h-15.6zm0 24.1h15.6v12.77h-15.6zm611.98-284.4h15.6v12.77h-15.6zm0-24.1h15.6v12.77h-15.6zm-1187.96-65.9h15.6v12.77h-15.6zm0-24.1h15.6v12.77h-15.6zm-1044.02 21.212h15.6v12.77h-15.6zm0-24.062h15.6v12.77h-15.6zm93.58 24.062h15.6v12.77h-15.6zm0-24.062h15.6v12.77h-15.6zm1252.82-7.22h15.6v12.77h-15.6zm0 24.102h15.6v12.77h-15.6zm28.78 314.288h15.6v12.77h-15.6zm0 24.1h15.6v12.77h-15.6zm32.43-362.5h15.6v12.77h-15.6zm0 24.102h15.6v12.77h-15.6zm61.17-24.102h15.6v12.77h-15.6zm0 24.102h15.6v12.77h-15.6zm-28.78-24.102h15.6v12.77h-15.6zm0 24.102h15.6v12.77h-15.6zm-61.22-24.102h15.6v12.77h-15.6zm0 24.102h15.6v12.77h-15.6zM951.52 398.64h15.6v12.77h-15.6zm0-24.07h15.6v12.77h-15.6zm97.18 31.3h15.6v12.77h-15.6zm0-24.098h15.6v12.77h-15.6zm3132.75 25.618c0 .94-1.4.94-1.4 0 0-.93 1.4-.93 1.4 0m-1133.87 0c0 .94-1.4.94-1.4 0 0-.93 1.4-.93 1.4 0m-1100.7 0c0 .94-1.45.94-1.45 0 0-.93 1.45-.93 1.45 0m-1133.868 0c0 .94-1.453.94-1.453 0 0-.93 1.453-.93 1.453 0"/><use xlink:href="#J"/><path d="M3012.58 407.38c0 11.53-17.3 11.53-17.3 0 0-11.52 17.3-11.52 17.3 0m-1014.8 0c0 11.53-17.3 11.53-17.3 0 0-11.52 17.3-11.52 17.3 0m-1133.87 0c0 11.53-17.308 11.53-17.308 0 0-11.52 17.308-11.52 17.308 0m3284.07-27.5c0 13.6-20.4 13.6-20.4 0s20.4-13.6 20.4 0m0 55c0 13.6-20.4 13.6-20.4 0s20.4-13.6 20.4 0"/><use xlink:href="#K"/><path d="M3014.14 434.88c0 13.6-20.43 13.6-20.43 0s20.43-13.6 20.43 0m-1014.8 0c0 13.6-20.43 13.6-20.43 0s20.43-13.6 20.43 0m0-55c0 13.6-20.43 13.6-20.43 0s20.43-13.6 20.43 0m-1133.87 55c0 13.6-20.43 13.6-20.43 0s20.43-13.6 20.43 0"/><path d="M865.47 379.88c0 13.6-20.43 13.6-20.43 0s20.43-13.6 20.43 0m3357.63-1.4c0 10.58-15.86 10.58-15.86 0 0-10.6 15.86-10.6 15.86 0m0 57.8c0 10.6-15.86 10.6-15.86 0s15.86-10.6 15.86 0m-1133.84-57.8c0 10.58-15.9 10.58-15.9 0 0-10.6 15.9-10.6 15.9 0"/><path d="M3089.26 436.3c0 10.6-15.9 10.6-15.9 0s15.9-10.6 15.9 0m-1169.6 0c0 10.6-15.86 10.6-15.86 0s15.86-10.6 15.86 0m0-57.8c0 10.58-15.86 10.58-15.86 0 0-10.6 15.86-10.6 15.86 0M785.82 436.3c0 10.6-15.898 10.6-15.898 0s15.898-10.6 15.898 0"/><path d="M785.82 378.48c0 10.58-15.898 10.58-15.898 0 0-10.6 15.898-10.6 15.898 0m3341.06 95.23h17.582v11.328h-17.582zm-1121.92-180h17.578v11.328h-17.578zm1144.6 180h14.18v11.328h-14.18z"/><path d="M2985.7 293.7h14.18v11.328h-14.18zm-977.26-62.42h11.328v14.18h-11.328zM921.25 374.57h11.328v14.18H921.25zm1087.2-124.03h11.328v17.582h-11.328zM921.25 393.832h11.328V411.4H921.25zM3239.4 367.77h23.05v28.8h-23.05zm-40.02 0h23.05v28.8h-23.05zm926.48-166.7h51.02v38.28h-51.02zm74.3 0h51.02v38.28h-51.02zm-1160.04 380h28.8v23.05h-28.8zm0 40.05h28.8v23.05h-28.8zm53.98-40.05h28.8v23.05h-28.8zm0 40.05h28.8v23.05h-28.8z"/><use xlink:href="#L"/><path d="M3963.44 177.23h97.8v28.36h-97.8zm-140.32 72h97.8v28.363h-97.8zm140.32 0h97.8v28.363h-97.8zm-140.32 72h97.8v28.36h-97.8zm140.32 0h97.8v28.36h-97.8zm0 216.02h97.8v28.36h-97.8zm-140.32 0h97.8v28.36h-97.8zm140.32-72.04h97.8v28.36h-97.8zm-140.32 0h97.8v28.36h-97.8zm140.32-72h97.8v28.36h-97.8zm-140.32 0h97.8v28.36h-97.8zm140.32 216.02h97.8v28.36h-97.8zm-140.32 0h97.8v28.36h-97.8zM2077 335.082h45.352v42.5H2077zm595.27 0h45.352v42.5h-45.352zm198.43 0h45.352v42.5H2870.7zm-595.27 0h45.352v42.5h-45.352zM2077 435.738h45.352v39.7H2077zm595.27 0h45.352v39.7h-45.352zm198.43 0h45.352v39.7H2870.7zm-595.27 0h45.352v39.7h-45.352z"/></g><g fill="none" stroke="#000" class="B C"><g stroke-width="3.6"><path d="M4522.7 400.2l.58 7.18m-2.42-14.18l1.84 7m-4.8-13.558l2.97 6.558m-7-12.54l4.02 5.98m-9.02-11.172l5 5.19m-10.82-9.488l5.82 4.297m-12.23-7.54l6.4 3.242m-13.32-5.352l6.9 2.1m-14.06-3.05l7.15.94m-14.34-.62l7.2-.32m-14.26 1.84l7.07-1.52m-13.75 4.21l6.68-2.69m-12.85 6.48l6.17-3.79m-11.56 8.56l5.4-4.77m-9.92 10.352l4.53-5.582m-8.05 11.9l3.52-6.328m-5.94 13.13l2.42-6.8m-3.63 13.9l1.2-7.11m-1.2 14.3v-7.19m1.2 14.3l-1.2-7.1m3.63 13.9l-2.42-6.79m5.94 13.12l-3.52-6.332m8.05 11.922l-4.53-5.6m9.92 10.348l-5.4-4.758m11.56 8.55l-6.17-3.793m12.85 6.492l-6.68-2.7m13.75 4.218l-7.07-1.52m14.26 1.79l-7.2-.27m14.34-.62l-7.15.89m14.06-3l-6.9 2.11m13.32-5.36l-6.4 3.25m12.23-7.54l-5.82 4.29m10.82-9.488l-5 5.2m9.02-11.18l-4.02 5.98m7-12.543l-2.97 6.562m4.8-13.55l-1.84 6.99m2.42-14.18l-.58 7.19"/><path d="M370.55 180.62v453.52m56.68 56.718h4138.6m56.68-510.238v453.52M427.23 123.9h4138.6M371.02 641.56l-.47-7.418m1.9 14.687l-1.44-7.27m3.82 14.3l-2.38-7.03m5.66 13.672l-3.28-6.64m7.4 12.813l-4.11-6.172m9.027 11.762l-4.918-5.6m10.47 10.47l-5.55-4.88m11.723 8.976l-6.172-4.097m12.852 7.38l-6.68-3.282m13.668 5.672l-6.988-2.4m14.29 3.832l-7.3-1.442m14.69 1.95l-7.4-.507M4622.03 173.2l.47 7.422m-1.9-14.68l1.44 7.258m-3.83-14.29l2.4 7.03m-5.67-13.67l3.28 6.64m-7.42-12.82l4.14 6.18m-9.02-11.758l4.88 5.578m-10.47-10.47l5.6 4.89m-11.76-8.992l6.17 4.1m-12.8-7.383l6.64 3.282m-13.67-5.66l7.03 2.38m-14.3-3.828l7.27 1.45m-14.65-1.95l7.38.5m0 565.942l-7.38.507m14.65-1.95l-7.27 1.442m14.3-3.832l-7.03 2.4m13.67-5.672l-6.64 3.282m12.8-7.38l-6.17 4.097m11.76-8.976l-5.6 4.88m10.47-10.47l-4.88 5.6m9.02-11.762l-4.14 6.172m7.42-12.813l-3.28 6.64m5.67-13.672l-2.4 7.03m3.83-14.3l-1.44 7.27m1.9-14.687l-.47 7.418M419.84 124.4l7.4-.5m-14.69 1.95l7.3-1.45m-14.29 3.828l6.988-2.38m-13.668 5.66l6.68-3.282M392.7 135.62l6.172-4.1m-11.723 8.992l5.55-4.89m-10.47 10.47l4.918-5.578m-9.027 11.758l4.11-6.18m-7.4 12.82l3.28-6.64m-5.66 13.67l2.38-7.03m-3.82 14.29l1.44-7.258m-1.9 14.68l.47-7.422"/><path d="M2071.33 432.9H2128m-56.68-51.012V432.9m0-51.012H2128m0 0V432.9m538.6 0h56.68m-56.68-51.012V432.9m0-51.012h56.68m0 0V432.9m141.76 0h56.68m-56.68-51.012V432.9m0-51.012h56.68m0 0V432.9m-595.27-51v51.012m-56.68-51.012h56.68m-56.68 0v51.012m0 0h56.68"/></g><path d="M2538.44 400.2l.58 7.18m-2.42-14.18l1.84 7m-4.8-13.558l2.97 6.558m-7-12.54l4.02 5.98m-9.02-11.172l5 5.19m-10.78-9.488l5.78 4.297m-12.23-7.54l6.45 3.242m-13.36-5.352l6.9 2.1m-14.06-3.05l7.15.94m-14.34-.62l7.2-.32m-14.26 1.84l7.07-1.52m-13.75 4.21l6.68-2.69m-12.8 6.48l6.13-3.79m-11.56 8.56l5.43-4.77m-9.96 10.352l4.53-5.582m-8.05 11.9l3.52-6.328m-5.94 13.13l2.42-6.8m-3.63 13.9l1.2-7.11m-1.2 14.3v-7.19m1.2 14.3l-1.2-7.1m3.63 13.9l-2.42-6.79m5.94 13.12l-3.52-6.332m8.05 11.922l-4.53-5.6m9.96 10.348l-5.43-4.758m11.56 8.55l-6.13-3.793m12.8 6.492l-6.68-2.7m13.75 4.218l-7.07-1.52m14.26 1.79l-7.2-.27m14.34-.62l-7.15.89m14.06-3l-6.9 2.11m13.36-5.36l-6.45 3.25m12.23-7.54l-5.78 4.29m10.78-9.488l-5 5.2m9.02-11.18l-4.02 5.98m7-12.543l-2.97 6.562m4.8-13.55l-1.84 6.99m2.42-14.18l-.58 7.19" stroke-width="5.666"/><g stroke-width="2.837"><path d="M4204.92 401.02l2.3 6.36m-8.2-9.758l5.9 3.4m-12.58-2.23l6.68-1.168m-11.05 6.36l4.37-5.2m-4.37 11.992v-6.8m4.37 12l-4.37-5.2m11.05 6.367l-6.68-1.168m12.58-2.23l-5.9 3.398m8.2-9.77l-2.3 6.37M3071.05 401.02l2.3 6.36m-8.2-9.758l5.9 3.4m-12.57-2.23l6.68-1.168m-11.02 6.36l4.34-5.2m-4.34 11.992v-6.8m4.34 12l-4.34-5.2m11.02 6.367l-6.68-1.168m12.57-2.23l-5.9 3.398m8.2-9.77l-2.3 6.37M1937.2 401.02l2.34 6.36m-8.2-9.758l5.86 3.4m-12.54-2.23l6.68-1.168m-11.06 6.36l4.38-5.2m-4.38 11.992v-6.8m4.38 12l-4.38-5.2m11.06 6.367l-6.68-1.168m12.54-2.23l-5.86 3.398m8.2-9.77l-2.34 6.37M803.32 401.02l2.34 6.36m-8.2-9.758l5.86 3.4m-12.54-2.23l6.68-1.168m-11.05 6.36l4.37-5.2m-4.37 11.992v-6.8m4.37 12l-4.37-5.2m11.05 6.367l-6.68-1.168m12.54-2.23l-5.86 3.398m8.2-9.77l-2.34 6.37"/></g><path d="M554.18 400.19l.62 7.2m-2.46-14.18l1.84 7m-4.8-13.56l2.96 6.57m-6.988-12.54l4.027 5.97m-9.027-11.168l5 5.198m-10.782-9.5l5.782 4.3m-12.23-7.543l6.45 3.242m-13.36-5.352l6.9 2.1m-14.062-3.04l7.152.93m-14.332-.62l7.18-.308M499.8 366.71l7.078-1.524M493.12 369.4l6.68-2.7m-12.813 6.488l6.133-3.79m-11.562 8.55l5.43-4.76m-9.957 10.35l4.528-5.6m-8.04 11.88l3.51-6.3m-5.902 13.08l2.39-6.8m-3.64 13.9l1.25-7.1m-1.25 14.34v-7.23m1.25 14.34l-1.25-7.1m3.64 13.9l-2.39-6.8m5.902 13.08l-3.51-6.28m8.04 11.9l-4.528-5.63m9.957 10.4l-5.43-4.77m11.562 8.55l-6.133-3.78m12.813 6.48l-6.68-2.7m13.758 4.18l-7.078-1.48m14.258 1.8l-7.18-.32m14.332-.58l-7.152.9m14.062-3l-6.9 2.1m13.36-5.35l-6.45 3.24m12.23-7.54l-5.782 4.3m10.782-9.53l-5 5.23m9.027-11.2l-4.027 5.98m6.988-12.54l-2.96 6.56m4.8-13.52l-1.84 6.96m2.46-14.14l-.62 7.18" stroke-width="3.6"/></g></g></svg>